<?xml version="1.0" encoding="UTF-8" standalone="no"?>
<svg
   xmlns:dc="http://purl.org/dc/elements/1.1/"
   xmlns:cc="http://creativecommons.org/ns#"
   xmlns:rdf="http://www.w3.org/1999/02/22-rdf-syntax-ns#"
   xmlns:svg="http://www.w3.org/2000/svg"
   xmlns="http://www.w3.org/2000/svg"
   viewBox="0 0 1122.52 793.70667"
   height="793.70667"
   width="1122.52"
   xml:space="preserve"
   id="svg2"
   version="1.1"><metadata
     id="metadata8"><rdf:RDF><cc:Work
         rdf:about=""><dc:format>image/svg+xml</dc:format><dc:type
           rdf:resource="http://purl.org/dc/dcmitype/StillImage" /></cc:Work></rdf:RDF></metadata><defs
     id="defs6"><clipPath
       id="clipPath18"
       clipPathUnits="userSpaceOnUse"><path
         id="path16"
         d="M 0,595.28 H 841.89 V 0 H 0 Z" /></clipPath></defs><g
     transform="matrix(1.3333333,0,0,-1.3333333,0,793.70667)"
     id="g10"><g
       id="g12"><g
         clip-path="url(#clipPath18)"
         id="g14"><g
           transform="translate(372.0176,358.1851)"
           id="g20"><path
             id="path22"
             style="fill:#36a8d3;fill-opacity:1;fill-rule:nonzero;stroke:none"
             d="m 0,0 c 1.899,-1.898 4.978,-1.898 6.876,0 1.899,1.898 1.899,4.978 0,6.876 C 4.978,8.775 1.899,8.775 0,6.876 -1.898,4.978 -1.898,1.898 0,0" /></g><g
           transform="translate(363.4297,344.9087)"
           id="g24"><path
             id="path26"
             style="fill:#36a8d3;fill-opacity:1;fill-rule:nonzero;stroke:none"
             d="M 0,0 C 2.326,-1.343 5.301,-0.546 6.643,1.779 7.985,4.105 7.188,7.079 4.864,8.422 2.538,9.765 -0.437,8.968 -1.779,6.643 -3.122,4.316 -2.325,1.343 0,0" /></g><g
           transform="translate(358.5728,329.8628)"
           id="g28"><path
             id="path30"
             style="fill:#36a8d3;fill-opacity:1;fill-rule:nonzero;stroke:none"
             d="M 0,0 C 2.593,-0.695 5.259,0.845 5.954,3.438 6.649,6.031 5.11,8.698 2.516,9.393 -0.077,10.088 -2.744,8.549 -3.439,5.955 -4.134,3.36 -2.595,0.694 0,0" /></g><g
           transform="translate(357.7725,314.0713)"
           id="g32"><path
             id="path34"
             style="fill:#36a8d3;fill-opacity:1;fill-rule:nonzero;stroke:none"
             d="M 0,0 C 2.686,0 4.863,2.177 4.863,4.862 4.863,7.548 2.686,9.725 0,9.725 -2.685,9.725 -4.861,7.548 -4.861,4.862 -4.861,2.177 -2.685,0 0,0" /></g><g
           transform="translate(361.0889,298.6118)"
           id="g36"><path
             id="path38"
             style="fill:#36a8d3;fill-opacity:1;fill-rule:nonzero;stroke:none"
             d="M 0,0 C 2.594,0.695 4.133,3.361 3.438,5.955 2.743,8.548 0.077,10.088 -2.516,9.393 -5.111,8.698 -6.65,6.031 -5.955,3.438 -5.26,0.845 -2.593,-0.695 0,0" /></g><g
           transform="translate(368.2925,284.5381)"
           id="g40"><path
             id="path42"
             style="fill:#36a8d3;fill-opacity:1;fill-rule:nonzero;stroke:none"
             d="M 0,0 C 2.326,1.342 3.123,4.314 1.78,6.641 0.438,8.967 -2.537,9.764 -4.861,8.42 -7.188,7.078 -7.985,4.104 -6.642,1.777 -5.299,-0.547 -2.325,-1.344 0,0" /></g><g
           transform="translate(378.894,272.8057)"
           id="g44"><path
             id="path46"
             style="fill:#36a8d3;fill-opacity:1;fill-rule:nonzero;stroke:none"
             d="m 0,0 c 1.9,1.898 1.9,4.979 0,6.877 -1.899,1.898 -4.977,1.898 -6.875,0 C -8.774,4.979 -8.774,1.898 -6.875,0 -4.977,-1.898 -1.899,-1.898 0,0" /></g><g
           transform="translate(392.1694,264.2178)"
           id="g48"><path
             id="path50"
             style="fill:#36a8d3;fill-opacity:1;fill-rule:nonzero;stroke:none"
             d="M 0,0 C 1.344,2.326 0.546,5.301 -1.779,6.643 -4.104,7.986 -7.076,7.189 -8.421,4.863 -9.764,2.537 -8.966,-0.436 -6.641,-1.779 -4.315,-3.121 -1.341,-2.324 0,0" /></g><g
           transform="translate(407.2173,259.3604)"
           id="g52"><path
             id="path54"
             style="fill:#36a8d3;fill-opacity:1;fill-rule:nonzero;stroke:none"
             d="M 0,0 C 0.694,2.592 -0.845,5.26 -3.438,5.955 -6.032,6.648 -8.699,5.111 -9.393,2.518 -10.088,-0.076 -8.549,-2.742 -5.956,-3.438 -3.361,-4.135 -0.697,-2.594 0,0" /></g><g
           transform="translate(423.0098,258.5615)"
           id="g56"><path
             id="path58"
             style="fill:#36a8d3;fill-opacity:1;fill-rule:nonzero;stroke:none"
             d="m 0,0 c 0,2.686 -2.179,4.861 -4.863,4.861 -2.686,0 -4.863,-2.175 -4.863,-4.861 0,-2.686 2.177,-4.863 4.863,-4.861 C -2.179,-4.863 0,-2.686 0,0" /></g><g
           transform="translate(438.4688,261.8779)"
           id="g60"><path
             id="path62"
             style="fill:#36a8d3;fill-opacity:1;fill-rule:nonzero;stroke:none"
             d="M 0,0 C -0.697,2.594 -3.361,4.131 -5.957,3.438 -8.549,2.742 -10.089,0.076 -9.395,-2.518 -8.7,-5.111 -6.032,-6.65 -3.439,-5.955 -0.846,-5.26 0.693,-2.594 0,0" /></g><g
           transform="translate(452.542,269.0811)"
           id="g64"><path
             id="path66"
             style="fill:#36a8d3;fill-opacity:1;fill-rule:nonzero;stroke:none"
             d="m 0,0 c -1.341,2.326 -4.315,3.123 -6.642,1.779 -2.324,-1.341 -3.121,-4.316 -1.779,-6.642 1.344,-2.325 4.317,-3.121 6.643,-1.78 C 0.546,-5.299 1.343,-2.326 0,0" /></g><g
           transform="translate(464.2734,279.6826)"
           id="g68"><path
             id="path70"
             style="fill:#36a8d3;fill-opacity:1;fill-rule:nonzero;stroke:none"
             d="m 0,0 c -1.897,1.898 -4.977,1.898 -6.877,0 -1.897,-1.898 -1.897,-4.979 0,-6.877 1.9,-1.898 4.979,-1.898 6.877,0 1.899,1.898 1.899,4.979 0,6.877" /></g><g
           transform="translate(472.8613,292.958)"
           id="g72"><path
             id="path74"
             style="fill:#36a8d3;fill-opacity:1;fill-rule:nonzero;stroke:none"
             d="M 0,0 C -2.326,1.344 -5.3,0.547 -6.641,-1.779 -7.984,-4.104 -7.188,-7.078 -4.862,-8.42 -2.537,-9.764 0.437,-8.967 1.779,-6.641 3.122,-4.316 2.325,-1.342 0,0" /></g><g
           transform="translate(477.8457,308.4746)"
           id="g76"><path
             id="path78"
             style="fill:#36a8d3;fill-opacity:1;fill-rule:nonzero;stroke:none"
             d="m 0,0 c -2.853,0.765 -5.786,-0.928 -6.551,-3.782 -0.763,-2.853 0.928,-5.786 3.782,-6.55 2.854,-0.765 5.787,0.928 6.551,3.782 C 4.546,-3.697 2.853,-0.764 0,0" /></g><g
           transform="translate(478.5176,325.2554)"
           id="g80"><path
             id="path82"
             style="fill:#36a8d3;fill-opacity:1;fill-rule:nonzero;stroke:none"
             d="m 0,0 c -3.49,0 -6.32,-2.83 -6.32,-6.322 0,-3.49 2.83,-6.32 6.32,-6.32 3.492,0 6.321,2.83 6.32,6.321 C 6.321,-2.83 3.492,0 0,0" /></g><g
           transform="translate(474.4473,342.0747)"
           id="g84"><path
             id="path86"
             style="fill:#36a8d3;fill-opacity:1;fill-rule:nonzero;stroke:none"
             d="m 0,0 c -4.149,-1.112 -6.612,-5.379 -5.501,-9.529 1.112,-4.151 5.378,-6.613 9.527,-5.501 4.151,1.112 6.615,5.379 5.501,9.528 C 8.418,-1.352 4.15,1.111 0,0" /></g><g
           transform="translate(466.0527,356.6997)"
           id="g88"><path
             id="path90"
             style="fill:#36a8d3;fill-opacity:1;fill-rule:nonzero;stroke:none"
             d="m 0,0 c -4.185,-2.417 -5.619,-7.77 -3.201,-11.956 2.415,-4.185 7.767,-5.62 11.953,-3.203 4.187,2.417 5.622,7.769 3.204,11.956 C 9.541,0.982 4.188,2.417 0,0" /></g><g
           transform="translate(453.959,368.4995)"
           id="g92"><path
             id="path94"
             style="fill:#36a8d3;fill-opacity:1;fill-rule:nonzero;stroke:none"
             d="m 0,0 c -3.797,-3.797 -3.797,-9.954 0,-13.752 3.798,-3.797 9.955,-3.798 13.753,0 3.798,3.798 3.798,9.955 0,13.752 C 9.955,3.799 3.799,3.799 0,0" /></g><g
           transform="translate(440.752,375.5942)"
           id="g96"><path
             id="path98"
             style="fill:#36a8d3;fill-opacity:1;fill-rule:nonzero;stroke:none"
             d="m 0,0 c -2.416,-4.186 -0.981,-9.539 3.203,-11.956 4.188,-2.416 9.539,-0.982 11.957,3.203 2.416,4.187 0.982,9.54 -3.203,11.957 C 7.77,5.62 2.418,4.186 0,0" /></g><g
           transform="translate(426.2559,379.2632)"
           id="g100"><path
             id="path102"
             style="fill:#36a8d3;fill-opacity:1;fill-rule:nonzero;stroke:none"
             d="m 0,0 c -1.111,-4.151 1.351,-8.416 5.502,-9.529 4.15,-1.111 8.416,1.351 9.527,5.501 1.113,4.151 -1.35,8.417 -5.5,9.528 C 5.38,6.612 1.112,4.15 0,0" /></g><g
           transform="translate(411.8257,379.3062)"
           id="g104"><path
             id="path106"
             style="fill:#36a8d3;fill-opacity:1;fill-rule:nonzero;stroke:none"
             d="m 0,0 c 0,-3.49 2.83,-6.321 6.319,-6.321 3.491,10e-4 6.32,2.83 6.32,6.321 0,3.491 -2.829,6.321 -6.32,6.32 C 2.829,6.321 0,3.491 0,0" /></g><g
           transform="translate(397.355,375.8647)"
           id="g108"><path
             id="path110"
             style="fill:#36a8d3;fill-opacity:1;fill-rule:nonzero;stroke:none"
             d="m 0,0 c 0.763,-2.854 3.696,-4.547 6.55,-3.782 2.852,0.764 4.546,3.698 3.782,6.551 C 9.567,5.621 6.634,7.315 3.781,6.551 0.928,5.786 -0.766,2.853 0,0" /></g><g
           transform="translate(383.748,368.7866)"
           id="g112"><path
             id="path114"
             style="fill:#36a8d3;fill-opacity:1;fill-rule:nonzero;stroke:none"
             d="M 0,0 C 1.344,-2.326 4.318,-3.122 6.643,-1.779 8.968,-0.437 9.765,2.537 8.421,4.861 7.081,7.188 4.105,7.985 1.781,6.642 -0.545,5.299 -1.342,2.326 0,0" /></g><g
           transform="translate(318.6372,209.6533)"
           id="g116"><path
             id="path118"
             style="fill:#231916;fill-opacity:1;fill-rule:nonzero;stroke:none"
             d="m 0,0 c -6.571,0 -11.453,5.072 -11.453,11.486 v 0.063 c 0,6.349 4.786,11.549 11.644,11.549 4.211,0 6.731,-1.405 8.806,-3.446 L 5.87,16.049 c -1.723,1.562 -3.478,2.519 -5.71,2.519 -3.764,0 -6.477,-3.127 -6.477,-6.955 v -0.064 c 0,-3.828 2.648,-7.018 6.477,-7.018 2.552,0 4.115,1.022 5.87,2.615 L 9.156,3.988 C 6.858,1.533 4.308,0 0,0" /></g><path
           id="path120"
           style="fill:#231916;fill-opacity:1;fill-rule:nonzero;stroke:none"
           d="m 331.94,232.37 h 4.913 v -22.332 h -4.913 z" /><g
           transform="translate(356.0898,224.7451)"
           id="g122"><path
             id="path124"
             style="fill:#231916;fill-opacity:1;fill-rule:nonzero;stroke:none"
             d="m 0,0 c 0,2.104 -1.468,3.189 -3.86,3.189 h -4.882 v -6.412 h 4.978 c 2.392,0 3.764,1.276 3.764,3.159 z m -0.096,-14.707 -4.785,7.144 h -3.861 v -7.144 h -4.912 V 7.625 h 10.209 c 5.262,0 8.422,-2.777 8.422,-7.371 V 0.189 c 0,-3.603 -1.947,-5.869 -4.786,-6.921 l 5.455,-7.975 z" /></g><g
           transform="translate(375.9639,209.6533)"
           id="g126"><path
             id="path128"
             style="fill:#231916;fill-opacity:1;fill-rule:nonzero;stroke:none"
             d="m 0,0 c -6.571,0 -11.453,5.072 -11.453,11.486 v 0.063 c 0,6.349 4.786,11.549 11.644,11.549 4.211,0 6.732,-1.405 8.806,-3.446 L 5.87,16.049 c -1.723,1.562 -3.478,2.519 -5.71,2.519 -3.764,0 -6.476,-3.127 -6.476,-6.955 v -0.064 c 0,-3.828 2.648,-7.018 6.476,-7.018 2.552,0 4.115,1.022 5.868,2.615 L 9.157,3.988 C 6.86,1.533 4.307,0 0,0" /></g><g
           transform="translate(398.3579,209.6865)"
           id="g130"><path
             id="path132"
             style="fill:#231916;fill-opacity:1;fill-rule:nonzero;stroke:none"
             d="m 0,0 c -5.997,0 -9.666,3.35 -9.666,9.92 v 12.764 h 4.915 V 10.049 c 0,-3.637 1.817,-5.52 4.816,-5.52 2.998,0 4.816,1.821 4.816,5.36 V 22.684 H 9.795 V 10.08 C 9.795,3.318 5.998,0 0,0" /></g><g
           transform="translate(413.1616,210.0381)"
           id="g134"><path
             id="path136"
             style="fill:#231916;fill-opacity:1;fill-rule:nonzero;stroke:none"
             d="M 0,0 V 22.332 H 4.913 V 4.467 H 16.045 V 0 Z" /></g><g
           transform="translate(442.7656,226.626)"
           id="g138"><path
             id="path140"
             style="fill:#231916;fill-opacity:1;fill-rule:nonzero;stroke:none"
             d="m 0,0 -2.967,-7.242 h 5.934 z m 6.762,-16.588 -2.041,5.008 h -9.444 l -2.041,-5.008 h -5.008 l 9.569,22.49 h 4.531 l 9.57,-22.49 z" /></g><g
           transform="translate(466.4668,227.8389)"
           id="g142"><path
             id="path144"
             style="fill:#231916;fill-opacity:1;fill-rule:nonzero;stroke:none"
             d="M 0,0 V -17.801 H -4.912 V 0 h -6.794 V 4.531 H 6.797 L 6.797,0 Z" /></g><path
           id="path146"
           style="fill:#231916;fill-opacity:1;fill-rule:nonzero;stroke:none"
           d="m 477.251,232.37 h 4.911 v -22.332 h -4.911 z" /><g
           transform="translate(505.3555,221.2021)"
           id="g148"><path
             id="path150"
             style="fill:#231916;fill-opacity:1;fill-rule:nonzero;stroke:none"
             d="m 0,0 c 0,3.83 -2.807,7.02 -6.764,7.02 -3.955,0 -6.699,-3.127 -6.699,-6.956 V 0 c 0,-3.828 2.809,-7.018 6.764,-7.018 3.957,0 6.699,3.125 6.699,6.955 z m -6.764,-11.549 c -6.89,0 -11.835,5.137 -11.835,11.486 V 0 c 0,6.35 5.009,11.549 11.9,11.549 6.89,0 11.835,-5.137 11.835,-11.485 L 5.136,0 c 0,-6.348 -5.008,-11.549 -11.9,-11.549" /></g><g
           transform="translate(530.5254,210.0381)"
           id="g152"><path
             id="path154"
             style="fill:#231916;fill-opacity:1;fill-rule:nonzero;stroke:none"
             d="M 0,0 -10.814,14.195 V 0 h -4.85 v 22.332 h 4.531 L -0.67,8.58 V 22.332 H 4.18 V 0 Z" /></g></g></g></g></svg>