<?xml version="1.0" encoding="utf-8"?>
<!-- Generator: Adobe Illustrator 15.0.0, SVG Export Plug-In  -->
<!DOCTYPE svg PUBLIC "-//W3C//DTD SVG 1.1//EN" "http://www.w3.org/Graphics/SVG/1.1/DTD/svg11.dtd" [
	<!ENTITY ns_flows "http://ns.adobe.com/Flows/1.0/">
]>
<svg version="1.1"
	 xmlns="http://www.w3.org/2000/svg" xmlns:xlink="http://www.w3.org/1999/xlink" xmlns:a="http://ns.adobe.com/AdobeSVGViewerExtensions/3.0/"
	 x="0px" y="0px" width="300px" height="300px" viewBox="-19.542 -40.818 300 300"
	 overflow="visible" enable-background="new -19.542 -40.818 300 300" xml:space="preserve">
<defs>
</defs>
<circle fill="#35A7D2" cx="79.058" cy="27.796" r="5.631"/>
<circle fill="#35A7D2" cx="67.948" cy="42.275" r="5.631"/>
<circle fill="#35A7D2" cx="60.965" cy="59.136" r="5.63"/>
<circle fill="#35A7D2" cx="58.581" cy="77.23" r="5.631"/>
<circle fill="#35A7D2" cx="60.965" cy="95.325" r="5.63"/>
<circle fill="#35A7D2" cx="67.948" cy="112.186" r="5.629"/>
<circle fill="#35A7D2" cx="79.059" cy="126.665" r="5.63"/>
<circle fill="#35A7D2" cx="93.537" cy="137.776" r="5.631"/>
<circle fill="#35A7D2" cx="110.4" cy="144.759" r="5.631"/>
<path fill="#35A7D2" d="M134.126,147.142c0-3.11-2.522-5.63-5.632-5.63c-3.11,0-5.631,2.52-5.631,5.63
	c0,3.109,2.521,5.632,5.631,5.629C131.604,152.774,134.126,150.251,134.126,147.142z"/>
<circle fill="#35A7D2" cx="146.588" cy="144.759" r="5.631"/>
<circle fill="#35A7D2" cx="163.449" cy="137.776" r="5.63"/>
<circle fill="#35A7D2" cx="177.928" cy="126.665" r="5.631"/>
<circle fill="#35A7D2" cx="189.039" cy="112.186" r="5.63"/>
<circle fill="#35A7D2" cx="196.023" cy="95.324" r="6.193"/>
<circle fill="#35A7D2" cx="198.404" cy="77.23" r="7.32"/>
<path fill="#35A7D2" d="M193.691,50.433c-4.806,1.288-7.657,6.229-6.37,11.035s6.228,7.657,11.032,6.37
	c4.807-1.288,7.659-6.229,6.37-11.034C203.439,51.999,198.497,49.146,193.691,50.433z"/>
<path fill="#35A7D2" d="M183.97,33.498c-4.846,2.799-6.507,8.997-3.707,13.845c2.797,4.846,8.995,6.508,13.842,3.709
	c4.85-2.799,6.511-8.997,3.711-13.845C195.019,32.36,188.819,30.698,183.97,33.498z"/>
<circle fill="#35A7D2" cx="177.929" cy="27.795" r="11.261"/>
<circle fill="#35A7D2" cx="163.45" cy="16.685" r="10.136"/>
<circle fill="#35A7D2" cx="146.587" cy="9.701" r="9.009"/>
<circle fill="#35A7D2" cx="128.493" cy="7.319" r="7.318"/>
<circle fill="#35A7D2" cx="110.4" cy="9.701" r="6.193"/>
<path fill="#35A7D2" d="M88.661,19.5c1.556,2.694,5,3.616,7.692,2.061c2.692-1.555,3.616-4.999,2.06-7.69
	c-1.552-2.695-4.998-3.618-7.689-2.062C88.03,13.365,87.106,16.807,88.661,19.5z"/>
<path d="M13.262,203.778C5.652,203.778,0,197.904,0,190.477v-0.073c0-7.353,5.541-13.373,13.484-13.373
	c4.876,0,7.794,1.626,10.196,3.989l-3.621,4.173c-1.995-1.809-4.027-2.917-6.612-2.917c-4.359,0-7.5,3.621-7.5,8.054v0.074
	c0,4.434,3.066,8.127,7.5,8.127c2.955,0,4.765-1.183,6.797-3.028l3.621,3.657C21.204,202.002,18.25,203.778,13.262,203.778z"/>
<path d="M28.667,203.333v-25.861h5.688v25.861H28.667z"/>
<path d="M56.521,203.333l-5.542-8.273h-4.47v8.273h-5.688v-25.861h11.822c6.093,0,9.752,3.217,9.752,8.536v0.075
	c0,4.173-2.254,6.796-5.542,8.015l6.317,9.235H56.521z M56.632,186.301c0-2.436-1.7-3.693-4.47-3.693H46.51v7.426h5.764
	c2.77,0,4.359-1.478,4.359-3.657V186.301z"/>
<path d="M79.646,203.778c-7.609,0-13.262-5.874-13.262-13.301v-0.073c0-7.353,5.542-13.373,13.484-13.373
	c4.876,0,7.795,1.626,10.197,3.989l-3.621,4.173c-1.996-1.809-4.027-2.917-6.612-2.917c-4.359,0-7.499,3.621-7.499,8.054v0.074
	c0,4.434,3.065,8.127,7.499,8.127c2.955,0,4.766-1.183,6.795-3.028l3.623,3.657C87.591,202.002,84.634,203.778,79.646,203.778z"/>
<path d="M105.579,203.74c-6.945,0-11.193-3.879-11.193-11.487v-14.781h5.691v14.632c0,4.211,2.104,6.392,5.577,6.392
	c3.472,0,5.578-2.108,5.578-6.206v-14.817h5.69v14.596C116.922,199.897,112.525,203.74,105.579,203.74z"/>
<path d="M122.722,203.333v-25.861h5.689v20.688h12.892v5.173H122.722z"/>
<path d="M164.834,203.333l-2.364-5.8h-10.936l-2.363,5.8h-5.8l11.081-26.044h5.247l11.083,26.044H164.834z M157.004,184.124
	l-3.436,8.387h6.871L157.004,184.124z"/>
<path d="M184.449,182.719v20.613h-5.688v-20.613h-7.868v-5.248h21.427v5.248H184.449z"/>
<path d="M196.938,203.333v-25.861h5.688v25.861H196.938z"/>
<path d="M221.65,203.778c-7.979,0-13.705-5.948-13.705-13.301v-0.073c0-7.353,5.801-13.373,13.78-13.373
	c7.979,0,13.704,5.948,13.704,13.299v0.074C235.43,197.754,229.631,203.778,221.65,203.778z M229.482,190.404
	c0-4.435-3.25-8.128-7.832-8.128c-4.58,0-7.758,3.621-7.758,8.054v0.074c0,4.434,3.253,8.127,7.833,8.127
	c4.582,0,7.757-3.619,7.757-8.054V190.404z"/>
<path d="M258.63,203.333l-12.523-16.438v16.438h-5.616v-25.861h5.248l12.115,15.926v-15.926h5.616v25.861H258.63z"/>
</svg>
