<?xml version="1.0" encoding="utf-8"?>
<!-- Generator: Adobe Illustrator 15.0.0, SVG Export Plug-In . SVG Version: 6.00 Build 0)  -->
<!DOCTYPE svg PUBLIC "-//W3C//DTD SVG 1.1//EN" "http://www.w3.org/Graphics/SVG/1.1/DTD/svg11.dtd">
<svg version="1.1"
	 id="svg2" xmlns:svg="http://www.w3.org/2000/svg" xmlns:cc="http://creativecommons.org/ns#" xmlns:dc="http://purl.org/dc/elements/1.1/" xmlns:rdf="http://www.w3.org/1999/02/22-rdf-syntax-ns#"
	 xmlns="http://www.w3.org/2000/svg" xmlns:xlink="http://www.w3.org/1999/xlink" x="0px" y="0px" width="800px" height="800px"
	 viewBox="172.598 8.192 800 800" enable-background="new 172.598 8.192 800 800" xml:space="preserve">
<g id="g10" transform="matrix(1.3333333,0,0,-1.3333333,0,816.384)">
	<g id="g12">
		<g>
			<defs>
				<rect id="SVGID_1_" x="-143.149" y="-102.047" width="1145.196" height="816.383"/>
			</defs>
			<clipPath id="SVGID_2_">
				<use xlink:href="#SVGID_1_"  overflow="visible"/>
			</clipPath>
			<g id="g14" clip-path="url(#SVGID_2_)">
				<g id="g20" transform="translate(209.417,346.0225)">
					<path id="path22" d="M0,0c0.651,0,1.313-0.026,1.965-0.094C6.021-0.492,10.1-2.338,12.84-5.401
						c11.288-12.586-15.712-28.658-26.404-20.66c-4.936,3.695-5.905,11.392-3.409,16.637C-14.031-3.237-6.64,0,0,0"/>
				</g>
				<g id="g24" transform="translate(216.7266,294.2979)">
					<path id="path26" d="M0,0c9.708-3.401,14.325-18.292,3.832-23.657c-7.908-4.044-19.445,1.708-18.696,11.292
						c0.217,2.773,1.527,5.351,3.332,7.412c1.777,2.024,3.995,4.178,6.689,4.84C-3.503,0.217-1.333,0.445,0,0"/>
				</g>
				<g id="g28" transform="translate(422.3896,338.1358)">
					<path id="path30" d="M0,0c3.352-1.57,6.381-3.86,9.545-6.74c9.533-8.689,13.166-20.755,9.456-33.224
						C14.011-56.717-5.39-61.822-20.49-65.768c-4.528-0.672-8.812-1.052-10.285-1.592c2.425-13.043,23.104-12.41,32.229-9.148
						c4.307,1.545,8.579,3.211,12.723,5.156c1.916,0.896,9.242,6.313,10.975,4.222c3.114-3.728,2.975-12.368,0.79-16.626
						c-1.147-2.235-4.217-4.374-6.297-5.401c-15.517-7.648-37.377-10.488-52.073,0.472c-4.351,3.246-9.09,7.701-12.144,12.214
						c-2.411,3.571-4.475,7.777-5.782,11.889c-4.088,12.812-4.975,28.646,1.223,40.94c4.295,8.497,12.085,16.839,20.521,21.367
						c4.795,2.581,12.796,4.905,18.289,4.702C-6.381,2.274-3.055,1.435,0,0 M-17.326-20.54c-2.793-1.188-5.454-3.026-7.414-4.692
						c-8.461-7.241-10.958-13.856-10.098-25.054c0.082-1.107,6.984,1.605,9.239,2.484c8.217,3.221,26.22,10.775,20.849,23.405
						C-7.307-18.373-12.503-18.488-17.326-20.54"/>
				</g>
				<g id="g32" transform="translate(562.4238,283.169)">
					<path id="path34" d="M0.001,0.001c-0.037-0.335-0.073-0.678-0.11-1.018c-1.005-9.882-1.633-19.813-3.026-29.653
						c-0.713-4.995-1.208-10.009-2.02-14.984c-0.618-3.749-1.126-7.664-3.151-10.96c-6.318-10.286-15.296-5.251-21.426,3.294
						c0,0-20.241,29.498-29.279,46.206c-12.022,22.212-19.314,35.675-24.23,45.584c-0.098-1.424-0.003-1.385,0.189-4.235
						c1.043-15.496,2.197-35.789,3.025-51.297c0.45-8.424,0.907-16.86,1.396-25.288c0.429-7.396,1.588-15.426-1.786-22.352
						c-2.974-6.067-8.552-4.745-12.7-0.936c-2.481,2.276-5.808,5.61-7.206,10.245c-1.31,4.346-1.405,7.704-2.041,12.155
						c-4.699,32.729-5.55,66.929-5.269,99.953c0.085,10.589-0.047,53.284,8.836,51.471c3.127-0.639,8.363-1.684,10.532-3.955
						c3.322-3.471,5.235-8.508,6.917-12.879c5.807-15.082,12.007-29.584,19.518-45.869c5.622-12.192,11.861-23.905,18.209-35.711
						c3.916-7.282,8.085-14.423,12.343-21.507c1.146-1.901,2.382-3.756,3.677-5.556c0.636-0.88,1.119-0.987,1.093-1.232
						c0.936,8.269,0.582,16.765,0.817,25.039c0.558,19.62,1.059,39.26,3.599,58.745c1.784,13.698,3.183,27.851,7.761,40.959
						c1.664,4.762,3.429,10.703,8.098,13.368c2.893,1.653,6.936,2.324,10.236,2.329c2.875,0,5.868-0.834,8.42-2.117
						c4.617-2.324,3.741-7.699,3.018-11.74c-0.521-2.868-1.276-8.002-1.828-11.477c-0.971-6.131-1.598-9.35-2.616-15.476
						C9.805,73.871,8.618,66.642,7.583,59.38C6.156,49.385,4.889,39.361,3.6,29.343C2.346,19.575,1.017,9.8,0.001,0.001"/>
				</g>
				<g id="g36" transform="translate(623.0185,390.6895)">
					<path id="path38" d="M0.001,0c0.586-0.695,1.292-2.167,2.146-4.19c7.298-17.253,23.751-76.15,23.915-76.674
						c0,0,8.375,0.768,10.516,0.698c6.132,0.473,10.645,0.514,9.822-7.178c-0.724-6.703-1.355-10.589-5.295-11.318
						c-5.933-0.826-10.31-1.236-11.679-1.286c0.135-0.396,10.043-46.493,10.6-50.982c0.41-3.299,0.92-6.457,0.612-9.712
						c-0.289-3.028-1.324-5.07-3.432-7.551c-2.187-2.581-3.501-5.076-7.03-3.299c-2.282,1.153-5.06,2.137-6.951,3.892
						c-1.937,1.79-2.615,4.424-3.708,6.753c-1.62,3.464-9.882,44.982-10.881,51.094c-0.45,2.73-1.66,7.452-1.66,7.452
						c-4.888,0-9.747-0.596-14.609-1.009c-3.779-0.318-11.111-0.782-12.945-1.569c-1.859-1.125-2.625-9.375-2.975-11.325
						c-3.226-17.65-3.658-35.624-4.468-53.502c-0.103-2.232,0.428-5.817-2.458-6.328c-3.1-0.555-8.733,4.153-10.979,6.009
						c-2.355,1.944-5.31,6.369-6.237,10.601c-3.412,15.611,0.731,30.836,3.908,46.109c5.492,26.405,12.621,52.451,20.704,78.175
						c2.684,8.545,5.476,17.063,8.619,25.453c1.053,2.807,1.942,5.65,3.423,8.276c1.181,2.095,2.852,4.334,5.54,4.034
						c1.008-0.112,1.975-0.469,2.875-0.923C-1.738,1.25-0.648,0.77,0.001,0 M-6.505-86.312c3.018,0.397,10.458,1.045,10.458,1.045
						C3.16-77.207,1.741-72.336,0.405-64.34c-0.757,4.468-2.109,12.281-4.361,16.273c-1.507,2.665-4.17-4.586-4.507-5.456
						c-2.143-5.602-3.768-11.214-5.149-17.028c-0.457-1.932-2.366-7.661-3.822-17.449C-17.434-87.999-12.834-87.189-6.505-86.312"/>
				</g>
				<g id="g40" transform="translate(303.5967,253.0957)">
					<path id="path42" d="M0,0.001c-4.426-2.524-9.076-4.667-13.789-6.511c-2.737-1.069-15.445-6.4-14.674,0.968
						c1.146,10.916,2.414,25.027,2.625,36.007c0.342,17.386-0.233,34.838-2.018,52.144c-0.486,4.671-1.249,9.938-1.904,14.586
						c-1.17,6.916-2.654,14.54-3.868,20.558c-1.408,6.989,8.669,4.819,12.516,3.932c7.802-1.803,16.138-5.558,22.86-9.864
						c13.807-8.846,25.737-22.092,28.856-38.4c4.565-23.872-0.735-50.399-19.991-66.186C7.301,4.521,3.73,2.126,0,0.001
						 M40.275,110.763c-7.266,9.016-16.827,16.098-26.58,22.208c-21.222,13.294-37.906,18.764-68.71,17.045
						c-5.774-0.323-13.182-1.799-17.269-3.11c-2.289-0.736-3.138-2.652-3.461-4.197c-0.36-1.713-0.457-3.518-0.5-5.258
						c-0.121-5.865-0.281-13.781,6.318-16.195c2.603-0.957,6.519,1.77,7.688-2.309c0.244-0.835,0.426-1.685,0.636-2.535
						c1.754-7.007,3.439-14.033,4.727-21.139c1.283-7.117,2.164-14.294,2.74-21.502c0.615-7.754,0.906-15.533,1.047-23.31
						c0.154-8.94,0.079-17.88-0.154-26.823c-0.126-4.91-0.303-9.825-0.497-14.736c-0.241-5.845-0.216-11.77-1.21-17.549
						c-0.09-0.48-0.188-2.902-0.525-3.044c-10.027-4.242-25.08,6.778-26.251-10.944c-0.103-1.557,1.637-15.195,4.731-19.031
						c2.718-3.369,8.025-4.197,14.23-4.421c3.899-0.144,7.815-0.313,11.725-0.319c6.612,0,13.141,0.596,19.578,2.162
						c6.314,1.538,12.447,3.795,18.404,6.384c5.369,2.326,10.589,4.985,15.586,8.023c5.046,3.069,9.94,6.482,14.645,10.058
						C29.7-10.247,41.6,1.356,48.834,15.51c4.25,8.316,6.628,19.449,7.956,28.646C60.119,67.14,55.044,92.444,40.275,110.763"/>
				</g>
			</g>
		</g>
	</g>
</g>
</svg>
