<?xml version="1.0" encoding="utf-8"?>
<!-- Generator: Adobe Illustrator 15.0.0, SVG Export Plug-In  -->
<!DOCTYPE svg PUBLIC "-//W3C//DTD SVG 1.1//EN" "http://www.w3.org/Graphics/SVG/1.1/DTD/svg11.dtd" [
	<!ENTITY ns_flows "http://ns.adobe.com/Flows/1.0/">
]>
<svg version="1.1"
	 xmlns="http://www.w3.org/2000/svg" xmlns:xlink="http://www.w3.org/1999/xlink" xmlns:a="http://ns.adobe.com/AdobeSVGViewerExtensions/3.0/"
	 x="0px" y="0px" width="1800px" height="1800px" viewBox="59.995 -360 1800 1800"
	 overflow="visible" enable-background="new 59.995 -360 1800 1800" xml:space="preserve">
<defs>
</defs>
<polygon fill="#231815" points="680.882,476.423 741.652,476.423 741.652,488.296 693.004,488.296 693.004,526.308 741.652,526.308 
	741.652,538.181 693.004,538.181 693.004,597.715 680.882,597.715 "/>
<g>
	<defs>
		<rect id="SVGID_1_" width="1919.99" height="1080"/>
	</defs>
	<clipPath id="SVGID_2_">
		<use xlink:href="#SVGID_1_"  overflow="visible"/>
	</clipPath>
	<path clip-path="url(#SVGID_2_)" fill="#231815" d="M759.38,508.004h11.543v41.887c0,10.225,0.551,17.262,1.653,21.109
		c1.652,5.496,4.802,9.84,9.454,13.027c4.651,3.189,10.198,4.783,16.639,4.783s11.907-1.553,16.393-4.66
		c4.486-3.104,7.584-7.186,9.291-12.244c1.154-3.463,1.735-10.801,1.735-22.016v-41.887h11.79v44.031
		c0,12.367-1.443,21.686-4.33,27.951c-2.885,6.268-7.229,11.174-13.027,14.719c-5.801,3.545-13.069,5.318-21.809,5.318
		c-8.74,0-16.039-1.773-21.893-5.318c-5.855-3.545-10.224-8.492-13.11-14.842c-2.885-6.35-4.329-15.9-4.329-28.652V508.004z"/>
	<path clip-path="url(#SVGID_2_)" fill="#231815" d="M908.625,517.816l-7.422,7.668c-6.172-5.993-12.211-8.988-18.104-8.988
		c-3.75,0-6.96,1.236-9.633,3.71c-2.672,2.473-4.007,5.36-4.007,8.659c0,2.914,1.1,5.689,3.302,8.327
		c2.203,2.694,6.833,5.854,13.883,9.483c8.59,4.451,14.434,8.74,17.52,12.861c3.031,4.18,4.539,8.879,4.539,14.102
		c0,7.366-2.586,13.604-7.758,18.717c-5.18,5.111-11.649,7.668-19.408,7.668c-5.176,0-10.118-1.127-14.825-3.381
		c-4.706-2.254-8.601-5.359-11.683-9.316l7.256-8.246c5.894,6.652,12.148,9.977,18.759,9.977c4.63,0,8.565-1.484,11.823-4.453
		c3.25-2.967,4.875-6.457,4.875-10.471c0-3.299-1.078-6.238-3.227-8.822c-2.148-2.529-6.994-5.717-14.54-9.566
		c-8.098-4.176-13.608-8.299-16.528-12.367c-2.918-4.068-4.379-8.712-4.379-13.936c0-6.815,2.326-12.477,6.978-16.986
		c4.653-4.506,10.532-6.761,17.635-6.761C891.938,505.694,900.258,509.734,908.625,517.816"/>
	<path clip-path="url(#SVGID_2_)" fill="#231815" d="M933.074,471.063c2.625,0,4.871,0.935,6.731,2.804
		c1.859,1.869,2.792,4.123,2.792,6.761c0,2.584-0.933,4.811-2.792,6.678c-1.86,1.869-4.106,2.805-6.731,2.805
		c-2.574,0-4.793-0.936-6.652-2.805c-1.86-1.867-2.79-4.094-2.79-6.678c0-2.638,0.93-4.892,2.79-6.761
		C928.281,471.998,930.5,471.063,933.074,471.063 M927.344,508.004h11.542v89.711h-11.542V508.004z"/>
	<path clip-path="url(#SVGID_2_)" fill="#231815" d="M1049.953,526.639l-9.152,5.689c-7.91-10.5-18.699-15.75-32.371-15.75
		c-10.926,0-19.996,3.516-27.219,10.543c-7.219,7.03-10.828,15.567-10.828,25.616c0,6.533,1.66,12.684,4.98,18.449
		c3.324,5.767,7.879,10.238,13.672,13.424s12.285,4.777,19.479,4.777c13.177,0,23.938-5.248,32.286-15.748l9.152,6.018
		c-4.289,6.459-10.047,11.467-17.277,15.027c-7.227,3.559-15.461,5.34-24.695,5.34c-14.18,0-25.945-4.506-35.289-13.523
		c-9.348-9.014-14.02-19.98-14.02-32.898c0-8.686,2.188-16.752,6.559-24.201c4.367-7.448,10.375-13.262,18.016-17.44
		c7.641-4.176,16.188-6.266,25.644-6.266c5.935,0,11.665,0.907,17.192,2.721c5.523,1.815,10.207,4.178,14.058,7.092
		C1043.988,518.422,1047.258,522.131,1049.953,526.639"/>
	<path clip-path="url(#SVGID_2_)" fill="#231815" d="M1233.746,498.934l-9.563,7.338c-5.276-6.871-11.612-12.081-19.007-15.625
		c-7.395-3.545-15.516-5.319-24.368-5.319c-9.671,0-18.632,2.323-26.878,6.967c-8.247,4.646-14.637,10.885-19.172,18.719
		c-4.535,7.832-6.801,16.643-6.801,26.426c0,14.789,5.069,27.129,15.211,37.023c10.145,9.895,22.938,14.842,38.383,14.842
		c16.988,0,31.195-6.65,42.632-19.955l9.563,7.256c-6.047,7.697-13.59,13.646-22.633,17.852s-19.145,6.309-30.306,6.309
		c-21.218,0-37.956-7.062-50.214-21.191c-10.277-11.928-15.418-26.33-15.418-43.207c0-17.754,6.227-32.694,18.676-44.815
		c12.453-12.119,28.047-18.18,46.793-18.18c11.324,0,21.551,2.241,30.676,6.719C1220.441,484.574,1227.918,490.854,1233.746,498.934
		"/>
	<path clip-path="url(#SVGID_2_)" fill="#231815" d="M1298.641,505.695c13.82,0,25.273,5.003,34.363,15.006
		c8.258,9.125,12.387,19.928,12.387,32.407c0,12.533-4.364,23.486-13.09,32.857c-8.73,9.373-19.949,14.059-33.66,14.059
		c-13.77,0-25.016-4.686-33.742-14.059c-8.73-9.371-13.094-20.324-13.094-32.857c0-12.424,4.129-23.198,12.391-32.325
		C1273.281,510.724,1284.762,505.695,1298.641,505.695 M1298.598,516.99c-9.598,0-17.844,3.547-24.742,10.637
		c-6.895,7.092-10.34,15.668-10.34,25.727c0,6.486,1.57,12.533,4.715,18.141s7.391,9.936,12.742,12.986s11.227,4.576,17.625,4.576
		s12.273-1.525,17.625-4.576s9.598-7.379,12.746-12.986c3.141-5.607,4.715-11.654,4.715-18.141c0-10.059-3.461-18.635-10.387-25.727
		C1316.375,520.537,1308.141,516.99,1298.598,516.99"/>
	<path clip-path="url(#SVGID_2_)" fill="#231815" d="M1379.449,579.574c2.801,0,5.191,0.99,7.172,2.969s2.969,4.398,2.969,7.256
		c0,2.805-0.988,5.209-2.969,7.215s-4.371,3.01-7.172,3.01c-2.805,0-5.195-1.004-7.176-3.01c-1.977-2.006-2.969-4.41-2.969-7.215
		c0-2.857,0.992-5.277,2.969-7.256C1374.254,580.564,1376.645,579.574,1379.449,579.574"/>
	<polygon clip-path="url(#SVGID_2_)" fill="#231815" points="1424.965,575.451 1436.098,580.729 1419.359,611.896 1411.195,608.434 
			"/>
	<polygon clip-path="url(#SVGID_2_)" fill="#231815" points="1508.906,476.423 1521.026,476.423 1521.026,586.006 1567.699,586.006 
		1567.699,597.715 1508.906,597.715 	"/>
	<polygon clip-path="url(#SVGID_2_)" fill="#231815" points="1595.074,474.691 1606.617,474.691 1606.617,508.004 1624.922,508.004 
		1624.922,517.981 1606.617,517.981 1606.617,597.715 1595.074,597.715 1595.074,517.981 1579.324,517.981 1579.324,508.004 
		1595.074,508.004 	"/>
	<path clip-path="url(#SVGID_2_)" fill="#231815" d="M1731.785,473.373v124.342h-11.379v-15.42
		c-4.84,5.883-10.266,10.309-16.285,13.275c-6.02,2.969-12.602,4.453-19.75,4.453c-12.695,0-23.539-4.604-32.527-13.811
		s-13.48-20.408-13.48-33.602c0-12.917,4.535-23.965,13.605-33.146c9.07-9.18,19.98-13.77,32.734-13.77
		c7.363,0,14.031,1.567,19.996,4.699c5.961,3.133,11.199,7.834,15.707,14.1v-51.121H1731.785z M1685.652,516.826
		c-6.426,0-12.355,1.581-17.793,4.737c-5.434,3.158-9.758,7.592-12.973,13.303c-3.211,5.708-4.816,11.75-4.816,18.117
		c0,6.316,1.621,12.355,4.859,18.119c3.238,5.767,7.59,10.256,13.055,13.467c5.461,3.213,11.324,4.818,17.582,4.818
		c6.316,0,12.301-1.592,17.957-4.777c5.652-3.186,10.003-7.494,13.055-12.93c3.047-5.436,4.57-11.559,4.57-18.367
		c0-10.377-3.418-19.053-10.255-26.026C1704.059,520.314,1695.644,516.826,1685.652,516.826"/>
	<path clip-path="url(#SVGID_2_)" fill="#231815" d="M1770.621,579.574c2.801,0,5.191,0.99,7.172,2.969s2.969,4.398,2.969,7.256
		c0,2.805-0.988,5.209-2.969,7.215s-4.371,3.01-7.172,3.01c-2.805,0-5.195-1.004-7.176-3.01c-1.977-2.006-2.969-4.41-2.969-7.215
		c0-2.857,0.992-5.277,2.969-7.256C1765.426,580.564,1767.816,579.574,1770.621,579.574"/>
	
		<rect x="200.453" y="377.568" transform="matrix(0.7071 0.7071 -0.7071 0.7071 488.977 -98.7795)" clip-path="url(#SVGID_2_)" fill="#FFFFFF" width="326.544" height="326.574"/>
	<polygon clip-path="url(#SVGID_2_)" fill="#211613" points="385.646,533.591 395.849,533.59 395.849,535.59 387.682,535.587 
		387.682,541.935 395.849,541.935 395.849,543.919 387.682,543.919 387.682,553.898 385.646,553.898 	"/>
	<polygon clip-path="url(#SVGID_2_)" fill="none" stroke="#211613" stroke-width="0.046" points="385.646,533.591 395.849,533.59 
		395.849,535.59 387.682,535.587 387.682,541.935 395.849,541.935 395.849,543.919 387.682,543.919 387.682,553.898 
		385.646,553.898 	"/>
	<path clip-path="url(#SVGID_2_)" fill="#211613" d="M398.761,538.864h1.924l0.005,7.017c-0.005,1.707,0.08,2.891,0.274,3.536
		c0.277,0.919,0.817,1.638,1.607,2.185c0.794,0.522,1.739,0.797,2.842,0.797c1.094,0,2.034-0.261,2.788-0.781
		c0.768-0.521,1.295-1.199,1.584-2.05c0.197-0.581,0.302-1.811,0.302-3.687v-7.018l1.914,0.001v7.369
		c0,2.084-0.235,3.644-0.726,4.692c-0.479,1.05-1.218,1.87-2.199,2.476c-0.973,0.588-2.203,0.882-3.68,0.882
		c-1.48,0-2.708-0.294-3.7-0.882c-0.978-0.605-1.725-1.433-2.202-2.494c-0.491-1.064-0.733-2.668-0.733-4.803V538.864z"/>
	<path clip-path="url(#SVGID_2_)" fill="none" stroke="#211613" stroke-width="0.046" d="M398.761,538.864h1.924l0.005,7.017
		c-0.005,1.707,0.08,2.891,0.274,3.536c0.277,0.919,0.817,1.638,1.607,2.185c0.794,0.522,1.739,0.797,2.842,0.797
		c1.094,0,2.034-0.261,2.788-0.781c0.768-0.521,1.295-1.199,1.584-2.05c0.197-0.581,0.302-1.811,0.302-3.687v-7.018l1.914,0.001
		v7.369c0,2.084-0.235,3.644-0.726,4.692c-0.479,1.05-1.218,1.87-2.199,2.476c-0.973,0.588-2.203,0.882-3.68,0.882
		c-1.48,0-2.708-0.294-3.7-0.882c-0.978-0.605-1.725-1.433-2.202-2.494c-0.491-1.064-0.733-2.668-0.733-4.803V538.864z"/>
	<path clip-path="url(#SVGID_2_)" fill="#211613" d="M423.821,540.465l-1.237,1.278c-1.034-0.991-2.044-1.495-3.025-1.495
		c-0.621,0-1.177,0.217-1.619,0.626c-0.444,0.423-0.669,0.896-0.674,1.457c0.005,0.486,0.192,0.953,0.556,1.399
		c0.373,0.444,1.146,0.979,2.319,1.593c1.432,0.741,2.408,1.468,2.922,2.153c0.504,0.706,0.758,1.502,0.758,2.373
		c0,1.235-0.434,2.288-1.295,3.146c-0.866,0.866-1.944,1.287-3.246,1.287c-0.869,0-1.682-0.189-2.471-0.574
		c-0.785-0.375-1.442-0.903-1.963-1.57l1.217-1.386c0.978,1.13,2.024,1.686,3.125,1.686c0.778,0,1.425-0.258,1.971-0.755
		c0.544-0.498,0.81-1.086,0.81-1.764c0-0.542-0.179-1.044-0.536-1.476c-0.359-0.43-1.163-0.96-2.418-1.612
		c-1.35-0.692-2.271-1.386-2.762-2.061c-0.481-0.679-0.728-1.46-0.728-2.335c0-1.135,0.391-2.087,1.167-2.832
		c0.774-0.751,1.759-1.133,2.955-1.133C421.034,538.471,422.426,539.135,423.821,540.465"/>
	<path clip-path="url(#SVGID_2_)" fill="none" stroke="#211613" stroke-width="0.046" d="M423.821,540.465l-1.237,1.278
		c-1.034-0.991-2.044-1.495-3.025-1.495c-0.621,0-1.177,0.217-1.619,0.626c-0.444,0.423-0.669,0.896-0.674,1.457
		c0.005,0.486,0.192,0.953,0.556,1.399c0.373,0.444,1.146,0.979,2.319,1.593c1.432,0.741,2.408,1.468,2.922,2.153
		c0.504,0.706,0.758,1.502,0.758,2.373c0,1.235-0.434,2.288-1.295,3.146c-0.866,0.866-1.944,1.287-3.246,1.287
		c-0.869,0-1.682-0.189-2.471-0.574c-0.785-0.375-1.442-0.903-1.963-1.57l1.217-1.386c0.978,1.13,2.024,1.686,3.125,1.686
		c0.778,0,1.425-0.258,1.971-0.755c0.544-0.498,0.81-1.086,0.81-1.764c0-0.542-0.179-1.044-0.536-1.476
		c-0.359-0.43-1.163-0.96-2.418-1.612c-1.35-0.692-2.271-1.386-2.762-2.061c-0.481-0.679-0.728-1.46-0.728-2.335
		c0-1.135,0.391-2.087,1.167-2.832c0.774-0.751,1.759-1.133,2.955-1.133C421.034,538.471,422.426,539.135,423.821,540.465z"/>
	<path clip-path="url(#SVGID_2_)" fill="#211613" d="M427.887,532.671c0.434,0,0.812,0.154,1.125,0.465
		c0.3,0.31,0.452,0.694,0.452,1.142c0,0.435-0.152,0.807-0.452,1.116c-0.312,0.317-0.691,0.479-1.125,0.477
		c-0.424,0.002-0.794-0.16-1.096-0.477c-0.314-0.312-0.454-0.681-0.454-1.116c0-0.448,0.14-0.834,0.454-1.142
		C427.092,532.825,427.462,532.671,427.887,532.671 M426.936,538.864l1.917-0.001v15.036h-1.917V538.864z"/>
	<path clip-path="url(#SVGID_2_)" fill="none" stroke="#211613" stroke-width="0.046" d="M427.887,532.671
		c0.434,0,0.812,0.154,1.125,0.465c0.3,0.31,0.452,0.694,0.452,1.142c0,0.435-0.152,0.807-0.452,1.116
		c-0.312,0.317-0.691,0.479-1.125,0.477c-0.424,0.002-0.794-0.16-1.096-0.477c-0.314-0.312-0.454-0.681-0.454-1.116
		c0-0.448,0.14-0.834,0.454-1.142C427.092,532.825,427.462,532.671,427.887,532.671z M426.936,538.864l1.917-0.001v15.036h-1.917
		V538.864z"/>
	<path clip-path="url(#SVGID_2_)" fill="#211613" d="M447.482,541.935l-1.529,0.952c-1.328-1.758-3.137-2.639-5.438-2.638
		c-1.831-0.001-3.351,0.597-4.571,1.779c-1.205,1.18-1.812,2.607-1.812,4.304c0,1.108,0.275,2.139,0.834,3.113
		c0.551,0.969,1.32,1.729,2.298,2.255c0.963,0.535,2.061,0.803,3.266,0.803c2.216,0,4.018-0.877,5.423-2.632l1.529,1.003
		c-0.713,1.085-1.692,1.916-2.897,2.518c-1.203,0.597-2.598,0.891-4.142,0.891c-2.383,0-4.359-0.751-5.914-2.267
		c-1.577-1.509-2.363-3.344-2.363-5.52c0-1.444,0.372-2.795,1.1-4.052c0.737-1.249,1.739-2.229,3.02-2.929
		c1.282-0.695,2.725-1.045,4.306-1.045c0.991,0,1.957,0.149,2.885,0.447c0.923,0.301,1.717,0.692,2.361,1.177
		C446.489,540.575,447.033,541.192,447.482,541.935"/>
	<path clip-path="url(#SVGID_2_)" fill="none" stroke="#211613" stroke-width="0.046" d="M447.482,541.935l-1.529,0.952
		c-1.328-1.758-3.137-2.639-5.438-2.638c-1.831-0.001-3.351,0.597-4.571,1.779c-1.205,1.18-1.812,2.607-1.812,4.304
		c0,1.108,0.275,2.139,0.834,3.113c0.551,0.969,1.32,1.729,2.298,2.255c0.963,0.535,2.061,0.803,3.266,0.803
		c2.216,0,4.018-0.877,5.423-2.632l1.529,1.003c-0.713,1.085-1.692,1.916-2.897,2.518c-1.203,0.597-2.598,0.891-4.142,0.891
		c-2.383,0-4.359-0.751-5.914-2.267c-1.577-1.509-2.363-3.344-2.363-5.52c0-1.444,0.372-2.795,1.1-4.052
		c0.737-1.249,1.739-2.229,3.02-2.929c1.282-0.695,2.725-1.045,4.306-1.045c0.991,0,1.957,0.149,2.885,0.447
		c0.923,0.301,1.717,0.692,2.361,1.177C446.489,540.575,447.033,541.192,447.482,541.935z"/>
	<path clip-path="url(#SVGID_2_)" fill="#211613" d="M477.111,538.231l-1.524,1.164c-0.839-1.086-1.84-1.905-3.005-2.471
		c-1.175-0.566-2.448-0.843-3.853-0.844c-1.534,0-2.944,0.367-4.262,1.102c-1.292,0.739-2.308,1.72-3.029,2.969
		c-0.714,1.24-1.076,2.624-1.076,4.185c0,2.342,0.799,4.29,2.406,5.849c1.612,1.569,3.636,2.35,6.078,2.35
		c2.683,0,4.939-1.057,6.741-3.166l1.522,1.151c-0.964,1.224-2.154,2.159-3.583,2.835c-1.431,0.665-3.03,1.003-4.787,1.003
		c-3.358,0-5.991-1.119-7.94-3.349c-1.619-1.896-2.433-4.178-2.433-6.843c0.003-2.81,0.989-5.174,2.957-7.098
		c1.966-1.912,4.432-2.871,7.392-2.87c1.781-0.001,3.403,0.353,4.843,1.058C475.003,535.966,476.175,536.958,477.111,538.231"/>
	<path clip-path="url(#SVGID_2_)" fill="none" stroke="#211613" stroke-width="0.046" d="M477.111,538.231l-1.524,1.164
		c-0.839-1.086-1.84-1.905-3.005-2.471c-1.175-0.566-2.448-0.843-3.853-0.844c-1.534,0-2.944,0.367-4.262,1.102
		c-1.292,0.739-2.308,1.72-3.029,2.969c-0.714,1.24-1.076,2.624-1.076,4.185c0,2.342,0.799,4.29,2.406,5.849
		c1.612,1.569,3.636,2.35,6.078,2.35c2.683,0,4.939-1.057,6.741-3.166l1.522,1.151c-0.964,1.224-2.154,2.159-3.583,2.835
		c-1.431,0.665-3.03,1.003-4.787,1.003c-3.358,0-5.991-1.119-7.94-3.349c-1.619-1.896-2.433-4.178-2.433-6.843
		c0.003-2.81,0.989-5.174,2.957-7.098c1.966-1.912,4.432-2.871,7.392-2.87c1.781-0.001,3.403,0.353,4.843,1.058
		C475.003,535.966,476.175,536.958,477.111,538.231z"/>
	<path clip-path="url(#SVGID_2_)" fill="#211613" d="M487.924,538.471c2.305,0,4.232,0.837,5.744,2.509
		c1.387,1.533,2.081,3.347,2.081,5.441c0,2.099-0.741,3.932-2.189,5.504c-1.474,1.573-3.348,2.356-5.636,2.356
		c-2.316,0-4.193-0.783-5.653-2.356c-1.462-1.572-2.198-3.405-2.198-5.504c0-2.085,0.699-3.893,2.076-5.422
		C483.666,539.314,485.593,538.471,487.924,538.471 M487.911,540.353c-1.604,0-2.992,0.594-4.149,1.791
		c-1.146,1.185-1.725,2.627-1.73,4.311c0,1.078,0.254,2.098,0.791,3.035c0.524,0.942,1.237,1.668,2.126,2.182
		c0.908,0.507,1.891,0.767,2.962,0.765c1.073,0.002,2.061-0.258,2.957-0.765c0.888-0.514,1.605-1.239,2.131-2.181
		c0.524-0.938,0.791-1.956,0.791-3.036c0-1.684-0.587-3.126-1.744-4.311C490.883,540.946,489.511,540.353,487.911,540.353"/>
	<path clip-path="url(#SVGID_2_)" fill="none" stroke="#211613" stroke-width="0.046" d="M487.924,538.471
		c2.305,0,4.232,0.837,5.744,2.509c1.387,1.533,2.081,3.347,2.081,5.441c0,2.099-0.741,3.932-2.189,5.504
		c-1.474,1.573-3.348,2.356-5.636,2.356c-2.316,0-4.193-0.783-5.653-2.356c-1.462-1.572-2.198-3.405-2.198-5.504
		c0-2.085,0.699-3.893,2.076-5.422C483.666,539.314,485.593,538.471,487.924,538.471z M487.911,540.353
		c-1.604,0-2.992,0.594-4.149,1.791c-1.146,1.185-1.725,2.627-1.73,4.311c0,1.078,0.254,2.098,0.791,3.035
		c0.524,0.942,1.237,1.668,2.126,2.182c0.908,0.507,1.891,0.767,2.962,0.765c1.073,0.002,2.061-0.258,2.957-0.765
		c0.888-0.514,1.605-1.239,2.131-2.181c0.524-0.938,0.791-1.956,0.791-3.036c0-1.684-0.587-3.126-1.744-4.311
		C490.883,540.946,489.511,540.353,487.911,540.353z"/>
	<path clip-path="url(#SVGID_2_)" fill="#211613" d="M501.463,550.865c0.469,0,0.873,0.17,1.2,0.495
		c0.334,0.334,0.487,0.733,0.487,1.21c0,0.476-0.153,0.874-0.487,1.213c-0.327,0.336-0.731,0.499-1.2,0.499
		c-0.479,0-0.864-0.163-1.203-0.501c-0.317-0.339-0.494-0.736-0.494-1.211c0-0.477,0.177-0.876,0.494-1.21
		C500.6,551.035,500.984,550.865,501.463,550.865"/>
	<path clip-path="url(#SVGID_2_)" fill="none" stroke="#211613" stroke-width="0.046" d="M501.463,550.865
		c0.469,0,0.873,0.17,1.2,0.495c0.334,0.334,0.487,0.733,0.487,1.21c0,0.476-0.153,0.874-0.487,1.213
		c-0.327,0.336-0.731,0.499-1.2,0.499c-0.479,0-0.864-0.163-1.203-0.501c-0.317-0.339-0.494-0.736-0.494-1.211
		c0-0.477,0.177-0.876,0.494-1.21C500.6,551.035,500.984,550.865,501.463,550.865z"/>
	<polygon clip-path="url(#SVGID_2_)" fill="#211613" points="509.079,550.154 510.948,551.035 508.151,556.245 506.788,555.66 	"/>
	<polygon clip-path="url(#SVGID_2_)" fill="none" stroke="#211613" stroke-width="0.046" points="509.079,550.154 510.948,551.035 
		508.151,556.245 506.788,555.66 	"/>
	<polygon clip-path="url(#SVGID_2_)" fill="#211613" points="515.29,533.59 517.324,533.591 517.324,551.892 525.153,551.892 
		525.153,553.898 515.29,553.898 	"/>
	<polygon clip-path="url(#SVGID_2_)" fill="none" stroke="#211613" stroke-width="0.046" points="515.29,533.59 517.324,533.591 
		517.324,551.892 525.153,551.892 525.153,553.898 515.29,553.898 	"/>
	<polygon clip-path="url(#SVGID_2_)" fill="#211613" points="529.777,533.306 531.696,533.305 531.696,538.863 534.775,538.863 
		534.775,540.536 531.696,540.536 531.696,553.898 529.777,553.898 529.777,540.536 527.137,540.536 527.137,538.864 
		529.777,538.863 	"/>
	<polygon clip-path="url(#SVGID_2_)" fill="none" stroke="#211613" stroke-width="0.046" points="529.777,533.306 531.696,533.305 
		531.696,538.863 534.775,538.863 534.775,540.536 531.696,540.536 531.696,553.898 529.777,553.898 529.777,540.536 
		527.137,540.536 527.137,538.864 529.777,538.863 	"/>
	<path clip-path="url(#SVGID_2_)" fill="#211613" d="M552.652,533.057v20.842h-1.917v-2.587c-0.823,0.984-1.737,1.722-2.735,2.22
		c-1.01,0.513-2.111,0.751-3.306,0.751c-2.128,0-3.952-0.771-5.454-2.314c-1.508-1.544-2.271-3.416-2.271-5.637
		c0-2.162,0.763-4.017,2.293-5.552c1.51-1.539,3.344-2.309,5.49-2.309c1.232,0,2.343,0.26,3.351,0.791
		c0.998,0.523,1.869,1.306,2.632,2.352v-8.557H552.652z M544.889,540.32c-1.068,0-2.059,0.266-2.972,0.793
		c-0.916,0.529-1.647,1.272-2.178,2.237c-0.544,0.953-0.796,1.974-0.796,3.044c0,1.055,0.261,2.07,0.798,3.037
		c0.551,0.973,1.288,1.726,2.189,2.264c0.925,0.541,1.903,0.808,2.939,0.808c1.068,0,2.063-0.267,3.019-0.803
		c0.936-0.527,1.665-1.255,2.176-2.173c0.516-0.901,0.763-1.939,0.763-3.08c0-1.748-0.563-3.194-1.709-4.369
		C547.966,540.904,546.568,540.32,544.889,540.32"/>
	<path clip-path="url(#SVGID_2_)" fill="none" stroke="#211613" stroke-width="0.046" d="M552.652,533.057v20.842h-1.917v-2.587
		c-0.823,0.984-1.737,1.722-2.735,2.22c-1.01,0.513-2.111,0.751-3.306,0.751c-2.128,0-3.952-0.771-5.454-2.314
		c-1.508-1.544-2.271-3.416-2.271-5.637c0-2.162,0.763-4.017,2.293-5.552c1.51-1.539,3.344-2.309,5.49-2.309
		c1.232,0,2.343,0.26,3.351,0.791c0.998,0.523,1.869,1.306,2.632,2.352v-8.557H552.652z M544.889,540.32
		c-1.068,0-2.059,0.266-2.972,0.793c-0.916,0.529-1.647,1.272-2.178,2.237c-0.544,0.953-0.796,1.974-0.796,3.044
		c0,1.055,0.261,2.07,0.798,3.037c0.551,0.973,1.288,1.726,2.189,2.264c0.925,0.541,1.903,0.808,2.939,0.808
		c1.068,0,2.063-0.267,3.019-0.803c0.936-0.527,1.665-1.255,2.176-2.173c0.516-0.901,0.763-1.939,0.763-3.08
		c0-1.748-0.563-3.194-1.709-4.369C547.966,540.904,546.568,540.32,544.889,540.32z"/>
	<path clip-path="url(#SVGID_2_)" fill="#211613" d="M559.15,550.865c0.469,0,0.866,0.17,1.2,0.495
		c0.332,0.334,0.482,0.733,0.482,1.21c0,0.476-0.15,0.874-0.482,1.211c-0.334,0.339-0.73,0.501-1.2,0.501
		c-0.467,0-0.863-0.163-1.195-0.501c-0.33-0.339-0.492-0.736-0.492-1.211c0-0.477,0.162-0.876,0.492-1.21
		C558.287,551.035,558.683,550.865,559.15,550.865"/>
	<path clip-path="url(#SVGID_2_)" fill="none" stroke="#211613" stroke-width="0.046" d="M559.15,550.865
		c0.469,0,0.866,0.17,1.2,0.495c0.332,0.334,0.482,0.733,0.482,1.21c0,0.476-0.15,0.874-0.482,1.211
		c-0.334,0.339-0.73,0.501-1.2,0.501c-0.467,0-0.863-0.163-1.195-0.501c-0.33-0.339-0.492-0.736-0.492-1.211
		c0-0.477,0.162-0.876,0.492-1.21C558.287,551.035,558.683,550.865,559.15,550.865z"/>
	<polygon clip-path="url(#SVGID_2_)" fill="#D70C18" points="363.714,307.597 596.968,540.87 588.79,549.022 355.532,315.778 	"/>
	<path clip-path="url(#SVGID_2_)" fill="#211613" d="M474.668,420.994v11.568c0,0-30.844,0.666-47.867,6.916
		c-37.093,13.426-45.605,37.627-48.794,47.2c-3.189,9.572-6.515,39.221-9.974,62.623c0,0-3.72,43.079-18.08,64.616
		c-10.239,16.886-31.641,36.963-78.84,42.812c-15.693,1.194-21.275,1.332-21.275,1.332l-11.568-11.568
		c0,0,28.588,0.266,45.736-3.459c17.153-3.722,39.225-12.896,51.591-28.716c12.364-15.825,17.682-42.015,19.147-52.253
		c1.459-10.238,5.449-39.489,7.044-55.048c1.594-15.552,8.641-46.931,33.108-63.684c20.738-16.091,42.275-18.748,50.387-20.477
		C452.598,421.661,474.668,420.994,474.668,420.994"/>
	<polygon clip-path="url(#SVGID_2_)" fill="#D70C18" points="371.892,315.778 138.645,549.022 130.488,540.87 363.715,307.597 	"/>
	<polygon clip-path="url(#SVGID_2_)" fill="#D70C18" points="596.968,540.87 363.714,774.106 355.532,765.931 588.789,532.679 	"/>
	<polygon clip-path="url(#SVGID_2_)" fill="#D70C18" points="395.592,339.475 162.333,572.722 154.151,564.547 387.412,331.294 	"/>
	<polygon clip-path="url(#SVGID_2_)" fill="#D70C18" points="138.645,532.679 371.892,765.931 363.714,774.106 130.488,540.87 	"/>
	<polygon clip-path="url(#SVGID_2_)" fill="#D70C18" points="162.156,509.171 395.398,742.423 387.22,750.596 153.976,517.345 	"/>
</g>
</svg>
