<?xml version="1.0" encoding="utf-8"?>
<!-- Generator: Adobe Illustrator 15.0.0, SVG Export Plug-In  -->
<!DOCTYPE svg PUBLIC "-//W3C//DTD SVG 1.1//EN" "http://www.w3.org/Graphics/SVG/1.1/DTD/svg11.dtd" [
	<!ENTITY ns_flows "http://ns.adobe.com/Flows/1.0/">
]>
<svg version="1.1"
	 xmlns="http://www.w3.org/2000/svg" xmlns:xlink="http://www.w3.org/1999/xlink" xmlns:a="http://ns.adobe.com/AdobeSVGViewerExtensions/3.0/"
	 x="0px" y="0px" width="500px" height="500px" viewBox="-10.057 -202.425 500 500"
	 overflow="visible" enable-background="new -10.057 -202.425 500 500" xml:space="preserve">
<defs>
</defs>
<path fill="#9FD9F6" d="M67.484,80.131c0,8.295-6.722,15.019-15.016,15.019c-8.297,0-15.024-6.724-15.024-15.019
	c0-8.299,6.727-15.021,15.024-15.021C60.762,65.109,67.484,71.832,67.484,80.131L67.484,80.131z"/>
<path fill="#005BAC" d="M89.49,0C82.048,0,75.89,5.41,74.705,12.508h-7.45C66.063,5.41,59.899,0,52.468,0
	c-7.442,0-13.609,5.41-14.802,12.508h-7.864C28.612,5.41,22.452,0,15.015,0C6.718,0,0,6.723,0,15.015
	c0,8.299,6.718,15.027,15.015,15.027c7.443,0,13.597-5.411,14.787-12.519h7.864c1.193,7.107,7.359,12.519,14.802,12.519
	c7.431,0,13.596-5.411,14.787-12.519h7.45c1.185,7.107,7.343,12.519,14.785,12.519c8.3,0,15.019-6.729,15.019-15.027
	C104.509,6.723,97.791,0,89.49,0L89.49,0z"/>
<path fill="#00A0E9" d="M71.19,32.343c-7.436,0-13.592,5.411-14.794,12.509h-7.857c-1.194-7.098-7.359-12.509-14.802-12.509
	c-8.29,0-15.015,6.724-15.015,15.017c0,8.302,6.725,15.011,15.015,15.011c7.442,0,13.608-5.398,14.802-12.506h7.857
	c1.202,7.107,7.358,12.506,14.794,12.506c8.293,0,15.016-6.709,15.016-15.011C86.206,39.066,79.483,32.343,71.19,32.343
	L71.19,32.343z"/>
<path fill="#005BAC" d="M127.333,21.159l-8.047-0.009v-7.96l8.047,0.013V21.159L127.333,21.159z M127.288,75.786h-8.045V25.668
	l8.045,0.014V75.786L127.288,75.786z"/>
<path fill="#005BAC" d="M199.796,62.146c0,9.076-5.648,13.611-16.901,13.611l-23.056-0.023v-8.036l23.056,0.015
	c3.162,0,5.468-0.407,6.896-1.23c1.312-0.765,1.971-2.205,1.971-4.336c0-3.668-2.483-5.506-7.468-5.506l-9.671-0.011
	c-11.163-0.012-16.74-4.245-16.74-12.713c0.01-4.717,1.867-8.122,5.594-10.268c2.666-1.633,6.097-2.449,10.254-2.449l23.296,0.013
	v8.046l-23.306-0.023c-5.24,0-7.865,1.555-7.865,4.682c0,2.239,1.006,3.656,3.025,4.265c0.932,0.271,2.842,0.415,5.742,0.415
	l9.684,0.003c4.692,0,8.447,1.176,11.228,3.528C198.376,54.492,199.796,57.821,199.796,62.146L199.796,62.146z"/>
<path fill="#005BAC" d="M241.201,65.201c0,7.321-1.577,12.503-4.688,15.512c-3.013,2.999-7.997,4.502-14.944,4.495h-18.534
	l0.005-8.045l18.54,0.001c3.118,0.017,5.329-0.213,6.653-0.646c2.233-0.708,3.682-2.237,4.344-4.6l-11.32-0.005
	c-6.019,0-10.566-1.172-13.627-3.53c-3.871-3.013-5.818-8.12-5.814-15.351l0.014-21.653l8.046,0.013l-0.009,21.649
	c0,4.374,1.002,7.355,3.032,8.938c1.519,1.332,4.31,1.983,8.358,1.983l11.9,0.006l0.022-32.575h8.036L241.201,65.201L241.201,65.201
	z"/>
<path fill="#005BAC" d="M286.881,62.199c0,9.076-5.635,13.61-16.913,13.61l-23.038-0.023V67.75l23.054,0.014
	c3.166,0,5.47-0.414,6.899-1.227c1.308-0.761,1.965-2.214,1.965-4.354c0-3.653-2.483-5.492-7.475-5.501l-9.672-0.007
	c-11.169,0-16.725-4.247-16.717-12.712c0-4.706,1.861-8.126,5.578-10.256c2.683-1.636,6.091-2.466,10.248-2.452l23.31,0.013
	l-0.022,8.04l-23.292-0.023c-5.244,0-7.873,1.565-7.873,4.679c0,2.244,1.015,3.659,3.043,4.271c0.925,0.269,2.841,0.411,5.726,0.411
	h9.693c4.699,0.009,8.456,1.184,11.229,3.537C285.477,54.545,286.891,57.882,286.881,62.199L286.881,62.199z"/>
<path fill="#005BAC" d="M323.377,39.48H307.87v18.288c0,3.334,0.409,5.658,1.224,6.979c0.874,1.269,2.505,1.882,4.926,1.888h9.269
	v8.045l-9.283-0.006c-9.395-0.009-14.1-5.644-14.1-16.905l0.014-18.304h-11.333l0.01-8.048l11.33,0.006l0.009-17.221h7.959
	l-0.006,17.221l15.5,0.02L323.377,39.48L323.377,39.48z"/>
<path fill="#005BAC" d="M368.812,57.096l-34.378-0.021c0.495,3.94,1.933,6.733,4.352,8.371c2.413,1.651,6.089,2.47,11.066,2.48
	l18.057,0.012l-0.021,7.945l-18.045-0.007c-15.741-0.007-23.619-7.509-23.611-22.492c0.011-6.232,1.622-11.535,4.858-15.91
	c3.993-5.308,9.776-7.961,17.383-7.947c7.327,0.005,12.813,2.981,16.414,8.948c2.623,4.267,3.931,9.134,3.926,14.6V57.096
	L368.812,57.096z M360.44,49.053c-1.29-7.71-5.292-11.56-11.969-11.569c-7.815,0-12.468,3.851-13.948,11.556L360.44,49.053
	L360.44,49.053z"/>
<path fill="#005BAC" d="M434.691,75.98h-7.958l0.022-23.296c0-4.979-1.257-8.509-3.77-10.586c-2.138-1.696-5.515-2.556-10.173-2.556
	h-5.425l-0.024,36.417h-7.87l-0.067-36.431l-19.186-0.005l-0.026,36.43h-8.04l0.026-44.475l40.612,0.016
	c14.611,0.01,21.906,7.083,21.895,21.189L434.691,75.98L434.691,75.98z"/>
<path fill="#005BAC" d="M479.887,62.309c0,9.089-5.649,13.614-16.904,13.605l-23.053-0.018l0.006-8.033l23.047,0.015
	c3.184,0.005,5.472-0.408,6.901-1.221c1.304-0.767,1.957-2.214,1.957-4.356c0.017-3.657-2.482-5.505-7.471-5.505h-9.664
	c-11.154-0.013-16.721-4.245-16.721-12.724c0-4.705,1.855-8.124,5.579-10.25c2.682-1.644,6.101-2.462,10.256-2.452l23.301,0.021
	l-0.01,8.037l-23.291-0.026c-5.254-0.002-7.871,1.56-7.871,4.67c0,2.236,0.995,3.671,3.023,4.267c0.935,0.277,2.848,0.41,5.733,0.41
	l9.689,0.011c4.704,0,8.456,1.185,11.231,3.541C478.488,54.654,479.9,58.003,479.887,62.309L479.887,62.309z"/>
<path fill="#005BAC" d="M130.455,20.957h16.761c0,0,2.264,0.309,2.264,2.337c0,0,0.085,2.194-2.264,2.194h-16.761v7.599h16.761
	c0,0,2.349,0.232,2.349,2.895c0,0,0,2.504-2.349,2.504h-16.761v7.593h16.761c0,0,10.097-0.084,10.097-10.097
	c0,0-0.396-4.375-2.191-6.43c0,0,2.434-2.738,1.878-8.286c0,0-0.981-7.829-9.783-7.829h-16.761V20.957L130.455,20.957z"/>
</svg>
