<?xml version="1.0" encoding="utf-8"?>
<!-- Generator: Adobe Illustrator 15.0.0, SVG Export Plug-In  -->
<!DOCTYPE svg PUBLIC "-//W3C//DTD SVG 1.1//EN" "http://www.w3.org/Graphics/SVG/1.1/DTD/svg11.dtd" [
	<!ENTITY ns_flows "http://ns.adobe.com/Flows/1.0/">
]>
<svg version="1.1"
	 xmlns="http://www.w3.org/2000/svg" xmlns:xlink="http://www.w3.org/1999/xlink" xmlns:a="http://ns.adobe.com/AdobeSVGViewerExtensions/3.0/"
	 x="0px" y="0px" width="600px" height="600px" viewBox="0 0 600 600" overflow="visible" enable-background="new 0 0 600 600"
	 xml:space="preserve">
<defs>
</defs>
<rect x="58.619" y="205.269" fill="#FFFFFF" width="482.759" height="189.461"/>
<path fill="#2DAD38" d="M262.423,257.623h-12.523c-1.923,0-3.48,1.554-3.48,3.473v77.809c0,1.918,1.558,3.473,3.48,3.473h12.523
	c1.923,0,3.479-1.555,3.479-3.473v-77.809C265.902,259.176,264.346,257.623,262.423,257.623"/>
<path fill="#2DAD38" d="M348.641,257.623h-12.526c-1.921,0-3.479,1.554-3.479,3.473v46.225l-35.658-48.154
	c-0.082-0.125-0.176-0.24-0.273-0.353c-0.006-0.009-0.015-0.017-0.021-0.024c-0.065-0.074-0.135-0.145-0.205-0.212
	c-0.021-0.02-0.044-0.039-0.064-0.059c-0.06-0.055-0.122-0.106-0.184-0.157c-0.032-0.023-0.063-0.045-0.093-0.068
	c-0.06-0.044-0.12-0.085-0.182-0.124c-0.033-0.022-0.069-0.043-0.104-0.063c-0.062-0.035-0.124-0.072-0.188-0.103
	c-0.035-0.021-0.071-0.037-0.107-0.054c-0.067-0.03-0.132-0.06-0.2-0.086c-0.037-0.015-0.073-0.025-0.111-0.04
	c-0.067-0.023-0.137-0.047-0.207-0.066c-0.038-0.012-0.078-0.022-0.12-0.031c-0.066-0.016-0.134-0.032-0.201-0.044
	c-0.05-0.011-0.097-0.016-0.146-0.022c-0.062-0.009-0.12-0.017-0.184-0.021c-0.061-0.007-0.122-0.009-0.183-0.01
	c-0.039-0.003-0.077-0.006-0.116-0.006h-12.526c-1.92,0-3.479,1.554-3.479,3.473v77.809c0,1.918,1.56,3.473,3.479,3.473h12.526
	c1.922,0,3.479-1.555,3.479-3.473v-46.21l35.702,48.212c0.246,0.35,0.546,0.635,0.88,0.861c0.013,0.008,0.026,0.018,0.039,0.027
	c0.07,0.045,0.141,0.088,0.214,0.131c0.032,0.018,0.065,0.037,0.102,0.053c0.053,0.027,0.108,0.057,0.165,0.08
	c0.056,0.023,0.108,0.049,0.165,0.07c0.036,0.016,0.072,0.027,0.108,0.041c0.075,0.027,0.155,0.053,0.235,0.076
	c0.015,0.004,0.031,0.006,0.05,0.012c0.284,0.074,0.581,0.119,0.89,0.119h12.526c1.921,0,3.479-1.555,3.479-3.473v-77.809
	C352.119,259.176,350.562,257.623,348.641,257.623"/>
<path fill="#2DAD38" d="M232.229,322.893h-34.033v-61.796c0-1.918-1.558-3.474-3.479-3.474h-12.525c-1.922,0-3.48,1.556-3.48,3.474
	v77.802v0.004c0,0.936,0.37,1.779,0.973,2.404c0.017,0.018,0.03,0.035,0.047,0.053c0.017,0.016,0.035,0.029,0.051,0.049
	c0.625,0.598,1.47,0.969,2.405,0.969h0.005h50.038c1.918,0,3.474-1.559,3.474-3.479v-12.525
	C235.703,324.451,234.147,322.893,232.229,322.893"/>
<path fill="#2DAD38" d="M417.812,277.106c1.919,0,3.474-1.558,3.474-3.479V261.1c0-1.92-1.555-3.479-3.474-3.479h-50.036h-0.007
	c-0.939,0-1.79,0.374-2.413,0.979c-0.014,0.014-0.026,0.025-0.042,0.038c-0.021,0.02-0.035,0.042-0.056,0.062
	c-0.594,0.623-0.962,1.465-0.962,2.395v0.004v77.796v0.008c0,0.934,0.37,1.777,0.97,2.402c0.018,0.018,0.031,0.035,0.048,0.053
	c0.016,0.016,0.036,0.029,0.054,0.049c0.622,0.598,1.468,0.969,2.401,0.969h0.007h50.036c1.919,0,3.474-1.557,3.474-3.48v-12.523
	c0-1.922-1.555-3.48-3.474-3.48h-34.031V309.74h34.031c1.919,0,3.474-1.557,3.474-3.479v-12.525c0-1.921-1.555-3.479-3.474-3.479
	h-34.031v-13.152H417.812z"/>
<rect fill="none" width="841.89" height="595.28"/>
</svg>
