<?xml version="1.0" encoding="utf-8"?>
<!-- Generator: Adobe Illustrator 15.0.0, SVG Export Plug-In . SVG Version: 6.00 Build 0)  -->
<!DOCTYPE svg PUBLIC "-//W3C//DTD SVG 1.1//EN" "http://www.w3.org/Graphics/SVG/1.1/DTD/svg11.dtd">
<svg version="1.1" id="レイヤー_1" xmlns="http://www.w3.org/2000/svg" xmlns:xlink="http://www.w3.org/1999/xlink" x="0px"
	 y="0px" width="600px" height="600px" viewBox="-150 -150 600 600" enable-background="new -150 -150 600 600"
	 xml:space="preserve">
<rect x="416.301" y="111.11" fill="#222222" width="19.458" height="83.329"/>
<path fill="#222222" d="M207.717,178.369c-16.343,0-25.92-10.141-25.92-24.356c0-13.912,7.372-25.588,24.604-25.588
	c14.447,0,25.614,6.136,25.614,6.136v-18.205c0,0-11.304-5.298-25.992-5.298c-26.471,0-43.284,18.243-43.284,42.961
	c0,24.552,18.358,41.067,44.685,41.067c14.801,0,26.446-5.264,26.446-5.264v-17.759
	C233.873,172.056,221.241,178.369,207.717,178.369"/>
<path fill="#222222" d="M-45.928,111.093c-11.415,0-18.759,4.121-26.271,12.939c-7.085-8.472-15.498-12.939-26.751-12.939
	c-21.222,0-35.836,16.009-35.836,37.228v46.118h19.166v-48.002c0-10.188,6.186-17.872,16.668-17.872
	c10.573,0,17.319,7.684,17.319,17.872v48.002h18.844v-48.002c0-10.188,6.381-17.872,16.862-17.872
	c10.579,0,17.515,7.684,17.515,17.872v48.002h19.178V148.32C-9.237,127.102-24.609,111.093-45.928,111.093"/>
<path fill="#222222" d="M436.787,91.202c0,5.94-4.816,10.758-10.752,10.758c-5.944,0-10.765-4.818-10.765-10.758
	c0-5.943,4.82-10.757,10.765-10.757C431.971,80.445,436.787,85.259,436.787,91.202"/>
<path fill="#222222" d="M291.366,111.114c-24.495,0-42.29,17.633-42.29,41.919c0,24.683,16.677,41.916,40.52,41.916
	c11.501,0,21.188-6.607,24.165-14.113v13.603h19.131v-41.405C332.888,127.565,316.831,111.114,291.366,111.114z M291.189,178.137
	c-14.064,0-22.821-9.618-22.821-25.105c0-14.312,9.827-25.106,22.821-25.106c13.855,0,22.402,9.854,22.402,25.106
	C313.592,165.202,305.998,178.137,291.189,178.137z"/>
<path fill="#222222" d="M143.121,128.566c-10.479,0-16.662,8.717-16.662,20.311v45.562H107.29V148.32
	c0-21.221,14.612-37.228,35.831-37.228h6.926v17.402L143.121,128.566z"/>
<path fill="#222222" d="M389.608,128.566c-10.483,0-16.664,8.717-16.664,20.311v45.562h-19.173V148.32
	c0-21.221,14.607-37.228,35.837-37.228h6.919v17.402L389.608,128.566z"/>
<path fill="#222222" d="M49.949,111.029c-25.868,0-41.327,20.752-41.327,42.178c0,26.185,18.783,41.742,44.667,41.742
	c16.765,0,30.334-5.32,30.334-5.32v-16.807c0,0-15.238,6.324-29.412,6.324c-14.389,0-24.419-6.415-26.264-19.212h58.28
	c0,0,0.577-3.774,0.577-9.219C86.803,127.565,69.331,111.029,49.949,111.029 M28.104,144.768
	c2.754-14.092,13.245-17.729,21.313-17.729c8.729,0,19.162,5.562,20.678,17.729H28.104z"/>
</svg>
