<?xml version="1.0" encoding="UTF-8" standalone="no"?>
<svg
   xmlns:dc="http://purl.org/dc/elements/1.1/"
   xmlns:cc="http://creativecommons.org/ns#"
   xmlns:rdf="http://www.w3.org/1999/02/22-rdf-syntax-ns#"
   xmlns:svg="http://www.w3.org/2000/svg"
   xmlns="http://www.w3.org/2000/svg"
   viewBox="0 0 1706.6667 960"
   height="960"
   width="1706.6667"
   xml:space="preserve"
   id="svg2"
   version="1.1"><metadata
     id="metadata8"><rdf:RDF><cc:Work
         rdf:about=""><dc:format>image/svg+xml</dc:format><dc:type
           rdf:resource="http://purl.org/dc/dcmitype/StillImage" /></cc:Work></rdf:RDF></metadata><defs
     id="defs6"><clipPath
       id="clipPath20"
       clipPathUnits="userSpaceOnUse"><path
         id="path18"
         d="M 0,720 H 1280 V 0 H 0 Z" /></clipPath></defs><g
     transform="matrix(1.3333333,0,0,-1.3333333,0,960)"
     id="g10"><path
       id="path12"
       style="fill:#222222;fill-opacity:1;fill-rule:nonzero;stroke:none"
       d="m 964.909,290.587 h 23.833 v 102.049 h -23.833 z" /><g
       id="g14"><g
         clip-path="url(#clipPath20)"
         id="g16"><g
           transform="translate(709.459,310.2686)"
           id="g22"><path
             id="path24"
             style="fill:#222222;fill-opacity:1;fill-rule:nonzero;stroke:none"
             d="m 0,0 c -20.011,0 -31.739,12.419 -31.739,29.829 0,17.038 9.019,31.338 30.131,31.338 17.692,0 31.365,-7.511 31.365,-7.511 v 22.297 c 0,0 -13.843,6.489 -31.833,6.489 -32.418,0 -53.013,-22.346 -53.013,-52.613 0,-30.065 22.486,-50.294 54.735,-50.294 18.124,0 32.389,6.446 32.389,6.446 V 7.73 C 32.035,7.73 16.562,0 0,0" /></g><g
           transform="translate(398.8242,392.6558)"
           id="g26"><path
             id="path28"
             style="fill:#222222;fill-opacity:1;fill-rule:nonzero;stroke:none"
             d="M 0,0 C -13.977,0 -22.977,-5.044 -32.171,-15.846 -40.854,-5.469 -51.158,0 -64.94,0 c -25.991,0 -43.884,-19.601 -43.884,-45.59 v -56.479 h 23.473 v 58.788 c 0,12.477 7.574,21.885 20.411,21.885 12.952,0 21.216,-9.408 21.216,-21.885 v -58.788 h 23.074 v 58.788 c 0,12.477 7.814,21.885 20.65,21.885 12.953,0 21.451,-9.408 21.451,-21.885 v -58.788 H 44.936 V -45.59 C 44.936,-19.601 26.107,0 0,0" /></g><g
           transform="translate(990,417.0225)"
           id="g30"><path
             id="path32"
             style="fill:#222222;fill-opacity:1;fill-rule:nonzero;stroke:none"
             d="m 0,0 c 0,-7.275 -5.898,-13.174 -13.174,-13.174 -7.276,0 -13.174,5.899 -13.174,13.174 0,7.276 5.898,13.174 13.174,13.174 C -5.898,13.174 0,7.276 0,0" /></g><g
           transform="translate(811.6875,310.5488)"
           id="g34"><path
             id="path36"
             style="fill:#222222;fill-opacity:1;fill-rule:nonzero;stroke:none"
             d="m 0,0 c -17.226,0 -27.947,11.782 -27.947,30.747 0,17.529 12.027,30.749 27.947,30.749 16.964,0 27.436,-12.07 27.436,-30.749 C 27.436,15.842 18.137,0 0,0 m 0.216,82.085 c -29.997,0 -51.793,-21.591 -51.793,-51.338 0,-30.226 20.418,-51.337 49.621,-51.337 14.083,0 25.95,8.094 29.596,17.285 v -16.657 h 23.423 v 50.709 c 0,31.187 -19.662,51.338 -50.847,51.338" /></g><g
           transform="translate(630.353,371.2603)"
           id="g38"><path
             id="path40"
             style="fill:#222222;fill-opacity:1;fill-rule:nonzero;stroke:none"
             d="m 0,0 c -12.836,0 -20.41,-10.673 -20.41,-24.869 v -55.804 h -23.474 v 56.478 c 0,25.99 17.894,45.591 43.884,45.591 H 8.477 V 0.084 Z" /></g><g
           transform="translate(932.2178,371.2603)"
           id="g42"><path
             id="path44"
             style="fill:#222222;fill-opacity:1;fill-rule:nonzero;stroke:none"
             d="m 0,0 c -12.836,0 -20.41,-10.673 -20.41,-24.869 v -55.804 h -23.474 v 56.478 c 0,25.99 17.894,45.591 43.884,45.591 H 8.478 V 0.084 Z" /></g><g
           transform="translate(489.4868,351.4189)"
           id="g46"><path
             id="path48"
             style="fill:#222222;fill-opacity:1;fill-rule:nonzero;stroke:none"
             d="M 0,0 C 3.376,17.257 16.224,21.711 26.105,21.711 36.797,21.711 49.572,14.899 51.428,0 Z m 26.76,41.316 c -31.679,0 -50.613,-25.412 -50.613,-51.652 0,-32.065 23.003,-51.124 54.702,-51.124 20.534,0 37.154,6.518 37.154,6.518 v 20.583 c 0,0 -18.666,-7.742 -36.023,-7.742 -17.626,0 -29.907,7.856 -32.168,23.524 h 71.374 c 0,0 0.704,4.625 0.704,11.293 0,28.35 -21.395,48.6 -45.13,48.6" /></g></g></g></g></svg>