<?xml version="1.0" encoding="utf-8"?>
<!-- Generator: Adobe Illustrator 15.0.0, SVG Export Plug-In . SVG Version: 6.00 Build 0)  -->
<!DOCTYPE svg PUBLIC "-//W3C//DTD SVG 1.1//EN" "http://www.w3.org/Graphics/SVG/1.1/DTD/svg11.dtd">
<svg version="1.1" id="レイヤー_1" xmlns="http://www.w3.org/2000/svg" xmlns:xlink="http://www.w3.org/1999/xlink" x="0px"
	 y="0px" width="300px" height="300px" viewBox="0 0 300 300" enable-background="new 0 0 300 300" xml:space="preserve">
<rect x="278.764" y="129.328" fill="#222222" width="9.444" height="40.443"/>
<path fill="#222222" d="M177.527,161.973c-7.932,0-12.58-4.922-12.58-11.822c0-6.752,3.578-12.419,11.941-12.419
	c7.012,0,12.432,2.978,12.432,2.978v-8.836c0,0-5.486-2.571-12.615-2.571c-12.848,0-21.008,8.854-21.008,20.851
	c0,11.917,8.91,19.932,21.688,19.932c7.184,0,12.836-2.555,12.836-2.555v-8.619C190.223,158.908,184.092,161.973,177.527,161.973"/>
<path fill="#222222" d="M54.421,129.32c-5.54,0-9.105,2-12.751,6.28c-3.439-4.112-7.522-6.28-12.984-6.28
	c-10.3,0-17.393,7.77-17.393,18.068v22.383h9.302v-23.297c0-4.945,3.002-8.674,8.09-8.674c5.132,0,8.406,3.729,8.406,8.674v23.297
	h9.146v-23.297c0-4.945,3.097-8.674,8.184-8.674c5.134,0,8.501,3.729,8.501,8.674v23.297h9.308v-22.383
	C72.229,137.09,64.768,129.32,54.421,129.32"/>
<path fill="#222222" d="M288.707,119.666c0,2.883-2.338,5.221-5.219,5.221c-2.885,0-5.225-2.338-5.225-5.221
	c0-2.885,2.34-5.221,5.225-5.221C286.369,114.445,288.707,116.781,288.707,119.666"/>
<path fill="#222222" d="M218.127,129.33c-11.889,0-20.525,8.558-20.525,20.346c0,11.979,8.094,20.344,19.666,20.344
	c5.582,0,10.283-3.207,11.729-6.85v6.602h9.285v-20.096C238.279,137.315,230.486,129.33,218.127,129.33z M218.041,161.859
	c-6.826,0-11.076-4.668-11.076-12.185c0-6.947,4.77-12.186,11.076-12.186c6.725,0,10.873,4.783,10.873,12.186
	C228.914,155.582,225.229,161.859,218.041,161.859z"/>
<path fill="#222222" d="M146.176,137.801c-5.086,0-8.087,4.23-8.087,9.857v22.113h-9.304v-22.383
	c0-10.299,7.092-18.068,17.391-18.068h3.361v8.446L146.176,137.801z"/>
<path fill="#222222" d="M265.809,137.801c-5.088,0-8.088,4.23-8.088,9.857v22.113h-9.306v-22.383
	c0-10.299,7.09-18.068,17.394-18.068h3.358v8.446L265.809,137.801z"/>
<path fill="#222222" d="M100.955,129.289c-12.555,0-20.058,10.072-20.058,20.471c0,12.709,9.116,20.26,21.679,20.26
	c8.137,0,14.723-2.582,14.723-2.582v-8.157c0,0-7.396,3.069-14.275,3.069c-6.984,0-11.852-3.113-12.747-9.324h28.286
	c0,0,0.28-1.832,0.28-4.475C118.842,137.315,110.362,129.289,100.955,129.289 M90.352,145.664c1.337-6.84,6.429-8.605,10.345-8.605
	c4.236,0,9.3,2.7,10.036,8.605H90.352z"/>
</svg>
