<?xml version="1.0" encoding="utf-8"?>
<!-- Generator: Adobe Illustrator 22.1.0, SVG Export Plug-In . SVG Version: 6.00 Build 0)  -->
<svg version="1.1" id="Layer_1" xmlns="http://www.w3.org/2000/svg" xmlns:xlink="http://www.w3.org/1999/xlink" x="0px" y="0px"
	 viewBox="0 0 87 26" style="enable-background:new 0 0 87 26;" xml:space="preserve">
<style type="text/css">
	.st0{filter:url(#Adobe_OpacityMaskFilter);}
	.st1{fill:#FFFFFF;}
	.st2{mask:url(#mask-2_2_);fill:#74758B;}
	.st3{fill:#74758B;}
	.st4{filter:url(#Adobe_OpacityMaskFilter_1_);}
	.st5{mask:url(#mask-4_2_);fill:#74758B;}
</style>
<title>nulab logo</title>
<desc>Created with Sketch.</desc>
<g id="Group-3" transform="translate(0.000000, 7.428571)">
	<g id="Clip-2">
	</g>
	<defs>
		<filter id="Adobe_OpacityMaskFilter" filterUnits="userSpaceOnUse" x="0" y="0" width="18.9" height="18.4">
			<feColorMatrix  type="matrix" values="1 0 0 0 0  0 1 0 0 0  0 0 1 0 0  0 0 0 1 0"/>
		</filter>
	</defs>
	<mask maskUnits="userSpaceOnUse" x="0" y="0" width="18.9" height="18.4" id="mask-2_2_">
		<g class="st0">
			<polygon id="path-1_2_" class="st1" points="0,0 0,18.4 18.9,18.4 18.9,0 			"/>
		</g>
	</mask>
	<path id="Fill-1" class="st2" d="M18.9,18.4h-4.2V9.2c0-2.8-2.3-5-5.2-5c-2.9,0-5.2,2.3-5.2,5v9.2H0V9.2C0,4.1,4.2,0,9.4,0
		s9.4,4.1,9.4,9.1V18.4z"/>
</g>
<path id="Fill-4" class="st3" d="M30.3,26c-5.2,0-9.5-4.1-9.5-9.2V7.4h4.3v9.3c0,2.8,2.3,5.1,5.2,5.1c2.9,0,5.2-2.3,5.2-5.1V7.4h4.3
	v9.3C39.7,21.9,35.5,26,30.3,26"/>
<path id="Fill-8" class="st3" d="M56.7,11.6c-2.9,0-5.2,2.3-5.2,5.1c0,2.8,2.3,5.1,5.2,5.1H62V11.6H56.7z M66.2,26h-9.5
	c-5.2,0-9.4-4.2-9.4-9.3s4.2-9.3,9.4-9.3h9.5V26z"/>
<g id="Group-12" transform="translate(68.086957, 0.000000)">
	<g id="Clip-11">
	</g>
	<defs>
		<filter id="Adobe_OpacityMaskFilter_1_" filterUnits="userSpaceOnUse" x="0.2" y="0.1" width="18.5" height="25.9">
			<feColorMatrix  type="matrix" values="1 0 0 0 0  0 1 0 0 0  0 0 1 0 0  0 0 0 1 0"/>
		</filter>
	</defs>
	<mask maskUnits="userSpaceOnUse" x="0.2" y="0.1" width="18.5" height="25.9" id="mask-4_2_">
		<g class="st4">
			<polygon id="path-3_2_" class="st1" points="18.7,26 18.7,0.1 0.2,0.1 0.2,26 			"/>
		</g>
	</mask>
	<path id="Fill-10" class="st5" d="M4.4,21.9h5.1c2.8,0,5.1-2.3,5.1-5c0-2.8-2.3-5-5.1-5H4.4V21.9z M9.5,26H0.2V0.1h4.1v7.6h5.1
		c5.1,0,9.2,4.1,9.2,9.1S14.6,26,9.5,26z"/>
</g>
<polygon id="Fill-13" class="st3" points="41.6,26 45.4,26 45.4,1.9 41.6,1.9 "/>
</svg>
