<?xml version="1.0" encoding="utf-8"?>
<!-- Generator: Adobe Illustrator 15.0.0, SVG Export Plug-In  -->
<!DOCTYPE svg PUBLIC "-//W3C//DTD SVG 1.1//EN" "http://www.w3.org/Graphics/SVG/1.1/DTD/svg11.dtd" [
	<!ENTITY ns_flows "http://ns.adobe.com/Flows/1.0/">
]>
<svg version="1.1"
	 xmlns="http://www.w3.org/2000/svg" xmlns:xlink="http://www.w3.org/1999/xlink" xmlns:a="http://ns.adobe.com/AdobeSVGViewerExtensions/3.0/"
	 x="0px" y="0px" width="600px" height="600px" viewBox="0 -211.035 600 600"
	 overflow="visible" enable-background="new 0 -211.035 600 600" xml:space="preserve">
<defs>
</defs>
<path id="Fill-1_1_" fill="#74758B" d="M130.345,177.438h-28.965V113.99c0-19.31-15.862-34.482-35.862-34.482
	S29.655,95.37,29.655,113.99v63.448H0V113.99c0-35.172,28.965-63.448,64.828-63.448c35.862,0,64.828,28.276,64.828,62.759v64.138
	H130.345z"/>
<path id="Fill-4_1_" fill="#74758B" d="M208.965,178.621c-35.862,0-65.517-28.276-65.517-63.448V50.345h29.655v64.138
	c0,19.311,15.862,35.172,35.862,35.172s35.862-15.861,35.862-35.172V50.345h29.655v64.138
	C273.793,150.344,244.828,178.621,208.965,178.621"/>
<path id="Fill-8_1_" fill="#74758B" d="M391.034,79.31c-20,0-35.861,15.862-35.861,35.173s15.861,35.172,35.861,35.172h36.552V79.31
	H391.034z M456.552,178.621h-65.518c-35.861,0-64.827-28.966-64.827-64.138c0-35.173,28.966-64.138,64.827-64.138h65.518V178.621z"
	/>
<path id="Fill-10_1_" fill="#74758B" d="M499.91,150.344h35.172c19.311,0,35.173-15.861,35.173-34.482
	c0-19.311-15.862-34.483-35.173-34.483H499.91V150.344z M535.082,178.621h-64.138V0h28.276v52.414h35.172
	c35.173,0,63.448,28.276,63.448,62.759C597.841,149.655,570.255,178.621,535.082,178.621z"/>
<polygon id="Fill-13_1_" fill="#74758B" points="286.896,178.621 313.104,178.621 313.104,12.414 286.896,12.414 "/>
</svg>
