<svg id="Layer_1" data-name="Layer 1" xmlns="http://www.w3.org/2000/svg" xmlns:xlink="http://www.w3.org/1999/xlink" viewBox="0 0 685.3575 685.3553"><defs><style>.cls-1{fill:none;}.cls-2{clip-path:url(#clip-path);}.cls-3{fill:#3e6f99;}.cls-4{fill:#005aac;}.cls-5{fill:#393c41;}</style><clipPath id="clip-path"><rect class="cls-1" x="0.1577" width="685.0421" height="685.0421"/></clipPath></defs><title>with_pepapon</title><g class="cls-2"><path class="cls-3" d="M342.6853,413.4624c9.3062-22.7961,21.0186-49.0612,21.0186-49.0612a11.23,11.23,0,0,1,7.3538-6.5948,104.0962,104.0962,0,1,0-56.7535,0,11.3042,11.3042,0,0,1,7.3793,6.5948S333.3622,390.6663,342.6853,413.4624Z"/><path class="cls-4" d="M195.526,527.312h3.7671a.6669.6669,0,0,0,.5209-.2971l15.5645-25.4809,8.4649,29.1538a.4754.4754,0,0,0,.44.3338h16.3393a.2342.2342,0,0,0,.2435-.3207l-17.2294-54.5523a.511.511,0,0,0-.4543-.3325h-6.1336a.6838.6838,0,0,0-.534.2972l-20.9887,32.53-20.9835-32.53a.695.695,0,0,0-.5367-.2972h-6.1336a.5093.5093,0,0,0-.4529.3325l-17.2281,54.5523a.2329.2329,0,0,0,.2434.3207h16.3342a.4737.4737,0,0,0,.4424-.3338l8.4648-29.1538,15.5659,25.4809a.6593.6593,0,0,0,.5222.2971Z"/><path class="cls-4" d="M150.9333,500.1438v-.0131a.3558.3558,0,0,0-.3429-.2736h-46.539a4.46,4.46,0,0,0,0,8.9191h27.6564c-3.2946,8.7031-14.4375,15.0985-27.6564,15.0985-15.8263,0-28.6485-9.156-28.6485-20.4521s12.8222-20.4611,28.6485-20.4611c8.6442,0,16.3839,2.7343,21.6379,7.0629a.18.18,0,0,1,.0537.0485.3341.3341,0,0,0,.1924.0458h19.0174a.3483.3483,0,0,0,.35-.3442.3078.3078,0,0,0-.0824-.2134c-.0105-.0236-.0249-.0236-.0275-.0367-8.1-8.6324-23.4848-14.4453-41.141-14.4453-26.0687,0-47.2026,12.6887-47.2026,28.3435,0,15.6614,21.1339,28.3476,47.2026,28.3476,26.0621,0,47.1922-12.6862,47.1922-28.3476a17.6581,17.6581,0,0,0-.31-3.2788"/><path class="cls-4" d="M287.0046,475.0782c-26.0647,0-47.1922,12.6887-47.1922,28.3462,0,15.66,21.1275,28.3448,47.1922,28.3448,26.0673,0,47.2026-12.6848,47.2026-28.3448,0-15.6575-21.1353-28.3462-47.2026-28.3462m0,48.7969c-15.8158,0-28.6433-9.156-28.6433-20.4507s12.8275-20.4639,28.6433-20.4639c15.8263,0,28.6564,9.1678,28.6564,20.4639s-12.83,20.4507-28.6564,20.4507"/><path class="cls-5" d="M533.1833,530.1423a.8071.8071,0,0,0,.8154.8784h9.8563a.9684.9684,0,0,0,.9476-.8784l1.6925-22.5725a.8079.8079,0,0,0-.8155-.8782h-9.8562a.9676.9676,0,0,0-.9477.8782Z"/><path class="cls-5" d="M590.2264,506.6917a.8061.8061,0,0,0-.8141.8783l1.7107,22.5725a.9686.9686,0,0,0,.9477.8783h9.8576c.4843,0,1.4073-.3953,1.3706-.8783L601.03,507.57a.9674.9674,0,0,0-.9476-.8783Z"/><path class="cls-5" d="M600.7043,495.512a.8837.8837,0,0,0,.8809-.8809v-9.4858a.8837.8837,0,0,0-.8809-.8809H574.3487a.883.883,0,0,1-.881-.881v-6.6873a.8837.8837,0,0,0-.8809-.8809H563.1a.8837.8837,0,0,0-.8809.8809v6.6873a.883.883,0,0,1-.8809.881H535.17a.8837.8837,0,0,0-.8809.8809v9.4858a.8837.8837,0,0,0,.8809.8809h26.1682a.8829.8829,0,0,1,.8809.8809V530.14a.8838.8838,0,0,0,.8809.881h9.4871a.8838.8838,0,0,0,.8809-.881V496.3929a.8829.8829,0,0,1,.881-.8809Z"/><path class="cls-3" d="M607.968,475.0778h6.6839a.881.881,0,0,1,.881.881v12.9837a.8809.8809,0,0,1-.8809.8809h-6.6841a.8808.8808,0,0,1-.8808-.8808V475.9587A.8809.8809,0,0,1,607.968,475.0778Z"/><rect class="cls-3" x="620.0629" y="475.0778" width="8.4458" height="14.7456" rx="0.8809"/><path class="cls-5" d="M348.8178,514.3966a.5956.5956,0,0,0,0,.839l7.1141,7.114a.5972.5972,0,0,0,.84,0l25.7872-25.7872a.5932.5932,0,0,1,.839,0l33.6788,33.74a.5944.5944,0,0,0,.839,0l7.1141-7.1141a.5958.5958,0,0,0,0-.839l-41.624-41.7012a.5946.5946,0,0,0-.839-.0013Z"/><path class="cls-3" d="M417.881,491.6967a8.31,8.31,0,1,0-8.3091-8.3091,8.3089,8.3089,0,0,0,8.3091,8.3091"/><path class="cls-5" d="M443.8309,530.4315a.5144.5144,0,0,0,.5223.589H455.28a.6875.6875,0,0,0,.6649-.589l5.91-49.1333a.5146.5146,0,0,0-.5236-.589H450.4044a.6872.6872,0,0,0-.6636.589Z"/><path class="cls-5" d="M488.097,480.7089a.515.515,0,0,0-.5223.589l5.9635,49.1333a.6887.6887,0,0,0,.6649.59H505.13a.5154.5154,0,0,0,.5222-.59l-5.9634-49.1333a.69.69,0,0,0-.665-.589Z"/><path class="cls-3" d="M515.721,475.0778a8.31,8.31,0,1,0,8.309,8.309,8.3089,8.3089,0,0,0-8.309-8.309"/></g></svg>