<?xml version="1.0" encoding="utf-8"?>
<!-- Generator: Adobe Illustrator 15.0.0, SVG Export Plug-In  -->
<!DOCTYPE svg PUBLIC "-//W3C//DTD SVG 1.1//EN" "http://www.w3.org/Graphics/SVG/1.1/DTD/svg11.dtd" [
	<!ENTITY ns_flows "http://ns.adobe.com/Flows/1.0/">
]>
<svg version="1.1"
	 xmlns="http://www.w3.org/2000/svg" xmlns:xlink="http://www.w3.org/1999/xlink" xmlns:a="http://ns.adobe.com/AdobeSVGViewerExtensions/3.0/"
	 x="0px" y="0px" width="600px" height="371px" viewBox="-6.233 -53.041 600 371"
	 overflow="visible" enable-background="new -6.233 -53.041 600 371" xml:space="preserve">
<defs>
</defs>
<path fill="none" stroke="#333333" stroke-miterlimit="10" d="M39.267,278.459h536"/>
<path fill="none" stroke="#CCCCCC" stroke-miterlimit="10" d="M39.267,211.459h536"/>
<path fill="none" stroke="#CCCCCC" stroke-miterlimit="10" d="M39.267,143.459h536"/>
<path fill="none" stroke="#CCCCCC" stroke-miterlimit="10" d="M39.267,76.459h536"/>
<path fill="none" stroke="#CCCCCC" stroke-miterlimit="10" d="M39.267,9.459h536"/>
<path fill="#009944" d="M124.767,277.959h-55v-11c0-1.104,0.896-2,2-2h51c1.104,0,2,0.896,2,2V277.959z"/>
<path d="M208.767,277.959h-55v-65c0-1.104,0.896-2,2-2h51c1.104,0,2,0.896,2,2V277.959z"/>
<path fill="#CE3262" d="M292.767,277.959h-55v-267c0-1.104,0.896-2,2-2h51c1.104,0,2,0.896,2,2V277.959z"/>
<path fill="#00ADD8" d="M377.767,277.959h-55v-146c0-1.104,0.895-2,2-2h51c1.104,0,2,0.896,2,2V277.959z"/>
<path fill="#F975A8" d="M461.767,277.959h-55v-4c0-1.104,0.895-2,2-2h51c1.104,0,2,0.896,2,2V277.959z"/>
<path fill="#B8B7B5" d="M545.767,277.959h-55v-31c0-1.104,0.895-2,2-2h51c1.104,0,2,0.896,2,2V277.959z"/>
<path fill="#757575" d="M90.938,294.207c0.719-0.938,1.297-2.047,1.734-3.328h-3.609C89.532,292.316,90.157,293.425,90.938,294.207z
	 M93.376,291.066c-0.469,1.312-1.125,2.484-1.969,3.516c0.844,0.781,2.25,1.422,4.219,1.922c-0.312,0.156-0.609,0.375-0.891,0.656
	c-1.406-0.406-2.656-1.125-3.75-2.156c-1.062,1.094-2.766,1.938-5.109,2.531c-0.188-0.031-0.203-0.109-0.047-0.234
	c2.125-0.656,3.719-1.547,4.781-2.672c-0.781-0.906-1.422-2.156-1.922-3.75h-1.875v1.172c0,1.844-0.641,3.609-1.922,5.297
	c-0.125,0.094-0.188,0.062-0.188-0.094c1-1.75,1.5-3.453,1.5-5.109v-4.594l0.75,0.422h6.703l0.703-0.703l0.891,0.656
	c0.188,0.156,0.188,0.266,0,0.328h-8.438v2.344h5.906l0.328-0.469l0.797,0.609C94.126,291.019,93.97,291.128,93.376,291.066z
	 M96.517,293.316c1.344-0.531,2.406-1.031,3.188-1.5v-0.609l0.609,0.281c0.344-0.188,0.703-0.422,1.078-0.703
	c-0.031-0.188-0.125-0.297-0.281-0.328l-0.891-0.188c-0.094-0.062-0.078-0.109,0.047-0.141h1.219c0.25,0,0.375-0.125,0.375-0.375
	v-2.906l0.844,0.141c0.344,0.125,0.266,0.25-0.234,0.375v2.719c0.531-0.344,1.234-0.938,2.109-1.781l0.656,0.656
	c0.25,0.25,0.078,0.328-0.516,0.234c-1.188,0.906-2.344,1.672-3.469,2.297h3.516l0.281-0.375l0.656,0.469
	c0.188,0.156,0.125,0.266-0.188,0.328v5.203c-0.406,0.375-0.609,0.391-0.609,0.047v-0.469h-4.594v0.609
	c-0.406,0.375-0.609,0.391-0.609,0.047v-5.062c-0.969,0.469-2,0.875-3.094,1.219C96.454,293.503,96.423,293.441,96.517,293.316z
	 M106.501,289.144c-0.406-0.812-1.078-1.406-2.016-1.781c-0.125-0.125-0.094-0.188,0.094-0.188c0.688,0.156,1.344,0.453,1.969,0.891
	c0.562,0.406,0.844,0.781,0.844,1.125c0,0.281-0.109,0.422-0.328,0.422S106.657,289.457,106.501,289.144z M100.313,296.41h4.594
	v-1.406h-4.594V296.41z M100.313,294.722h4.594v-1.359h-4.594V294.722z M100.313,292.003v1.078h4.594v-1.312h-4.078L100.313,292.003
	z M99.704,288.3c-0.656,0.844-1.562,1.656-2.719,2.438c-0.188,0.062-0.234,0.016-0.141-0.141c1.125-0.906,1.984-1.953,2.578-3.141
	l0.984,0.609C100.657,288.253,100.423,288.332,99.704,288.3z"/>
<path fill="#757575" d="M177.379,296.128c0.5-0.5,0.766-1.641,0.797-3.422h-3.328c-0.438,2.281-1.844,3.875-4.219,4.781
	c-0.25,0.031-0.281-0.047-0.094-0.234c2.062-1.031,3.281-2.547,3.656-4.547h-3.469v-0.281h3.516
	c0.125-0.719,0.219-1.438,0.281-2.156l0.844,0.188c0.438,0.125,0.375,0.266-0.188,0.422c-0.062,0.438-0.156,0.953-0.281,1.547h3.141
	l0.281-0.375l0.656,0.469c0.219,0.156,0.156,0.266-0.188,0.328c-0.031,1.938-0.375,3.234-1.031,3.891
	c-0.344,0.344-0.781,0.516-1.312,0.516c-0.25,0-0.375-0.125-0.375-0.375c0-0.156-0.047-0.266-0.141-0.328l-0.656-0.469
	c-0.156-0.156-0.125-0.219,0.094-0.188l0.703,0.281c0.312,0.125,0.578,0.188,0.797,0.188
	C177.051,296.363,177.223,296.285,177.379,296.128z M178.738,287.222c0.594,0.281,0.562,0.438-0.094,0.469l-1.453,1.875h2.062
	l0.422-0.422l0.609,0.469c0.531,0.406,0.562,0.609,0.094,0.609c-0.312,0-0.531,0.062-0.656,0.188l-0.844,0.844
	c-0.125,0.062-0.172,0.016-0.141-0.141l0.656-1.266h-8.109c-0.031,0.688-0.141,1.125-0.328,1.312
	c-0.156,0.156-0.328,0.234-0.516,0.234s-0.281-0.094-0.281-0.281s0.125-0.406,0.375-0.656c0.281-0.281,0.453-0.781,0.516-1.5
	c0.062-0.188,0.125-0.188,0.188,0c0.031,0.219,0.047,0.422,0.047,0.609h5.625l1.219-2.625L178.738,287.222z M175.035,288.535
	c-0.125-0.594-0.422-1.094-0.891-1.5c-0.156-0.125-0.125-0.172,0.094-0.141c0.969,0.438,1.453,0.984,1.453,1.641
	c0,0.281-0.125,0.422-0.375,0.422C175.191,288.957,175.098,288.816,175.035,288.535z M172.785,288.863
	c-0.125-0.562-0.438-1.062-0.938-1.5c-0.125-0.125-0.094-0.172,0.094-0.141c1,0.438,1.5,0.969,1.5,1.594
	c0,0.281-0.109,0.422-0.328,0.422C172.957,289.238,172.848,289.113,172.785,288.863z M189.004,289.05
	c0.656,0.344,1.172,0.719,1.547,1.125c0.906,1,1.359,1.984,1.359,2.953c0,0.344-0.141,0.516-0.422,0.516
	c-0.219,0-0.344-0.125-0.375-0.375c-0.094-0.812-0.328-1.562-0.703-2.25c-0.344-0.656-0.844-1.266-1.5-1.828
	C188.816,289.097,188.848,289.05,189.004,289.05z M182.582,292.378c0-0.844,0-1.688,0-2.531c0-0.719-0.219-1.172-0.656-1.359
	c-0.125-0.062-0.109-0.109,0.047-0.141c0.375,0.031,0.75,0.203,1.125,0.516c0.312,0.25,0.359,0.5,0.141,0.75
	c-0.094,0.812-0.141,1.484-0.141,2.016c0,1.438,0.172,2.438,0.516,3c0.188,0.281,0.359,0.281,0.516,0
	c0.531-0.906,1.109-1.891,1.734-2.953c0.125-0.156,0.188-0.125,0.188,0.094c-0.469,1-0.891,1.922-1.266,2.766
	c-0.219,0.438-0.281,0.797-0.188,1.078c0.125,0.406,0.016,0.547-0.328,0.422c-0.531-0.188-0.969-0.688-1.312-1.5
	C182.707,293.941,182.582,293.222,182.582,292.378z"/>
<path fill="#757575" d="M252.741,289.003c0.188,0.125,0.062,0.219-0.375,0.281c-0.438,0.562-0.781,0.984-1.031,1.266l0.234,0.094
	c0.219,0.125,0.156,0.234-0.188,0.328v2.953c-0.406,0.375-0.609,0.391-0.609,0.047v-2.859c-0.625,0.562-1.188,1-1.688,1.312
	c-0.188,0.031-0.219-0.047-0.094-0.234c1.281-1.031,2.266-2.219,2.953-3.562L252.741,289.003z M257.804,293.925
	c0.469,0.344,0.406,0.469-0.188,0.375l-1.359,0.891c0.344,0.344,0.875,0.656,1.594,0.938c0.656,0.25,1.297,0.406,1.922,0.469
	c-0.375,0.188-0.625,0.406-0.75,0.656c-0.875-0.25-1.719-0.672-2.531-1.266c-0.688-0.5-1.344-1.219-1.969-2.156
	c-0.469,0.344-0.875,0.609-1.219,0.797v1.5l1.969-0.422c0.25,0.031,0.266,0.125,0.047,0.281l-3.938,1.219
	c-0.094,0.469-0.234,0.516-0.422,0.141l-0.422-0.703l2.156-0.422v-1.312c-1.031,0.5-2.172,0.859-3.422,1.078
	c-0.156-0.031-0.172-0.094-0.047-0.188c1.281-0.375,2.312-0.766,3.094-1.172c0.906-0.5,1.578-0.969,2.016-1.406l0.75,0.281
	c0.156,0.125,0.062,0.203-0.281,0.234c0.406,0.531,0.828,0.969,1.266,1.312l1.219-1.453L257.804,293.925z M254.241,287.972v-1.359
	l0.797,0.141c0.25,0.156,0.188,0.266-0.188,0.328v0.891h3.234l0.609-0.609l0.75,0.562c0.188,0.156,0.188,0.266,0,0.328h-9.844
	v-0.281H254.241z M257.288,290.597h-1.219v0.891h2.578l0.516-0.516l0.656,0.469c0.188,0.156,0.188,0.266,0,0.328h-3.562
	c1.031,0.875,2.25,1.438,3.656,1.688c-0.344,0.156-0.625,0.328-0.844,0.516c-1.312-0.562-2.312-1.281-3-2.156v1.875
	c-0.406,0.375-0.609,0.391-0.609,0.047v-1.734c-1.094,0.875-2.281,1.5-3.562,1.875c-0.125-0.031-0.141-0.094-0.047-0.188
	c1.312-0.594,2.297-1.234,2.953-1.922h-2.766v-0.281h3.422v-0.891h-1.359v0.281c-0.406,0.375-0.609,0.391-0.609,0.047v-2.109
	l0.75,0.281h2.906l0.281-0.375l0.656,0.469c0.188,0.156,0.125,0.266-0.188,0.328v1.359c-0.406,0.375-0.609,0.391-0.609,0.047
	V290.597z M254.101,290.316h3.188v-0.938h-3.188V290.316z M264.741,293.128c0.562-0.875,1.031-1.875,1.406-3
	c-1.031,0.25-1.828,0.594-2.391,1.031C264.007,291.847,264.335,292.503,264.741,293.128z M264.741,293.925
	c-0.375,0.562-0.766,1.031-1.172,1.406c-0.312,0.281-0.578,0.422-0.797,0.422c-0.25,0-0.469-0.094-0.656-0.281
	c-0.344-0.344-0.516-0.812-0.516-1.406c0-1.062,0.531-2.078,1.594-3.047c-0.188-0.562-0.344-1.078-0.469-1.547
	c-0.094-0.375-0.328-0.672-0.703-0.891c-0.156-0.062-0.172-0.125-0.047-0.188c0.344,0.031,0.688,0.156,1.031,0.375
	c0.188,0.125,0.281,0.25,0.281,0.375s0.016,0.281,0.047,0.469c0.062,0.406,0.156,0.781,0.281,1.125
	c0.906-0.5,1.781-0.812,2.625-0.938c0.188-0.562,0.297-1.062,0.328-1.5s-0.234-0.703-0.797-0.797c-0.188-0.062-0.188-0.125,0-0.188
	c0.656,0,1.203,0.172,1.641,0.516c0.156,0.125,0.234,0.234,0.234,0.328s-0.062,0.156-0.188,0.188
	c-0.125,0.156-0.312,0.625-0.562,1.406c1.344-0.062,2.391,0.281,3.141,1.031c0.531,0.531,0.797,1.188,0.797,1.969
	c0,0.844-0.25,1.516-0.75,2.016c-0.906,0.906-2.188,1.562-3.844,1.969c-0.094-0.062-0.109-0.125-0.047-0.188
	c1.344-0.438,2.344-0.984,3-1.641c0.625-0.625,0.938-1.359,0.938-2.203c0-0.75-0.219-1.344-0.656-1.781
	c-0.656-0.656-1.547-0.953-2.672-0.891c-0.469,1.281-1.062,2.422-1.781,3.422c0.219,0.219,0.406,0.406,0.562,0.562
	s0.219,0.344,0.188,0.562c-0.062,0.281-0.172,0.344-0.328,0.188C265.382,294.707,265.147,294.425,264.741,293.925z M264.46,293.597
	c-0.406-0.594-0.766-1.312-1.078-2.156c-0.844,0.781-1.266,1.672-1.266,2.672c0,0.844,0.203,1.266,0.609,1.266
	c0.125,0,0.312-0.109,0.562-0.328C263.632,294.738,264.022,294.253,264.46,293.597z M272.226,293.972
	c0-0.25,0.125-0.484,0.375-0.703c0.219-0.188,1.688-1.781,4.406-4.781c0.094-0.062,0.062-0.109-0.094-0.141
	c-0.75,0.125-1.5,0.312-2.25,0.562c-0.219,0.125-0.391,0.188-0.516,0.188c-0.062,0-0.219-0.094-0.469-0.281
	c-0.312-0.25-0.484-0.531-0.516-0.844c0-0.156,0.062-0.172,0.188-0.047c0.188,0.281,0.5,0.422,0.938,0.422
	c0.406,0,0.656-0.016,0.75-0.047c0.625-0.094,1.234-0.203,1.828-0.328c0.312-0.062,0.547-0.156,0.703-0.281
	c0.062-0.094,0.141-0.141,0.234-0.141c0.156,0,0.328,0.078,0.516,0.234c0.156,0.125,0.234,0.234,0.234,0.328
	c0,0.062-0.141,0.141-0.422,0.234c-0.344,0.156-1.422,1.188-3.234,3.094c-0.094,0.156-0.047,0.188,0.141,0.094
	c0.656-0.25,1.328-0.375,2.016-0.375c1.031,0,1.859,0.312,2.484,0.938c0.438,0.438,0.656,1.016,0.656,1.734
	c0,0.844-0.25,1.516-0.75,2.016c-0.75,0.75-1.812,1.125-3.188,1.125c-0.875,0-1.484-0.172-1.828-0.516
	c-0.281-0.281-0.422-0.562-0.422-0.844c0-0.25,0.094-0.469,0.281-0.656c0.219-0.219,0.547-0.328,0.984-0.328
	c0.531,0,1.016,0.219,1.453,0.656c0.281,0.281,0.469,0.672,0.562,1.172c0.594-0.125,1.109-0.406,1.547-0.844
	c0.469-0.469,0.703-1.031,0.703-1.688c0-0.719-0.219-1.297-0.656-1.734c-0.5-0.5-1.203-0.75-2.109-0.75
	c-1,0-2.016,0.516-3.047,1.547c-0.406,0.406-0.734,0.812-0.984,1.219c-0.062,0.125-0.172,0.188-0.328,0.188
	C272.288,294.394,272.226,294.253,272.226,293.972z M276.538,296.597c-0.031-0.562-0.188-0.984-0.469-1.266
	c-0.25-0.25-0.547-0.375-0.891-0.375c-0.562,0-0.844,0.219-0.844,0.656c0,0.188,0.094,0.375,0.281,0.562
	C274.897,296.457,275.538,296.597,276.538,296.597z"/>
<path fill="#757575" d="M344.025,290.128c0.25,1.781,0.672,3.094,1.266,3.938c0.688-0.969,1.156-2.281,1.406-3.938H344.025z
	 M342.01,292.425c1.156-1.5,2.031-3.391,2.625-5.672l0.984,0.422c0.125,0.219,0,0.312-0.375,0.281
	c-0.281,0.875-0.625,1.672-1.031,2.391h3.281l0.609-0.609l0.75,0.562c0.188,0.156,0.188,0.266,0,0.328h-1.406
	c-0.375,1.781-0.969,3.25-1.781,4.406c0.906,0.812,1.984,1.469,3.234,1.969c-0.406,0.125-0.672,0.312-0.797,0.562
	c-1.062-0.531-2-1.219-2.812-2.062c-1.094,1.156-2.609,1.984-4.547,2.484c-0.25-0.031-0.266-0.109-0.047-0.234
	c1.719-0.625,3.141-1.516,4.266-2.672c-0.719-1.25-1.109-2.625-1.172-4.125c-0.5,0.844-1.062,1.547-1.688,2.109
	C341.947,292.628,341.916,292.582,342.01,292.425z M339.15,295.191c0,0.125,0.062,0.188,0.188,0.188h2.062
	c0.344,0,0.547-0.156,0.609-0.469l0.281-1.359c0.062-0.062,0.109-0.062,0.141,0v1.453c0,0.156,0.062,0.281,0.188,0.375
	c0.188,0.156,0.172,0.297-0.047,0.422c-0.156,0.094-0.391,0.141-0.703,0.141h-2.766c-0.375,0-0.562-0.188-0.562-0.562v-4.875
	l0.703,0.328h2.203v-2.578h-3.094v-0.281h2.953l0.328-0.422l0.75,0.516c0.25,0.188,0.141,0.312-0.328,0.375v3.141
	c-0.406,0.375-0.609,0.391-0.609,0.047v-0.516h-2.297V295.191z M353.354,292.8c0,0.312-0.062,0.5-0.188,0.562h1.828v-1.781h-2.531
	C353.057,292.019,353.354,292.425,353.354,292.8z M352.697,292.894c0-0.469-0.156-0.906-0.469-1.312h-1.781V291.3h4.547v-1.219
	h-3.516V289.8h3.516v-1.266h-4.5v-0.281h2.812c-0.094-0.062-0.156-0.156-0.188-0.281c-0.156-0.531-0.406-0.906-0.75-1.125
	c-0.125-0.125-0.109-0.188,0.047-0.188c0.938,0.375,1.406,0.797,1.406,1.266c0,0.125-0.016,0.234-0.047,0.328h2.531l0.656-1.547
	l0.844,0.375c0.125,0.094,0.016,0.156-0.328,0.188l-0.891,0.984h2.297l0.703-0.703l0.891,0.656c0.188,0.156,0.188,0.266,0,0.328
	h-4.875v1.266h2.484l0.609-0.609l0.75,0.562c0.188,0.156,0.188,0.266,0,0.328h-3.844v1.219h3.797l0.703-0.703l0.891,0.656
	c0.188,0.156,0.188,0.266,0,0.328h-2.953l0.469,0.375c0.281,0.219,0.141,0.312-0.422,0.281l-0.938,1.125h2.156l0.703-0.703
	l0.891,0.656c0.188,0.156,0.188,0.266,0,0.328h-10.547v-0.281h2.438C352.729,293.207,352.697,293.05,352.697,292.894z
	 M356.916,293.363l0.703-1.781h-2.016v1.781H356.916z M357.994,294.535l0.281-0.375l0.656,0.469
	c0.188,0.156,0.125,0.266-0.188,0.328v2.156c-0.406,0.375-0.609,0.391-0.609,0.047v-0.328h-5.625v0.516
	c-0.406,0.375-0.609,0.391-0.609,0.047v-3.188l0.656,0.328H357.994z M358.135,294.816h-5.625v1.734h5.625V294.816z"/>
<path fill="#757575" d="M433.513,291.628c-0.312-0.312-0.656-0.469-1.031-0.469c-0.625,0-1.141,0.141-1.547,0.422
	c-0.219,0.156-0.312,0.422-0.281,0.797c0.062,0.906,0.141,1.719,0.234,2.438c1.344,0.312,2.188,0.594,2.531,0.844
	c0.125,0.094,0.172,0.297,0.141,0.609c-0.031,0.281-0.188,0.328-0.469,0.141c-0.906-0.562-1.625-0.938-2.156-1.125
	c0,0.656-0.188,1.125-0.562,1.406c-0.281,0.219-0.672,0.328-1.172,0.328c-0.531,0-0.938-0.141-1.219-0.422
	c-0.219-0.219-0.328-0.469-0.328-0.75c0-0.375,0.156-0.672,0.469-0.891c0.281-0.188,0.719-0.281,1.312-0.281
	c0.281,0,0.578,0.016,0.891,0.047c-0.125-1.125-0.188-1.891-0.188-2.297c0-0.594,0.266-1,0.797-1.219s1.031-0.328,1.5-0.328
	c0.281,0,0.359-0.094,0.234-0.281c-0.406-0.594-1.109-1.094-2.109-1.5c-0.125-0.062-0.109-0.109,0.047-0.141
	c1.156,0.188,2.109,0.656,2.859,1.406c0.344,0.344,0.516,0.672,0.516,0.984c0,0.25-0.078,0.375-0.234,0.375
	C433.653,291.722,433.575,291.691,433.513,291.628z M429.153,289.613c-0.531,0.125-1.094,0.25-1.688,0.375
	c-1.219,2.781-1.969,4.406-2.25,4.875c-0.188,0.312-0.359,0.391-0.516,0.234c-0.094-0.094-0.156-0.219-0.188-0.375
	c-0.031-0.25,0.047-0.469,0.234-0.656c0.219-0.219,0.422-0.484,0.609-0.797c0.406-0.688,0.938-1.75,1.594-3.188
	c-0.406,0.062-0.812,0.156-1.219,0.281c-0.219,0.125-0.391,0.125-0.516,0c-0.406-0.406-0.594-0.703-0.562-0.891
	c0-0.156,0.062-0.156,0.188,0c0.125,0.25,0.391,0.375,0.797,0.375c0.531,0,1.016-0.062,1.453-0.188
	c0.375-0.906,0.578-1.562,0.609-1.969c0.031-0.312-0.172-0.516-0.609-0.609c-0.156-0.062-0.156-0.125,0-0.188
	c0.281-0.031,0.562,0.016,0.844,0.141c0.219,0.094,0.406,0.219,0.562,0.375c0.188,0.188,0.172,0.344-0.047,0.469
	c-0.156,0.094-0.438,0.656-0.844,1.688c0.438-0.094,0.828-0.266,1.172-0.516c0.219-0.156,0.406-0.109,0.562,0.141
	C429.466,289.41,429.403,289.55,429.153,289.613z M430.325,295.144c-0.344-0.125-0.688-0.188-1.031-0.188
	c-0.438,0-0.766,0.078-0.984,0.234s-0.328,0.359-0.328,0.609c0,0.188,0.062,0.359,0.188,0.516c0.219,0.25,0.562,0.375,1.031,0.375
	c0.312,0,0.531-0.047,0.656-0.141C430.2,296.3,430.356,295.832,430.325,295.144z M436.638,294.441c0-1.375,0-2.766,0-4.172
	c0-0.5,0.016-1.016,0.047-1.547s-0.25-0.812-0.844-0.844c-0.188-0.062-0.203-0.125-0.047-0.188c0.188-0.031,0.359-0.047,0.516-0.047
	c0.375,0,0.766,0.156,1.172,0.469c0.125,0.094,0.125,0.234,0,0.422c-0.062,0.094-0.125,0.281-0.188,0.562s-0.094,0.625-0.094,1.031
	c0,1.438,0,2.859,0,4.266c0,0.562,0.094,0.953,0.281,1.172c0.281,0.312,0.75,0.469,1.406,0.469c0.906,0,1.703-0.188,2.391-0.562
	c0.75-0.406,1.578-1,2.484-1.781c0.125-0.062,0.172-0.031,0.141,0.094c-0.844,1-1.688,1.734-2.531,2.203
	c-0.719,0.406-1.578,0.609-2.578,0.609c-0.719,0-1.281-0.219-1.688-0.656C436.794,295.597,436.638,295.097,436.638,294.441z"/>
<path fill="#757575" d="M516.609,290.035c0.125,0.188,0.016,0.25-0.328,0.188c-0.406,0.75-0.875,1.5-1.406,2.25
	c0.375,0.469,0.719,0.797,1.031,0.984s0.578,0.281,0.797,0.281c0.125,0,0.219-0.078,0.281-0.234l0.469-1.266
	c0.094-0.062,0.141-0.062,0.141,0l-0.234,1.406c0,0.156,0.062,0.312,0.188,0.469c0.156,0.188,0.062,0.312-0.281,0.375
	c-0.438,0-0.875-0.109-1.312-0.328c-0.562-0.281-1.062-0.703-1.5-1.266c-0.5,0.5-0.953,0.891-1.359,1.172
	c-0.188,0.062-0.234,0.016-0.141-0.141c0.344-0.281,0.766-0.75,1.266-1.406c-0.5-1-0.812-2.219-0.938-3.656h-4.828v1.828
	c0,2.031-0.594,3.531-1.781,4.5c-0.156,0.094-0.234,0.078-0.234-0.047c0.938-1.156,1.406-2.484,1.406-3.984v-3l0.75,0.422h4.641
	c-0.031-0.469-0.062-1.062-0.094-1.781l0.797,0.141c0.312,0.094,0.25,0.203-0.188,0.328c0,0.406,0.016,0.844,0.047,1.312h2.109
	l0.703-0.703l0.891,0.656c0.188,0.156,0.188,0.266,0,0.328h-3.656c0.125,1.281,0.375,2.344,0.75,3.188
	c0.562-0.875,0.984-1.703,1.266-2.484L516.609,290.035z M512.812,294.91c0,0.25-0.094,0.375-0.281,0.375
	c-0.156,0-0.266-0.078-0.328-0.234c-0.281-0.625-0.812-1.094-1.594-1.406c-0.062-0.094-0.031-0.141,0.094-0.141
	c0.688,0.125,1.172,0.281,1.453,0.469C512.594,294.253,512.812,294.566,512.812,294.91z M516.797,295.519
	c0.344,0.406,0.516,0.797,0.516,1.172c0,0.25-0.125,0.375-0.375,0.375c-0.125,0-0.234-0.125-0.328-0.375
	c-0.406-1-1.031-1.719-1.875-2.156c-0.094-0.094-0.078-0.141,0.047-0.141C515.719,294.675,516.391,295.05,516.797,295.519z
	 M508.266,296.503c-0.25,0.25-0.516,0.375-0.797,0.375c-0.219,0-0.328-0.094-0.328-0.281c0-0.219,0.125-0.391,0.375-0.516
	c0.656-0.312,1.047-0.875,1.172-1.688c0.094-0.188,0.156-0.188,0.188,0v0.375C508.875,295.519,508.672,296.097,508.266,296.503z
	 M510.609,297.253c-0.375,0-0.562-0.188-0.562-0.562v-2.297l0.797,0.141c0.25,0.156,0.188,0.266-0.188,0.328v1.641
	c0,0.125,0.062,0.188,0.188,0.188h2.859c0.281,0,0.453-0.109,0.516-0.328l0.281-1.266c0.062-0.062,0.109-0.062,0.141,0v1.266
	c0,0.156,0.062,0.266,0.188,0.328c0.219,0.094,0.219,0.234,0,0.422c-0.094,0.094-0.375,0.141-0.844,0.141H510.609z M510.047,292.707
	h1.734v-1.172h-1.734V292.707z M510.141,291.253h1.5l0.281-0.375l0.656,0.469c0.188,0.156,0.125,0.266-0.188,0.328v1.5
	c-0.406,0.375-0.609,0.391-0.609,0.047v-0.234h-1.734v0.422c-0.406,0.375-0.609,0.391-0.609,0.047v-2.625L510.141,291.253z
	 M509.062,289.988h2.484l0.609-0.609l0.75,0.562c0.188,0.156,0.188,0.266,0,0.328h-3.844V289.988z M515.625,287.832
	c-0.344-0.469-0.734-0.797-1.172-0.984c-0.125-0.062-0.125-0.109,0-0.141c1.125,0.125,1.688,0.453,1.688,0.984
	c0,0.188-0.094,0.281-0.281,0.281C515.766,287.972,515.688,287.925,515.625,287.832z M526.078,291.863
	c-0.094-0.156-0.047-0.188,0.141-0.094c0.875,0.656,1.312,1.188,1.312,1.594c0,0.312-0.109,0.469-0.328,0.469
	c-0.188,0-0.297-0.125-0.328-0.375C526.75,292.988,526.484,292.457,526.078,291.863z M525.797,292.66
	c0.156,0.094,0.141,0.188-0.047,0.281l-0.234,0.141v3.375c0,0.344-0.109,0.609-0.328,0.797c-0.125,0.125-0.281,0.188-0.469,0.188
	c-0.125,0-0.188-0.062-0.188-0.188c0-0.156-0.094-0.266-0.281-0.328l-0.609-0.141c-0.125-0.062-0.125-0.125,0-0.188h0.938
	c0.219,0,0.328-0.109,0.328-0.328v-2.531c-1.125,1.531-2.469,2.672-4.031,3.422c-0.188,0.031-0.219-0.031-0.094-0.188
	c1.719-1.062,3-2.328,3.844-3.797l-1.781,0.422c-0.125,0.344-0.25,0.391-0.375,0.141l-0.422-0.703h0.938v-4.969l0.609,0.375h0.234
	l0.328-1.688l0.609,0.188c0.25,0.094,0.203,0.203-0.141,0.328l-0.562,1.172h0.703l0.281-0.375l0.656,0.469
	c0.188,0.156,0.125,0.266-0.188,0.328v3.609L525.797,292.66z M526.031,289.988h2.016v-2.812l0.797,0.141
	c0.25,0.062,0.188,0.172-0.188,0.328v2.344h0.188l0.516-0.516l0.656,0.469c0.125,0.156,0.125,0.266,0,0.328h-1.359v6
	c0,0.344-0.109,0.609-0.328,0.797c-0.125,0.125-0.281,0.188-0.469,0.188c-0.125,0-0.188-0.062-0.188-0.188
	c0-0.156-0.094-0.266-0.281-0.328l-0.609-0.141c-0.125-0.062-0.125-0.125,0-0.188h0.938c0.219,0,0.328-0.109,0.328-0.328v-5.812
	h-2.016V289.988z M524.906,291.675H523.5v1.312l1.406-0.188V291.675z M524.906,291.394v-1.125H523.5v1.125H524.906z M523.5,289.988
	h1.406v-1.266H523.5V289.988z M521.016,293.269l0.281-0.375l0.656,0.469c0.188,0.156,0.125,0.266-0.188,0.328v2.25
	c-0.406,0.375-0.609,0.391-0.609,0.047v-0.141h-1.172v0.984c-0.406,0.375-0.609,0.391-0.609,0.047v-3.984l0.703,0.375H521.016z
	 M521.156,295.566v-2.016h-1.172v2.016H521.156z M519.141,291.722h1.734l0.516-0.516l0.656,0.469c0.188,0.156,0.188,0.266,0,0.328
	h-2.906V291.722z M519.188,290.41h1.641l0.516-0.516l0.656,0.469c0.188,0.156,0.188,0.266,0,0.328h-2.812V290.41z M518.766,289.003
	h2.578l0.516-0.516l0.656,0.469c0.188,0.156,0.188,0.266,0,0.328h-3.75V289.003z M519.141,287.738h1.828l0.516-0.516l0.656,0.469
	c0.188,0.156,0.188,0.266,0,0.328h-3V287.738z"/>
<path fill="#757575" d="M6.387,217.043h1.723v-12.996l-3.598,1.957v-2.449l4.945-2.766h0.938v16.254h1.746v2.016H6.387V217.043z"/>
<path fill="#757575" d="M21.281,219.27c-1.266,0-2.324-0.234-3.176-0.703s-1.533-1.113-2.045-1.934s-0.877-1.781-1.096-2.883
	s-0.328-2.285-0.328-3.551c0-1.352,0.148-2.615,0.445-3.791s0.695-2.119,1.195-2.83s1.131-1.316,1.893-1.816s1.807-0.75,3.135-0.75
	c1.258,0,2.305,0.199,3.141,0.598s1.525,1.01,2.068,1.834s0.924,1.818,1.143,2.982s0.328,2.398,0.328,3.703
	c0,1.273-0.109,2.465-0.328,3.574s-0.588,2.076-1.107,2.9s-1.209,1.475-2.068,1.951S22.555,219.27,21.281,219.27z M21.281,217.184
	c0.914,0,1.65-0.186,2.209-0.557s0.98-0.877,1.266-1.518s0.498-1.389,0.639-2.244s0.211-1.768,0.211-2.736
	c0-0.93-0.055-1.822-0.164-2.678s-0.32-1.611-0.633-2.268s-0.75-1.18-1.312-1.57s-1.293-0.586-2.191-0.586
	c-0.93,0-1.664,0.195-2.203,0.586s-0.941,0.861-1.207,1.412s-0.475,1.307-0.627,2.268s-0.229,1.906-0.229,2.836
	c0,0.969,0.049,1.881,0.146,2.736s0.297,1.604,0.598,2.244s0.73,1.146,1.289,1.518S20.367,217.184,21.281,217.184z"/>
<path fill="#757575" d="M21.281,286.274c-1.266,0-2.324-0.234-3.176-0.703s-1.533-1.113-2.045-1.934s-0.877-1.781-1.096-2.883
	s-0.328-2.285-0.328-3.551c0-1.352,0.148-2.615,0.445-3.791s0.695-2.119,1.195-2.83s1.131-1.316,1.893-1.816s1.807-0.75,3.135-0.75
	c1.258,0,2.305,0.199,3.141,0.598s1.525,1.01,2.068,1.834s0.924,1.818,1.143,2.982s0.328,2.398,0.328,3.703
	c0,1.273-0.109,2.465-0.328,3.574s-0.588,2.076-1.107,2.9s-1.209,1.475-2.068,1.951S22.555,286.274,21.281,286.274z M21.281,284.188
	c0.914,0,1.65-0.186,2.209-0.557s0.98-0.877,1.266-1.518s0.498-1.389,0.639-2.244s0.211-1.768,0.211-2.736
	c0-0.93-0.055-1.822-0.164-2.678s-0.32-1.611-0.633-2.268s-0.75-1.18-1.312-1.57s-1.293-0.586-2.191-0.586
	c-0.93,0-1.664,0.195-2.203,0.586s-0.941,0.861-1.207,1.412s-0.475,1.307-0.627,2.268s-0.229,1.906-0.229,2.836
	c0,0.969,0.049,1.881,0.146,2.736s0.297,1.604,0.598,2.244s0.73,1.146,1.289,1.518S20.367,284.188,21.281,284.188z"/>
<path fill="#757575" d="M0.023,11.062L6.34,0.281h2.496L2.824,10.898h4.547v-2.93l2.297-0.164v3.094h2.648v2.016H9.668v3.117h1.758
	v2.016H5.66v-2.016h1.711v-3.117H0L0.023,11.062z"/>
<path fill="#757575" d="M21.281,18.258c-1.266,0-2.324-0.234-3.176-0.703s-1.533-1.113-2.045-1.934s-0.877-1.781-1.096-2.883
	s-0.328-2.285-0.328-3.551c0-1.352,0.148-2.615,0.445-3.791s0.695-2.119,1.195-2.83S17.408,1.25,18.17,0.75S19.977,0,21.305,0
	c1.258,0,2.305,0.199,3.141,0.598s1.525,1.01,2.068,1.834s0.924,1.818,1.143,2.982s0.328,2.398,0.328,3.703
	c0,1.273-0.109,2.465-0.328,3.574s-0.588,2.076-1.107,2.9s-1.209,1.475-2.068,1.951S22.555,18.258,21.281,18.258z M21.281,16.172
	c0.914,0,1.65-0.186,2.209-0.557s0.98-0.877,1.266-1.518s0.498-1.389,0.639-2.244s0.211-1.768,0.211-2.736
	c0-0.93-0.055-1.822-0.164-2.678s-0.32-1.611-0.633-2.268s-0.75-1.18-1.312-1.57s-1.293-0.586-2.191-0.586
	c-0.93,0-1.664,0.195-2.203,0.586s-0.941,0.861-1.207,1.412S17.42,5.32,17.268,6.281s-0.229,1.906-0.229,2.836
	c0,0.969,0.049,1.881,0.146,2.736s0.297,1.604,0.598,2.244s0.73,1.146,1.289,1.518S20.367,16.172,21.281,16.172z"/>
<path fill="#757575" d="M9.738,71.926c0-0.305-0.064-0.631-0.193-0.979s-0.328-0.668-0.598-0.961s-0.609-0.535-1.02-0.727
	s-0.893-0.287-1.447-0.287c-0.461,0-0.881,0.08-1.26,0.24S4.465,69.672,4.09,70.11s-0.578,0.922-0.609,1.453H1.254
	c0.039-0.68,0.209-1.293,0.51-1.84s0.682-1.027,1.143-1.441s1-0.742,1.617-0.984s1.262-0.363,1.934-0.363
	c0.836,0,1.594,0.139,2.273,0.416s1.26,0.645,1.74,1.102s0.852,0.979,1.113,1.564s0.393,1.184,0.393,1.793
	c0,0.375-0.047,0.75-0.141,1.125s-0.24,0.732-0.439,1.072s-0.455,0.654-0.768,0.943s-0.691,0.543-1.137,0.762
	c0.367,0.141,0.713,0.338,1.037,0.592s0.607,0.557,0.85,0.908s0.434,0.75,0.574,1.195s0.211,0.934,0.211,1.465
	c0,0.766-0.148,1.475-0.445,2.127s-0.699,1.217-1.207,1.693s-1.104,0.85-1.787,1.119s-1.416,0.404-2.197,0.404
	c-0.719,0-1.432-0.127-2.139-0.381S3.082,84.219,2.59,83.75s-0.855-0.957-1.09-1.465s-0.375-1.012-0.422-1.512h2.25
	c0.227,0.727,0.631,1.297,1.213,1.711s1.322,0.621,2.221,0.621c0.406,0,0.803-0.082,1.189-0.246s0.729-0.393,1.025-0.686
	s0.535-0.637,0.715-1.031s0.27-0.826,0.27-1.295c0-0.492-0.09-0.938-0.27-1.336s-0.422-0.736-0.727-1.014s-0.658-0.492-1.061-0.645
	s-0.83-0.229-1.283-0.229H5.613v-1.77h0.82c0.516,0,0.979-0.076,1.389-0.229S8.578,74.266,8.859,74s0.498-0.576,0.65-0.932
	S9.738,72.333,9.738,71.926z"/>
<path fill="#757575" d="M21.281,85.262c-1.266,0-2.324-0.234-3.176-0.703s-1.533-1.113-2.045-1.934s-0.877-1.781-1.096-2.883
	s-0.328-2.285-0.328-3.551c0-1.352,0.148-2.615,0.445-3.791s0.695-2.119,1.195-2.83s1.131-1.316,1.893-1.816s1.807-0.75,3.135-0.75
	c1.258,0,2.305,0.199,3.141,0.598s1.525,1.01,2.068,1.834s0.924,1.818,1.143,2.982s0.328,2.398,0.328,3.703
	c0,1.273-0.109,2.465-0.328,3.574s-0.588,2.076-1.107,2.9s-1.209,1.475-2.068,1.951S22.555,85.262,21.281,85.262z M21.281,83.176
	c0.914,0,1.65-0.186,2.209-0.557s0.98-0.877,1.266-1.518s0.498-1.389,0.639-2.244s0.211-1.768,0.211-2.736
	c0-0.93-0.055-1.822-0.164-2.678s-0.32-1.611-0.633-2.268s-0.75-1.18-1.312-1.57s-1.293-0.586-2.191-0.586
	c-0.93,0-1.664,0.195-2.203,0.586s-0.941,0.861-1.207,1.412s-0.475,1.307-0.627,2.268s-0.229,1.906-0.229,2.836
	c0,0.969,0.049,1.881,0.146,2.736s0.297,1.604,0.598,2.244s0.73,1.146,1.289,1.518S20.367,83.176,21.281,83.176z"/>
<path fill="#757575" d="M1.746,150.333l6.246-7.547c0.211-0.25,0.432-0.52,0.662-0.809s0.445-0.594,0.645-0.914
	s0.363-0.654,0.492-1.002s0.193-0.709,0.193-1.084c0-0.391-0.078-0.758-0.234-1.102s-0.371-0.645-0.645-0.902
	s-0.6-0.461-0.979-0.609s-0.795-0.223-1.248-0.223c-0.406,0-0.791,0.064-1.154,0.193s-0.682,0.318-0.955,0.568
	s-0.494,0.561-0.662,0.932s-0.26,0.799-0.275,1.283H1.723c0.008-0.742,0.152-1.428,0.434-2.057s0.658-1.172,1.131-1.629
	s1.021-0.812,1.646-1.066s1.281-0.381,1.969-0.381c0.797,0,1.52,0.127,2.168,0.381s1.203,0.604,1.664,1.049s0.818,0.973,1.072,1.582
	s0.381,1.27,0.381,1.98c0,0.281-0.033,0.58-0.1,0.896s-0.18,0.656-0.34,1.02s-0.371,0.752-0.633,1.166s-0.592,0.859-0.99,1.336
	l-5.543,6.598h7.582v2.062H1.746V150.333z"/>
<path fill="#757575" d="M21.281,152.266c-1.266,0-2.324-0.234-3.176-0.703s-1.533-1.113-2.045-1.934s-0.877-1.781-1.096-2.883
	s-0.328-2.285-0.328-3.551c0-1.352,0.148-2.615,0.445-3.791s0.695-2.119,1.195-2.83s1.131-1.316,1.893-1.816s1.807-0.75,3.135-0.75
	c1.258,0,2.305,0.199,3.141,0.598s1.525,1.01,2.068,1.834s0.924,1.818,1.143,2.982s0.328,2.398,0.328,3.703
	c0,1.273-0.109,2.465-0.328,3.574s-0.588,2.076-1.107,2.9s-1.209,1.475-2.068,1.951S22.555,152.266,21.281,152.266z M21.281,150.18
	c0.914,0,1.65-0.186,2.209-0.557s0.98-0.877,1.266-1.518s0.498-1.389,0.639-2.244s0.211-1.768,0.211-2.736
	c0-0.93-0.055-1.822-0.164-2.678s-0.32-1.611-0.633-2.268s-0.75-1.18-1.312-1.57s-1.293-0.586-2.191-0.586
	c-0.93,0-1.664,0.195-2.203,0.586s-0.941,0.861-1.207,1.412s-0.475,1.307-0.627,2.268s-0.229,1.906-0.229,2.836
	c0,0.969,0.049,1.881,0.146,2.736s0.297,1.604,0.598,2.244s0.73,1.146,1.289,1.518S20.367,150.18,21.281,150.18z"/>
</svg>
