<?xml version="1.0" encoding="utf-8"?>
<!-- Generator: Adobe Illustrator 15.0.0, SVG Export Plug-In  -->
<!DOCTYPE svg PUBLIC "-//W3C//DTD SVG 1.1//EN" "http://www.w3.org/Graphics/SVG/1.1/DTD/svg11.dtd" [
	<!ENTITY ns_flows "http://ns.adobe.com/Flows/1.0/">
]>
<svg version="1.1"
	 xmlns="http://www.w3.org/2000/svg" xmlns:xlink="http://www.w3.org/1999/xlink" xmlns:a="http://ns.adobe.com/AdobeSVGViewerExtensions/3.0/"
	 x="0px" y="0px" width="600px" height="371px" viewBox="-18.55 -52.522 600 371"
	 overflow="visible" enable-background="new -18.55 -52.522 600 371" xml:space="preserve">
<defs>
</defs>
<path fill="#C2185B" d="M269.778,2.853c3.883-0.305,7.776-0.458,11.672-0.458v148.767L269.778,2.853z"/>
<path fill="#00695C" d="M258.178,4.226c3.848-0.609,7.717-1.067,11.601-1.373l11.672,148.309L258.178,4.226z"/>
<path fill="#F975A8" d="M246.721,6.505c3.788-0.91,7.609-1.67,11.457-2.279l23.272,146.936L246.721,6.505z"/>
<path fill="#3949AB" d="M235.479,9.675c3.704-1.204,7.455-2.261,11.242-3.17l34.729,144.656L235.479,9.675z"/>
<path fill="#B8B7B5" d="M213.911,18.609c6.944-3.538,14.155-6.525,21.567-8.934l45.972,141.486L213.911,18.609z"/>
<path fill="#AB30C4" d="M203.72,24.316c3.321-2.035,6.721-3.939,10.191-5.708l67.539,132.552L203.72,24.316z"/>
<path d="M176.256,45.967c8.271-8.271,17.49-15.538,27.464-21.65l77.73,126.845L176.256,45.967z"/>
<path fill="#FF6D00" d="M168.327,54.545c2.529-2.962,5.175-5.824,7.929-8.578L281.45,151.161L168.327,54.545z"/>
<path fill="#0F9D58" d="M154.605,73.431c4.072-6.645,8.66-12.96,13.722-18.886l113.123,96.616L154.605,73.431z"/>
<path fill="#F4B400" d="M144.008,94.23c2.982-7.2,6.525-14.155,10.598-20.8l126.845,77.73L144.008,94.23z"/>
<path fill="#CE3262" d="M224.52,288.604c-36.452-15.099-65.413-44.06-80.512-80.513c-15.1-36.451-15.1-77.408,0-113.86
	l137.442,56.931L224.52,288.604z"/>
<path fill="#00ADD8" d="M281.45,2.394c60.17,0,114.416,36.246,137.442,91.836c23.025,55.591,10.298,119.577-32.249,162.124
	S280.109,311.63,224.52,288.604l56.931-137.442V2.394z"/>
<path fill="none" stroke="#757575" stroke-miterlimit="10" d="M0,18.894h126.684l100.683,1.696"/>
<path fill="#9E9E9E" d="M229.366,20.59c0-1.104-0.896-2-2-2s-2,0.896-2,2c0,1.105,0.896,2,2,2S229.366,21.695,229.366,20.59"/>
<path fill="none" stroke="#757575" stroke-miterlimit="10" d="M0,51.894h126.684l67.271-11.721"/>
<path fill="#9E9E9E" d="M195.954,40.173c0-1.104-0.896-2-2-2s-2,0.896-2,2s0.896,2,2,2S195.954,41.278,195.954,40.173"/>
<path fill="none" stroke="#757575" stroke-miterlimit="10" d="M0,84.894h126.684l40.43-16.804"/>
<path fill="#9E9E9E" d="M169.113,68.09c0-1.105-0.896-2-2-2s-2,0.895-2,2c0,1.104,0.896,2,2,2S169.113,69.195,169.113,68.09"/>
<path fill="none" stroke="#757575" stroke-miterlimit="10" d="M0,117.894h126.684l28.842-30.895"/>
<path fill="#9E9E9E" d="M157.525,86.999c0-1.104-0.896-2-2-2s-2,0.896-2,2s0.896,2,2,2S157.525,88.104,157.525,86.999"/>
<path fill="none" stroke="#757575" stroke-miterlimit="10" d="M0,205.245h126.684h24.196"/>
<path fill="#9E9E9E" d="M152.88,205.245c0-1.105-0.896-2-2-2s-2,0.895-2,2c0,1.104,0.896,2,2,2S152.88,206.35,152.88,205.245"/>
<path fill="none" stroke="#757575" stroke-miterlimit="10" d="M562.899,178.732H436.217h-16.154"/>
<path fill="#9E9E9E" d="M422.062,178.732c0-1.104-0.896-2-2-2s-2,0.896-2,2s0.896,2,2,2S422.062,179.837,422.062,178.732"/>
<path fill="#FFFFFF" d="M314.632,168.256c0.438-0.297,0.887-0.521,1.348-0.674s0.988-0.229,1.582-0.229
	c0.875,0,1.68,0.156,2.414,0.469s1.365,0.734,1.893,1.266s0.938,1.15,1.23,1.857s0.439,1.455,0.439,2.244
	c0,0.797-0.145,1.553-0.434,2.268s-0.699,1.342-1.23,1.881s-1.17,0.967-1.916,1.283s-1.576,0.475-2.49,0.475
	c-0.695,0-1.344-0.092-1.945-0.275s-1.145-0.441-1.629-0.773s-0.904-0.729-1.26-1.189s-0.639-0.965-0.85-1.512l1.922-0.961
	c0.125,0.398,0.309,0.768,0.551,1.107s0.527,0.633,0.855,0.879s0.691,0.438,1.09,0.574s0.82,0.205,1.266,0.205
	c0.562,0,1.084-0.104,1.564-0.311s0.898-0.49,1.254-0.85s0.635-0.779,0.838-1.26s0.305-0.994,0.305-1.541
	c0-0.555-0.102-1.068-0.305-1.541s-0.484-0.883-0.844-1.23s-0.779-0.621-1.26-0.82s-0.998-0.299-1.553-0.299
	c-0.625,0-1.201,0.111-1.729,0.334s-0.967,0.521-1.318,0.896l-1.723-0.27v-9.293h10.008v1.945h-8.074V168.256z"/>
<path fill="#FFFFFF" d="M333.815,160.967l-3.984,6.645c0.477-0.203,0.908-0.32,1.295-0.352s0.732-0.047,1.037-0.047
	c0.719,0,1.414,0.135,2.086,0.404s1.268,0.648,1.787,1.137s0.936,1.07,1.248,1.746s0.469,1.42,0.469,2.232
	c0,0.992-0.168,1.875-0.504,2.648s-0.789,1.426-1.359,1.957s-1.232,0.936-1.986,1.213s-1.553,0.416-2.396,0.416
	c-0.797,0-1.564-0.145-2.303-0.434s-1.393-0.693-1.963-1.213s-1.025-1.145-1.365-1.875s-0.51-1.541-0.51-2.432
	c0-0.688,0.131-1.367,0.393-2.039s0.588-1.375,0.979-2.109l4.348-7.898H333.815z M331.249,169.135c-0.562,0-1.041,0.088-1.436,0.264
	s-0.768,0.422-1.119,0.738s-0.629,0.719-0.832,1.207s-0.305,1.053-0.305,1.693c0,0.609,0.102,1.156,0.305,1.641
	s0.484,0.893,0.844,1.225s0.783,0.586,1.271,0.762s1.018,0.264,1.588,0.264c0.531,0,1.039-0.094,1.523-0.281s0.91-0.453,1.277-0.797
	s0.66-0.754,0.879-1.23s0.328-1.004,0.328-1.582c0-0.641-0.117-1.205-0.352-1.693s-0.549-0.896-0.943-1.225
	s-0.854-0.574-1.377-0.738S331.827,169.135,331.249,169.135z"/>
<path fill="#FFFFFF" d="M340.026,177.314c0-0.203,0.041-0.396,0.123-0.58s0.193-0.344,0.334-0.48s0.303-0.246,0.486-0.328
	s0.381-0.123,0.592-0.123c0.203,0,0.396,0.041,0.58,0.123s0.344,0.191,0.48,0.328s0.246,0.297,0.328,0.48s0.123,0.377,0.123,0.58
	c0,0.211-0.041,0.41-0.123,0.598s-0.191,0.354-0.328,0.498s-0.297,0.258-0.48,0.34s-0.377,0.123-0.58,0.123
	c-0.211,0-0.408-0.041-0.592-0.123s-0.346-0.195-0.486-0.34s-0.252-0.311-0.334-0.498S340.026,177.525,340.026,177.314z"/>
<path fill="#FFFFFF" d="M353.386,165.607c0-0.305-0.064-0.631-0.193-0.979s-0.328-0.668-0.598-0.961s-0.609-0.535-1.02-0.727
	s-0.893-0.287-1.447-0.287c-0.461,0-0.881,0.08-1.26,0.24s-0.756,0.459-1.131,0.896s-0.578,0.922-0.609,1.453h-2.227
	c0.039-0.68,0.209-1.293,0.51-1.84s0.682-1.027,1.143-1.441s1-0.742,1.617-0.984s1.262-0.363,1.934-0.363
	c0.836,0,1.594,0.139,2.273,0.416s1.26,0.645,1.74,1.102s0.852,0.979,1.113,1.564s0.393,1.184,0.393,1.793
	c0,0.375-0.047,0.75-0.141,1.125s-0.24,0.732-0.439,1.072s-0.455,0.654-0.768,0.943s-0.691,0.543-1.137,0.762
	c0.367,0.141,0.713,0.338,1.037,0.592s0.607,0.557,0.85,0.908s0.434,0.75,0.574,1.195s0.211,0.934,0.211,1.465
	c0,0.766-0.148,1.475-0.445,2.127s-0.699,1.217-1.207,1.693s-1.104,0.85-1.787,1.119s-1.416,0.404-2.197,0.404
	c-0.719,0-1.432-0.127-2.139-0.381s-1.307-0.615-1.799-1.084s-0.855-0.957-1.09-1.465s-0.375-1.012-0.422-1.512h2.25
	c0.227,0.727,0.631,1.297,1.213,1.711s1.322,0.621,2.221,0.621c0.406,0,0.803-0.082,1.189-0.246s0.729-0.393,1.025-0.686
	s0.535-0.637,0.715-1.031s0.27-0.826,0.27-1.295c0-0.492-0.09-0.938-0.27-1.336s-0.422-0.736-0.727-1.014s-0.658-0.492-1.061-0.645
	s-0.83-0.229-1.283-0.229h-1.008v-1.77h0.82c0.516,0,0.979-0.076,1.389-0.229s0.756-0.361,1.037-0.627s0.498-0.576,0.65-0.932
	S353.386,166.014,353.386,165.607z"/>
<path fill="#FFFFFF" d="M357.766,170.755c0-0.305,0.058-0.596,0.171-0.871c0.114-0.276,0.274-0.518,0.482-0.725
	c0.207-0.208,0.454-0.372,0.741-0.492c0.287-0.121,0.602-0.182,0.943-0.182s0.656,0.061,0.943,0.182
	c0.287,0.12,0.533,0.284,0.738,0.492c0.205,0.207,0.366,0.448,0.482,0.725c0.116,0.275,0.174,0.566,0.174,0.871
	c0,0.311-0.056,0.602-0.167,0.875c-0.112,0.273-0.271,0.516-0.476,0.725c-0.205,0.21-0.451,0.375-0.738,0.496
	c-0.287,0.12-0.605,0.181-0.957,0.181c-0.355,0-0.677-0.061-0.964-0.181c-0.287-0.121-0.532-0.286-0.734-0.496
	c-0.203-0.209-0.36-0.451-0.472-0.725C357.821,171.356,357.766,171.065,357.766,170.755z M365.812,168.205h1.333l-7.116,10.637
	h-1.326L365.812,168.205z M360.104,169.606c-0.164,0-0.317,0.028-0.461,0.086c-0.144,0.057-0.27,0.137-0.376,0.239
	c-0.107,0.103-0.191,0.225-0.253,0.365c-0.062,0.142-0.093,0.294-0.093,0.458c0,0.16,0.031,0.312,0.093,0.455
	s0.146,0.269,0.253,0.376c0.106,0.106,0.232,0.191,0.376,0.253s0.297,0.092,0.461,0.092c0.16,0,0.311-0.03,0.451-0.092
	c0.142-0.062,0.265-0.145,0.369-0.25c0.105-0.104,0.188-0.229,0.25-0.372s0.092-0.298,0.092-0.462s-0.03-0.316-0.092-0.458
	c-0.062-0.141-0.145-0.263-0.25-0.365c-0.104-0.103-0.228-0.183-0.369-0.239C360.414,169.635,360.264,169.606,360.104,169.606z
	 M363.686,176.524c0-0.305,0.058-0.595,0.171-0.868c0.114-0.273,0.274-0.514,0.482-0.721c0.207-0.208,0.454-0.373,0.741-0.496
	s0.602-0.185,0.943-0.185s0.656,0.062,0.943,0.185s0.534,0.288,0.742,0.496c0.207,0.207,0.368,0.447,0.481,0.721
	c0.114,0.273,0.171,0.563,0.171,0.868c0,0.311-0.056,0.603-0.167,0.879c-0.112,0.275-0.27,0.517-0.472,0.725
	c-0.203,0.207-0.448,0.372-0.735,0.495s-0.608,0.185-0.964,0.185s-0.677-0.062-0.964-0.185s-0.532-0.288-0.734-0.495
	c-0.203-0.208-0.36-0.449-0.472-0.725C363.741,177.127,363.686,176.835,363.686,176.524z M366.023,175.376
	c-0.159,0-0.311,0.03-0.454,0.089c-0.144,0.06-0.27,0.141-0.376,0.243c-0.107,0.103-0.191,0.223-0.253,0.362
	c-0.062,0.139-0.093,0.29-0.093,0.454c0,0.16,0.031,0.312,0.093,0.455s0.146,0.269,0.253,0.376c0.106,0.106,0.232,0.191,0.376,0.253
	s0.295,0.092,0.454,0.092c0.16,0,0.311-0.03,0.451-0.092c0.142-0.062,0.265-0.145,0.369-0.25c0.105-0.104,0.188-0.229,0.25-0.372
	s0.092-0.298,0.092-0.462s-0.03-0.315-0.092-0.454c-0.062-0.14-0.145-0.26-0.25-0.362c-0.104-0.103-0.228-0.184-0.369-0.243
	C366.334,175.406,366.184,175.376,366.023,175.376z"/>
<path fill="#757575" d="M462.072,152.046h12.727v5.027h-2.402v-3h-6.34v5.707h6.105v1.969h-6.105v6.047h1.781v2.016h-5.766v-2.016
	h1.688v-13.723h-1.688V152.046z"/>
<path fill="#757575" d="M483.447,157.671h3.914v10.125h1.348v2.016h-3.539v-1.125c-0.547,0.422-1.143,0.75-1.787,0.984
	s-1.334,0.352-2.068,0.352c-0.609,0-1.162-0.088-1.658-0.264s-0.918-0.449-1.266-0.82s-0.615-0.842-0.803-1.412
	s-0.281-1.25-0.281-2.039v-5.801h-1.641v-2.016h3.914v7.559c0,0.93,0.215,1.633,0.645,2.109s1.047,0.715,1.852,0.715
	c0.477,0,0.979-0.086,1.506-0.258s1.025-0.41,1.494-0.715v-7.395h-1.629V157.671z"/>
<path fill="#757575" d="M491.861,151.577h4.277v2.016h-0.023v9.07h2.109l2.883-2.977h-0.727v-2.016h4.605v2.016h-1.535l-3.691,3.809
	l4.031,4.301h1.465v2.016h-2.566l-4.969-5.426h-1.605v3.41h1.008v2.016h-5.191v-2.016h1.992v-14.203h-2.062V151.577z"/>
<path fill="#757575" d="M514.338,157.671h3.914v10.125h1.348v2.016h-3.539v-1.125c-0.547,0.422-1.143,0.75-1.787,0.984
	s-1.334,0.352-2.068,0.352c-0.609,0-1.162-0.088-1.658-0.264s-0.918-0.449-1.266-0.82s-0.615-0.842-0.803-1.412
	s-0.281-1.25-0.281-2.039v-5.801h-1.641v-2.016h3.914v7.559c0,0.93,0.215,1.633,0.645,2.109s1.047,0.715,1.852,0.715
	c0.477,0,0.979-0.086,1.506-0.258s1.025-0.41,1.494-0.715v-7.395h-1.629V157.671z"/>
<path fill="#757575" d="M522.682,163.741c0.008-0.961,0.162-1.836,0.463-2.625s0.721-1.467,1.26-2.033s1.18-1.002,1.922-1.307
	s1.559-0.457,2.449-0.457c0.898,0,1.721,0.152,2.467,0.457s1.385,0.736,1.916,1.295s0.945,1.232,1.242,2.021
	s0.445,1.664,0.445,2.625c0,0.945-0.148,1.814-0.445,2.607s-0.711,1.475-1.242,2.045s-1.17,1.014-1.916,1.33
	s-1.568,0.475-2.467,0.475c-0.914,0-1.742-0.156-2.484-0.469s-1.379-0.752-1.91-1.318s-0.945-1.244-1.242-2.033
	S522.689,164.694,522.682,163.741z M524.99,163.741c0,0.695,0.1,1.324,0.299,1.887s0.473,1.041,0.82,1.436s0.75,0.699,1.207,0.914
	s0.943,0.322,1.459,0.322c0.539,0,1.041-0.105,1.506-0.316s0.869-0.514,1.213-0.908s0.613-0.873,0.809-1.436
	s0.293-1.195,0.293-1.898c0-0.734-0.098-1.387-0.293-1.957s-0.463-1.047-0.803-1.43s-0.744-0.672-1.213-0.867
	s-0.973-0.293-1.512-0.293c-0.516,0-1.002,0.098-1.459,0.293s-0.859,0.484-1.207,0.867s-0.621,0.859-0.82,1.43
	S524.99,163.007,524.99,163.741z"/>
<path fill="#757575" d="M537.107,151.577h4.277v2.016h-0.023v9.07h2.109l2.883-2.977h-0.727v-2.016h4.605v2.016h-1.535l-3.691,3.809
	l4.031,4.301h1.465v2.016h-2.566l-4.969-5.426h-1.605v3.41h1.008v2.016h-5.191v-2.016h1.992v-14.203h-2.062V151.577z"/>
<path fill="#757575" d="M559.408,168.687c-0.461,0.43-0.971,0.781-1.529,1.055s-1.193,0.41-1.904,0.41
	c-0.594,0-1.139-0.094-1.635-0.281s-0.924-0.443-1.283-0.768s-0.639-0.701-0.838-1.131s-0.299-0.887-0.299-1.371
	c0-0.516,0.076-0.973,0.229-1.371s0.355-0.744,0.609-1.037s0.551-0.539,0.891-0.738s0.695-0.359,1.066-0.48s0.75-0.207,1.137-0.258
	s0.756-0.076,1.107-0.076c0.562,0,1.035,0.018,1.418,0.053s0.73,0.084,1.043,0.146l0.012-0.996c0-0.43-0.062-0.803-0.188-1.119
	s-0.301-0.578-0.527-0.785s-0.498-0.361-0.814-0.463s-0.67-0.152-1.061-0.152c-0.367,0-0.719,0.025-1.055,0.076
	s-0.65,0.117-0.943,0.199s-0.562,0.176-0.809,0.281s-0.455,0.217-0.627,0.334l-0.715-1.512c0.289-0.188,0.605-0.361,0.949-0.521
	s0.705-0.297,1.084-0.41s0.766-0.203,1.16-0.27s0.783-0.1,1.166-0.1c0.703,0,1.336,0.084,1.898,0.252s1.039,0.428,1.43,0.779
	s0.691,0.799,0.902,1.342s0.316,1.193,0.316,1.951l-0.012,6.07h1.348v2.016h-3.527V168.687z M556.455,168.323
	c0.289,0,0.578-0.035,0.867-0.105s0.562-0.166,0.82-0.287s0.496-0.262,0.715-0.422s0.402-0.326,0.551-0.498l0.012-2.742h-2.531
	c-0.422,0-0.807,0.047-1.154,0.141s-0.648,0.23-0.902,0.41s-0.451,0.402-0.592,0.668s-0.211,0.57-0.211,0.914
	c0,0.32,0.059,0.6,0.176,0.838s0.283,0.438,0.498,0.598s0.471,0.281,0.768,0.363S556.096,168.323,556.455,168.323z"/>
<path fill="#FFFFFF" d="M177.287,189.694l6.246-7.547c0.211-0.25,0.432-0.52,0.662-0.809s0.445-0.594,0.645-0.914
	s0.363-0.654,0.492-1.002s0.193-0.709,0.193-1.084c0-0.391-0.078-0.758-0.234-1.102s-0.371-0.645-0.645-0.902
	s-0.6-0.461-0.979-0.609s-0.795-0.223-1.248-0.223c-0.406,0-0.791,0.064-1.154,0.193s-0.682,0.318-0.955,0.568
	s-0.494,0.561-0.662,0.932s-0.26,0.799-0.275,1.283h-2.109c0.008-0.742,0.152-1.428,0.434-2.057s0.658-1.172,1.131-1.629
	s1.021-0.812,1.646-1.066s1.281-0.381,1.969-0.381c0.797,0,1.52,0.127,2.168,0.381s1.203,0.604,1.664,1.049s0.818,0.973,1.072,1.582
	s0.381,1.27,0.381,1.98c0,0.281-0.033,0.58-0.1,0.896s-0.18,0.656-0.34,1.02s-0.371,0.752-0.633,1.166s-0.592,0.859-0.99,1.336
	l-5.543,6.598h7.582v2.062h-10.418V189.694z"/>
<path fill="#FFFFFF" d="M192.861,180.94c0.438-0.297,0.887-0.521,1.348-0.674s0.988-0.229,1.582-0.229
	c0.875,0,1.68,0.156,2.414,0.469s1.365,0.734,1.893,1.266s0.938,1.15,1.23,1.857s0.439,1.455,0.439,2.244
	c0,0.797-0.145,1.553-0.434,2.268s-0.699,1.342-1.23,1.881s-1.17,0.967-1.916,1.283s-1.576,0.475-2.49,0.475
	c-0.695,0-1.344-0.092-1.945-0.275s-1.145-0.441-1.629-0.773s-0.904-0.729-1.26-1.189s-0.639-0.965-0.85-1.512l1.922-0.961
	c0.125,0.398,0.309,0.768,0.551,1.107s0.527,0.633,0.855,0.879s0.691,0.438,1.09,0.574s0.82,0.205,1.266,0.205
	c0.562,0,1.084-0.104,1.564-0.311s0.898-0.49,1.254-0.85s0.635-0.779,0.838-1.26s0.305-0.994,0.305-1.541
	c0-0.555-0.102-1.068-0.305-1.541s-0.484-0.883-0.844-1.23s-0.779-0.621-1.26-0.82s-0.998-0.299-1.553-0.299
	c-0.625,0-1.201,0.111-1.729,0.334s-0.967,0.521-1.318,0.896l-1.723-0.27v-9.293h10.008v1.945h-8.074V180.94z"/>
<path fill="#FFFFFF" d="M203.007,183.439c0-0.305,0.057-0.596,0.171-0.871c0.114-0.276,0.274-0.518,0.482-0.725
	c0.208-0.208,0.455-0.372,0.742-0.492c0.287-0.121,0.602-0.182,0.943-0.182s0.656,0.061,0.943,0.182
	c0.287,0.12,0.533,0.284,0.738,0.492c0.205,0.207,0.366,0.448,0.482,0.725c0.116,0.275,0.174,0.566,0.174,0.871
	c0,0.311-0.056,0.602-0.167,0.875s-0.27,0.516-0.475,0.725c-0.205,0.21-0.451,0.375-0.738,0.496
	c-0.287,0.12-0.606,0.181-0.957,0.181c-0.355,0-0.677-0.061-0.964-0.181c-0.287-0.121-0.532-0.286-0.735-0.496
	c-0.203-0.209-0.36-0.451-0.472-0.725S203.007,183.75,203.007,183.439z M211.053,180.89h1.333l-7.116,10.637h-1.326L211.053,180.89z
	 M205.345,182.291c-0.164,0-0.318,0.028-0.461,0.086c-0.144,0.057-0.269,0.137-0.376,0.239s-0.191,0.225-0.253,0.365
	c-0.062,0.142-0.092,0.294-0.092,0.458c0,0.16,0.031,0.312,0.092,0.455s0.146,0.269,0.253,0.376
	c0.107,0.106,0.232,0.191,0.376,0.253s0.297,0.092,0.461,0.092c0.16,0,0.31-0.03,0.451-0.092s0.264-0.145,0.369-0.25
	c0.105-0.104,0.188-0.229,0.25-0.372s0.092-0.298,0.092-0.462s-0.031-0.316-0.092-0.458c-0.062-0.141-0.145-0.263-0.25-0.365
	s-0.228-0.183-0.369-0.239C205.655,182.319,205.504,182.291,205.345,182.291z M208.927,189.209c0-0.305,0.057-0.595,0.171-0.868
	s0.274-0.514,0.482-0.721c0.208-0.208,0.455-0.373,0.742-0.496s0.602-0.185,0.943-0.185s0.656,0.062,0.943,0.185
	s0.534,0.288,0.742,0.496c0.208,0.207,0.368,0.447,0.482,0.721s0.171,0.563,0.171,0.868c0,0.311-0.056,0.603-0.167,0.879
	c-0.112,0.275-0.269,0.517-0.472,0.725c-0.203,0.207-0.448,0.372-0.735,0.495s-0.608,0.185-0.964,0.185s-0.677-0.062-0.964-0.185
	s-0.532-0.288-0.735-0.495c-0.203-0.208-0.36-0.449-0.472-0.725C208.982,189.812,208.927,189.52,208.927,189.209z M211.265,188.061
	c-0.16,0-0.311,0.03-0.455,0.089c-0.144,0.06-0.269,0.141-0.376,0.243s-0.191,0.223-0.253,0.362
	c-0.062,0.139-0.092,0.29-0.092,0.454c0,0.16,0.031,0.312,0.092,0.455s0.146,0.269,0.253,0.376c0.107,0.106,0.232,0.191,0.376,0.253
	s0.295,0.092,0.455,0.092s0.31-0.03,0.451-0.092s0.264-0.145,0.369-0.25c0.105-0.104,0.188-0.229,0.25-0.372
	s0.092-0.298,0.092-0.462s-0.031-0.315-0.092-0.454c-0.062-0.14-0.145-0.26-0.25-0.362s-0.228-0.184-0.369-0.243
	C211.575,188.091,211.424,188.061,211.265,188.061z"/>
<path fill="#757575" d="M5.764,196.796h1.629v-13.828H3.338v2.766H0.936v-4.688H16.78v4.688h-2.402v-2.766H9.69v13.828h1.828v2.016
	H5.764V196.796z"/>
<path fill="#757575" d="M15.385,192.741c0.008-0.961,0.162-1.836,0.463-2.625s0.721-1.467,1.26-2.033s1.18-1.002,1.922-1.307
	s1.559-0.457,2.449-0.457c0.898,0,1.721,0.152,2.467,0.457s1.385,0.736,1.916,1.295s0.945,1.232,1.242,2.021
	s0.445,1.664,0.445,2.625c0,0.945-0.148,1.814-0.445,2.607s-0.711,1.475-1.242,2.045s-1.17,1.014-1.916,1.33
	s-1.568,0.475-2.467,0.475c-0.914,0-1.742-0.156-2.484-0.469s-1.379-0.752-1.91-1.318s-0.945-1.244-1.242-2.033
	S15.393,193.694,15.385,192.741z M17.694,192.741c0,0.695,0.1,1.324,0.299,1.887s0.473,1.041,0.82,1.436s0.75,0.699,1.207,0.914
	s0.943,0.322,1.459,0.322c0.539,0,1.041-0.105,1.506-0.316s0.869-0.514,1.213-0.908s0.613-0.873,0.809-1.436
	s0.293-1.195,0.293-1.898c0-0.734-0.098-1.387-0.293-1.957s-0.463-1.047-0.803-1.43s-0.744-0.672-1.213-0.867
	s-0.973-0.293-1.512-0.293c-0.516,0-1.002,0.098-1.459,0.293s-0.859,0.484-1.207,0.867s-0.621,0.859-0.82,1.43
	S17.694,192.007,17.694,192.741z"/>
<path fill="#757575" d="M29.811,180.577h4.277v2.016h-0.023v9.07h2.109l2.883-2.977h-0.727v-2.016h4.605v2.016h-1.535l-3.691,3.809
	l4.031,4.301h1.465v2.016h-2.566l-4.969-5.426h-1.605v3.41h1.008v2.016h-5.191v-2.016h1.992v-14.203h-2.062V180.577z"/>
<path fill="#757575" d="M44.167,186.671h4.605v2.016h-1.441l2.848,7.746l2.977-7.746h-1.43v-2.016h4.605v2.016h-1.254l-5.402,13.629
	h1.664v2.016H46.44v-2.016h1.477l1.289-3.34l-4.055-10.289h-0.984V186.671z"/>
<path fill="#757575" d="M58.592,192.741c0.008-0.961,0.162-1.836,0.463-2.625s0.721-1.467,1.26-2.033s1.18-1.002,1.922-1.307
	s1.559-0.457,2.449-0.457c0.898,0,1.721,0.152,2.467,0.457s1.385,0.736,1.916,1.295s0.945,1.232,1.242,2.021
	s0.445,1.664,0.445,2.625c0,0.945-0.148,1.814-0.445,2.607s-0.711,1.475-1.242,2.045s-1.17,1.014-1.916,1.33
	s-1.568,0.475-2.467,0.475c-0.914,0-1.742-0.156-2.484-0.469s-1.379-0.752-1.91-1.318s-0.945-1.244-1.242-2.033
	S58.6,193.694,58.592,192.741z M60.901,192.741c0,0.695,0.1,1.324,0.299,1.887s0.473,1.041,0.82,1.436s0.75,0.699,1.207,0.914
	s0.943,0.322,1.459,0.322c0.539,0,1.041-0.105,1.506-0.316s0.869-0.514,1.213-0.908s0.613-0.873,0.809-1.436
	s0.293-1.195,0.293-1.898c0-0.734-0.098-1.387-0.293-1.957s-0.463-1.047-0.803-1.43s-0.744-0.672-1.213-0.867
	s-0.973-0.293-1.512-0.293c-0.516,0-1.002,0.098-1.459,0.293s-0.859,0.484-1.207,0.867s-0.621,0.859-0.82,1.43
	S60.901,192.007,60.901,192.741z"/>
<path fill="#757575" d="M9.478,13.939c-0.92,0-1.761-0.172-2.522-0.515s-1.441-0.83-2.039-1.463s-1.052-1.383-1.362-2.25
	S3.088,7.945,3.088,7.014c0-0.961,0.157-1.863,0.47-2.707s0.753-1.578,1.318-2.202s1.239-1.116,2.021-1.477s1.642-0.54,2.58-0.54
	c0.943,0,1.808,0.18,2.593,0.54s1.459,0.853,2.021,1.477s0.999,1.358,1.31,2.202s0.466,1.746,0.466,2.707s-0.157,1.861-0.47,2.702
	s-0.753,1.575-1.318,2.202s-1.239,1.12-2.021,1.48S10.416,13.939,9.478,13.939z M9.478,12.305c0.697,0,1.329-0.144,1.894-0.431
	s1.047-0.673,1.446-1.156s0.706-1.044,0.923-1.683s0.325-1.312,0.325-2.021c0-0.727-0.119-1.429-0.356-2.105
	s-0.568-1.249-0.993-1.718s-0.918-0.831-1.481-1.086s-1.148-0.382-1.758-0.382c-0.697,0-1.33,0.144-1.898,0.431
	s-1.052,0.672-1.45,1.155S5.423,4.354,5.207,4.996S4.881,6.311,4.881,7.014c0,0.82,0.12,1.551,0.36,2.192s0.558,1.175,0.954,1.6
	s0.867,0.781,1.415,1.068S8.781,12.305,9.478,12.305z"/>
<path fill="#757575" d="M17.3,0h3.208v1.512h-0.018v6.803h1.582l2.162-2.232H23.69V4.57h3.454v1.512h-1.151l-2.769,2.856
	l3.023,3.226h1.099v1.512h-1.925l-3.727-4.069h-1.204v2.558h0.756v1.512h-3.894v-1.512h1.494V1.512H17.3V0z"/>
<path fill="#757575" d="M28.603,4.57h2.971v7.594h1.371v1.512h-4.324v-1.512h1.301V6.082h-1.318V4.57z M29.614,1.345
	c0-0.152,0.031-0.298,0.092-0.436s0.144-0.258,0.246-0.36s0.224-0.185,0.365-0.246s0.29-0.092,0.448-0.092
	c0.152,0,0.297,0.03,0.435,0.092s0.258,0.144,0.36,0.246s0.185,0.223,0.246,0.36s0.092,0.283,0.092,0.436
	c0,0.158-0.031,0.308-0.092,0.448s-0.144,0.265-0.246,0.373s-0.223,0.193-0.36,0.255s-0.283,0.093-0.435,0.093
	c-0.158,0-0.308-0.031-0.448-0.093s-0.262-0.146-0.365-0.255s-0.185-0.232-0.246-0.373S29.614,1.503,29.614,1.345z"/>
<path fill="#757575" d="M40.442,12.164h1.283V8.007c0-0.697-0.177-1.227-0.532-1.587s-0.863-0.54-1.525-0.54
	c-0.381,0-0.765,0.091-1.151,0.272s-0.753,0.407-1.099,0.677v5.335h1.283v1.512h-4.254v-1.512h1.266V6.082h-1.266V4.57h2.9v1.072
	h0.018c0.193-0.17,0.4-0.331,0.62-0.483s0.45-0.284,0.69-0.396s0.491-0.199,0.751-0.264s0.535-0.097,0.822-0.097
	c0.486,0,0.926,0.067,1.318,0.202s0.727,0.34,1.002,0.615s0.488,0.628,0.637,1.059s0.224,0.939,0.224,1.525v4.359h1.266v1.512
	h-4.254V12.164z"/>
<path fill="#757575" d="M51.806,12.832c-0.346,0.322-0.728,0.586-1.147,0.791s-0.895,0.308-1.428,0.308
	c-0.445,0-0.854-0.07-1.226-0.211s-0.693-0.333-0.962-0.576s-0.479-0.525-0.628-0.848s-0.224-0.665-0.224-1.028
	c0-0.387,0.057-0.729,0.171-1.028s0.267-0.559,0.457-0.778s0.413-0.404,0.668-0.554s0.521-0.27,0.8-0.36s0.562-0.155,0.853-0.193
	s0.567-0.057,0.831-0.057c0.422,0,0.776,0.013,1.063,0.039s0.548,0.063,0.782,0.11l0.009-0.747c0-0.322-0.047-0.603-0.141-0.84
	s-0.226-0.434-0.396-0.589S50.914,6,50.677,5.924S50.174,5.81,49.881,5.81c-0.275,0-0.539,0.019-0.791,0.057
	s-0.488,0.088-0.708,0.149s-0.422,0.132-0.606,0.211s-0.341,0.163-0.47,0.251L46.77,5.344c0.217-0.141,0.454-0.271,0.712-0.392
	s0.529-0.223,0.813-0.308s0.574-0.152,0.87-0.202s0.587-0.074,0.875-0.074c0.527,0,1.002,0.062,1.424,0.188s0.779,0.321,1.072,0.585
	s0.519,0.599,0.677,1.006s0.237,0.896,0.237,1.464l-0.009,4.553h1.011v1.512h-2.646V12.832z M49.591,12.56
	c0.217,0,0.434-0.026,0.65-0.079s0.422-0.125,0.615-0.216s0.372-0.196,0.536-0.316s0.302-0.244,0.413-0.373l0.009-2.057h-1.898
	c-0.316,0-0.605,0.035-0.866,0.105s-0.486,0.173-0.677,0.308s-0.338,0.302-0.444,0.501s-0.158,0.428-0.158,0.686
	c0,0.24,0.044,0.449,0.132,0.628s0.212,0.328,0.374,0.448s0.353,0.211,0.576,0.272S49.322,12.56,49.591,12.56z"/>
<path fill="#757575" d="M55.594,4.57h2.883v1.512h-0.422l1.591,5.81l2.18-7.321h1.371l2.083,7.304l1.661-5.792h-0.527V4.57h2.883
	v1.512h-0.782l-2.496,7.734h-1.512l-2.065-7.269l-2.057,7.269h-1.529l-2.479-7.734h-0.782V4.57z"/>
<path fill="#757575" d="M76.064,12.832c-0.346,0.322-0.728,0.586-1.147,0.791s-0.895,0.308-1.428,0.308
	c-0.445,0-0.854-0.07-1.226-0.211s-0.693-0.333-0.962-0.576s-0.479-0.525-0.628-0.848s-0.224-0.665-0.224-1.028
	c0-0.387,0.057-0.729,0.171-1.028s0.267-0.559,0.457-0.778s0.413-0.404,0.668-0.554s0.521-0.27,0.8-0.36s0.562-0.155,0.853-0.193
	s0.567-0.057,0.831-0.057c0.422,0,0.776,0.013,1.063,0.039s0.548,0.063,0.782,0.11l0.009-0.747c0-0.322-0.047-0.603-0.141-0.84
	s-0.226-0.434-0.396-0.589S75.172,6,74.935,5.924S74.432,5.81,74.139,5.81c-0.275,0-0.539,0.019-0.791,0.057
	s-0.488,0.088-0.708,0.149s-0.422,0.132-0.606,0.211s-0.341,0.163-0.47,0.251l-0.536-1.134c0.217-0.141,0.454-0.271,0.712-0.392
	s0.529-0.223,0.813-0.308s0.574-0.152,0.87-0.202s0.587-0.074,0.875-0.074c0.527,0,1.002,0.062,1.424,0.188s0.779,0.321,1.072,0.585
	s0.519,0.599,0.677,1.006s0.237,0.896,0.237,1.464l-0.009,4.553h1.011v1.512h-2.646V12.832z M73.849,12.56
	c0.217,0,0.434-0.026,0.65-0.079s0.422-0.125,0.615-0.216s0.372-0.196,0.536-0.316s0.302-0.244,0.413-0.373l0.009-2.057h-1.898
	c-0.316,0-0.605,0.035-0.866,0.105s-0.486,0.173-0.677,0.308s-0.338,0.302-0.444,0.501s-0.158,0.428-0.158,0.686
	c0,0.24,0.044,0.449,0.132,0.628s0.212,0.328,0.374,0.448s0.353,0.211,0.576,0.272S73.58,12.56,73.849,12.56z"/>
<path fill="#757575" d="M9.478,47.146c-0.92,0-1.761-0.171-2.522-0.514s-1.441-0.831-2.039-1.463s-1.052-1.383-1.362-2.25
	s-0.466-1.767-0.466-2.698c0-0.961,0.157-1.863,0.47-2.707s0.753-1.578,1.318-2.202s1.239-1.116,2.021-1.477s1.642-0.541,2.58-0.541
	c0.943,0,1.808,0.18,2.593,0.541s1.459,0.853,2.021,1.477s0.999,1.358,1.31,2.202s0.466,1.746,0.466,2.707s-0.157,1.862-0.47,2.703
	s-0.753,1.575-1.318,2.202s-1.239,1.121-2.021,1.481S10.416,47.146,9.478,47.146z M9.478,45.511c0.697,0,1.329-0.144,1.894-0.431
	s1.047-0.672,1.446-1.156s0.706-1.044,0.923-1.683s0.325-1.312,0.325-2.021c0-0.727-0.119-1.428-0.356-2.105
	s-0.568-1.25-0.993-1.718s-0.918-0.831-1.481-1.085s-1.148-0.382-1.758-0.382c-0.697,0-1.33,0.144-1.898,0.431
	s-1.052,0.672-1.45,1.156s-0.706,1.046-0.923,1.688s-0.325,1.314-0.325,2.017c0,0.82,0.12,1.551,0.36,2.193s0.558,1.175,0.954,1.6
	s0.867,0.781,1.415,1.068S8.781,45.511,9.478,45.511z"/>
<path fill="#757575" d="M22.455,39.592c-0.114-0.173-0.262-0.313-0.444-0.422s-0.384-0.188-0.606-0.237s-0.439-0.075-0.65-0.075
	c-0.234,0-0.45,0.026-0.646,0.079s-0.365,0.129-0.505,0.229s-0.25,0.221-0.33,0.365s-0.119,0.303-0.119,0.479
	c0,0.305,0.092,0.546,0.277,0.725s0.494,0.344,0.927,0.497l1.749,0.615c0.75,0.252,1.298,0.595,1.644,1.028s0.519,0.952,0.519,1.556
	c0,0.404-0.081,0.775-0.242,1.112s-0.39,0.624-0.686,0.861s-0.652,0.422-1.068,0.554s-0.879,0.198-1.389,0.198
	c-0.709,0-1.286-0.114-1.731-0.343s-0.788-0.53-1.028-0.905h-0.914v-1.512h1.819c0,0.252,0.054,0.467,0.163,0.646
	s0.252,0.324,0.431,0.435s0.381,0.193,0.606,0.246s0.456,0.079,0.69,0.079c0.229,0,0.448-0.028,0.659-0.083s0.397-0.138,0.558-0.246
	s0.289-0.239,0.382-0.391s0.141-0.325,0.141-0.519c0-0.293-0.095-0.542-0.286-0.747s-0.514-0.39-0.971-0.554l-1.74-0.65
	c-0.709-0.252-1.235-0.573-1.578-0.962s-0.514-0.877-0.514-1.463c0-0.387,0.072-0.744,0.215-1.072s0.352-0.611,0.624-0.848
	s0.605-0.423,0.998-0.558s0.841-0.202,1.345-0.202c0.65,0,1.195,0.091,1.635,0.272s0.835,0.492,1.187,0.932h0.853v1.512h-1.802
	C22.626,39.974,22.569,39.765,22.455,39.592z"/>
<path fill="#757575" d="M31.451,46.039c-0.346,0.322-0.728,0.586-1.147,0.791s-0.895,0.308-1.428,0.308
	c-0.445,0-0.854-0.07-1.226-0.211s-0.693-0.333-0.962-0.576s-0.479-0.526-0.628-0.848s-0.224-0.665-0.224-1.028
	c0-0.387,0.057-0.729,0.171-1.028s0.267-0.558,0.457-0.778s0.413-0.404,0.668-0.554s0.521-0.27,0.8-0.36s0.562-0.155,0.853-0.193
	s0.567-0.057,0.831-0.057c0.422,0,0.776,0.013,1.063,0.04s0.548,0.063,0.782,0.11l0.009-0.747c0-0.322-0.047-0.602-0.141-0.839
	s-0.226-0.434-0.396-0.589s-0.374-0.271-0.611-0.347s-0.502-0.114-0.795-0.114c-0.275,0-0.539,0.019-0.791,0.057
	s-0.488,0.088-0.708,0.149s-0.422,0.132-0.606,0.211s-0.341,0.163-0.47,0.25l-0.536-1.134c0.217-0.141,0.454-0.271,0.712-0.391
	s0.529-0.223,0.813-0.308s0.574-0.152,0.87-0.202s0.587-0.075,0.875-0.075c0.527,0,1.002,0.063,1.424,0.189s0.779,0.321,1.072,0.584
	s0.519,0.599,0.677,1.006s0.237,0.895,0.237,1.463l-0.009,4.553h1.011v1.512h-2.646V46.039z M29.236,45.766
	c0.217,0,0.434-0.026,0.65-0.079s0.422-0.125,0.615-0.215s0.372-0.196,0.536-0.316s0.302-0.245,0.413-0.374l0.009-2.057h-1.898
	c-0.316,0-0.605,0.035-0.866,0.105s-0.486,0.173-0.677,0.308s-0.338,0.302-0.444,0.501s-0.158,0.428-0.158,0.686
	c0,0.24,0.044,0.45,0.132,0.628s0.212,0.328,0.374,0.448s0.353,0.211,0.576,0.272S28.966,45.766,29.236,45.766z"/>
<path fill="#757575" d="M35.872,33.207h3.208v1.512h-0.018v6.803h1.582l2.162-2.232h-0.545v-1.512h3.454v1.512h-1.151l-2.769,2.856
	l3.023,3.226h1.099v1.512h-1.925l-3.727-4.069h-1.204v2.558h0.756v1.512h-3.894v-1.512h1.494V34.718h-1.547V33.207z"/>
<path fill="#757575" d="M52.597,46.039c-0.346,0.322-0.728,0.586-1.147,0.791s-0.895,0.308-1.428,0.308
	c-0.445,0-0.854-0.07-1.226-0.211s-0.693-0.333-0.962-0.576s-0.479-0.526-0.628-0.848s-0.224-0.665-0.224-1.028
	c0-0.387,0.057-0.729,0.171-1.028s0.267-0.558,0.457-0.778s0.413-0.404,0.668-0.554s0.521-0.27,0.8-0.36s0.562-0.155,0.853-0.193
	s0.567-0.057,0.831-0.057c0.422,0,0.776,0.013,1.063,0.04s0.548,0.063,0.782,0.11l0.009-0.747c0-0.322-0.047-0.602-0.141-0.839
	s-0.226-0.434-0.396-0.589s-0.374-0.271-0.611-0.347s-0.502-0.114-0.795-0.114c-0.275,0-0.539,0.019-0.791,0.057
	s-0.488,0.088-0.708,0.149s-0.422,0.132-0.606,0.211s-0.341,0.163-0.47,0.25l-0.536-1.134c0.217-0.141,0.454-0.271,0.712-0.391
	s0.529-0.223,0.813-0.308s0.574-0.152,0.87-0.202s0.587-0.075,0.875-0.075c0.527,0,1.002,0.063,1.424,0.189s0.779,0.321,1.072,0.584
	s0.519,0.599,0.677,1.006s0.237,0.895,0.237,1.463l-0.009,4.553h1.011v1.512h-2.646V46.039z M50.382,45.766
	c0.217,0,0.434-0.026,0.65-0.079s0.422-0.125,0.615-0.215s0.372-0.196,0.536-0.316s0.302-0.245,0.413-0.374l0.009-2.057h-1.898
	c-0.316,0-0.605,0.035-0.866,0.105s-0.486,0.173-0.677,0.308s-0.338,0.302-0.444,0.501s-0.158,0.428-0.158,0.686
	c0,0.24,0.044,0.45,0.132,0.628s0.212,0.328,0.374,0.448s0.353,0.211,0.576,0.272S50.113,45.766,50.382,45.766z"/>
<path fill="#757575" d="M13.073,66.765h4.324v1.512h-1.266v10.301h1.266v1.512h-4.324v-1.512h1.336v-4.79H6.701v4.79h1.336v1.512
	H3.712v-1.512h1.266V68.276H3.712v-1.512h4.324v1.512H6.701v4.034h7.708v-4.034h-1.336V66.765z"/>
<path fill="#757575" d="M18.926,70.983h3.454v1.512h-1.081l2.136,5.81l2.232-5.81h-1.072v-1.512h3.454v1.512h-0.94l-4.052,10.222
	h1.248v1.512h-3.674v-1.512h1.107l0.967-2.505l-3.041-7.717h-0.738V70.983z"/>
<path fill="#757575" d="M29.746,75.536c0.006-0.721,0.122-1.377,0.347-1.969s0.541-1.1,0.945-1.525s0.885-0.751,1.441-0.98
	s1.169-0.343,1.837-0.343c0.674,0,1.291,0.114,1.85,0.343s1.039,0.552,1.437,0.971s0.709,0.924,0.932,1.516s0.334,1.248,0.334,1.969
	c0,0.709-0.111,1.361-0.334,1.956s-0.533,1.106-0.932,1.534s-0.877,0.76-1.437,0.998s-1.176,0.356-1.85,0.356
	c-0.686,0-1.307-0.117-1.863-0.352s-1.034-0.564-1.433-0.989s-0.709-0.933-0.932-1.525S29.751,76.251,29.746,75.536z M31.477,75.536
	c0,0.521,0.075,0.993,0.224,1.415s0.354,0.781,0.615,1.077s0.562,0.524,0.905,0.686s0.708,0.242,1.094,0.242
	c0.404,0,0.781-0.079,1.129-0.237s0.652-0.385,0.91-0.681s0.46-0.655,0.606-1.077s0.22-0.896,0.22-1.424
	c0-0.551-0.073-1.04-0.22-1.468s-0.347-0.785-0.602-1.072s-0.558-0.504-0.91-0.65s-0.729-0.22-1.134-0.22
	c-0.387,0-0.751,0.073-1.094,0.22s-0.645,0.363-0.905,0.65s-0.466,0.645-0.615,1.072S31.477,74.985,31.477,75.536z"/>
<path fill="#757575" d="M47.297,79.289c-0.299,0.316-0.646,0.562-1.042,0.738s-0.845,0.264-1.349,0.264
	c-0.615,0-1.188-0.107-1.718-0.321s-0.99-0.527-1.38-0.94s-0.694-0.92-0.914-1.521s-0.33-1.288-0.33-2.061
	c0-0.703,0.105-1.343,0.316-1.92s0.51-1.069,0.896-1.477s0.853-0.724,1.397-0.949s1.151-0.338,1.819-0.338
	c0.457,0,0.869,0.051,1.235,0.154s0.722,0.28,1.068,0.532v-0.466h1.635v8.745c0,1.441-0.341,2.531-1.024,3.27
	s-1.745,1.107-3.186,1.107c-0.316,0-0.647-0.023-0.993-0.07s-0.687-0.122-1.024-0.224s-0.665-0.233-0.984-0.391
	s-0.614-0.352-0.883-0.58l0.879-1.327c0.176,0.152,0.376,0.293,0.602,0.422s0.467,0.239,0.725,0.33s0.524,0.163,0.8,0.215
	s0.551,0.079,0.826,0.079c0.451,0,0.842-0.047,1.173-0.141s0.604-0.259,0.817-0.497s0.374-0.558,0.479-0.962
	s0.158-0.917,0.158-1.538V79.289z M45.118,78.867c0.27,0,0.516-0.026,0.738-0.079s0.425-0.122,0.606-0.207s0.341-0.183,0.479-0.294
	s0.256-0.229,0.356-0.352v-4.983c-0.299-0.264-0.643-0.454-1.033-0.571s-0.79-0.176-1.2-0.176c-0.387,0-0.75,0.072-1.09,0.215
	s-0.637,0.353-0.892,0.628s-0.456,0.612-0.602,1.011s-0.22,0.855-0.22,1.371c0,0.562,0.07,1.058,0.211,1.485
	s0.337,0.787,0.589,1.077s0.554,0.508,0.905,0.655S44.702,78.867,45.118,78.867z"/>
<path fill="#757575" d="M51.059,75.536c0.006-0.721,0.122-1.377,0.347-1.969s0.541-1.1,0.945-1.525s0.885-0.751,1.441-0.98
	s1.169-0.343,1.837-0.343c0.674,0,1.291,0.114,1.85,0.343s1.039,0.552,1.437,0.971s0.709,0.924,0.932,1.516s0.334,1.248,0.334,1.969
	c0,0.709-0.111,1.361-0.334,1.956s-0.533,1.106-0.932,1.534s-0.877,0.76-1.437,0.998s-1.176,0.356-1.85,0.356
	c-0.686,0-1.307-0.117-1.863-0.352s-1.034-0.564-1.433-0.989s-0.709-0.933-0.932-1.525S51.065,76.251,51.059,75.536z M52.791,75.536
	c0,0.521,0.075,0.993,0.224,1.415s0.354,0.781,0.615,1.077s0.562,0.524,0.905,0.686s0.708,0.242,1.094,0.242
	c0.404,0,0.781-0.079,1.129-0.237s0.652-0.385,0.91-0.681s0.46-0.655,0.606-1.077s0.22-0.896,0.22-1.424
	c0-0.551-0.073-1.04-0.22-1.468s-0.347-0.785-0.602-1.072s-0.558-0.504-0.91-0.65s-0.729-0.22-1.134-0.22
	c-0.387,0-0.751,0.073-1.094,0.22s-0.645,0.363-0.905,0.65s-0.466,0.645-0.615,1.072S52.791,74.985,52.791,75.536z"/>
<path fill="#757575" d="M9.478,113.56c-0.92,0-1.761-0.171-2.522-0.514s-1.441-0.831-2.039-1.463s-1.052-1.383-1.362-2.25
	s-0.466-1.767-0.466-2.698c0-0.961,0.157-1.863,0.47-2.707s0.753-1.578,1.318-2.202s1.239-1.116,2.021-1.477s1.642-0.541,2.58-0.541
	c0.943,0,1.808,0.18,2.593,0.541s1.459,0.853,2.021,1.477s0.999,1.358,1.31,2.202s0.466,1.746,0.466,2.707s-0.157,1.862-0.47,2.703
	s-0.753,1.575-1.318,2.202s-1.239,1.121-2.021,1.481S10.416,113.56,9.478,113.56z M9.478,111.925c0.697,0,1.329-0.144,1.894-0.431
	s1.047-0.672,1.446-1.156s0.706-1.044,0.923-1.683s0.325-1.312,0.325-2.021c0-0.727-0.119-1.428-0.356-2.105
	s-0.568-1.25-0.993-1.718s-0.918-0.831-1.481-1.085s-1.148-0.382-1.758-0.382c-0.697,0-1.33,0.144-1.898,0.431
	s-1.052,0.672-1.45,1.156s-0.706,1.046-0.923,1.688s-0.325,1.314-0.325,2.017c0,0.82,0.12,1.551,0.36,2.193s0.558,1.175,0.954,1.6
	s0.867,0.781,1.415,1.068S8.781,111.925,9.478,111.925z"/>
<path fill="#757575" d="M17.3,99.62h3.208v1.512h-0.018v6.803h1.582l2.162-2.232H23.69v-1.512h3.454v1.512h-1.151l-2.769,2.856
	l3.023,3.226h1.099v1.512h-1.925l-3.727-4.069h-1.204v2.558h0.756v1.512h-3.894v-1.512h1.494v-10.652H17.3V99.62z"/>
<path fill="#757575" d="M34.026,112.452c-0.346,0.322-0.728,0.586-1.147,0.791s-0.895,0.308-1.428,0.308
	c-0.445,0-0.854-0.07-1.226-0.211s-0.693-0.333-0.962-0.576s-0.479-0.526-0.628-0.848s-0.224-0.665-0.224-1.028
	c0-0.387,0.057-0.729,0.171-1.028s0.267-0.558,0.457-0.778s0.413-0.404,0.668-0.554s0.521-0.27,0.8-0.36s0.562-0.155,0.853-0.193
	s0.567-0.057,0.831-0.057c0.422,0,0.776,0.013,1.063,0.04s0.548,0.063,0.782,0.11l0.009-0.747c0-0.322-0.047-0.602-0.141-0.839
	s-0.226-0.434-0.396-0.589s-0.374-0.271-0.611-0.347s-0.502-0.114-0.795-0.114c-0.275,0-0.539,0.019-0.791,0.057
	s-0.488,0.088-0.708,0.149s-0.422,0.132-0.606,0.211s-0.341,0.163-0.47,0.25l-0.536-1.134c0.217-0.141,0.454-0.271,0.712-0.391
	s0.529-0.223,0.813-0.308s0.574-0.152,0.87-0.202s0.587-0.075,0.875-0.075c0.527,0,1.002,0.063,1.424,0.189s0.779,0.321,1.072,0.584
	s0.519,0.599,0.677,1.006s0.237,0.895,0.237,1.463l-0.009,4.553h1.011v1.512h-2.646V112.452z M31.811,112.18
	c0.217,0,0.434-0.026,0.65-0.079s0.422-0.125,0.615-0.215s0.372-0.196,0.536-0.316s0.302-0.245,0.413-0.374l0.009-2.057h-1.898
	c-0.316,0-0.605,0.035-0.866,0.105s-0.486,0.173-0.677,0.308s-0.338,0.302-0.444,0.501s-0.158,0.428-0.158,0.686
	c0,0.24,0.044,0.45,0.132,0.628s0.212,0.328,0.374,0.448s0.353,0.211,0.576,0.272S31.542,112.18,31.811,112.18z"/>
<path fill="#757575" d="M37.911,104.19h3.454v1.512h-1.081l2.136,5.81l2.232-5.81H43.58v-1.512h3.454v1.512h-0.94l-4.052,10.222
	h1.248v1.512h-3.674v-1.512h1.107l0.967-2.505l-3.041-7.717h-0.738V104.19z"/>
<path fill="#757575" d="M54.206,112.452c-0.346,0.322-0.728,0.586-1.147,0.791s-0.895,0.308-1.428,0.308
	c-0.445,0-0.854-0.07-1.226-0.211s-0.693-0.333-0.962-0.576s-0.479-0.526-0.628-0.848s-0.224-0.665-0.224-1.028
	c0-0.387,0.057-0.729,0.171-1.028s0.267-0.558,0.457-0.778s0.413-0.404,0.668-0.554s0.521-0.27,0.8-0.36s0.562-0.155,0.853-0.193
	s0.567-0.057,0.831-0.057c0.422,0,0.776,0.013,1.063,0.04s0.548,0.063,0.782,0.11l0.009-0.747c0-0.322-0.047-0.602-0.141-0.839
	s-0.226-0.434-0.396-0.589s-0.374-0.271-0.611-0.347s-0.502-0.114-0.795-0.114c-0.275,0-0.539,0.019-0.791,0.057
	s-0.488,0.088-0.708,0.149s-0.422,0.132-0.606,0.211s-0.341,0.163-0.47,0.25l-0.536-1.134c0.217-0.141,0.454-0.271,0.712-0.391
	s0.529-0.223,0.813-0.308s0.574-0.152,0.87-0.202s0.587-0.075,0.875-0.075c0.527,0,1.002,0.063,1.424,0.189s0.779,0.321,1.072,0.584
	s0.519,0.599,0.677,1.006s0.237,0.895,0.237,1.463l-0.009,4.553h1.011v1.512h-2.646V112.452z M51.991,112.18
	c0.217,0,0.434-0.026,0.65-0.079s0.422-0.125,0.615-0.215s0.372-0.196,0.536-0.316s0.302-0.245,0.413-0.374l0.009-2.057h-1.898
	c-0.316,0-0.605,0.035-0.866,0.105s-0.486,0.173-0.677,0.308s-0.338,0.302-0.444,0.501s-0.158,0.428-0.158,0.686
	c0,0.24,0.044,0.45,0.132,0.628s0.212,0.328,0.374,0.448s0.353,0.211,0.576,0.272S51.721,112.18,51.991,112.18z"/>
<path fill="#757575" d="M58.697,104.19h2.9v1.063h0.018c0.199-0.17,0.409-0.33,0.628-0.479s0.45-0.28,0.69-0.391
	s0.491-0.199,0.751-0.264s0.532-0.097,0.813-0.097c0.656,0,1.222,0.122,1.696,0.365s0.841,0.623,1.099,1.138
	c0.223-0.199,0.457-0.391,0.703-0.576s0.502-0.344,0.769-0.479s0.546-0.243,0.839-0.325s0.598-0.123,0.914-0.123
	c0.492,0,0.935,0.067,1.327,0.202s0.727,0.34,1.002,0.615s0.485,0.628,0.628,1.059s0.215,0.939,0.215,1.525v4.359h1.266v1.512
	h-4.254v-1.512h1.283v-4.157c0-0.697-0.176-1.226-0.527-1.586S70.6,105.5,69.938,105.5c-0.393,0-0.794,0.094-1.204,0.281
	s-0.762,0.425-1.055,0.712v5.291h1.257v1.512h-4.245v-1.512h1.283v-4.157c0-0.697-0.177-1.226-0.532-1.586s-0.863-0.541-1.525-0.541
	c-0.381,0-0.765,0.091-1.151,0.272s-0.753,0.407-1.099,0.677v5.335h1.283v1.512h-4.254v-1.512h1.266v-6.082h-1.266V104.19z"/>
<path fill="#757575" d="M82.067,112.452c-0.346,0.322-0.728,0.586-1.147,0.791s-0.895,0.308-1.428,0.308
	c-0.445,0-0.854-0.07-1.226-0.211s-0.693-0.333-0.962-0.576s-0.479-0.526-0.628-0.848s-0.224-0.665-0.224-1.028
	c0-0.387,0.057-0.729,0.171-1.028s0.267-0.558,0.457-0.778s0.413-0.404,0.668-0.554s0.521-0.27,0.8-0.36s0.562-0.155,0.853-0.193
	s0.567-0.057,0.831-0.057c0.422,0,0.776,0.013,1.063,0.04s0.548,0.063,0.782,0.11l0.009-0.747c0-0.322-0.047-0.602-0.141-0.839
	s-0.226-0.434-0.396-0.589s-0.374-0.271-0.611-0.347s-0.502-0.114-0.795-0.114c-0.275,0-0.539,0.019-0.791,0.057
	s-0.488,0.088-0.708,0.149s-0.422,0.132-0.606,0.211s-0.341,0.163-0.47,0.25l-0.536-1.134c0.217-0.141,0.454-0.271,0.712-0.391
	s0.529-0.223,0.813-0.308s0.574-0.152,0.87-0.202s0.587-0.075,0.875-0.075c0.527,0,1.002,0.063,1.424,0.189s0.779,0.321,1.072,0.584
	s0.519,0.599,0.677,1.006s0.237,0.895,0.237,1.463l-0.009,4.553h1.011v1.512h-2.646V112.452z M79.852,112.18
	c0.217,0,0.434-0.026,0.65-0.079s0.422-0.125,0.615-0.215s0.372-0.196,0.536-0.316s0.302-0.245,0.413-0.374l0.009-2.057h-1.898
	c-0.316,0-0.605,0.035-0.866,0.105s-0.486,0.173-0.677,0.308s-0.338,0.302-0.444,0.501s-0.158,0.428-0.158,0.686
	c0,0.24,0.044,0.45,0.132,0.628s0.212,0.328,0.374,0.448s0.353,0.211,0.576,0.272S79.583,112.18,79.852,112.18z"/>
<path d="M92.527,111.399l4.685-5.66c0.158-0.188,0.324-0.39,0.497-0.606s0.334-0.445,0.483-0.686s0.272-0.491,0.369-0.751
	s0.145-0.532,0.145-0.813c0-0.293-0.059-0.568-0.176-0.826s-0.278-0.483-0.483-0.677s-0.45-0.346-0.734-0.457
	s-0.596-0.167-0.936-0.167c-0.305,0-0.593,0.048-0.866,0.145s-0.511,0.239-0.716,0.426s-0.371,0.42-0.497,0.699
	s-0.195,0.599-0.207,0.962h-1.582c0.006-0.557,0.114-1.071,0.325-1.542s0.494-0.879,0.848-1.222s0.766-0.609,1.235-0.8
	s0.961-0.286,1.477-0.286c0.598,0,1.14,0.095,1.626,0.286s0.902,0.453,1.248,0.787s0.614,0.729,0.804,1.187s0.286,0.952,0.286,1.485
	c0,0.211-0.025,0.435-0.075,0.672s-0.135,0.492-0.255,0.765s-0.278,0.564-0.475,0.875s-0.444,0.645-0.743,1.002l-4.157,4.948h5.687
	v1.547h-7.813V111.399z"/>
<path d="M102.265,111.628c0-0.152,0.031-0.297,0.092-0.435s0.145-0.258,0.25-0.36s0.227-0.185,0.365-0.246s0.286-0.092,0.444-0.092
	c0.152,0,0.297,0.031,0.435,0.092s0.258,0.144,0.36,0.246s0.185,0.223,0.246,0.36s0.092,0.283,0.092,0.435
	c0,0.158-0.031,0.308-0.092,0.448s-0.144,0.265-0.246,0.374s-0.223,0.193-0.36,0.255s-0.283,0.092-0.435,0.092
	c-0.158,0-0.306-0.031-0.444-0.092s-0.259-0.146-0.365-0.255s-0.189-0.233-0.25-0.374S102.265,111.786,102.265,111.628z"/>
<path d="M108.215,104.834c0.328-0.223,0.665-0.391,1.011-0.505s0.741-0.171,1.187-0.171c0.656,0,1.26,0.117,1.811,0.352
	s1.024,0.551,1.419,0.949s0.703,0.863,0.923,1.393s0.33,1.091,0.33,1.683c0,0.598-0.108,1.165-0.325,1.701s-0.524,1.006-0.923,1.411
	s-0.877,0.725-1.437,0.962s-1.182,0.356-1.868,0.356c-0.521,0-1.008-0.069-1.459-0.207s-0.858-0.331-1.222-0.58
	s-0.678-0.546-0.945-0.892s-0.479-0.724-0.637-1.134l1.441-0.721c0.094,0.299,0.231,0.576,0.413,0.831s0.396,0.475,0.642,0.659
	s0.519,0.328,0.817,0.431s0.615,0.154,0.949,0.154c0.422,0,0.813-0.078,1.173-0.233s0.674-0.368,0.94-0.637s0.476-0.584,0.628-0.945
	s0.229-0.746,0.229-1.156c0-0.416-0.076-0.801-0.229-1.156s-0.363-0.662-0.633-0.923s-0.584-0.466-0.945-0.615
	s-0.749-0.224-1.165-0.224c-0.469,0-0.901,0.083-1.296,0.25s-0.725,0.391-0.989,0.672l-1.292-0.202v-6.97h7.506v1.459h-6.056
	V104.834z"/>
<path d="M115.733,108.133c0-0.174,0.033-0.34,0.098-0.498s0.157-0.295,0.275-0.414s0.26-0.212,0.424-0.281s0.344-0.104,0.539-0.104
	s0.375,0.035,0.539,0.104s0.305,0.163,0.422,0.281s0.209,0.256,0.275,0.414s0.1,0.324,0.1,0.498c0,0.177-0.032,0.344-0.096,0.5
	s-0.154,0.294-0.271,0.414s-0.258,0.214-0.422,0.283s-0.346,0.104-0.547,0.104c-0.203,0-0.387-0.035-0.551-0.104
	s-0.304-0.164-0.42-0.283s-0.206-0.258-0.27-0.414S115.733,108.31,115.733,108.133z M120.331,106.676h0.762l-4.066,6.078h-0.758
	L120.331,106.676z M117.069,107.477c-0.094,0-0.182,0.016-0.264,0.049s-0.154,0.078-0.215,0.137s-0.109,0.128-0.145,0.209
	s-0.053,0.168-0.053,0.262c0,0.091,0.018,0.178,0.053,0.26s0.083,0.154,0.145,0.215s0.133,0.109,0.215,0.145s0.17,0.053,0.264,0.053
	c0.091,0,0.177-0.018,0.258-0.053s0.151-0.083,0.211-0.143s0.107-0.131,0.143-0.213s0.053-0.17,0.053-0.264
	s-0.018-0.181-0.053-0.262s-0.083-0.15-0.143-0.209s-0.13-0.104-0.211-0.137S117.16,107.477,117.069,107.477z M119.116,111.43
	c0-0.174,0.033-0.34,0.098-0.496s0.157-0.293,0.275-0.412s0.26-0.213,0.424-0.283s0.344-0.105,0.539-0.105s0.375,0.035,0.539,0.105
	s0.305,0.165,0.424,0.283s0.21,0.256,0.275,0.412s0.098,0.322,0.098,0.496c0,0.177-0.032,0.344-0.096,0.502s-0.154,0.295-0.27,0.414
	s-0.256,0.213-0.42,0.283s-0.348,0.105-0.551,0.105s-0.387-0.035-0.551-0.105s-0.304-0.165-0.42-0.283s-0.206-0.256-0.27-0.414
	S119.116,111.607,119.116,111.43z M120.452,110.773c-0.091,0-0.178,0.017-0.26,0.051s-0.154,0.08-0.215,0.139
	s-0.109,0.127-0.145,0.207s-0.053,0.166-0.053,0.26c0,0.091,0.018,0.178,0.053,0.26s0.083,0.154,0.145,0.215
	s0.133,0.109,0.215,0.145s0.168,0.053,0.26,0.053s0.177-0.018,0.258-0.053s0.151-0.083,0.211-0.143s0.107-0.131,0.143-0.213
	s0.053-0.17,0.053-0.264s-0.018-0.18-0.053-0.26s-0.083-0.148-0.143-0.207s-0.13-0.105-0.211-0.139S120.543,110.773,120.452,110.773
	z"/>
<path d="M92.527,12.394l4.685-5.66c0.158-0.188,0.324-0.39,0.497-0.606s0.334-0.445,0.483-0.686s0.272-0.491,0.369-0.751
	s0.145-0.532,0.145-0.813c0-0.293-0.059-0.568-0.176-0.826s-0.278-0.483-0.483-0.677s-0.45-0.346-0.734-0.457
	S96.716,1.75,96.376,1.75c-0.305,0-0.593,0.048-0.866,0.145S95,2.134,94.794,2.321s-0.371,0.42-0.497,0.699
	s-0.195,0.599-0.207,0.962h-1.582c0.006-0.557,0.114-1.071,0.325-1.542s0.494-0.879,0.848-1.222s0.766-0.609,1.235-0.8
	s0.961-0.286,1.477-0.286c0.598,0,1.14,0.095,1.626,0.286s0.902,0.453,1.248,0.787s0.614,0.729,0.804,1.187s0.286,0.952,0.286,1.485
	c0,0.211-0.025,0.435-0.075,0.672s-0.135,0.492-0.255,0.765s-0.278,0.564-0.475,0.875S99.11,6.833,98.811,7.19l-4.157,4.948h5.687
	v1.547h-7.813V12.394z"/>
<path d="M102.265,12.622c0-0.152,0.031-0.297,0.092-0.435s0.145-0.258,0.25-0.36s0.227-0.185,0.365-0.246s0.286-0.092,0.444-0.092
	c0.152,0,0.297,0.031,0.435,0.092s0.258,0.144,0.36,0.246s0.185,0.223,0.246,0.36s0.092,0.283,0.092,0.435
	c0,0.158-0.031,0.308-0.092,0.448s-0.144,0.265-0.246,0.374s-0.223,0.193-0.36,0.255s-0.283,0.092-0.435,0.092
	c-0.158,0-0.306-0.031-0.444-0.092s-0.259-0.146-0.365-0.255s-0.189-0.233-0.25-0.374S102.265,12.78,102.265,12.622z"/>
<path d="M108.215,5.828c0.328-0.223,0.665-0.391,1.011-0.505s0.741-0.171,1.187-0.171c0.656,0,1.26,0.117,1.811,0.352
	s1.024,0.551,1.419,0.949s0.703,0.863,0.923,1.393s0.33,1.091,0.33,1.683c0,0.598-0.108,1.165-0.325,1.701s-0.524,1.006-0.923,1.411
	s-0.877,0.725-1.437,0.962s-1.182,0.356-1.868,0.356c-0.521,0-1.008-0.069-1.459-0.207s-0.858-0.331-1.222-0.58
	s-0.678-0.546-0.945-0.892s-0.479-0.724-0.637-1.134l1.441-0.721c0.094,0.299,0.231,0.576,0.413,0.831s0.396,0.475,0.642,0.659
	s0.519,0.328,0.817,0.431s0.615,0.154,0.949,0.154c0.422,0,0.813-0.078,1.173-0.233s0.674-0.368,0.94-0.637s0.476-0.584,0.628-0.945
	s0.229-0.746,0.229-1.156c0-0.416-0.076-0.801-0.229-1.156s-0.363-0.662-0.633-0.923s-0.584-0.466-0.945-0.615
	s-0.749-0.224-1.165-0.224c-0.469,0-0.901,0.083-1.296,0.25s-0.725,0.391-0.989,0.672l-1.292-0.202v-6.97h7.506V1.82h-6.056V5.828z"
	/>
<path d="M115.733,9.127c0-0.174,0.033-0.34,0.098-0.498s0.157-0.295,0.275-0.414s0.26-0.212,0.424-0.281s0.344-0.104,0.539-0.104
	s0.375,0.035,0.539,0.104s0.305,0.163,0.422,0.281s0.209,0.256,0.275,0.414s0.1,0.324,0.1,0.498c0,0.177-0.032,0.344-0.096,0.5
	s-0.154,0.294-0.271,0.414s-0.258,0.214-0.422,0.283s-0.346,0.104-0.547,0.104c-0.203,0-0.387-0.035-0.551-0.104
	s-0.304-0.164-0.42-0.283s-0.206-0.258-0.27-0.414S115.733,9.304,115.733,9.127z M120.331,7.67h0.762l-4.066,6.078h-0.758
	L120.331,7.67z M117.069,8.471c-0.094,0-0.182,0.016-0.264,0.049s-0.154,0.078-0.215,0.137s-0.109,0.128-0.145,0.209
	s-0.053,0.168-0.053,0.262c0,0.091,0.018,0.178,0.053,0.26s0.083,0.154,0.145,0.215s0.133,0.109,0.215,0.145s0.17,0.053,0.264,0.053
	c0.091,0,0.177-0.018,0.258-0.053s0.151-0.083,0.211-0.143s0.107-0.131,0.143-0.213s0.053-0.17,0.053-0.264
	s-0.018-0.181-0.053-0.262s-0.083-0.15-0.143-0.209s-0.13-0.104-0.211-0.137S117.16,8.471,117.069,8.471z M119.116,12.424
	c0-0.174,0.033-0.34,0.098-0.496s0.157-0.293,0.275-0.412s0.26-0.213,0.424-0.283s0.344-0.105,0.539-0.105s0.375,0.035,0.539,0.105
	s0.305,0.165,0.424,0.283s0.21,0.256,0.275,0.412s0.098,0.322,0.098,0.496c0,0.177-0.032,0.344-0.096,0.502s-0.154,0.295-0.27,0.414
	s-0.256,0.213-0.42,0.283s-0.348,0.105-0.551,0.105s-0.387-0.035-0.551-0.105s-0.304-0.165-0.42-0.283s-0.206-0.256-0.27-0.414
	S119.116,12.601,119.116,12.424z M120.452,11.768c-0.091,0-0.178,0.017-0.26,0.051s-0.154,0.08-0.215,0.139
	s-0.109,0.127-0.145,0.207s-0.053,0.166-0.053,0.26c0,0.091,0.018,0.178,0.053,0.26s0.083,0.154,0.145,0.215
	s0.133,0.109,0.215,0.145s0.168,0.053,0.26,0.053s0.177-0.018,0.258-0.053s0.151-0.083,0.211-0.143s0.107-0.131,0.143-0.213
	s0.053-0.17,0.053-0.264s-0.018-0.18-0.053-0.26s-0.083-0.148-0.143-0.207s-0.13-0.105-0.211-0.139S120.543,11.768,120.452,11.768z"
	/>
<path d="M92.527,78.397l4.685-5.66c0.158-0.188,0.324-0.39,0.497-0.606s0.334-0.445,0.483-0.686s0.272-0.491,0.369-0.751
	s0.145-0.532,0.145-0.813c0-0.293-0.059-0.568-0.176-0.826s-0.278-0.483-0.483-0.677s-0.45-0.346-0.734-0.457
	s-0.596-0.167-0.936-0.167c-0.305,0-0.593,0.048-0.866,0.145S95,68.138,94.794,68.325s-0.371,0.42-0.497,0.699
	s-0.195,0.599-0.207,0.962h-1.582c0.006-0.557,0.114-1.071,0.325-1.542s0.494-0.879,0.848-1.222s0.766-0.609,1.235-0.8
	s0.961-0.286,1.477-0.286c0.598,0,1.14,0.095,1.626,0.286s0.902,0.453,1.248,0.787s0.614,0.729,0.804,1.187s0.286,0.952,0.286,1.485
	c0,0.211-0.025,0.435-0.075,0.672s-0.135,0.492-0.255,0.765s-0.278,0.564-0.475,0.875s-0.444,0.645-0.743,1.002l-4.157,4.948h5.687
	v1.547h-7.813V78.397z"/>
<path d="M102.265,78.626c0-0.152,0.031-0.297,0.092-0.435s0.145-0.258,0.25-0.36s0.227-0.185,0.365-0.246s0.286-0.092,0.444-0.092
	c0.152,0,0.297,0.031,0.435,0.092s0.258,0.144,0.36,0.246s0.185,0.223,0.246,0.36s0.092,0.283,0.092,0.435
	c0,0.158-0.031,0.308-0.092,0.448s-0.144,0.265-0.246,0.374s-0.223,0.193-0.36,0.255s-0.283,0.092-0.435,0.092
	c-0.158,0-0.306-0.031-0.444-0.092s-0.259-0.146-0.365-0.255s-0.189-0.233-0.25-0.374S102.265,78.784,102.265,78.626z"/>
<path d="M108.215,71.832c0.328-0.223,0.665-0.391,1.011-0.505s0.741-0.171,1.187-0.171c0.656,0,1.26,0.117,1.811,0.352
	s1.024,0.551,1.419,0.949s0.703,0.863,0.923,1.393s0.33,1.091,0.33,1.683c0,0.598-0.108,1.165-0.325,1.701s-0.524,1.006-0.923,1.411
	s-0.877,0.725-1.437,0.962s-1.182,0.356-1.868,0.356c-0.521,0-1.008-0.069-1.459-0.207s-0.858-0.331-1.222-0.58
	s-0.678-0.546-0.945-0.892s-0.479-0.724-0.637-1.134l1.441-0.721c0.094,0.299,0.231,0.576,0.413,0.831s0.396,0.475,0.642,0.659
	s0.519,0.328,0.817,0.431s0.615,0.154,0.949,0.154c0.422,0,0.813-0.078,1.173-0.233s0.674-0.368,0.94-0.637s0.476-0.584,0.628-0.945
	s0.229-0.746,0.229-1.156c0-0.416-0.076-0.801-0.229-1.156s-0.363-0.662-0.633-0.923s-0.584-0.466-0.945-0.615
	s-0.749-0.224-1.165-0.224c-0.469,0-0.901,0.083-1.296,0.25s-0.725,0.391-0.989,0.672l-1.292-0.202v-6.97h7.506v1.459h-6.056V71.832
	z"/>
<path d="M115.733,75.131c0-0.174,0.033-0.34,0.098-0.498s0.157-0.295,0.275-0.414s0.26-0.212,0.424-0.281s0.344-0.104,0.539-0.104
	s0.375,0.035,0.539,0.104s0.305,0.163,0.422,0.281s0.209,0.256,0.275,0.414s0.1,0.324,0.1,0.498c0,0.177-0.032,0.344-0.096,0.5
	s-0.154,0.294-0.271,0.414s-0.258,0.214-0.422,0.283s-0.346,0.104-0.547,0.104c-0.203,0-0.387-0.035-0.551-0.104
	s-0.304-0.164-0.42-0.283s-0.206-0.258-0.27-0.414S115.733,75.308,115.733,75.131z M120.331,73.674h0.762l-4.066,6.078h-0.758
	L120.331,73.674z M117.069,74.475c-0.094,0-0.182,0.016-0.264,0.049s-0.154,0.078-0.215,0.137s-0.109,0.128-0.145,0.209
	s-0.053,0.168-0.053,0.262c0,0.091,0.018,0.178,0.053,0.26s0.083,0.154,0.145,0.215s0.133,0.109,0.215,0.145s0.17,0.053,0.264,0.053
	c0.091,0,0.177-0.018,0.258-0.053s0.151-0.083,0.211-0.143s0.107-0.131,0.143-0.213s0.053-0.17,0.053-0.264
	s-0.018-0.181-0.053-0.262s-0.083-0.15-0.143-0.209s-0.13-0.104-0.211-0.137S117.16,74.475,117.069,74.475z M119.116,78.428
	c0-0.174,0.033-0.34,0.098-0.496s0.157-0.293,0.275-0.412s0.26-0.213,0.424-0.283s0.344-0.105,0.539-0.105s0.375,0.035,0.539,0.105
	s0.305,0.165,0.424,0.283s0.21,0.256,0.275,0.412s0.098,0.322,0.098,0.496c0,0.177-0.032,0.344-0.096,0.502s-0.154,0.295-0.27,0.414
	s-0.256,0.213-0.42,0.283s-0.348,0.105-0.551,0.105s-0.387-0.035-0.551-0.105s-0.304-0.165-0.42-0.283s-0.206-0.256-0.27-0.414
	S119.116,78.605,119.116,78.428z M120.452,77.771c-0.091,0-0.178,0.017-0.26,0.051s-0.154,0.08-0.215,0.139
	s-0.109,0.127-0.145,0.207s-0.053,0.166-0.053,0.26c0,0.091,0.018,0.178,0.053,0.26s0.083,0.154,0.145,0.215
	s0.133,0.109,0.215,0.145s0.168,0.053,0.26,0.053s0.177-0.018,0.258-0.053s0.151-0.083,0.211-0.143s0.107-0.131,0.143-0.213
	s0.053-0.17,0.053-0.264s-0.018-0.18-0.053-0.26s-0.083-0.148-0.143-0.207s-0.13-0.105-0.211-0.139S120.543,77.771,120.452,77.771z"
	/>
<path d="M98.609,36.844c0-0.229-0.048-0.473-0.145-0.734s-0.246-0.501-0.448-0.721s-0.457-0.401-0.765-0.545
	s-0.669-0.215-1.085-0.215c-0.346,0-0.661,0.06-0.945,0.18s-0.567,0.344-0.848,0.672s-0.434,0.691-0.457,1.09h-1.67
	c0.029-0.51,0.157-0.97,0.382-1.38s0.511-0.771,0.857-1.081s0.75-0.557,1.213-0.738s0.946-0.272,1.45-0.272
	c0.627,0,1.195,0.104,1.705,0.312s0.945,0.483,1.305,0.826s0.639,0.734,0.835,1.173s0.294,0.888,0.294,1.345
	c0,0.281-0.035,0.562-0.105,0.844s-0.18,0.549-0.33,0.804s-0.341,0.491-0.576,0.708s-0.519,0.407-0.853,0.571
	c0.275,0.105,0.535,0.253,0.778,0.444s0.456,0.417,0.637,0.681s0.325,0.562,0.431,0.896s0.158,0.7,0.158,1.099
	c0,0.574-0.111,1.106-0.334,1.595s-0.524,0.913-0.905,1.27s-0.828,0.637-1.34,0.839s-1.062,0.303-1.648,0.303
	c-0.539,0-1.074-0.095-1.604-0.286s-0.98-0.461-1.349-0.813s-0.642-0.718-0.817-1.099s-0.281-0.759-0.316-1.134h1.688
	c0.17,0.545,0.473,0.973,0.91,1.283s0.992,0.466,1.666,0.466c0.305,0,0.602-0.062,0.892-0.185s0.546-0.294,0.769-0.514
	s0.401-0.478,0.536-0.773s0.202-0.62,0.202-0.971c0-0.369-0.067-0.703-0.202-1.002s-0.316-0.552-0.545-0.76
	s-0.494-0.369-0.795-0.483s-0.623-0.171-0.962-0.171h-0.756v-1.327h0.615c0.387,0,0.734-0.057,1.042-0.171s0.567-0.271,0.778-0.47
	s0.374-0.432,0.488-0.699S98.609,37.148,98.609,36.844z"/>
<path d="M102.353,45.624c0-0.152,0.031-0.297,0.092-0.435s0.145-0.258,0.25-0.36s0.227-0.185,0.365-0.246s0.286-0.092,0.444-0.092
	c0.152,0,0.297,0.031,0.435,0.092s0.258,0.144,0.36,0.246s0.185,0.223,0.246,0.36s0.092,0.283,0.092,0.435
	c0,0.158-0.031,0.308-0.092,0.448s-0.144,0.265-0.246,0.374s-0.223,0.193-0.36,0.255s-0.283,0.092-0.435,0.092
	c-0.158,0-0.306-0.031-0.444-0.092s-0.259-0.146-0.365-0.255s-0.189-0.233-0.25-0.374S102.353,45.782,102.353,45.624z"/>
<path d="M111.063,33.117c0.504,0,0.98,0.091,1.428,0.272s0.842,0.431,1.182,0.747s0.608,0.687,0.804,1.112s0.294,0.877,0.294,1.358
	c0,0.574-0.135,1.104-0.404,1.591s-0.63,0.888-1.081,1.204c0.299,0.176,0.571,0.385,0.817,0.628s0.457,0.51,0.633,0.8
	s0.312,0.602,0.409,0.936s0.145,0.68,0.145,1.037c0,0.557-0.113,1.078-0.338,1.564s-0.532,0.913-0.918,1.279
	s-0.838,0.655-1.354,0.866s-1.066,0.316-1.652,0.316c-0.592,0-1.148-0.105-1.67-0.316s-0.976-0.5-1.362-0.866
	s-0.693-0.792-0.918-1.279s-0.338-1.008-0.338-1.564c0-0.357,0.048-0.705,0.145-1.042s0.234-0.65,0.413-0.94s0.393-0.557,0.642-0.8
	s0.526-0.453,0.831-0.628c-0.445-0.322-0.798-0.725-1.059-1.208s-0.391-1.009-0.391-1.578c0-0.48,0.097-0.933,0.29-1.358
	s0.458-0.795,0.795-1.112s0.734-0.565,1.191-0.747S110.542,33.117,111.063,33.117z M108.347,42.768c0,0.346,0.07,0.672,0.211,0.98
	s0.333,0.576,0.576,0.804s0.527,0.41,0.853,0.545s0.672,0.202,1.042,0.202c0.363,0,0.706-0.067,1.028-0.202s0.605-0.316,0.848-0.545
	s0.435-0.497,0.576-0.804s0.211-0.634,0.211-0.98c0-0.34-0.07-0.662-0.211-0.967s-0.333-0.571-0.576-0.8s-0.526-0.409-0.848-0.541
	s-0.665-0.198-1.028-0.198c-0.369,0-0.716,0.066-1.042,0.198s-0.609,0.312-0.853,0.541s-0.435,0.495-0.576,0.8
	S108.347,42.428,108.347,42.768z M108.831,36.642c0,0.293,0.056,0.567,0.167,0.822s0.267,0.478,0.466,0.668s0.435,0.341,0.708,0.453
	s0.57,0.167,0.892,0.167c0.299,0,0.58-0.056,0.844-0.167s0.497-0.262,0.699-0.453s0.362-0.413,0.479-0.668s0.176-0.529,0.176-0.822
	c0-0.287-0.059-0.558-0.176-0.813s-0.277-0.478-0.479-0.668s-0.435-0.341-0.699-0.453s-0.545-0.167-0.844-0.167
	c-0.322,0-0.62,0.056-0.892,0.167s-0.508,0.262-0.708,0.453s-0.354,0.413-0.466,0.668S108.831,36.354,108.831,36.642z"/>
<path d="M117.025,42.129c0-0.174,0.033-0.34,0.098-0.498s0.157-0.295,0.275-0.414s0.26-0.212,0.424-0.281s0.344-0.104,0.539-0.104
	s0.375,0.035,0.539,0.104s0.305,0.163,0.422,0.281s0.209,0.256,0.275,0.414s0.1,0.324,0.1,0.498c0,0.177-0.032,0.344-0.096,0.5
	s-0.154,0.294-0.271,0.414s-0.258,0.214-0.422,0.283s-0.346,0.104-0.547,0.104c-0.203,0-0.387-0.035-0.551-0.104
	s-0.304-0.164-0.42-0.283s-0.206-0.258-0.27-0.414S117.025,42.306,117.025,42.129z M121.623,40.672h0.762l-4.066,6.078h-0.758
	L121.623,40.672z M118.361,41.473c-0.094,0-0.182,0.016-0.264,0.049s-0.154,0.078-0.215,0.137s-0.109,0.128-0.145,0.209
	s-0.053,0.168-0.053,0.262c0,0.091,0.018,0.178,0.053,0.26s0.083,0.154,0.145,0.215s0.133,0.109,0.215,0.145s0.17,0.053,0.264,0.053
	c0.091,0,0.177-0.018,0.258-0.053s0.151-0.083,0.211-0.143s0.107-0.131,0.143-0.213s0.053-0.17,0.053-0.264
	s-0.018-0.181-0.053-0.262s-0.083-0.15-0.143-0.209s-0.13-0.104-0.211-0.137S118.452,41.473,118.361,41.473z M120.408,45.426
	c0-0.174,0.033-0.34,0.098-0.496s0.157-0.293,0.275-0.412s0.26-0.213,0.424-0.283s0.344-0.105,0.539-0.105s0.375,0.035,0.539,0.105
	s0.305,0.165,0.424,0.283s0.21,0.256,0.275,0.412s0.098,0.322,0.098,0.496c0,0.177-0.032,0.344-0.096,0.502s-0.154,0.295-0.27,0.414
	s-0.256,0.213-0.42,0.283s-0.348,0.105-0.551,0.105s-0.387-0.035-0.551-0.105s-0.304-0.165-0.42-0.283s-0.206-0.256-0.27-0.414
	S120.408,45.603,120.408,45.426z M121.744,44.77c-0.091,0-0.178,0.017-0.26,0.051s-0.154,0.08-0.215,0.139s-0.109,0.127-0.145,0.207
	s-0.053,0.166-0.053,0.26c0,0.091,0.018,0.178,0.053,0.26s0.083,0.154,0.145,0.215s0.133,0.109,0.215,0.145s0.168,0.053,0.26,0.053
	s0.177-0.018,0.258-0.053s0.151-0.083,0.211-0.143s0.107-0.131,0.143-0.213s0.053-0.17,0.053-0.264s-0.018-0.18-0.053-0.26
	s-0.083-0.148-0.143-0.207s-0.13-0.105-0.211-0.139S121.835,44.77,121.744,44.77z"/>
</svg>
