<?xml version="1.0" encoding="utf-8"?>
<!-- Generator: Adobe Illustrator 15.0.0, SVG Export Plug-In  -->
<!DOCTYPE svg PUBLIC "-//W3C//DTD SVG 1.1//EN" "http://www.w3.org/Graphics/SVG/1.1/DTD/svg11.dtd" [
	<!ENTITY ns_flows "http://ns.adobe.com/Flows/1.0/">
]>
<svg version="1.1"
	 xmlns="http://www.w3.org/2000/svg" xmlns:xlink="http://www.w3.org/1999/xlink" xmlns:a="http://ns.adobe.com/AdobeSVGViewerExtensions/3.0/"
	 x="0px" y="0px" width="600px" height="371px" viewBox="-12.956 -52.976 600 371"
	 overflow="visible" enable-background="new -12.956 -52.976 600 371" xml:space="preserve">
<defs>
</defs>
<path fill="none" stroke="#333333" stroke-miterlimit="10" d="M32.544,278.524h536"/>
<path fill="none" stroke="#CCCCCC" stroke-miterlimit="10" d="M32.544,224.524h536"/>
<path fill="none" stroke="#CCCCCC" stroke-miterlimit="10" d="M32.544,170.524h536"/>
<path fill="none" stroke="#CCCCCC" stroke-miterlimit="10" d="M32.544,117.524h536"/>
<path fill="none" stroke="#CCCCCC" stroke-miterlimit="10" d="M32.544,63.524h536"/>
<path fill="none" stroke="#CCCCCC" stroke-miterlimit="10" d="M32.544,9.524h536"/>
<path fill="#00ADD8" d="M98.044,278.024h-65v-267c0-1.104,0.896-2,2-2h61c1.104,0,2,0.896,2,2V278.024z"/>
<path fill="#00ADD8" d="M165.044,278.024h-65v-234c0-1.104,0.896-2,2-2h61c1.104,0,2,0.896,2,2V278.024z"/>
<path fill="#00ADD8" d="M232.044,278.024h-65v-202c0-1.104,0.896-2,2-2h61c1.104,0,2,0.896,2,2V278.024z"/>
<path fill="#00ADD8" d="M299.044,278.024h-65v-84c0-1.104,0.896-2,2-2h61c1.104,0,2,0.896,2,2V278.024z"/>
<path fill="#00ADD8" d="M366.044,278.024h-65v-41c0-1.104,0.895-2,2-2h61c1.104,0,2,0.896,2,2V278.024z"/>
<path fill="#00ADD8" d="M567.044,278.024h-65v-19c0-1.104,0.895-2,2-2h61c1.104,0,2,0.896,2,2V278.024z"/>
<path fill="#757575" d="M24.859,296.475h-1.078v-7.219l-2.188,0.797v-0.984l3.109-1.172h0.156V296.475z M28.438,295.912
	c0-0.188,0.052-0.344,0.156-0.469c0.114-0.125,0.281-0.188,0.5-0.188c0.229,0,0.401,0.062,0.516,0.188s0.172,0.281,0.172,0.469
	c0,0.177-0.058,0.328-0.172,0.453c-0.114,0.114-0.286,0.172-0.516,0.172c-0.219,0-0.386-0.058-0.5-0.172
	C28.489,296.24,28.438,296.089,28.438,295.912z M36.656,292.834c0,1.271-0.219,2.219-0.656,2.844
	c-0.427,0.614-1.104,0.922-2.031,0.922c-0.906,0-1.578-0.302-2.016-0.906s-0.667-1.511-0.688-2.719v-1.438
	c0-1.261,0.214-2.192,0.641-2.797c0.438-0.614,1.12-0.922,2.047-0.922c0.917,0,1.594,0.297,2.031,0.891
	c0.438,0.583,0.661,1.489,0.672,2.719V292.834z M35.562,291.35c0-0.917-0.13-1.583-0.391-2c-0.25-0.427-0.656-0.641-1.219-0.641
	c-0.552,0-0.958,0.214-1.219,0.641c-0.25,0.417-0.375,1.058-0.375,1.922v1.734c0,0.917,0.13,1.599,0.391,2.047
	c0.271,0.438,0.677,0.656,1.219,0.656c0.531,0,0.927-0.208,1.188-0.625s0.396-1.067,0.406-1.953V291.35z M43.656,292.834
	c0,1.271-0.219,2.219-0.656,2.844c-0.427,0.614-1.104,0.922-2.031,0.922c-0.906,0-1.578-0.302-2.016-0.906s-0.667-1.511-0.688-2.719
	v-1.438c0-1.261,0.214-2.192,0.641-2.797c0.438-0.614,1.12-0.922,2.047-0.922c0.917,0,1.594,0.297,2.031,0.891
	c0.438,0.583,0.661,1.489,0.672,2.719V292.834z M42.562,291.35c0-0.917-0.13-1.583-0.391-2c-0.25-0.427-0.656-0.641-1.219-0.641
	c-0.552,0-0.958,0.214-1.219,0.641c-0.25,0.417-0.375,1.058-0.375,1.922v1.734c0,0.917,0.13,1.599,0.391,2.047
	c0.271,0.438,0.677,0.656,1.219,0.656c0.531,0,0.927-0.208,1.188-0.625s0.396-1.067,0.406-1.953V291.35z"/>
<path fill="#757575" d="M89.862,291.678h0.812c0.521-0.011,0.927-0.146,1.219-0.406s0.438-0.614,0.438-1.062c0-1-0.5-1.5-1.5-1.5
	c-0.469,0-0.844,0.136-1.125,0.406c-0.271,0.271-0.406,0.625-0.406,1.062h-1.094c0-0.677,0.245-1.239,0.734-1.688
	c0.5-0.448,1.13-0.672,1.891-0.672c0.802,0,1.433,0.214,1.891,0.641s0.688,1.021,0.688,1.781c0,0.375-0.12,0.734-0.359,1.078
	s-0.567,0.604-0.984,0.781c0.469,0.146,0.828,0.391,1.078,0.734c0.261,0.344,0.391,0.766,0.391,1.266c0,0.761-0.25,1.37-0.75,1.828
	c-0.5,0.448-1.151,0.672-1.953,0.672c-0.792,0-1.442-0.219-1.953-0.656c-0.5-0.438-0.75-1.011-0.75-1.719h1.094
	c0,0.448,0.146,0.808,0.438,1.078s0.688,0.406,1.188,0.406c0.521,0,0.917-0.136,1.188-0.406c0.281-0.281,0.422-0.677,0.422-1.188
	c0-0.489-0.151-0.864-0.453-1.125c-0.302-0.271-0.745-0.411-1.328-0.422h-0.812V291.678z M95.425,295.912
	c0-0.188,0.052-0.344,0.156-0.469c0.114-0.125,0.281-0.188,0.5-0.188c0.229,0,0.401,0.062,0.516,0.188s0.172,0.281,0.172,0.469
	c0,0.177-0.058,0.328-0.172,0.453c-0.114,0.114-0.286,0.172-0.516,0.172c-0.219,0-0.386-0.058-0.5-0.172
	C95.477,296.24,95.425,296.089,95.425,295.912z M103.644,292.834c0,1.271-0.219,2.219-0.656,2.844
	c-0.427,0.614-1.104,0.922-2.031,0.922c-0.906,0-1.578-0.302-2.016-0.906s-0.667-1.511-0.688-2.719v-1.438
	c0-1.261,0.214-2.192,0.641-2.797c0.438-0.614,1.12-0.922,2.047-0.922c0.917,0,1.594,0.297,2.031,0.891
	c0.438,0.583,0.661,1.489,0.672,2.719V292.834z M102.55,291.35c0-0.917-0.13-1.583-0.391-2c-0.25-0.427-0.656-0.641-1.219-0.641
	c-0.552,0-0.958,0.214-1.219,0.641c-0.25,0.417-0.375,1.058-0.375,1.922v1.734c0,0.917,0.13,1.599,0.391,2.047
	c0.271,0.438,0.677,0.656,1.219,0.656c0.531,0,0.927-0.208,1.188-0.625s0.396-1.067,0.406-1.953V291.35z M109.55,287.943v0.906
	h-0.203c-0.844,0.021-1.516,0.276-2.016,0.766c-0.5,0.479-0.792,1.156-0.875,2.031c0.458-0.511,1.073-0.766,1.844-0.766
	c0.739,0,1.333,0.261,1.781,0.781s0.672,1.198,0.672,2.031c0,0.875-0.239,1.578-0.719,2.109s-1.125,0.797-1.938,0.797
	s-1.474-0.312-1.984-0.938c-0.5-0.636-0.75-1.448-0.75-2.438v-0.406c0-1.573,0.333-2.776,1-3.609s1.661-1.255,2.984-1.266H109.55z
	 M108.128,291.787c-0.375,0-0.719,0.109-1.031,0.328s-0.531,0.5-0.656,0.844v0.391c0,0.708,0.156,1.276,0.469,1.703
	c0.323,0.427,0.719,0.641,1.188,0.641c0.489,0,0.875-0.177,1.156-0.531c0.281-0.364,0.422-0.839,0.422-1.422
	s-0.141-1.052-0.422-1.406C108.972,291.97,108.597,291.787,108.128,291.787z"/>
<path fill="#757575" d="M155.771,292.193l0.438-4.25h4.375v1h-3.453l-0.266,2.328c0.428-0.25,0.906-0.375,1.438-0.375
	c0.771,0,1.386,0.261,1.844,0.781c0.459,0.511,0.688,1.203,0.688,2.078s-0.239,1.567-0.719,2.078
	c-0.469,0.511-1.13,0.766-1.984,0.766c-0.75,0-1.364-0.208-1.844-0.625c-0.479-0.427-0.75-1.011-0.812-1.75h1.016
	c0.073,0.489,0.25,0.859,0.531,1.109s0.651,0.375,1.109,0.375c0.5,0,0.896-0.172,1.188-0.516c0.292-0.344,0.438-0.817,0.438-1.422
	c0-0.573-0.156-1.031-0.469-1.375s-0.729-0.516-1.25-0.516c-0.469,0-0.838,0.099-1.109,0.297l-0.281,0.234L155.771,292.193z
	 M162.412,295.912c0-0.188,0.053-0.344,0.156-0.469c0.115-0.125,0.281-0.188,0.5-0.188c0.229,0,0.401,0.062,0.516,0.188
	c0.115,0.125,0.172,0.281,0.172,0.469c0,0.177-0.057,0.328-0.172,0.453c-0.114,0.114-0.286,0.172-0.516,0.172
	c-0.219,0-0.385-0.058-0.5-0.172C162.465,296.24,162.412,296.089,162.412,295.912z M168.834,296.475h-1.078v-7.219l-2.188,0.797
	v-0.984l3.109-1.172h0.156V296.475z M173.85,291.678h0.812c0.521-0.011,0.928-0.146,1.219-0.406
	c0.292-0.261,0.438-0.614,0.438-1.062c0-1-0.5-1.5-1.5-1.5c-0.469,0-0.844,0.136-1.125,0.406c-0.271,0.271-0.406,0.625-0.406,1.062
	h-1.094c0-0.677,0.245-1.239,0.734-1.688c0.5-0.448,1.131-0.672,1.891-0.672c0.803,0,1.433,0.214,1.891,0.641
	c0.459,0.427,0.688,1.021,0.688,1.781c0,0.375-0.119,0.734-0.359,1.078c-0.239,0.344-0.567,0.604-0.984,0.781
	c0.469,0.146,0.828,0.391,1.078,0.734c0.261,0.344,0.391,0.766,0.391,1.266c0,0.761-0.25,1.37-0.75,1.828
	c-0.5,0.448-1.15,0.672-1.953,0.672c-0.791,0-1.442-0.219-1.953-0.656c-0.5-0.438-0.75-1.011-0.75-1.719h1.094
	c0,0.448,0.146,0.808,0.438,1.078c0.292,0.271,0.688,0.406,1.188,0.406c0.521,0,0.917-0.136,1.188-0.406
	c0.281-0.281,0.422-0.677,0.422-1.188c0-0.489-0.15-0.864-0.453-1.125c-0.302-0.271-0.744-0.411-1.328-0.422h-0.812V291.678z"/>
<path fill="#757575" d="M227.775,288.553l-3.531,7.922h-1.141l3.516-7.641h-4.609v-0.891h5.766V288.553z M229.4,295.912
	c0-0.188,0.052-0.344,0.156-0.469c0.114-0.125,0.281-0.188,0.5-0.188c0.229,0,0.4,0.062,0.516,0.188
	c0.114,0.125,0.172,0.281,0.172,0.469c0,0.177-0.058,0.328-0.172,0.453c-0.115,0.114-0.287,0.172-0.516,0.172
	c-0.219,0-0.386-0.058-0.5-0.172C229.452,296.24,229.4,296.089,229.4,295.912z M235.822,296.475h-1.078v-7.219l-2.188,0.797v-0.984
	l3.109-1.172h0.156V296.475z M243.416,292.725c-0.219,0.271-0.49,0.489-0.812,0.656c-0.312,0.156-0.656,0.234-1.031,0.234
	c-0.49,0-0.917-0.12-1.281-0.359c-0.365-0.239-0.646-0.578-0.844-1.016c-0.198-0.448-0.297-0.938-0.297-1.469
	c0-0.562,0.104-1.073,0.312-1.531c0.219-0.458,0.525-0.808,0.922-1.047c0.406-0.25,0.875-0.375,1.406-0.375
	c0.844,0,1.505,0.317,1.984,0.953c0.489,0.636,0.734,1.495,0.734,2.578v0.312c0,1.667-0.328,2.88-0.984,3.641
	s-1.646,1.151-2.969,1.172h-0.219v-0.906h0.234c0.896-0.021,1.583-0.255,2.062-0.703
	C243.113,294.417,243.374,293.704,243.416,292.725z M241.744,292.725c0.364,0,0.697-0.109,1-0.328
	c0.312-0.229,0.541-0.505,0.688-0.828v-0.438c0-0.708-0.156-1.286-0.469-1.734s-0.703-0.672-1.172-0.672
	c-0.479,0-0.865,0.183-1.156,0.547c-0.281,0.364-0.422,0.849-0.422,1.453c0,0.583,0.135,1.062,0.406,1.438
	C240.9,292.537,241.275,292.725,241.744,292.725z"/>
<path fill="#757575" d="M293.403,292.725c-0.219,0.271-0.49,0.489-0.812,0.656c-0.312,0.156-0.656,0.234-1.031,0.234
	c-0.49,0-0.917-0.12-1.281-0.359c-0.365-0.239-0.646-0.578-0.844-1.016c-0.198-0.448-0.297-0.938-0.297-1.469
	c0-0.562,0.104-1.073,0.312-1.531c0.219-0.458,0.525-0.808,0.922-1.047c0.406-0.25,0.875-0.375,1.406-0.375
	c0.844,0,1.505,0.317,1.984,0.953c0.489,0.636,0.734,1.495,0.734,2.578v0.312c0,1.667-0.328,2.88-0.984,3.641
	s-1.646,1.151-2.969,1.172h-0.219v-0.906h0.234c0.896-0.021,1.583-0.255,2.062-0.703
	C293.101,294.417,293.361,293.704,293.403,292.725z M291.731,292.725c0.364,0,0.697-0.109,1-0.328
	c0.312-0.229,0.541-0.505,0.688-0.828v-0.438c0-0.708-0.156-1.286-0.469-1.734s-0.703-0.672-1.172-0.672
	c-0.479,0-0.865,0.183-1.156,0.547c-0.281,0.364-0.422,0.849-0.422,1.453c0,0.583,0.135,1.062,0.406,1.438
	C290.888,292.537,291.263,292.725,291.731,292.725z M296.388,295.912c0-0.188,0.052-0.344,0.156-0.469
	c0.114-0.125,0.281-0.188,0.5-0.188c0.229,0,0.4,0.062,0.516,0.188c0.114,0.125,0.172,0.281,0.172,0.469
	c0,0.177-0.058,0.328-0.172,0.453c-0.115,0.114-0.287,0.172-0.516,0.172c-0.219,0-0.386-0.058-0.5-0.172
	C296.439,296.24,296.388,296.089,296.388,295.912z M304.841,296.475h-5.594v-0.781l2.953-3.281c0.438-0.5,0.739-0.901,0.906-1.203
	c0.166-0.312,0.25-0.636,0.25-0.969c0-0.448-0.136-0.812-0.406-1.094c-0.261-0.292-0.62-0.438-1.078-0.438
	c-0.531,0-0.948,0.156-1.25,0.469c-0.303,0.302-0.453,0.729-0.453,1.281h-1.078c0-0.792,0.25-1.427,0.75-1.906
	c0.51-0.489,1.188-0.734,2.031-0.734c0.802,0,1.432,0.208,1.891,0.625c0.458,0.417,0.688,0.974,0.688,1.672
	c0,0.833-0.537,1.833-1.609,3l-2.281,2.469h4.281V296.475z M306.747,292.193l0.438-4.25h4.375v1h-3.453l-0.266,2.328
	c0.427-0.25,0.906-0.375,1.438-0.375c0.771,0,1.385,0.261,1.844,0.781c0.458,0.511,0.688,1.203,0.688,2.078s-0.24,1.567-0.719,2.078
	c-0.469,0.511-1.131,0.766-1.984,0.766c-0.75,0-1.365-0.208-1.844-0.625c-0.479-0.427-0.75-1.011-0.812-1.75h1.016
	c0.072,0.489,0.25,0.859,0.531,1.109s0.65,0.375,1.109,0.375c0.5,0,0.896-0.172,1.188-0.516c0.291-0.344,0.438-0.817,0.438-1.422
	c0-0.573-0.156-1.031-0.469-1.375s-0.729-0.516-1.25-0.516c-0.469,0-0.839,0.099-1.109,0.297l-0.281,0.234L306.747,292.193z"/>
<path fill="#757575" d="M356.297,296.475h-1.078v-7.219l-2.188,0.797v-0.984l3.109-1.172h0.156V296.475z M363.297,296.475h-1.078
	v-7.219l-2.188,0.797v-0.984l3.109-1.172h0.156V296.475z M366.875,295.912c0-0.188,0.052-0.344,0.156-0.469
	c0.114-0.125,0.281-0.188,0.5-0.188c0.229,0,0.4,0.062,0.516,0.188c0.114,0.125,0.172,0.281,0.172,0.469
	c0,0.177-0.058,0.328-0.172,0.453c-0.115,0.114-0.287,0.172-0.516,0.172c-0.219,0-0.386-0.058-0.5-0.172
	C366.927,296.24,366.875,296.089,366.875,295.912z M371.312,291.678h0.812c0.521-0.011,0.927-0.146,1.219-0.406
	c0.291-0.261,0.438-0.614,0.438-1.062c0-1-0.5-1.5-1.5-1.5c-0.469,0-0.844,0.136-1.125,0.406c-0.271,0.271-0.406,0.625-0.406,1.062
	h-1.094c0-0.677,0.244-1.239,0.734-1.688c0.5-0.448,1.13-0.672,1.891-0.672c0.802,0,1.432,0.214,1.891,0.641
	c0.458,0.427,0.688,1.021,0.688,1.781c0,0.375-0.12,0.734-0.359,1.078c-0.24,0.344-0.568,0.604-0.984,0.781
	c0.469,0.146,0.828,0.391,1.078,0.734c0.26,0.344,0.391,0.766,0.391,1.266c0,0.761-0.25,1.37-0.75,1.828
	c-0.5,0.448-1.151,0.672-1.953,0.672c-0.792,0-1.443-0.219-1.953-0.656c-0.5-0.438-0.75-1.011-0.75-1.719h1.094
	c0,0.448,0.146,0.808,0.438,1.078c0.291,0.271,0.688,0.406,1.188,0.406c0.521,0,0.916-0.136,1.188-0.406
	c0.281-0.281,0.422-0.677,0.422-1.188c0-0.489-0.151-0.864-0.453-1.125c-0.303-0.271-0.745-0.411-1.328-0.422h-0.812V291.678z
	 M380.297,296.475h-1.078v-7.219l-2.188,0.797v-0.984l3.109-1.172h0.156V296.475z"/>
<path fill="#757575" d="M423.284,296.475h-1.078v-7.219l-2.188,0.797v-0.984l3.109-1.172h0.156V296.475z M428.3,291.678h0.812
	c0.521-0.011,0.927-0.146,1.219-0.406s0.438-0.614,0.438-1.062c0-1-0.5-1.5-1.5-1.5c-0.469,0-0.844,0.136-1.125,0.406
	c-0.271,0.271-0.406,0.625-0.406,1.062h-1.094c0-0.677,0.245-1.239,0.734-1.688c0.5-0.448,1.13-0.672,1.891-0.672
	c0.802,0,1.433,0.214,1.891,0.641s0.688,1.021,0.688,1.781c0,0.375-0.12,0.734-0.359,1.078s-0.567,0.604-0.984,0.781
	c0.469,0.146,0.828,0.391,1.078,0.734c0.261,0.344,0.391,0.766,0.391,1.266c0,0.761-0.25,1.37-0.75,1.828
	c-0.5,0.448-1.151,0.672-1.953,0.672c-0.792,0-1.442-0.219-1.953-0.656c-0.5-0.438-0.75-1.011-0.75-1.719h1.094
	c0,0.448,0.146,0.808,0.438,1.078s0.688,0.406,1.188,0.406c0.521,0,0.917-0.136,1.188-0.406c0.281-0.281,0.422-0.677,0.422-1.188
	c0-0.489-0.151-0.864-0.453-1.125c-0.302-0.271-0.745-0.411-1.328-0.422H428.3V291.678z M433.862,295.912
	c0-0.188,0.052-0.344,0.156-0.469c0.114-0.125,0.281-0.188,0.5-0.188c0.229,0,0.401,0.062,0.516,0.188s0.172,0.281,0.172,0.469
	c0,0.177-0.058,0.328-0.172,0.453c-0.114,0.114-0.286,0.172-0.516,0.172c-0.219,0-0.386-0.058-0.5-0.172
	C433.914,296.24,433.862,296.089,433.862,295.912z M438.3,291.678h0.812c0.521-0.011,0.927-0.146,1.219-0.406
	s0.438-0.614,0.438-1.062c0-1-0.5-1.5-1.5-1.5c-0.469,0-0.844,0.136-1.125,0.406c-0.271,0.271-0.406,0.625-0.406,1.062h-1.094
	c0-0.677,0.245-1.239,0.734-1.688c0.5-0.448,1.13-0.672,1.891-0.672c0.802,0,1.433,0.214,1.891,0.641s0.688,1.021,0.688,1.781
	c0,0.375-0.12,0.734-0.359,1.078s-0.567,0.604-0.984,0.781c0.469,0.146,0.828,0.391,1.078,0.734
	c0.261,0.344,0.391,0.766,0.391,1.266c0,0.761-0.25,1.37-0.75,1.828c-0.5,0.448-1.151,0.672-1.953,0.672
	c-0.792,0-1.442-0.219-1.953-0.656c-0.5-0.438-0.75-1.011-0.75-1.719h1.094c0,0.448,0.146,0.808,0.438,1.078
	s0.688,0.406,1.188,0.406c0.521,0,0.917-0.136,1.188-0.406c0.281-0.281,0.422-0.677,0.422-1.188c0-0.489-0.151-0.864-0.453-1.125
	c-0.302-0.271-0.745-0.411-1.328-0.422H438.3V291.678z M448.909,290.162c0,0.427-0.114,0.808-0.344,1.141s-0.531,0.594-0.906,0.781
	c0.438,0.188,0.786,0.469,1.047,0.844c0.261,0.364,0.391,0.781,0.391,1.25c0,0.729-0.25,1.317-0.75,1.766
	c-0.489,0.438-1.141,0.656-1.953,0.656c-0.823,0-1.484-0.219-1.984-0.656c-0.489-0.448-0.734-1.036-0.734-1.766
	c0-0.469,0.125-0.886,0.375-1.25c0.25-0.375,0.599-0.656,1.047-0.844c-0.375-0.188-0.672-0.448-0.891-0.781
	s-0.328-0.714-0.328-1.141c0-0.719,0.229-1.286,0.688-1.703c0.458-0.427,1.067-0.641,1.828-0.641c0.75,0,1.354,0.214,1.812,0.641
	C448.675,288.876,448.909,289.443,448.909,290.162z M448.019,294.146c0-0.479-0.151-0.864-0.453-1.156
	c-0.302-0.302-0.698-0.453-1.188-0.453s-0.886,0.151-1.188,0.453c-0.292,0.292-0.438,0.683-0.438,1.172
	c0,0.479,0.146,0.859,0.438,1.141c0.292,0.271,0.692,0.406,1.203,0.406c0.5,0,0.896-0.141,1.188-0.422
	S448.019,294.626,448.019,294.146z M446.394,288.709c-0.427,0-0.776,0.136-1.047,0.406c-0.261,0.261-0.391,0.62-0.391,1.078
	c0,0.427,0.13,0.776,0.391,1.047s0.604,0.406,1.031,0.406c0.438,0,0.786-0.136,1.047-0.406s0.391-0.62,0.391-1.047
	c0-0.438-0.136-0.792-0.406-1.062C447.139,288.85,446.8,288.709,446.394,288.709z"/>
<path fill="#757575" d="M490.271,296.475h-1.078v-7.219l-2.188,0.797v-0.984l3.109-1.172h0.156V296.475z M494.209,292.193
	l0.438-4.25h4.375v1h-3.453l-0.266,2.328c0.427-0.25,0.906-0.375,1.438-0.375c0.771,0,1.386,0.261,1.844,0.781
	c0.458,0.511,0.688,1.203,0.688,2.078s-0.239,1.567-0.719,2.078c-0.469,0.511-1.13,0.766-1.984,0.766
	c-0.75,0-1.364-0.208-1.844-0.625c-0.479-0.427-0.75-1.011-0.812-1.75h1.016c0.073,0.489,0.25,0.859,0.531,1.109
	s0.651,0.375,1.109,0.375c0.5,0,0.896-0.172,1.188-0.516s0.438-0.817,0.438-1.422c0-0.573-0.156-1.031-0.469-1.375
	s-0.729-0.516-1.25-0.516c-0.469,0-0.839,0.099-1.109,0.297l-0.281,0.234L494.209,292.193z M500.85,295.912
	c0-0.188,0.052-0.344,0.156-0.469c0.114-0.125,0.281-0.188,0.5-0.188c0.229,0,0.401,0.062,0.516,0.188s0.172,0.281,0.172,0.469
	c0,0.177-0.058,0.328-0.172,0.453c-0.114,0.114-0.286,0.172-0.516,0.172c-0.219,0-0.386-0.058-0.5-0.172
	C500.901,296.24,500.85,296.089,500.85,295.912z M508.287,293.615h1.188v0.875h-1.188v1.984h-1.078v-1.984h-3.891v-0.641
	l3.812-5.906h1.156V293.615z M504.553,293.615h2.656v-4.188l-0.141,0.234L504.553,293.615z M515.287,293.615h1.188v0.875h-1.188
	v1.984h-1.078v-1.984h-3.891v-0.641l3.812-5.906h1.156V293.615z M511.553,293.615h2.656v-4.188l-0.141,0.234L511.553,293.615z"/>
<path fill="#757575" d="M557.259,296.475h-1.078v-7.219l-2.188,0.797v-0.984l3.109-1.172h0.156V296.475z M566.212,288.553
	l-3.531,7.922h-1.141l3.516-7.641h-4.609v-0.891h5.766V288.553z M567.837,295.912c0-0.188,0.053-0.344,0.156-0.469
	c0.115-0.125,0.281-0.188,0.5-0.188c0.229,0,0.401,0.062,0.516,0.188c0.115,0.125,0.172,0.281,0.172,0.469
	c0,0.177-0.057,0.328-0.172,0.453c-0.114,0.114-0.286,0.172-0.516,0.172c-0.219,0-0.385-0.058-0.5-0.172
	C567.89,296.24,567.837,296.089,567.837,295.912z M571.196,292.193l0.438-4.25h4.375v1h-3.453l-0.266,2.328
	c0.428-0.25,0.906-0.375,1.438-0.375c0.771,0,1.386,0.261,1.844,0.781c0.459,0.511,0.688,1.203,0.688,2.078
	s-0.239,1.567-0.719,2.078c-0.469,0.511-1.13,0.766-1.984,0.766c-0.75,0-1.364-0.208-1.844-0.625
	c-0.479-0.427-0.75-1.011-0.812-1.75h1.016c0.073,0.489,0.25,0.859,0.531,1.109s0.651,0.375,1.109,0.375
	c0.5,0,0.896-0.172,1.188-0.516c0.292-0.344,0.438-0.817,0.438-1.422c0-0.573-0.156-1.031-0.469-1.375s-0.729-0.516-1.25-0.516
	c-0.469,0-0.838,0.099-1.109,0.297l-0.281,0.234L571.196,292.193z M583.056,292.834c0,1.271-0.219,2.219-0.656,2.844
	c-0.427,0.614-1.104,0.922-2.031,0.922c-0.906,0-1.578-0.302-2.016-0.906s-0.666-1.511-0.688-2.719v-1.438
	c0-1.261,0.214-2.192,0.641-2.797c0.438-0.614,1.12-0.922,2.047-0.922c0.917,0,1.594,0.297,2.031,0.891
	c0.438,0.583,0.662,1.489,0.672,2.719V292.834z M581.962,291.35c0-0.917-0.13-1.583-0.391-2c-0.25-0.427-0.656-0.641-1.219-0.641
	c-0.552,0-0.958,0.214-1.219,0.641c-0.25,0.417-0.375,1.058-0.375,1.922v1.734c0,0.917,0.131,1.599,0.391,2.047
	c0.271,0.438,0.678,0.656,1.219,0.656c0.531,0,0.928-0.208,1.188-0.625c0.261-0.417,0.396-1.067,0.406-1.953V291.35z"/>
<path fill="#757575" d="M4.664,177.903h1.723v-12.996l-3.598,1.957v-2.449l4.945-2.766h0.938v16.254h1.746v2.016H4.664V177.903z"/>
<path fill="#757575" d="M19.559,180.13c-1.266,0-2.324-0.234-3.176-0.703s-1.533-1.113-2.045-1.934s-0.877-1.781-1.096-2.883
	s-0.328-2.285-0.328-3.551c0-1.352,0.148-2.615,0.445-3.791s0.695-2.119,1.195-2.83s1.131-1.316,1.893-1.816s1.807-0.75,3.135-0.75
	c1.258,0,2.305,0.199,3.141,0.598s1.525,1.01,2.068,1.834s0.924,1.818,1.143,2.982s0.328,2.398,0.328,3.703
	c0,1.273-0.109,2.465-0.328,3.574s-0.588,2.076-1.107,2.9s-1.209,1.475-2.068,1.951S20.832,180.13,19.559,180.13z M19.559,178.044
	c0.914,0,1.65-0.186,2.209-0.557s0.98-0.877,1.266-1.518s0.498-1.389,0.639-2.244s0.211-1.768,0.211-2.736
	c0-0.93-0.055-1.822-0.164-2.678s-0.32-1.611-0.633-2.268s-0.75-1.18-1.312-1.57s-1.293-0.586-2.191-0.586
	c-0.93,0-1.664,0.195-2.203,0.586s-0.941,0.861-1.207,1.412s-0.475,1.307-0.627,2.268s-0.229,1.906-0.229,2.836
	c0,0.969,0.049,1.881,0.146,2.736s0.297,1.604,0.598,2.244s0.73,1.146,1.289,1.518S18.645,178.044,19.559,178.044z"/>
<path fill="#757575" d="M19.559,288.029c-1.266,0-2.324-0.234-3.176-0.703s-1.533-1.113-2.045-1.934s-0.877-1.781-1.096-2.883
	s-0.328-2.285-0.328-3.551c0-1.352,0.148-2.615,0.445-3.791s0.695-2.119,1.195-2.83s1.131-1.316,1.893-1.816s1.807-0.75,3.135-0.75
	c1.258,0,2.305,0.199,3.141,0.598s1.525,1.01,2.068,1.834s0.924,1.818,1.143,2.982s0.328,2.398,0.328,3.703
	c0,1.273-0.109,2.465-0.328,3.574s-0.588,2.076-1.107,2.9s-1.209,1.475-2.068,1.951S20.832,288.029,19.559,288.029z M19.559,285.943
	c0.914,0,1.65-0.186,2.209-0.557s0.98-0.877,1.266-1.518s0.498-1.389,0.639-2.244s0.211-1.768,0.211-2.736
	c0-0.93-0.055-1.822-0.164-2.678s-0.32-1.611-0.633-2.268s-0.75-1.18-1.312-1.57s-1.293-0.586-2.191-0.586
	c-0.93,0-1.664,0.195-2.203,0.586s-0.941,0.861-1.207,1.412s-0.475,1.307-0.627,2.268s-0.229,1.906-0.229,2.836
	c0,0.969,0.049,1.881,0.146,2.736s0.297,1.604,0.598,2.244s0.73,1.146,1.289,1.518S18.645,285.943,19.559,285.943z"/>
<path fill="#757575" d="M6.902,123.954h1.723v-12.996l-3.598,1.957v-2.449l4.945-2.766h0.938v16.254h1.746v2.016H6.902V123.954z"/>
<path fill="#757575" d="M17.836,115.493c0.438-0.297,0.887-0.521,1.348-0.674s0.988-0.229,1.582-0.229
	c0.875,0,1.68,0.156,2.414,0.469s1.365,0.734,1.893,1.266s0.938,1.15,1.23,1.857s0.439,1.455,0.439,2.244
	c0,0.797-0.145,1.553-0.434,2.268s-0.699,1.342-1.23,1.881s-1.17,0.967-1.916,1.283s-1.576,0.475-2.49,0.475
	c-0.695,0-1.344-0.092-1.945-0.275s-1.145-0.441-1.629-0.773s-0.904-0.729-1.26-1.189s-0.639-0.965-0.85-1.512l1.922-0.961
	c0.125,0.398,0.309,0.768,0.551,1.107s0.527,0.633,0.855,0.879s0.691,0.438,1.09,0.574s0.82,0.205,1.266,0.205
	c0.562,0,1.084-0.104,1.564-0.311s0.898-0.49,1.254-0.85s0.635-0.779,0.838-1.26s0.305-0.994,0.305-1.541
	c0-0.555-0.102-1.068-0.305-1.541s-0.484-0.883-0.844-1.23s-0.779-0.621-1.26-0.82s-0.998-0.299-1.553-0.299
	c-0.625,0-1.201,0.111-1.729,0.334s-0.967,0.521-1.318,0.896l-1.723-0.27v-9.293H25.91v1.945h-8.074V115.493z"/>
<path fill="#757575" d="M2.262,16.348l6.246-7.547c0.211-0.25,0.432-0.52,0.662-0.809s0.445-0.594,0.645-0.914
	s0.363-0.654,0.492-1.002S10.5,5.367,10.5,4.992c0-0.391-0.078-0.758-0.234-1.102S9.895,3.246,9.621,2.988s-0.6-0.461-0.979-0.609
	S7.848,2.156,7.395,2.156c-0.406,0-0.791,0.064-1.154,0.193S5.559,2.668,5.285,2.918S4.791,3.479,4.623,3.85
	s-0.26,0.799-0.275,1.283H2.238c0.008-0.742,0.152-1.428,0.434-2.057S3.33,1.904,3.803,1.447s1.021-0.812,1.646-1.066
	S6.73,0,7.418,0c0.797,0,1.52,0.127,2.168,0.381s1.203,0.604,1.664,1.049s0.818,0.973,1.072,1.582s0.381,1.27,0.381,1.98
	c0,0.281-0.033,0.58-0.1,0.896s-0.18,0.656-0.34,1.02s-0.371,0.752-0.633,1.166s-0.592,0.859-0.99,1.336l-5.543,6.598h7.582v2.062
	H2.262V16.348z"/>
<path fill="#757575" d="M17.836,7.594c0.438-0.297,0.887-0.521,1.348-0.674s0.988-0.229,1.582-0.229c0.875,0,1.68,0.156,2.414,0.469
	s1.365,0.734,1.893,1.266s0.938,1.15,1.23,1.857s0.439,1.455,0.439,2.244c0,0.797-0.145,1.553-0.434,2.268s-0.699,1.342-1.23,1.881
	s-1.17,0.967-1.916,1.283s-1.576,0.475-2.49,0.475c-0.695,0-1.344-0.092-1.945-0.275s-1.145-0.441-1.629-0.773
	s-0.904-0.729-1.26-1.189s-0.639-0.965-0.85-1.512l1.922-0.961c0.125,0.398,0.309,0.768,0.551,1.107s0.527,0.633,0.855,0.879
	s0.691,0.438,1.09,0.574s0.82,0.205,1.266,0.205c0.562,0,1.084-0.104,1.564-0.311s0.898-0.49,1.254-0.85s0.635-0.779,0.838-1.26
	s0.305-0.994,0.305-1.541c0-0.555-0.102-1.068-0.305-1.541s-0.484-0.883-0.844-1.23s-0.779-0.621-1.26-0.82
	s-0.998-0.299-1.553-0.299c-0.625,0-1.201,0.111-1.729,0.334s-0.967,0.521-1.318,0.896l-1.723-0.27V0.305H25.91V2.25h-8.074V7.594z"
	/>
<path fill="#757575" d="M0.023,70.297L6.27,62.75c0.211-0.25,0.432-0.52,0.662-0.809s0.445-0.594,0.645-0.914
	s0.363-0.654,0.492-1.002s0.193-0.709,0.193-1.084c0-0.391-0.078-0.758-0.234-1.102s-0.371-0.645-0.645-0.902
	s-0.6-0.461-0.979-0.609s-0.795-0.223-1.248-0.223c-0.406,0-0.791,0.064-1.154,0.193s-0.682,0.318-0.955,0.568
	s-0.494,0.561-0.662,0.932s-0.26,0.799-0.275,1.283H0c0.008-0.742,0.152-1.428,0.434-2.057s0.658-1.172,1.131-1.629
	s1.021-0.812,1.646-1.066s1.281-0.381,1.969-0.381c0.797,0,1.52,0.127,2.168,0.381s1.203,0.604,1.664,1.049s0.818,0.973,1.072,1.582
	s0.381,1.27,0.381,1.98c0,0.281-0.033,0.58-0.1,0.896s-0.18,0.656-0.34,1.02s-0.371,0.752-0.633,1.166s-0.592,0.859-0.99,1.336
	l-5.543,6.598h7.582v2.062H0.023V70.297z"/>
<path fill="#757575" d="M19.559,72.23c-1.266,0-2.324-0.234-3.176-0.703s-1.533-1.113-2.045-1.934s-0.877-1.781-1.096-2.883
	s-0.328-2.285-0.328-3.551c0-1.352,0.148-2.615,0.445-3.791s0.695-2.119,1.195-2.83s1.131-1.316,1.893-1.816s1.807-0.75,3.135-0.75
	c1.258,0,2.305,0.199,3.141,0.598s1.525,1.01,2.068,1.834s0.924,1.818,1.143,2.982s0.328,2.398,0.328,3.703
	c0,1.273-0.109,2.465-0.328,3.574s-0.588,2.076-1.107,2.9s-1.209,1.475-2.068,1.951S20.832,72.23,19.559,72.23z M19.559,70.145
	c0.914,0,1.65-0.186,2.209-0.557s0.98-0.877,1.266-1.518s0.498-1.389,0.639-2.244s0.211-1.768,0.211-2.736
	c0-0.93-0.055-1.822-0.164-2.678s-0.32-1.611-0.633-2.268s-0.75-1.18-1.312-1.57s-1.293-0.586-2.191-0.586
	c-0.93,0-1.664,0.195-2.203,0.586s-0.941,0.861-1.207,1.412s-0.475,1.307-0.627,2.268s-0.229,1.906-0.229,2.836
	c0,0.969,0.049,1.881,0.146,2.736s0.297,1.604,0.598,2.244s0.73,1.146,1.289,1.518S18.645,70.145,19.559,70.145z"/>
<path fill="#757575" d="M17.836,223.393c0.438-0.297,0.887-0.521,1.348-0.674s0.988-0.229,1.582-0.229
	c0.875,0,1.68,0.156,2.414,0.469s1.365,0.734,1.893,1.266s0.938,1.15,1.23,1.857s0.439,1.455,0.439,2.244
	c0,0.797-0.145,1.553-0.434,2.268s-0.699,1.342-1.23,1.881s-1.17,0.967-1.916,1.283s-1.576,0.475-2.49,0.475
	c-0.695,0-1.344-0.092-1.945-0.275s-1.145-0.441-1.629-0.773s-0.904-0.729-1.26-1.189s-0.639-0.965-0.85-1.512l1.922-0.961
	c0.125,0.398,0.309,0.768,0.551,1.107s0.527,0.633,0.855,0.879s0.691,0.438,1.09,0.574s0.82,0.205,1.266,0.205
	c0.562,0,1.084-0.104,1.564-0.311s0.898-0.49,1.254-0.85s0.635-0.779,0.838-1.26s0.305-0.994,0.305-1.541
	c0-0.555-0.102-1.068-0.305-1.541s-0.484-0.883-0.844-1.23s-0.779-0.621-1.26-0.82s-0.998-0.299-1.553-0.299
	c-0.625,0-1.201,0.111-1.729,0.334s-0.967,0.521-1.318,0.896l-1.723-0.27v-9.293H25.91v1.945h-8.074V223.393z"/>
</svg>
