<?xml version="1.0" encoding="utf-8"?>
<!-- Generator: Adobe Illustrator 15.0.0, SVG Export Plug-In  -->
<!DOCTYPE svg PUBLIC "-//W3C//DTD SVG 1.1//EN" "http://www.w3.org/Graphics/SVG/1.1/DTD/svg11.dtd" [
	<!ENTITY ns_flows "http://ns.adobe.com/Flows/1.0/">
]>
<svg version="1.1"
	 xmlns="http://www.w3.org/2000/svg" xmlns:xlink="http://www.w3.org/1999/xlink" xmlns:a="http://ns.adobe.com/AdobeSVGViewerExtensions/3.0/"
	 x="0px" y="0px" width="600px" height="371px" viewBox="-6.233 -53.041 600 371"
	 overflow="visible" enable-background="new -6.233 -53.041 600 371" xml:space="preserve">
<defs>
</defs>
<path fill="none" stroke="#333333" stroke-miterlimit="10" d="M39.267,278.459h536"/>
<path fill="none" stroke="#CCCCCC" stroke-miterlimit="10" d="M39.267,211.459h536"/>
<path fill="none" stroke="#CCCCCC" stroke-miterlimit="10" d="M39.267,143.459h536"/>
<path fill="none" stroke="#CCCCCC" stroke-miterlimit="10" d="M39.267,76.459h536"/>
<path fill="none" stroke="#CCCCCC" stroke-miterlimit="10" d="M39.267,9.459h536"/>
<path d="M139.767,277.959h-65v-72c0-1.104,0.896-2,2-2h61c1.104,0,2,0.896,2,2V277.959z"/>
<path fill="#B8B7B5" d="M239.767,277.959h-65v-85c0-1.104,0.896-2,2-2h61c1.104,0,2,0.896,2,2V277.959z"/>
<path fill="#00ADD8" d="M340.767,277.959h-65v-85c0-1.104,0.896-2,2-2h61c1.104,0,2,0.896,2,2V277.959z"/>
<path fill="#CE3262" d="M440.767,277.959h-65v-260c0-1.104,0.895-2,2-2h61c1.104,0,2,0.896,2,2V277.959z"/>
<path fill="#757575" d="M6.387,217.043h1.723v-12.996l-3.598,1.957v-2.449l4.945-2.766h0.938v16.254h1.746v2.016H6.387V217.043z"/>
<path fill="#757575" d="M21.281,219.27c-1.266,0-2.324-0.234-3.176-0.703s-1.533-1.113-2.045-1.934s-0.877-1.781-1.096-2.883
	s-0.328-2.285-0.328-3.551c0-1.352,0.148-2.615,0.445-3.791s0.695-2.119,1.195-2.83s1.131-1.316,1.893-1.816s1.807-0.75,3.135-0.75
	c1.258,0,2.305,0.199,3.141,0.598s1.525,1.01,2.068,1.834s0.924,1.818,1.143,2.982s0.328,2.398,0.328,3.703
	c0,1.273-0.109,2.465-0.328,3.574s-0.588,2.076-1.107,2.9s-1.209,1.475-2.068,1.951S22.555,219.27,21.281,219.27z M21.281,217.184
	c0.914,0,1.65-0.186,2.209-0.557s0.98-0.877,1.266-1.518s0.498-1.389,0.639-2.244s0.211-1.768,0.211-2.736
	c0-0.93-0.055-1.822-0.164-2.678s-0.32-1.611-0.633-2.268s-0.75-1.18-1.312-1.57s-1.293-0.586-2.191-0.586
	c-0.93,0-1.664,0.195-2.203,0.586s-0.941,0.861-1.207,1.412s-0.475,1.307-0.627,2.268s-0.229,1.906-0.229,2.836
	c0,0.969,0.049,1.881,0.146,2.736s0.297,1.604,0.598,2.244s0.73,1.146,1.289,1.518S20.367,217.184,21.281,217.184z"/>
<path fill="#757575" d="M21.281,286.274c-1.266,0-2.324-0.234-3.176-0.703s-1.533-1.113-2.045-1.934s-0.877-1.781-1.096-2.883
	s-0.328-2.285-0.328-3.551c0-1.352,0.148-2.615,0.445-3.791s0.695-2.119,1.195-2.83s1.131-1.316,1.893-1.816s1.807-0.75,3.135-0.75
	c1.258,0,2.305,0.199,3.141,0.598s1.525,1.01,2.068,1.834s0.924,1.818,1.143,2.982s0.328,2.398,0.328,3.703
	c0,1.273-0.109,2.465-0.328,3.574s-0.588,2.076-1.107,2.9s-1.209,1.475-2.068,1.951S22.555,286.274,21.281,286.274z M21.281,284.188
	c0.914,0,1.65-0.186,2.209-0.557s0.98-0.877,1.266-1.518s0.498-1.389,0.639-2.244s0.211-1.768,0.211-2.736
	c0-0.93-0.055-1.822-0.164-2.678s-0.32-1.611-0.633-2.268s-0.75-1.18-1.312-1.57s-1.293-0.586-2.191-0.586
	c-0.93,0-1.664,0.195-2.203,0.586s-0.941,0.861-1.207,1.412s-0.475,1.307-0.627,2.268s-0.229,1.906-0.229,2.836
	c0,0.969,0.049,1.881,0.146,2.736s0.297,1.604,0.598,2.244s0.73,1.146,1.289,1.518S20.367,284.188,21.281,284.188z"/>
<path fill="#757575" d="M0.023,11.062L6.34,0.281h2.496L2.824,10.898h4.547v-2.93l2.297-0.164v3.094h2.648v2.016H9.668v3.117h1.758
	v2.016H5.66v-2.016h1.711v-3.117H0L0.023,11.062z"/>
<path fill="#757575" d="M21.281,18.258c-1.266,0-2.324-0.234-3.176-0.703s-1.533-1.113-2.045-1.934s-0.877-1.781-1.096-2.883
	s-0.328-2.285-0.328-3.551c0-1.352,0.148-2.615,0.445-3.791s0.695-2.119,1.195-2.83S17.408,1.25,18.17,0.75S19.977,0,21.305,0
	c1.258,0,2.305,0.199,3.141,0.598s1.525,1.01,2.068,1.834s0.924,1.818,1.143,2.982s0.328,2.398,0.328,3.703
	c0,1.273-0.109,2.465-0.328,3.574s-0.588,2.076-1.107,2.9s-1.209,1.475-2.068,1.951S22.555,18.258,21.281,18.258z M21.281,16.172
	c0.914,0,1.65-0.186,2.209-0.557s0.98-0.877,1.266-1.518s0.498-1.389,0.639-2.244s0.211-1.768,0.211-2.736
	c0-0.93-0.055-1.822-0.164-2.678s-0.32-1.611-0.633-2.268s-0.75-1.18-1.312-1.57s-1.293-0.586-2.191-0.586
	c-0.93,0-1.664,0.195-2.203,0.586s-0.941,0.861-1.207,1.412S17.42,5.32,17.268,6.281s-0.229,1.906-0.229,2.836
	c0,0.969,0.049,1.881,0.146,2.736s0.297,1.604,0.598,2.244s0.73,1.146,1.289,1.518S20.367,16.172,21.281,16.172z"/>
<path fill="#757575" d="M9.738,71.926c0-0.305-0.064-0.631-0.193-0.979s-0.328-0.668-0.598-0.961s-0.609-0.535-1.02-0.727
	s-0.893-0.287-1.447-0.287c-0.461,0-0.881,0.08-1.26,0.24S4.465,69.672,4.09,70.11s-0.578,0.922-0.609,1.453H1.254
	c0.039-0.68,0.209-1.293,0.51-1.84s0.682-1.027,1.143-1.441s1-0.742,1.617-0.984s1.262-0.363,1.934-0.363
	c0.836,0,1.594,0.139,2.273,0.416s1.26,0.645,1.74,1.102s0.852,0.979,1.113,1.564s0.393,1.184,0.393,1.793
	c0,0.375-0.047,0.75-0.141,1.125s-0.24,0.732-0.439,1.072s-0.455,0.654-0.768,0.943s-0.691,0.543-1.137,0.762
	c0.367,0.141,0.713,0.338,1.037,0.592s0.607,0.557,0.85,0.908s0.434,0.75,0.574,1.195s0.211,0.934,0.211,1.465
	c0,0.766-0.148,1.475-0.445,2.127s-0.699,1.217-1.207,1.693s-1.104,0.85-1.787,1.119s-1.416,0.404-2.197,0.404
	c-0.719,0-1.432-0.127-2.139-0.381S3.082,84.219,2.59,83.75s-0.855-0.957-1.09-1.465s-0.375-1.012-0.422-1.512h2.25
	c0.227,0.727,0.631,1.297,1.213,1.711s1.322,0.621,2.221,0.621c0.406,0,0.803-0.082,1.189-0.246s0.729-0.393,1.025-0.686
	s0.535-0.637,0.715-1.031s0.27-0.826,0.27-1.295c0-0.492-0.09-0.938-0.27-1.336s-0.422-0.736-0.727-1.014s-0.658-0.492-1.061-0.645
	s-0.83-0.229-1.283-0.229H5.613v-1.77h0.82c0.516,0,0.979-0.076,1.389-0.229S8.578,74.266,8.859,74s0.498-0.576,0.65-0.932
	S9.738,72.333,9.738,71.926z"/>
<path fill="#757575" d="M21.281,85.262c-1.266,0-2.324-0.234-3.176-0.703s-1.533-1.113-2.045-1.934s-0.877-1.781-1.096-2.883
	s-0.328-2.285-0.328-3.551c0-1.352,0.148-2.615,0.445-3.791s0.695-2.119,1.195-2.83s1.131-1.316,1.893-1.816s1.807-0.75,3.135-0.75
	c1.258,0,2.305,0.199,3.141,0.598s1.525,1.01,2.068,1.834s0.924,1.818,1.143,2.982s0.328,2.398,0.328,3.703
	c0,1.273-0.109,2.465-0.328,3.574s-0.588,2.076-1.107,2.9s-1.209,1.475-2.068,1.951S22.555,85.262,21.281,85.262z M21.281,83.176
	c0.914,0,1.65-0.186,2.209-0.557s0.98-0.877,1.266-1.518s0.498-1.389,0.639-2.244s0.211-1.768,0.211-2.736
	c0-0.93-0.055-1.822-0.164-2.678s-0.32-1.611-0.633-2.268s-0.75-1.18-1.312-1.57s-1.293-0.586-2.191-0.586
	c-0.93,0-1.664,0.195-2.203,0.586s-0.941,0.861-1.207,1.412s-0.475,1.307-0.627,2.268s-0.229,1.906-0.229,2.836
	c0,0.969,0.049,1.881,0.146,2.736s0.297,1.604,0.598,2.244s0.73,1.146,1.289,1.518S20.367,83.176,21.281,83.176z"/>
<path fill="#757575" d="M1.746,150.333l6.246-7.547c0.211-0.25,0.432-0.52,0.662-0.809s0.445-0.594,0.645-0.914
	s0.363-0.654,0.492-1.002s0.193-0.709,0.193-1.084c0-0.391-0.078-0.758-0.234-1.102s-0.371-0.645-0.645-0.902
	s-0.6-0.461-0.979-0.609s-0.795-0.223-1.248-0.223c-0.406,0-0.791,0.064-1.154,0.193s-0.682,0.318-0.955,0.568
	s-0.494,0.561-0.662,0.932s-0.26,0.799-0.275,1.283H1.723c0.008-0.742,0.152-1.428,0.434-2.057s0.658-1.172,1.131-1.629
	s1.021-0.812,1.646-1.066s1.281-0.381,1.969-0.381c0.797,0,1.52,0.127,2.168,0.381s1.203,0.604,1.664,1.049s0.818,0.973,1.072,1.582
	s0.381,1.27,0.381,1.98c0,0.281-0.033,0.58-0.1,0.896s-0.18,0.656-0.34,1.02s-0.371,0.752-0.633,1.166s-0.592,0.859-0.99,1.336
	l-5.543,6.598h7.582v2.062H1.746V150.333z"/>
<path fill="#757575" d="M21.281,152.266c-1.266,0-2.324-0.234-3.176-0.703s-1.533-1.113-2.045-1.934s-0.877-1.781-1.096-2.883
	s-0.328-2.285-0.328-3.551c0-1.352,0.148-2.615,0.445-3.791s0.695-2.119,1.195-2.83s1.131-1.316,1.893-1.816s1.807-0.75,3.135-0.75
	c1.258,0,2.305,0.199,3.141,0.598s1.525,1.01,2.068,1.834s0.924,1.818,1.143,2.982s0.328,2.398,0.328,3.703
	c0,1.273-0.109,2.465-0.328,3.574s-0.588,2.076-1.107,2.9s-1.209,1.475-2.068,1.951S22.555,152.266,21.281,152.266z M21.281,150.18
	c0.914,0,1.65-0.186,2.209-0.557s0.98-0.877,1.266-1.518s0.498-1.389,0.639-2.244s0.211-1.768,0.211-2.736
	c0-0.93-0.055-1.822-0.164-2.678s-0.32-1.611-0.633-2.268s-0.75-1.18-1.312-1.57s-1.293-0.586-2.191-0.586
	c-0.93,0-1.664,0.195-2.203,0.586s-0.941,0.861-1.207,1.412s-0.475,1.307-0.627,2.268s-0.229,1.906-0.229,2.836
	c0,0.969,0.049,1.881,0.146,2.736s0.297,1.604,0.598,2.244s0.73,1.146,1.289,1.518S20.367,150.18,21.281,150.18z"/>
<path fill="#009944" d="M540.767,277.959h-65v-24c0-1.104,0.895-2,2-2h61c1.104,0,2,0.896,2,2V277.959z"/>
<path fill="#757575" d="M101.711,296.925c-1.812-0.562-3.312-1.641-4.5-3.234h-0.047v3.422c-0.406,0.375-0.609,0.391-0.609,0.047
	v-3.047c-1.406,1.219-2.984,2.141-4.734,2.766c-0.219,0.031-0.25-0.047-0.094-0.234c1.781-0.781,3.219-1.766,4.312-2.953H91.68
	v-0.281h4.875v-1.453h-0.891v0.422c-0.406,0.375-0.609,0.391-0.609,0.047v-4.5l0.703,0.328h0.609l0.188-1.688l0.938,0.234
	c0.25,0.188,0.141,0.312-0.328,0.375l-0.562,1.078h1.406l0.281-0.375l0.656,0.469c0.188,0.156,0.125,0.266-0.188,0.328v3.609
	c-0.406,0.406-0.609,0.422-0.609,0.047v-0.375h-0.984v1.453h3.609l0.703-0.703l0.891,0.656c0.188,0.156,0.188,0.266,0,0.328h-4.875
	c1.25,1.281,2.891,2.125,4.922,2.531C102.039,296.378,101.805,296.613,101.711,296.925z M101.617,292.144
	c-0.125,0-0.234-0.047-0.328-0.141c-0.094-0.125-0.219-0.266-0.375-0.422c-0.5-0.5-1.047-0.922-1.641-1.266
	c-0.125-0.094-0.109-0.141,0.047-0.141c1.25,0.375,2.047,0.781,2.391,1.219c0.094,0.125,0.141,0.266,0.141,0.422
	C101.852,292.035,101.773,292.144,101.617,292.144z M92.055,287.785c1.312,0.406,1.969,0.906,1.969,1.5
	c0,0.25-0.125,0.375-0.375,0.375c-0.156,0-0.297-0.141-0.422-0.422c-0.219-0.438-0.641-0.859-1.266-1.266
	C91.805,287.847,91.836,287.785,92.055,287.785z M99.414,289.707c-0.156,0.031-0.203-0.031-0.141-0.188
	c0.656-0.625,1.219-1.312,1.688-2.062l0.844,0.703c0.125,0.156-0.047,0.203-0.516,0.141
	C100.695,288.769,100.07,289.238,99.414,289.707z M92.57,292.144c0.125,0.531,0,0.625-0.375,0.281l-0.609-0.469
	c1.25-0.625,2.203-1.125,2.859-1.5c0.25-0.062,0.312,0,0.188,0.188L92.57,292.144z M95.664,290.222v1.453h2.484v-1.453H95.664z
	 M95.664,288.535v1.406h2.484v-1.406H95.664z M104.711,294.441c0-1.375,0-2.766,0-4.172c0-0.5,0.016-1.016,0.047-1.547
	s-0.25-0.812-0.844-0.844c-0.188-0.062-0.203-0.125-0.047-0.188c0.188-0.031,0.359-0.047,0.516-0.047
	c0.375,0,0.766,0.156,1.172,0.469c0.125,0.094,0.125,0.234,0,0.422c-0.062,0.094-0.125,0.281-0.188,0.562s-0.094,0.625-0.094,1.031
	c0,1.438,0,2.859,0,4.266c0,0.562,0.094,0.953,0.281,1.172c0.281,0.312,0.75,0.469,1.406,0.469c0.906,0,1.703-0.188,2.391-0.562
	c0.75-0.406,1.578-1,2.484-1.781c0.125-0.062,0.172-0.031,0.141,0.094c-0.844,1-1.688,1.734-2.531,2.203
	c-0.719,0.406-1.578,0.609-2.578,0.609c-0.719,0-1.281-0.219-1.688-0.656C104.867,295.597,104.711,295.097,104.711,294.441z
	 M119.758,289.05c0.656,0.344,1.172,0.719,1.547,1.125c0.906,1,1.359,1.984,1.359,2.953c0,0.344-0.141,0.516-0.422,0.516
	c-0.219,0-0.344-0.125-0.375-0.375c-0.094-0.812-0.328-1.562-0.703-2.25c-0.344-0.656-0.844-1.266-1.5-1.828
	C119.57,289.097,119.602,289.05,119.758,289.05z M113.336,292.378c0-0.844,0-1.688,0-2.531c0-0.719-0.219-1.172-0.656-1.359
	c-0.125-0.062-0.109-0.109,0.047-0.141c0.375,0.031,0.75,0.203,1.125,0.516c0.312,0.25,0.359,0.5,0.141,0.75
	c-0.094,0.812-0.141,1.484-0.141,2.016c0,1.438,0.172,2.438,0.516,3c0.188,0.281,0.359,0.281,0.516,0
	c0.531-0.906,1.109-1.891,1.734-2.953c0.125-0.156,0.188-0.125,0.188,0.094c-0.469,1-0.891,1.922-1.266,2.766
	c-0.219,0.438-0.281,0.797-0.188,1.078c0.125,0.406,0.016,0.547-0.328,0.422c-0.531-0.188-0.969-0.688-1.312-1.5
	C113.461,293.941,113.336,293.222,113.336,292.378z"/>
<path fill="#757575" d="M184.395,297.488c-0.219,0.062-0.266,0.016-0.141-0.141c1.562-0.688,2.797-1.531,3.703-2.531l0.844,0.609
	c0.219,0.188,0.016,0.25-0.609,0.188C187.16,296.425,185.895,297.05,184.395,297.488z M193.301,297.066
	c-0.75-0.875-1.703-1.547-2.859-2.016c-0.125-0.125-0.109-0.188,0.047-0.188c1.281,0.281,2.391,0.812,3.328,1.594
	c0.188,0.188,0.281,0.359,0.281,0.516c0,0.25-0.109,0.375-0.328,0.375C193.613,297.347,193.457,297.253,193.301,297.066z
	 M191.566,294.253h1.359c0.062-0.719,0.109-1.453,0.141-2.203h-1.125v-0.281h1.125c0.031-0.562,0.062-1.125,0.094-1.688h-1.219
	V289.8h1.219c0.031-0.531,0.062-1.078,0.094-1.641h-1.219v-0.281h1.125l0.281-0.375l0.656,0.469
	c0.219,0.156,0.141,0.266-0.234,0.328c-0.125,2-0.25,3.984-0.375,5.953h0.328l0.562-0.562l0.75,0.516
	c0.188,0.156,0.188,0.266,0,0.328h-10.828v-0.281h1.078c-0.062-2.25-0.141-4.516-0.234-6.797l0.562,0.328l0.984-0.703l0.562,0.375
	c0.25,0.188,0.125,0.266-0.375,0.234l-1.078,0.328c0.031,0.594,0.047,1.188,0.047,1.781h0.703l0.375-0.375l0.562,0.422
	c0.094,0.125,0.062,0.203-0.094,0.234h-1.547c0.031,0.594,0.047,1.172,0.047,1.734h0.656l0.375-0.375l0.562,0.422
	c0.094,0.125,0.062,0.203-0.094,0.234h-1.5c0.031,0.719,0.062,1.438,0.094,2.156h1.688v-7.359l0.703,0.422h2.484l0.281-0.328
	l0.609,0.422c0.188,0.156,0.125,0.266-0.188,0.328V294.253z M190.957,294.253v-6.656h-2.672v6.656H190.957z M190.348,292.847
	c-0.312,0.25-0.484,0.25-0.516,0v-0.469h-0.609v0.891c-0.312,0.25-0.484,0.25-0.516,0v-3.375l0.609,0.375h0.422l0.281-0.281
	l0.516,0.375c0.188,0.156,0.125,0.266-0.188,0.328V292.847z M189.832,292.097v-1.547h-0.609v1.547H189.832z M188.566,288.91h1.312
	l0.375-0.375l0.562,0.422c0.094,0.125,0.062,0.203-0.094,0.234h-2.156V288.91z M203.145,292.191c0.938,1.812,2.297,3.062,4.078,3.75
	c-0.469,0.094-0.812,0.312-1.031,0.656c-1.344-1.125-2.375-2.453-3.094-3.984v4.312c-0.406,0.375-0.609,0.391-0.609,0.047v-3.984
	c-1.188,1.562-2.844,2.953-4.969,4.172c-0.156,0-0.188-0.062-0.094-0.188c2.125-1.469,3.75-3.062,4.875-4.781h-2.672v1.453
	c-0.406,0.375-0.609,0.391-0.609,0.047v-0.422h-1.688v1.125c-0.406,0.375-0.609,0.391-0.609,0.047v-6.516l0.703,0.328h1.453
	l0.281-0.375l0.656,0.469c0.188,0.156,0.125,0.266-0.188,0.328v3.234h2.859v-2.344h-2.297v-0.281h2.297v-2.672l0.797,0.141
	c0.25,0.156,0.188,0.266-0.188,0.328v2.203h1.688l0.703-0.703l0.891,0.656c0.188,0.156,0.188,0.266,0,0.328h-3.281v2.344h2.344
	l0.703-0.703l0.891,0.656c0.188,0.156,0.188,0.266,0,0.328H203.145z M197.332,288.535v4.453h1.688v-4.453H197.332z M210.598,296.41
	c1.438-1.062,2.547-2.141,3.328-3.234h-2.719v-0.281h3.141v-1.641l0.797,0.141c0.25,0.156,0.188,0.266-0.188,0.328v1.172h2.625
	l0.609-0.609l0.75,0.562c0.188,0.156,0.188,0.266,0,0.328h-3.844c1.281,1.375,2.688,2.25,4.219,2.625
	c-0.406,0.188-0.672,0.438-0.797,0.75c-1.188-0.562-2.375-1.609-3.562-3.141v3.562c-0.406,0.375-0.609,0.391-0.609,0.047v-3.328
	c-1.094,1.156-2.297,2.125-3.609,2.906C210.426,296.691,210.379,296.628,210.598,296.41z M208.816,287.222
	c-0.094-0.062-0.062-0.109,0.094-0.141c1.094,0.188,1.641,0.531,1.641,1.031c0,0.25-0.109,0.375-0.328,0.375
	c-0.156,0-0.281-0.109-0.375-0.328C209.691,287.816,209.348,287.503,208.816,287.222z M207.973,289.613
	c-0.094-0.094-0.078-0.141,0.047-0.141c1.156,0.25,1.734,0.609,1.734,1.078c0,0.312-0.078,0.469-0.234,0.469
	c-0.188,0-0.344-0.141-0.469-0.422C208.895,290.253,208.535,289.925,207.973,289.613z M211.301,288.347
	c0.156-0.094,0.219-0.062,0.188,0.094l-1.641,4.922c-0.156,0.438-0.188,0.859-0.094,1.266c0.062,0.375,0.109,0.719,0.141,1.031
	c0.062,0.344,0.078,0.656,0.047,0.938c-0.062,0.344-0.219,0.516-0.469,0.516c-0.281,0-0.438-0.172-0.469-0.516
	c0-0.188,0.031-0.453,0.094-0.797c0.062-0.375,0.078-0.875,0.047-1.5c-0.031-0.219-0.125-0.359-0.281-0.422l-0.75-0.188v-0.188
	h1.031L211.301,288.347z M217.254,287.832h-1.453v2.438c0,0.125,0.062,0.188,0.188,0.188h1.734c0.281,0,0.453-0.109,0.516-0.328
	l0.281-1.078c0.062-0.062,0.109-0.062,0.141,0v1.078c0,0.156,0.062,0.266,0.188,0.328c0.219,0.094,0.219,0.234,0,0.422
	c-0.094,0.094-0.375,0.141-0.844,0.141h-2.25c-0.375,0-0.562-0.188-0.562-0.562v-2.625h-2.625c0,0.438-0.016,0.734-0.047,0.891
	c-0.094,0.5-0.297,0.75-0.609,0.75c-0.219,0-0.328-0.109-0.328-0.328c0-0.125,0.062-0.266,0.188-0.422
	c0.312-0.375,0.469-0.891,0.469-1.547c0-0.156,0.062-0.172,0.188-0.047l0.094,0.422h4.641l0.375-0.469l0.938,0.656
	c0.375,0.25,0.312,0.375-0.188,0.375c-0.25,0-0.422,0.062-0.516,0.188l-0.75,0.75c-0.125,0.094-0.188,0.062-0.188-0.094
	L217.254,287.832z M214.441,288.488c0.188,0.156,0.078,0.25-0.328,0.281c-0.406,1.281-1.281,2.359-2.625,3.234
	c-0.156,0.031-0.203-0.016-0.141-0.141c1.312-1.188,2.062-2.453,2.25-3.797L214.441,288.488z M227.426,289.05
	c0.656,0.344,1.172,0.719,1.547,1.125c0.906,1,1.359,1.984,1.359,2.953c0,0.344-0.141,0.516-0.422,0.516
	c-0.219,0-0.344-0.125-0.375-0.375c-0.094-0.812-0.328-1.562-0.703-2.25c-0.344-0.656-0.844-1.266-1.5-1.828
	C227.238,289.097,227.27,289.05,227.426,289.05z M221.004,292.378c0-0.844,0-1.688,0-2.531c0-0.719-0.219-1.172-0.656-1.359
	c-0.125-0.062-0.109-0.109,0.047-0.141c0.375,0.031,0.75,0.203,1.125,0.516c0.312,0.25,0.359,0.5,0.141,0.75
	c-0.094,0.812-0.141,1.484-0.141,2.016c0,1.438,0.172,2.438,0.516,3c0.188,0.281,0.359,0.281,0.516,0
	c0.531-0.906,1.109-1.891,1.734-2.953c0.125-0.156,0.188-0.125,0.188,0.094c-0.469,1-0.891,1.922-1.266,2.766
	c-0.219,0.438-0.281,0.797-0.188,1.078c0.125,0.406,0.016,0.547-0.328,0.422c-0.531-0.188-0.969-0.688-1.312-1.5
	C221.129,293.941,221.004,293.222,221.004,292.378z"/>
<path fill="#757575" d="M290.657,287.925h8.766l0.703-0.703l0.891,0.656c0.188,0.156,0.188,0.266,0,0.328h-4.828l-1.359,2.297h4.641
	l0.234-0.375l0.75,0.516c0.219,0.156,0.125,0.266-0.281,0.328v6c-0.406,0.375-0.609,0.391-0.609,0.047v-0.469h-7.594v0.562
	c-0.406,0.375-0.609,0.391-0.609,0.047v-7.172l0.703,0.516h2.531l0.75-2.297h-4.688V287.925z M299.563,290.785h-2.109v5.484h2.109
	V290.785z M296.845,290.785h-2.156v1.547h2.156V290.785z M296.845,292.613h-2.156v1.5h2.156V292.613z M296.845,294.394h-2.156v1.875
	h2.156V294.394z M294.079,296.269v-5.484h-2.109v5.484H294.079z M306.829,289.144h4.125l0.281-0.375l0.656,0.469
	c0.188,0.156,0.125,0.266-0.188,0.328v7.078c-0.406,0.375-0.609,0.391-0.609,0.047v-0.656h-6.281v1.031
	c-0.406,0.375-0.609,0.391-0.609,0.047v-8.438l0.703,0.469h1.688l0.516-2.344l0.891,0.281c0.344,0.094,0.25,0.25-0.281,0.469
	L306.829,289.144z M311.095,292.425v-3h-6.281v3H311.095z M311.095,292.707h-6.281v3.047h6.281V292.707z M321.595,289.05
	c0.656,0.344,1.172,0.719,1.547,1.125c0.906,1,1.359,1.984,1.359,2.953c0,0.344-0.141,0.516-0.422,0.516
	c-0.219,0-0.344-0.125-0.375-0.375c-0.094-0.812-0.328-1.562-0.703-2.25c-0.344-0.656-0.844-1.266-1.5-1.828
	C321.407,289.097,321.438,289.05,321.595,289.05z M315.173,292.378c0-0.844,0-1.688,0-2.531c0-0.719-0.219-1.172-0.656-1.359
	c-0.125-0.062-0.109-0.109,0.047-0.141c0.375,0.031,0.75,0.203,1.125,0.516c0.312,0.25,0.359,0.5,0.141,0.75
	c-0.094,0.812-0.141,1.484-0.141,2.016c0,1.438,0.172,2.438,0.516,3c0.188,0.281,0.359,0.281,0.516,0
	c0.531-0.906,1.109-1.891,1.734-2.953c0.125-0.156,0.188-0.125,0.188,0.094c-0.469,1-0.891,1.922-1.266,2.766
	c-0.219,0.438-0.281,0.797-0.188,1.078c0.125,0.406,0.016,0.547-0.328,0.422c-0.531-0.188-0.969-0.688-1.312-1.5
	C315.298,293.941,315.173,293.222,315.173,292.378z"/>
<path fill="#757575" d="M381.122,288.863c0.031-0.188,0.094-0.188,0.188,0c0.031,0.125,0.062,0.281,0.094,0.469h5.625
	c0.5-0.875,0.906-1.703,1.219-2.484l0.703,0.375c0.594,0.281,0.516,0.438-0.234,0.469c-0.5,0.594-1,1.141-1.5,1.641h2.391
	l0.281-0.375l0.984,0.984c0.25,0.25,0.062,0.328-0.562,0.234l-1.031,0.656c-0.188,0.156-0.25,0.125-0.188-0.094l0.656-1.125h-8.297
	c-0.031,0.656-0.156,1.141-0.375,1.453c-0.156,0.219-0.312,0.328-0.469,0.328c-0.281,0-0.422-0.109-0.422-0.328
	c0-0.125,0.094-0.281,0.281-0.469C380.903,290.16,381.122,289.582,381.122,288.863z M384.31,286.66
	c0.938,0.375,1.406,0.875,1.406,1.5c0,0.281-0.094,0.422-0.281,0.422c-0.156,0-0.266-0.094-0.328-0.281
	c-0.156-0.594-0.453-1.078-0.891-1.453C383.997,286.66,384.028,286.597,384.31,286.66z M381.825,287.082
	c1,0.375,1.5,0.828,1.5,1.359c0,0.312-0.125,0.469-0.375,0.469c-0.094,0-0.172-0.109-0.234-0.328
	c-0.219-0.625-0.531-1.062-0.938-1.312C381.685,287.144,381.7,287.082,381.825,287.082z M385.95,293.691h3.375l0.703-0.703
	l0.891,0.656c0.188,0.156,0.188,0.266,0,0.328h-4.969v2.391c0,0.375-0.109,0.656-0.328,0.844s-0.406,0.281-0.562,0.281
	c-0.188,0-0.281-0.094-0.281-0.281c0-0.125-0.078-0.234-0.234-0.328l-0.75-0.141c-0.156-0.062-0.156-0.125,0-0.188h1.125
	c0.281,0,0.422-0.141,0.422-0.422v-2.156h-4.875v-0.281h4.875v-1.359l0.609,0.328l1.266-1.266h-4.781v-0.281h4.922l0.375-0.375
	l0.75,0.75c0.188,0.188,0,0.25-0.562,0.188l-1.969,1.172V293.691z M396.591,288.628c-0.375,0.031-0.719,0.234-1.031,0.609
	c-1,1.188-1.5,2.562-1.5,4.125c0,1.031,0.203,1.75,0.609,2.156c0.5,0.5,1.062,0.75,1.688,0.75c0.812,0,1.469-0.234,1.969-0.703
	c0.844-0.781,1.266-1.875,1.266-3.281c0-1.469-0.203-2.766-0.609-3.891c-0.062-0.156-0.078-0.281-0.047-0.375
	c0.062-0.188,0.234-0.203,0.516-0.047c0.188,0.094,0.312,0.172,0.375,0.234c0.094,0.094,0.094,0.203,0,0.328
	c0.156,0.531,0.344,0.969,0.562,1.312c0.562,0.875,1.203,1.672,1.922,2.391c0.094,0.094,0.234,0.219,0.422,0.375
	s0.25,0.391,0.188,0.703c-0.031,0.188-0.109,0.281-0.234,0.281c-0.094,0-0.203-0.078-0.328-0.234
	c-0.906-1.062-1.75-2.344-2.531-3.844c-0.156-0.188-0.203-0.156-0.141,0.094c0.25,1.094,0.375,2.016,0.375,2.766
	c0,1.5-0.391,2.641-1.172,3.422c-0.625,0.625-1.406,0.938-2.344,0.938s-1.656-0.25-2.156-0.75c-0.625-0.625-0.938-1.422-0.938-2.391
	c0-1.5,0.594-2.984,1.781-4.453c0.094-0.156,0.062-0.203-0.094-0.141c-0.531,0.156-1.031,0.359-1.5,0.609
	c-0.25,0.156-0.469,0.172-0.656,0.047c-0.344-0.219-0.562-0.453-0.656-0.703c-0.031-0.188,0.016-0.219,0.141-0.094
	c0.188,0.188,0.438,0.281,0.75,0.281c0.219,0,0.438-0.031,0.656-0.094c0.875-0.25,1.531-0.516,1.969-0.797
	c0.312-0.188,0.562-0.203,0.75-0.047C396.903,288.457,396.903,288.597,396.591,288.628z M402.216,289.332
	c0.062,0.25,0,0.406-0.188,0.469s-0.328-0.016-0.422-0.234c-0.219-0.5-0.625-0.938-1.219-1.312
	c-0.062-0.094-0.047-0.125,0.047-0.094c0.531,0.094,1,0.297,1.406,0.609C402.028,288.925,402.153,289.113,402.216,289.332z
	 M402.497,288.628c-0.219-0.5-0.625-0.938-1.219-1.312c-0.062-0.094-0.047-0.125,0.047-0.094c0.531,0.094,1,0.297,1.406,0.609
	c0.188,0.156,0.312,0.344,0.375,0.562c0.062,0.25,0,0.406-0.188,0.469S402.591,288.847,402.497,288.628z M409.247,291.722
	c0-0.562-0.047-0.938-0.141-1.125c-0.125-0.25-0.359-0.375-0.703-0.375c-0.156,0-0.406,0.031-0.75,0.094
	c-0.719,1.656-1.453,3.312-2.203,4.969c-0.094,0.156-0.234,0.469-0.422,0.938c-0.094,0.25-0.203,0.375-0.328,0.375
	c-0.094,0-0.172-0.078-0.234-0.234c-0.031-0.062-0.047-0.188-0.047-0.375c0-0.281,0.094-0.516,0.281-0.703s0.406-0.531,0.656-1.031
	c0.688-1.344,1.297-2.625,1.828-3.844c-0.844,0.156-1.438,0.312-1.781,0.469c-0.188,0.094-0.359,0.078-0.516-0.047
	c-0.312-0.219-0.469-0.547-0.469-0.984c0.031-0.094,0.078-0.094,0.141,0c0.188,0.344,0.438,0.516,0.75,0.516
	c0.25,0,0.922-0.094,2.016-0.281c0.156-0.344,0.312-0.703,0.469-1.078c0.156-0.438,0.141-0.766-0.047-0.984
	c-0.156-0.188-0.406-0.297-0.75-0.328c-0.125-0.062-0.125-0.125,0-0.188c0.312,0,0.531,0.016,0.656,0.047
	c0.344,0.094,0.641,0.266,0.891,0.516c0.281,0.281,0.266,0.453-0.047,0.516c-0.219,0.5-0.453,0.984-0.703,1.453
	c0.25-0.062,0.453-0.094,0.609-0.094c0.406,0,0.703,0.109,0.891,0.328c0.281,0.344,0.422,0.922,0.422,1.734
	c0,2.406-0.578,3.906-1.734,4.5c-0.312,0.156-0.469,0.094-0.469-0.188c0-0.219-0.062-0.375-0.188-0.469
	c-0.312-0.219-0.625-0.453-0.938-0.703c-0.062-0.125-0.031-0.172,0.094-0.141c0.375,0.219,0.734,0.406,1.078,0.562
	c0.312,0.156,0.594,0.062,0.844-0.281c0.281-0.406,0.484-0.906,0.609-1.5C409.169,293.035,409.247,292.347,409.247,291.722z
	 M413.747,288.675c-0.188,0.062-0.328-0.016-0.422-0.234c-0.219-0.5-0.625-0.938-1.219-1.312c-0.062-0.094-0.047-0.125,0.047-0.094
	c0.531,0.094,1,0.297,1.406,0.609c0.188,0.156,0.312,0.344,0.375,0.562C413.997,288.457,413.935,288.613,413.747,288.675z
	 M410.888,290.128c-0.156-0.125-0.125-0.172,0.094-0.141c0.531,0.219,1.094,0.562,1.688,1.031c0.781,0.625,1.219,1.391,1.312,2.297
	c0.031,0.312-0.016,0.547-0.141,0.703c-0.188,0.25-0.375,0.234-0.562-0.047c-0.188-0.312-0.422-0.453-0.703-0.422
	c-0.438,0.031-0.891,0.062-1.359,0.094c-0.188-0.031-0.203-0.094-0.047-0.188c0.5-0.062,1.031-0.141,1.594-0.234
	c0.219-0.031,0.312-0.125,0.281-0.281c-0.062-0.5-0.297-1.016-0.703-1.547C411.966,290.894,411.481,290.472,410.888,290.128z
	 M412.716,289.003c0.062,0.25,0,0.406-0.188,0.469s-0.328-0.016-0.422-0.234c-0.219-0.5-0.625-0.938-1.219-1.312
	c-0.062-0.094-0.047-0.125,0.047-0.094c0.531,0.094,1,0.297,1.406,0.609C412.528,288.597,412.653,288.785,412.716,289.003z
	 M418.653,287.925c-0.125,0.25-0.25,0.719-0.375,1.406c0.875-0.188,1.5-0.438,1.875-0.75c0.344,0.031,0.562,0.078,0.656,0.141
	c0.25,0.156,0.141,0.312-0.328,0.469c-0.594,0.219-1.344,0.391-2.25,0.516c-0.156,0.969-0.234,1.656-0.234,2.062
	c0.812-0.312,1.594-0.5,2.344-0.562c0.031-0.312-0.203-0.5-0.703-0.562c-0.125-0.062-0.109-0.125,0.047-0.188
	c0.969,0.062,1.438,0.312,1.406,0.75c1.219,0.031,2.078,0.297,2.578,0.797c0.469,0.469,0.703,1.031,0.703,1.688
	s-0.281,1.266-0.844,1.828c-0.688,0.688-1.688,1.188-3,1.5c-0.219,0-0.234-0.062-0.047-0.188c1.125-0.438,1.922-0.891,2.391-1.359
	c0.562-0.562,0.844-1.156,0.844-1.781c0-0.594-0.188-1.078-0.562-1.453c-0.438-0.438-1.156-0.672-2.156-0.703
	c-0.219,0.5-0.5,1.047-0.844,1.641s-0.734,1.125-1.172,1.594c0.125,0.156,0.266,0.328,0.422,0.516
	c0.125,0.156,0.109,0.297-0.047,0.422c-0.188,0.125-0.375,0.062-0.562-0.188c-0.094-0.125-0.172-0.234-0.234-0.328
	c-0.406,0.406-0.812,0.734-1.219,0.984s-0.812,0.359-1.219,0.328c-0.625-0.062-0.969-0.484-1.031-1.266
	c-0.062-0.812,0.312-1.594,1.125-2.344c0.375-0.344,0.828-0.656,1.359-0.938c0-0.469,0.047-1.188,0.141-2.156
	c-0.438,0.062-0.859,0.109-1.266,0.141c-0.281,0.031-0.5-0.031-0.656-0.188c-0.25-0.25-0.406-0.5-0.469-0.75
	c0.031-0.156,0.094-0.172,0.188-0.047c0.188,0.375,0.5,0.562,0.938,0.562c0.531,0,0.969-0.031,1.312-0.094
	c0.094-0.625,0.156-1.203,0.188-1.734c0.031-0.281-0.172-0.469-0.609-0.562c-0.125,0-0.125-0.047,0-0.141
	c0.438,0,0.812,0.078,1.125,0.234C418.841,287.41,418.903,287.644,418.653,287.925z M417.575,292.332
	c-0.438,0.25-0.812,0.547-1.125,0.891c-0.531,0.594-0.797,1.25-0.797,1.969c0,0.625,0.188,0.953,0.562,0.984
	c0.312,0.031,0.672-0.094,1.078-0.375c0.375-0.25,0.719-0.547,1.031-0.891C417.856,294.16,417.606,293.3,417.575,292.332z
	 M420.294,291.535c-1.062,0.156-1.828,0.359-2.297,0.609c0.094,1.031,0.344,1.812,0.75,2.344c0.344-0.438,0.656-0.922,0.938-1.453
	C419.935,292.535,420.138,292.035,420.294,291.535z M426.091,293.972c0-0.25,0.125-0.484,0.375-0.703
	c0.219-0.188,1.688-1.781,4.406-4.781c0.094-0.062,0.062-0.109-0.094-0.141c-0.75,0.125-1.5,0.312-2.25,0.562
	c-0.219,0.125-0.391,0.188-0.516,0.188c-0.062,0-0.219-0.094-0.469-0.281c-0.312-0.25-0.484-0.531-0.516-0.844
	c0-0.156,0.062-0.172,0.188-0.047c0.188,0.281,0.5,0.422,0.938,0.422c0.406,0,0.656-0.016,0.75-0.047
	c0.625-0.094,1.234-0.203,1.828-0.328c0.312-0.062,0.547-0.156,0.703-0.281c0.062-0.094,0.141-0.141,0.234-0.141
	c0.156,0,0.328,0.078,0.516,0.234c0.156,0.125,0.234,0.234,0.234,0.328c0,0.062-0.141,0.141-0.422,0.234
	c-0.344,0.156-1.422,1.188-3.234,3.094c-0.094,0.156-0.047,0.188,0.141,0.094c0.656-0.25,1.328-0.375,2.016-0.375
	c1.031,0,1.859,0.312,2.484,0.938c0.438,0.438,0.656,1.016,0.656,1.734c0,0.844-0.25,1.516-0.75,2.016
	c-0.75,0.75-1.812,1.125-3.188,1.125c-0.875,0-1.484-0.172-1.828-0.516c-0.281-0.281-0.422-0.562-0.422-0.844
	c0-0.25,0.094-0.469,0.281-0.656c0.219-0.219,0.547-0.328,0.984-0.328c0.531,0,1.016,0.219,1.453,0.656
	c0.281,0.281,0.469,0.672,0.562,1.172c0.594-0.125,1.109-0.406,1.547-0.844c0.469-0.469,0.703-1.031,0.703-1.688
	c0-0.719-0.219-1.297-0.656-1.734c-0.5-0.5-1.203-0.75-2.109-0.75c-1,0-2.016,0.516-3.047,1.547
	c-0.406,0.406-0.734,0.812-0.984,1.219c-0.062,0.125-0.172,0.188-0.328,0.188C426.153,294.394,426.091,294.253,426.091,293.972z
	 M430.403,296.597c-0.031-0.562-0.188-0.984-0.469-1.266c-0.25-0.25-0.547-0.375-0.891-0.375c-0.562,0-0.844,0.219-0.844,0.656
	c0,0.188,0.094,0.375,0.281,0.562C428.763,296.457,429.403,296.597,430.403,296.597z"/>
<path fill="#757575" d="M486.165,296.082c-0.531-0.406-0.938-0.75-1.219-1.031c-0.656,0.531-1.297,0.938-1.922,1.219
	c-0.188,0.031-0.234-0.016-0.141-0.141c0.938-0.531,1.703-1.25,2.297-2.156l0.797,0.188c0.156,0.188,0.062,0.266-0.281,0.234
	l-0.234,0.234h2.531l0.375-0.281l0.562,0.422c0.312,0.281,0.266,0.391-0.141,0.328c-0.469,0.344-1,0.672-1.594,0.984
	c1,0.344,2.219,0.531,3.656,0.562c-0.344,0.219-0.547,0.453-0.609,0.703c-1.375-0.156-2.578-0.469-3.609-0.938
	c-1.375,0.594-2.812,0.938-4.312,1.031c-0.156-0.062-0.156-0.125,0-0.188C483.634,297.097,484.915,296.707,486.165,296.082z
	 M479.884,292.285c1.156-1.625,2-3.547,2.531-5.766l0.938,0.375c0.25,0.188,0.141,0.328-0.328,0.422
	c-0.312,0.875-0.641,1.625-0.984,2.25c0.406,0.125,0.391,0.266-0.047,0.422v7.031c-0.406,0.375-0.609,0.391-0.609,0.047v-6.328
	c-0.344,0.562-0.797,1.141-1.359,1.734C479.868,292.535,479.821,292.472,479.884,292.285z M486.446,288.722h1.734l0.281-0.375
	l0.656,0.469c0.188,0.156,0.125,0.266-0.188,0.328v2.297h0.797l0.375-0.281l0.844,0.656c0.156,0.281-0.047,0.359-0.609,0.234
	l-0.656,0.469c-0.156,0.094-0.203,0.047-0.141-0.141l0.328-0.656h-6.375c-0.125,0.562-0.375,0.844-0.75,0.844
	c-0.188,0-0.281-0.125-0.281-0.375c0-0.094,0.078-0.219,0.234-0.375c0.375-0.312,0.578-0.719,0.609-1.219
	c0.094-0.125,0.156-0.109,0.188,0.047v0.797h0.844V288.3l0.703,0.422h0.984v-0.891h-2.578v-0.281h6l0.609-0.609l0.75,0.562
	c0.188,0.156,0.188,0.266,0,0.328h-3.938L486.446,288.722z M483.821,293.832c-0.188,0.25-0.391,0.375-0.609,0.375
	c-0.188,0-0.281-0.078-0.281-0.234c0-0.125,0.047-0.234,0.141-0.328c0.469-0.438,0.75-0.844,0.844-1.219
	c0.062-0.188,0.125-0.188,0.188,0C484.165,292.894,484.071,293.363,483.821,293.832z M486.587,292.753
	c-0.125-0.219-0.328-0.438-0.609-0.656c-0.156-0.125-0.125-0.172,0.094-0.141c0.719,0.219,1.078,0.484,1.078,0.797
	c0,0.188-0.078,0.281-0.234,0.281S486.649,292.941,486.587,292.753z M490.196,293.597c0,0.25-0.094,0.375-0.281,0.375
	c-0.156,0-0.266-0.078-0.328-0.234c-0.219-0.5-0.578-0.969-1.078-1.406c-0.094-0.094-0.062-0.125,0.094-0.094
	C489.665,292.707,490.196,293.16,490.196,293.597z M485.368,293.878c-0.375,0-0.562-0.188-0.562-0.562v-1.359l0.797,0.141
	c0.25,0.156,0.188,0.266-0.188,0.328v0.797c0,0.125,0.062,0.188,0.188,0.188h1.781c0.25,0,0.391-0.125,0.422-0.375l0.094-0.562
	c0.062-0.062,0.109-0.062,0.141,0v0.75c0,0.125,0.047,0.219,0.141,0.281s0.094,0.141,0,0.234s-0.25,0.141-0.469,0.141H485.368z
	 M486.634,295.847c0.531-0.281,1-0.594,1.406-0.938h-2.812C485.634,295.316,486.103,295.628,486.634,295.847z M488.321,290.785
	h-3.375v0.656h3.375V290.785z M484.946,289.894v0.609h3.375v-0.609H484.946z M484.946,289.613h3.375v-0.609h-3.375V289.613z
	 M494.649,296.785c0-0.375-0.422-1-1.266-1.875c-0.312,0.531-0.562,0.953-0.75,1.266c-0.062,0.094-0.141,0.141-0.234,0.141
	c-0.125,0-0.188-0.172-0.188-0.516c0-0.188,0.062-0.359,0.188-0.516c0.719-0.875,1.547-2.141,2.484-3.797c0-0.25,0-0.5,0-0.75
	c-0.438,0.156-0.812,0.312-1.125,0.469c-0.125,0.094-0.234,0.141-0.328,0.141c-0.062,0-0.188-0.062-0.375-0.188
	c-0.344-0.219-0.516-0.5-0.516-0.844c0.031-0.156,0.078-0.188,0.141-0.094c0.156,0.344,0.375,0.516,0.656,0.516
	c0.375,0,0.891-0.109,1.547-0.328c0-0.594,0-1.203,0-1.828c0-0.688-0.297-1.062-0.891-1.125c-0.25,0-0.25-0.062,0-0.188
	c0.75-0.062,1.281,0.094,1.594,0.469c0.188,0.125,0.188,0.266,0,0.422c-0.188,0.312-0.281,1.031-0.281,2.156
	c0.062-0.031,0.125-0.078,0.188-0.141c0.188,0.094,0.312,0.172,0.375,0.234c0.125,0.062,0.141,0.141,0.047,0.234
	c-0.156,0.156-0.359,0.406-0.609,0.75c0,0.125,0,0.25,0,0.375c1.531-1.656,2.812-2.484,3.844-2.484c0.781,0,1.141,0.344,1.078,1.031
	c-0.188,2.062-0.281,3.328-0.281,3.797c0,1.125,0.234,1.688,0.703,1.688c0.906,0,1.672-0.766,2.297-2.297
	c0.125-0.188,0.188-0.172,0.188,0.047c-0.5,1.812-1.328,2.719-2.484,2.719c-0.375,0-0.688-0.125-0.938-0.375
	s-0.375-0.797-0.375-1.641c0-1.031,0.062-2.359,0.188-3.984c0.031-0.406-0.141-0.609-0.516-0.609c-0.844,0-2.078,0.859-3.703,2.578
	c0.031,2.281,0.062,3.531,0.094,3.75c0.062,0.438-0.016,0.766-0.234,0.984c-0.125,0.125-0.234,0.188-0.328,0.188
	C494.712,297.16,494.649,297.035,494.649,296.785z M494.837,295.566c0.062-0.75,0.078-1.734,0.047-2.953
	c-0.469,0.688-0.938,1.391-1.406,2.109c0.375,0.312,0.734,0.609,1.078,0.891C494.681,295.738,494.774,295.722,494.837,295.566z
	 M511.618,288.441c0.5-0.094,0.844-0.219,1.031-0.375s0.391-0.156,0.609,0c0.344,0.25,0.531,0.391,0.562,0.422
	c0.156,0.156,0.125,0.266-0.094,0.328c-1.938-0.062-3.328,0.328-4.172,1.172c-0.812,0.812-1.219,1.625-1.219,2.438
	c0,0.938,0.312,1.719,0.938,2.344c0.656,0.656,1.406,1,2.25,1.031c0.312,0,0.516,0.062,0.609,0.188
	c0.125,0.156,0.188,0.297,0.188,0.422c0,0.156-0.125,0.234-0.375,0.234c-0.875,0-1.719-0.328-2.531-0.984
	c-0.969-0.781-1.453-1.812-1.453-3.094c0-1.188,0.609-2.266,1.828-3.234c0.156-0.125,0.156-0.188,0-0.188
	c-0.969,0.188-1.891,0.375-2.766,0.562c-0.375,0.062-0.75,0.188-1.125,0.375c-0.281,0.125-0.469,0.172-0.562,0.141
	c-0.156-0.031-0.312-0.109-0.469-0.234c-0.344-0.25-0.531-0.516-0.562-0.797c0.062-0.219,0.125-0.234,0.188-0.047
	c0.156,0.281,0.484,0.406,0.984,0.375c0.25,0,0.672-0.062,1.266-0.188C508.368,289.05,509.993,288.753,511.618,288.441z
	 M522.431,289.05c0.656,0.344,1.172,0.719,1.547,1.125c0.906,1,1.359,1.984,1.359,2.953c0,0.344-0.141,0.516-0.422,0.516
	c-0.219,0-0.344-0.125-0.375-0.375c-0.094-0.812-0.328-1.562-0.703-2.25c-0.344-0.656-0.844-1.266-1.5-1.828
	C522.243,289.097,522.274,289.05,522.431,289.05z M516.009,292.378c0-0.844,0-1.688,0-2.531c0-0.719-0.219-1.172-0.656-1.359
	c-0.125-0.062-0.109-0.109,0.047-0.141c0.375,0.031,0.75,0.203,1.125,0.516c0.312,0.25,0.359,0.5,0.141,0.75
	c-0.094,0.812-0.141,1.484-0.141,2.016c0,1.438,0.172,2.438,0.516,3c0.188,0.281,0.359,0.281,0.516,0
	c0.531-0.906,1.109-1.891,1.734-2.953c0.125-0.156,0.188-0.125,0.188,0.094c-0.469,1-0.891,1.922-1.266,2.766
	c-0.219,0.438-0.281,0.797-0.188,1.078c0.125,0.406,0.016,0.547-0.328,0.422c-0.531-0.188-0.969-0.688-1.312-1.5
	C516.134,293.941,516.009,293.222,516.009,292.378z M526.259,293.972c0-0.25,0.125-0.484,0.375-0.703
	c0.219-0.188,1.688-1.781,4.406-4.781c0.094-0.062,0.062-0.109-0.094-0.141c-0.75,0.125-1.5,0.312-2.25,0.562
	c-0.219,0.125-0.391,0.188-0.516,0.188c-0.062,0-0.219-0.094-0.469-0.281c-0.312-0.25-0.484-0.531-0.516-0.844
	c0-0.156,0.062-0.172,0.188-0.047c0.188,0.281,0.5,0.422,0.938,0.422c0.406,0,0.656-0.016,0.75-0.047
	c0.625-0.094,1.234-0.203,1.828-0.328c0.312-0.062,0.547-0.156,0.703-0.281c0.062-0.094,0.141-0.141,0.234-0.141
	c0.156,0,0.328,0.078,0.516,0.234c0.156,0.125,0.234,0.234,0.234,0.328c0,0.062-0.141,0.141-0.422,0.234
	c-0.344,0.156-1.422,1.188-3.234,3.094c-0.094,0.156-0.047,0.188,0.141,0.094c0.656-0.25,1.328-0.375,2.016-0.375
	c1.031,0,1.859,0.312,2.484,0.938c0.438,0.438,0.656,1.016,0.656,1.734c0,0.844-0.25,1.516-0.75,2.016
	c-0.75,0.75-1.812,1.125-3.188,1.125c-0.875,0-1.484-0.172-1.828-0.516c-0.281-0.281-0.422-0.562-0.422-0.844
	c0-0.25,0.094-0.469,0.281-0.656c0.219-0.219,0.547-0.328,0.984-0.328c0.531,0,1.016,0.219,1.453,0.656
	c0.281,0.281,0.469,0.672,0.562,1.172c0.594-0.125,1.109-0.406,1.547-0.844c0.469-0.469,0.703-1.031,0.703-1.688
	c0-0.719-0.219-1.297-0.656-1.734c-0.5-0.5-1.203-0.75-2.109-0.75c-1,0-2.016,0.516-3.047,1.547
	c-0.406,0.406-0.734,0.812-0.984,1.219c-0.062,0.125-0.172,0.188-0.328,0.188C526.321,294.394,526.259,294.253,526.259,293.972z
	 M530.571,296.597c-0.031-0.562-0.188-0.984-0.469-1.266c-0.25-0.25-0.547-0.375-0.891-0.375c-0.562,0-0.844,0.219-0.844,0.656
	c0,0.188,0.094,0.375,0.281,0.562C528.931,296.457,529.571,296.597,530.571,296.597z"/>
</svg>
