<?xml version="1.0" encoding="utf-8"?>
<!-- Generator: Adobe Illustrator 15.0.0, SVG Export Plug-In  -->
<!DOCTYPE svg PUBLIC "-//W3C//DTD SVG 1.1//EN" "http://www.w3.org/Graphics/SVG/1.1/DTD/svg11.dtd" [
	<!ENTITY ns_flows "http://ns.adobe.com/Flows/1.0/">
]>
<svg version="1.1"
	 xmlns="http://www.w3.org/2000/svg" xmlns:xlink="http://www.w3.org/1999/xlink" xmlns:a="http://ns.adobe.com/AdobeSVGViewerExtensions/3.0/"
	 x="0px" y="0px" width="600px" height="371px" viewBox="-20.692 -54.5 600 371"
	 overflow="visible" enable-background="new -20.692 -54.5 600 371" xml:space="preserve">
<defs>
</defs>
<path fill="none" stroke="#CCCCCC" stroke-miterlimit="10" d="M264.808,0v277"/>
<path fill="none" stroke="#CCCCCC" stroke-miterlimit="10" d="M412.808,0v277"/>
<path fill="none" stroke="#CCCCCC" stroke-miterlimit="10" d="M560.808,0v277"/>
<path fill="#00ADD8" d="M116.308,30.5v-19h294c1.104,0,2,0.896,2,2v15c0,1.104-0.896,2-2,2H116.308z"/>
<path fill="#C2185B" d="M116.308,59.5v-19h146c1.104,0,2,0.896,2,2v15c0,1.104-0.896,2-2,2H116.308z"/>
<path fill="#009944" d="M116.308,89.5v-19h146c1.104,0,2,0.896,2,2v15c0,1.104-0.896,2-2,2H116.308z"/>
<path d="M116.308,119.5v-19h146c1.104,0,2,0.896,2,2v15c0,1.104-0.896,2-2,2H116.308z"/>
<path fill="#3949AB" d="M116.308,148.5v-19h146c1.104,0,2,0.896,2,2v15c0,1.104-0.896,2-2,2H116.308z"/>
<path fill="#CE3262" d="M116.308,178.5v-19h442c1.104,0,2,0.896,2,2v15c0,1.104-0.896,2-2,2H116.308z"/>
<path fill="#F975A8" d="M116.308,207.5v-19h146c1.104,0,2,0.896,2,2v15c0,1.104-0.896,2-2,2H116.308z"/>
<path fill="#B8B7B5" d="M116.308,237.5v-19h146c1.104,0,2,0.896,2,2v15c0,1.104-0.896,2-2,2H116.308z"/>
<path fill="#AB30C4" d="M116.308,266.5v-19h146c1.104,0,2,0.896,2,2v15c0,1.104-0.896,2-2,2H116.308z"/>
<path fill="#757575" d="M24.484,19.724c0,1.812,0,3.609,0,5.391c0,0.281-0.062,0.422-0.188,0.422c-0.094,0-0.219-0.094-0.375-0.281
	c-0.188-0.219-0.25-0.438-0.188-0.656c0.094-0.344,0.141-0.625,0.141-0.844c0-1.375,0-2.75,0-4.125
	c-1.844,1.406-3.516,2.391-5.016,2.953c-0.25,0-0.281-0.078-0.094-0.234c3.219-1.75,5.609-3.625,7.172-5.625
	c0.125-0.156,0.172-0.312,0.141-0.469c-0.031-0.094-0.172-0.203-0.422-0.328c-0.188-0.062-0.156-0.109,0.094-0.141
	c0.5,0.031,0.875,0.219,1.125,0.562c0.25,0.219,0.375,0.391,0.375,0.516s-0.094,0.172-0.281,0.141c-0.156,0-0.312,0.062-0.469,0.188
	c-0.562,0.656-1.281,1.328-2.156,2.016C25.031,19.427,25.078,19.599,24.484,19.724z M28.422,22.771
	c0.219,0.531,0.5,0.797,0.844,0.797c0.375,0,1.391-0.531,3.047-1.594s3.312-2.391,4.969-3.984c0.219-0.094,0.281-0.031,0.188,0.188
	c-2.156,2.406-4.703,4.422-7.641,6.047c-0.031,0.125-0.062,0.219-0.094,0.281s-0.094,0.094-0.188,0.094
	c-0.125,0-0.375-0.172-0.75-0.516c-0.438-0.406-0.625-0.812-0.562-1.219C28.234,22.708,28.297,22.677,28.422,22.771z M30.625,18.74
	c0,0.312-0.156,0.469-0.469,0.469c-0.188,0-0.328-0.203-0.422-0.609c-0.062-0.25-0.266-0.562-0.609-0.938
	c-0.188-0.188-0.453-0.406-0.797-0.656c-0.156-0.125-0.125-0.172,0.094-0.141c0.812,0.25,1.391,0.562,1.734,0.938
	C30.469,18.146,30.625,18.458,30.625,18.74z M45.125,17.427c-0.656,0.062-2.234,0.266-4.734,0.609c-0.625,0.094-1,0.203-1.125,0.328
	c-0.031,0.094-0.094,0.141-0.188,0.141s-0.297-0.141-0.609-0.422c-0.25-0.219-0.391-0.453-0.422-0.703
	c0-0.156,0.062-0.172,0.188-0.047c0.125,0.219,0.391,0.328,0.797,0.328c0.531,0,2.5-0.188,5.906-0.562
	c0.25-0.031,0.438-0.156,0.562-0.375c0.312,0.188,0.625,0.406,0.938,0.656c0.156,0.125,0.234,0.234,0.234,0.328
	c0,0.125-0.109,0.188-0.328,0.188s-0.359,0.062-0.422,0.188c-1.281,3.188-3.641,5.391-7.078,6.609c-0.156,0-0.188-0.062-0.094-0.188
	c3.312-1.438,5.5-3.703,6.562-6.797C45.406,17.49,45.344,17.396,45.125,17.427z M49.078,25.349c2.594-1.375,4.5-3.5,5.719-6.375
	c-3.406,0.312-5.203,0.531-5.391,0.656c-0.125,0.125-0.25,0.188-0.375,0.188s-0.344-0.141-0.656-0.422
	c-0.281-0.25-0.422-0.5-0.422-0.75c0-0.156,0.062-0.172,0.188-0.047c0.156,0.281,0.438,0.422,0.844,0.422
	c0.781,0,2.656-0.141,5.625-0.422c0.188-0.062,0.344-0.172,0.469-0.328c0.312,0.219,0.547,0.391,0.703,0.516
	s0.234,0.234,0.234,0.328c0,0.156-0.172,0.219-0.516,0.188c-1.406,2.969-3.5,5.047-6.281,6.234
	C49.031,25.537,48.984,25.474,49.078,25.349z M50.062,16.49c0.781,0,2-0.062,3.656-0.188c0.156-0.125,0.344-0.234,0.562-0.328
	c0.406,0.125,0.719,0.281,0.938,0.469c0.125,0.094,0.188,0.188,0.188,0.281c0,0.062-0.125,0.078-0.375,0.047
	c-0.875-0.156-2.453-0.062-4.734,0.281c-0.188,0.156-0.328,0.234-0.422,0.234c-0.156,0-0.359-0.109-0.609-0.328
	c-0.312-0.281-0.469-0.562-0.469-0.844c0-0.156,0.062-0.172,0.188-0.047C49.047,16.349,49.406,16.49,50.062,16.49z M65.625,18.693
	c-0.844-0.156-2.109-0.172-3.797-0.047c0.25,0.125,0.484,0.25,0.703,0.375s0.328,0.234,0.328,0.328c0,0.125-0.094,0.203-0.281,0.234
	c-0.031,0.938-0.062,1.859-0.094,2.766c1.594-0.031,2.562-0.047,2.906-0.047c0.281-0.031,0.516-0.125,0.703-0.281
	c0.219,0.062,0.453,0.188,0.703,0.375s0.375,0.344,0.375,0.469s-0.109,0.156-0.328,0.094c-0.531-0.125-1.047-0.188-1.547-0.188
	c-2.031-0.156-4.156-0.031-6.375,0.375c-0.281,0.031-0.469,0.078-0.562,0.141c-0.062,0.094-0.172,0.141-0.328,0.141
	c-0.094,0-0.266-0.109-0.516-0.328S57.094,22.646,57,22.396c0-0.219,0.062-0.25,0.188-0.094c0.219,0.219,0.5,0.328,0.844,0.328
	c0.75,0.031,2.062-0.047,3.938-0.234c0-0.844,0-1.688,0-2.531c0-0.25-0.031-0.469-0.094-0.656c-0.094-0.188-0.281-0.359-0.562-0.516
	c-1.25,0.156-1.938,0.266-2.062,0.328c-0.156,0.094-0.281,0.141-0.375,0.141c-0.062,0-0.219-0.109-0.469-0.328
	c-0.281-0.25-0.422-0.484-0.422-0.703c0.031-0.156,0.078-0.188,0.141-0.094c0.188,0.281,0.484,0.422,0.891,0.422h0.938
	c1.375-0.125,2.859-0.234,4.453-0.328c0.25-0.094,0.453-0.172,0.609-0.234c0.25,0.094,0.469,0.219,0.656,0.375
	c0.156,0.125,0.234,0.234,0.234,0.328S65.812,18.724,65.625,18.693z M68.422,22.771c0.219,0.531,0.5,0.797,0.844,0.797
	c0.375,0,1.391-0.531,3.047-1.594s3.312-2.391,4.969-3.984c0.219-0.094,0.281-0.031,0.188,0.188
	c-2.156,2.406-4.703,4.422-7.641,6.047c-0.031,0.125-0.062,0.219-0.094,0.281s-0.094,0.094-0.188,0.094
	c-0.125,0-0.375-0.172-0.75-0.516c-0.438-0.406-0.625-0.812-0.562-1.219C68.234,22.708,68.297,22.677,68.422,22.771z M70.625,18.74
	c0,0.312-0.156,0.469-0.469,0.469c-0.188,0-0.328-0.203-0.422-0.609c-0.062-0.25-0.266-0.562-0.609-0.938
	c-0.188-0.188-0.453-0.406-0.797-0.656c-0.156-0.125-0.125-0.172,0.094-0.141c0.812,0.25,1.391,0.562,1.734,0.938
	C70.469,18.146,70.625,18.458,70.625,18.74z M87.656,16.349c0,0.156-0.078,0.234-0.234,0.234c-0.125,0-0.219-0.031-0.281-0.094
	c-0.125-0.125-0.25-0.281-0.375-0.469c-0.219-0.25-0.516-0.484-0.891-0.703c-0.094-0.094-0.078-0.141,0.047-0.141
	c0.719,0.125,1.203,0.312,1.453,0.562C87.562,15.927,87.656,16.13,87.656,16.349z M85.828,16.537
	c0.281,0.188,0.422,0.422,0.422,0.703c0,0.219-0.094,0.328-0.281,0.328c-0.125,0-0.328-0.219-0.609-0.656
	c-0.125-0.188-0.438-0.484-0.938-0.891c-0.062-0.062-0.047-0.109,0.047-0.141C84.906,16.005,85.359,16.224,85.828,16.537z
	 M81.984,17.943c0,0.219-0.125,0.328-0.375,0.328c-0.125,0-0.281-0.141-0.469-0.422c-0.344-0.5-0.891-0.828-1.641-0.984
	c-0.125-0.094-0.109-0.156,0.047-0.188c0.969,0,1.672,0.219,2.109,0.656C81.875,17.552,81.984,17.755,81.984,17.943z M80.578,20.38
	c0,0.094-0.031,0.172-0.094,0.234s-0.141,0.094-0.234,0.094c-0.125,0-0.297-0.141-0.516-0.422c-0.375-0.469-0.906-0.797-1.594-0.984
	c-0.188-0.094-0.188-0.156,0-0.188c0.938,0,1.656,0.234,2.156,0.703C80.484,20.005,80.578,20.193,80.578,20.38z M81.656,23.99
	c-0.469,0.312-0.734,0.531-0.797,0.656s-0.141,0.188-0.234,0.188c-0.062,0-0.234-0.078-0.516-0.234
	c-0.219-0.125-0.406-0.266-0.562-0.422c-0.25-0.25-0.359-0.594-0.328-1.031c0-0.156,0.062-0.172,0.188-0.047
	c0.156,0.469,0.391,0.703,0.703,0.703c0.281,0,0.656-0.125,1.125-0.375c2.594-1.562,4.766-3.312,6.516-5.25
	c0.188-0.094,0.266-0.047,0.234,0.141C86.453,20.255,84.344,22.146,81.656,23.99z M98.281,22.771
	c-0.469-0.094-0.906-0.141-1.312-0.141c-2.125-0.031-4.125,0.141-6,0.516c-0.281,0.062-0.5,0.141-0.656,0.234
	c-0.094,0.125-0.172,0.188-0.234,0.188c-0.125,0-0.359-0.188-0.703-0.562C89.125,22.724,89,22.49,89,22.302
	c0-0.156,0.062-0.188,0.188-0.094c0.188,0.312,0.516,0.469,0.984,0.469c0.594,0,2.656-0.188,6.188-0.562
	c0.281,0,0.547-0.031,0.797-0.094c0.156-0.062,0.297-0.141,0.422-0.234c0.281,0.125,0.516,0.234,0.703,0.328
	c0.281,0.156,0.422,0.328,0.422,0.516C98.703,22.787,98.562,22.833,98.281,22.771z M90.219,18.318
	c0.156,0.281,0.516,0.422,1.078,0.422c0.406,0,1.953-0.141,4.641-0.422c0.125-0.062,0.234-0.141,0.328-0.234
	c0.344,0.094,0.641,0.219,0.891,0.375c0.156,0.094,0.234,0.219,0.234,0.375c0,0.094-0.188,0.109-0.562,0.047
	c-1.062-0.062-2.703,0.047-4.922,0.328c-0.25,0.031-0.438,0.094-0.562,0.188c-0.094,0.062-0.188,0.094-0.281,0.094
	c-0.062,0-0.156-0.047-0.281-0.141c-0.438-0.312-0.672-0.625-0.703-0.938C90.109,18.255,90.156,18.224,90.219,18.318z
	 M109.047,16.724c0.281,0.281,0.422,0.469,0.422,0.562s-0.078,0.141-0.234,0.141c-0.094,0-0.219-0.016-0.375-0.047
	c-0.688,0.438-1.938,1.172-3.75,2.203c-0.344,2.438-1.578,4.25-3.703,5.438c-0.219,0.062-0.297,0.016-0.234-0.141
	c1.938-1.312,3-3.047,3.188-5.203c0.094-0.656-0.047-1.031-0.422-1.125c-0.219-0.062-0.25-0.125-0.094-0.188
	c0.438-0.031,0.812,0.078,1.125,0.328c0.156,0.125,0.219,0.281,0.188,0.469c1.219-0.719,2.234-1.469,3.047-2.25
	c-1.938,0.094-3.562,0.25-4.875,0.469c-1.094,0.188-1.703,0.328-1.828,0.422s-0.25,0.141-0.375,0.141
	c-0.094,0-0.281-0.125-0.562-0.375c-0.312-0.281-0.469-0.531-0.469-0.75c0-0.188,0.078-0.234,0.234-0.141
	c0.188,0.312,0.594,0.453,1.219,0.422c0.75-0.031,1.453-0.094,2.109-0.188c1.656-0.188,3.094-0.281,4.312-0.281
	c0.25-0.125,0.453-0.25,0.609-0.375L109.047,16.724z"/>
<path fill="#757575" d="M48.75,51.597c0.312,0.094,0.562,0.234,0.75,0.422c0.094,0.062,0.141,0.156,0.141,0.281
	s-0.094,0.156-0.281,0.094c-0.781-0.25-2.5-0.219-5.156,0.094c-0.562,0.094-0.891,0.172-0.984,0.234
	c-0.094,0.094-0.188,0.141-0.281,0.141c-0.062,0-0.172-0.078-0.328-0.234c-0.406-0.406-0.594-0.734-0.562-0.984
	c0-0.156,0.062-0.172,0.188-0.047c0.156,0.312,0.438,0.469,0.844,0.469c0.688,0,1.172-0.016,1.453-0.047
	c1-0.094,2.234-0.188,3.703-0.281c0.188-1.125,0.344-2.297,0.469-3.516c-2,0.156-3.406,0.266-4.219,0.328
	c-0.344,0-0.641,0.047-0.891,0.141c-0.125,0.125-0.219,0.188-0.281,0.188c-0.094,0-0.219-0.062-0.375-0.188
	c-0.469-0.406-0.688-0.734-0.656-0.984c0-0.156,0.062-0.172,0.188-0.047c0.281,0.281,0.531,0.422,0.75,0.422
	c0.406,0,0.875-0.016,1.406-0.047c0.938-0.062,2.25-0.125,3.938-0.188c0.094-0.094,0.203-0.203,0.328-0.328
	c0.312,0.156,0.578,0.312,0.797,0.469c0.094,0.062,0.141,0.141,0.141,0.234c0,0.062-0.078,0.109-0.234,0.141
	s-0.25,0.094-0.281,0.188C49.125,49.581,48.938,50.597,48.75,51.597z M52.422,52.347c0.219,0.531,0.5,0.797,0.844,0.797
	c0.375,0,1.391-0.531,3.047-1.594s3.312-2.391,4.969-3.984c0.219-0.094,0.281-0.031,0.188,0.188
	c-2.156,2.406-4.703,4.422-7.641,6.047c-0.031,0.125-0.062,0.219-0.094,0.281s-0.094,0.094-0.188,0.094
	c-0.125,0-0.375-0.172-0.75-0.516c-0.438-0.406-0.625-0.812-0.562-1.219C52.234,52.284,52.297,52.253,52.422,52.347z M54.625,48.315
	c0,0.312-0.156,0.469-0.469,0.469c-0.188,0-0.328-0.203-0.422-0.609c-0.062-0.25-0.266-0.562-0.609-0.938
	c-0.188-0.188-0.453-0.406-0.797-0.656c-0.156-0.125-0.125-0.172,0.094-0.141c0.812,0.25,1.391,0.562,1.734,0.938
	C54.469,47.722,54.625,48.034,54.625,48.315z M65.094,51.128c0.062-0.312,0.094-1.031,0.094-2.156
	c-1.062,0.156-1.688,0.297-1.875,0.422c-0.062,0.094-0.141,0.141-0.234,0.141s-0.234-0.078-0.422-0.234
	c-0.375-0.312-0.578-0.641-0.609-0.984c0.062-0.188,0.141-0.203,0.234-0.047c0.094,0.312,0.391,0.469,0.891,0.469
	c0.75,0,1.422-0.031,2.016-0.094c0-0.438,0-0.891,0-1.359c0-0.438-0.062-0.719-0.188-0.844s-0.297-0.188-0.516-0.188
	c-0.094-0.062-0.078-0.125,0.047-0.188c0.375-0.094,0.797-0.016,1.266,0.234c0.188,0.094,0.281,0.203,0.281,0.328
	c0,0.094-0.062,0.156-0.188,0.188c-0.094,0.031-0.141,0.172-0.141,0.422c0,0.5,0,0.953,0,1.359c0.969-0.062,1.828-0.125,2.578-0.188
	c0-0.469,0-0.953,0-1.453c0-0.656-0.031-1.062-0.094-1.219s-0.25-0.281-0.562-0.375c-0.188-0.094-0.172-0.172,0.047-0.234
	c0.406,0,0.812,0.109,1.219,0.328c0.188,0.094,0.281,0.203,0.281,0.328c0,0.094-0.047,0.156-0.141,0.188
	c-0.094,0.094-0.141,0.375-0.141,0.844c0,0.531,0,1.047,0,1.547c0.875-0.031,1.406-0.047,1.594-0.047
	c0.219,0,0.406-0.078,0.562-0.234c0.188,0.062,0.391,0.141,0.609,0.234c0.344,0.188,0.516,0.375,0.516,0.562
	c0,0.156-0.281,0.156-0.844,0c-0.406-0.094-1.219-0.141-2.438-0.141c0.062,2.875-1.203,5-3.797,6.375
	c-0.188,0-0.234-0.062-0.141-0.188c2.375-1.594,3.484-3.641,3.328-6.141c-0.969,0.062-1.828,0.125-2.578,0.188
	c0,1.125,0.016,2.016,0.047,2.672c0,0.219-0.078,0.328-0.234,0.328c-0.094,0-0.203-0.062-0.328-0.188
	C65.078,51.628,65.031,51.409,65.094,51.128z M78.297,53.284c-0.312-0.312-0.469-0.484-0.469-0.516c0-0.062,0.125-0.125,0.375-0.188
	c0-0.438,0-2.109,0-5.016c-0.031-0.281-0.094-0.5-0.188-0.656c-0.062-0.094-0.25-0.172-0.562-0.234
	c-0.156-0.094-0.172-0.172-0.047-0.234c0.594,0,1.078,0.109,1.453,0.328c0.188,0.125,0.281,0.234,0.281,0.328
	c0,0.125-0.125,0.25-0.375,0.375c0,1.562,0,3.203,0,4.922c1.875-0.812,3.516-1.953,4.922-3.422c0.156-0.062,0.219-0.016,0.188,0.141
	c-0.906,1.188-2.156,2.297-3.75,3.328c-0.844,0.469-1.266,0.766-1.266,0.891c0,0.156-0.047,0.234-0.141,0.234
	S78.484,53.472,78.297,53.284z M76.422,48.597c-0.594,2.344-1.797,4.234-3.609,5.672c-0.156,0.031-0.203-0.016-0.141-0.141
	c1.531-1.5,2.516-3.312,2.953-5.438c0.031-0.344,0.016-0.547-0.047-0.609c-0.094-0.094-0.234-0.156-0.422-0.188
	c-0.156-0.062-0.156-0.125,0-0.188c0.5-0.031,0.953,0.094,1.359,0.375c0.188,0.125,0.281,0.25,0.281,0.375
	C76.797,48.55,76.672,48.597,76.422,48.597z M90.062,50.565c-0.688-0.625-1.578-1.047-2.672-1.266
	c-0.688,0.75-1.453,1.422-2.297,2.016c-0.156,0-0.188-0.062-0.094-0.188c1.719-1.469,2.859-3.109,3.422-4.922
	c0.094-0.281-0.078-0.484-0.516-0.609c-0.125-0.062-0.125-0.125,0-0.188c0.344-0.031,0.641,0.016,0.891,0.141
	c0.438,0.219,0.656,0.406,0.656,0.562c0,0.094-0.047,0.141-0.141,0.141s-0.172,0.062-0.234,0.188
	c-0.094,0.188-0.203,0.406-0.328,0.656c1.031-0.062,2.047-0.141,3.047-0.234c0.156-0.125,0.297-0.266,0.422-0.422
	c0.156,0.062,0.359,0.188,0.609,0.375c0.188,0.125,0.281,0.234,0.281,0.328s-0.062,0.156-0.188,0.188
	c-0.156,0.031-0.297,0.172-0.422,0.422c-0.375,0.812-0.875,1.672-1.5,2.578c0.375,0.25,0.547,0.516,0.516,0.797
	c-0.031,0.219-0.109,0.328-0.234,0.328s-0.359-0.172-0.703-0.516c-1.438,1.812-3.109,3.141-5.016,3.984
	c-0.188,0-0.234-0.062-0.141-0.188C87.547,53.487,89.094,52.097,90.062,50.565z M90.438,50.003c0.594-0.844,1.062-1.688,1.406-2.531
	c0.062-0.156,0.031-0.25-0.094-0.281c-1.031,0.062-1.953,0.125-2.766,0.188c-0.125-0.031-0.219-0.078-0.281-0.141
	c-0.406,0.75-0.797,1.359-1.172,1.828C88.75,49.253,89.719,49.565,90.438,50.003z M94.422,52.347c0.219,0.531,0.5,0.797,0.844,0.797
	c0.375,0,1.391-0.531,3.047-1.594s3.312-2.391,4.969-3.984c0.219-0.094,0.281-0.031,0.188,0.188
	c-2.156,2.406-4.703,4.422-7.641,6.047c-0.031,0.125-0.062,0.219-0.094,0.281s-0.094,0.094-0.188,0.094
	c-0.125,0-0.375-0.172-0.75-0.516c-0.438-0.406-0.625-0.812-0.562-1.219C94.234,52.284,94.297,52.253,94.422,52.347z M96.625,48.315
	c0,0.312-0.156,0.469-0.469,0.469c-0.188,0-0.328-0.203-0.422-0.609c-0.062-0.25-0.266-0.562-0.609-0.938
	c-0.188-0.188-0.453-0.406-0.797-0.656c-0.156-0.125-0.125-0.172,0.094-0.141c0.812,0.25,1.391,0.562,1.734,0.938
	C96.469,47.722,96.625,48.034,96.625,48.315z M105.875,49.112c0.375,0.031,0.875,0.125,1.5,0.281c0.75,0.219,1.344,0.5,1.781,0.844
	c0.469,0.375,0.703,0.688,0.703,0.938c0,0.281-0.109,0.422-0.328,0.422c-0.125,0-0.297-0.141-0.516-0.422
	c-0.625-0.812-1.672-1.438-3.141-1.875c0,2.938,0,4.672,0,5.203c0,0.344-0.078,0.516-0.234,0.516c-0.188,0-0.344-0.141-0.469-0.422
	c-0.094-0.219-0.078-0.531,0.047-0.938c0.094-1.062,0.125-3.453,0.094-7.172c0-0.312-0.047-0.547-0.141-0.703
	c-0.094-0.125-0.312-0.203-0.656-0.234c-0.125-0.062-0.125-0.125,0-0.188c0.219-0.062,0.516-0.047,0.891,0.047
	c0.25,0.094,0.469,0.203,0.656,0.328s0.281,0.25,0.281,0.375c0,0.094-0.062,0.156-0.188,0.188s-0.188,0.109-0.188,0.234
	C105.875,47.347,105.844,48.206,105.875,49.112z"/>
<path fill="#757575" d="M4.422,84.032V75.5h2.422c0.739,0,1.391,0.167,1.953,0.5c0.573,0.323,1.016,0.787,1.328,1.391
	s0.469,1.302,0.469,2.094v0.531c0,0.812-0.156,1.521-0.469,2.125c-0.302,0.604-0.745,1.068-1.328,1.391
	c-0.573,0.323-1.239,0.49-2,0.5H4.422z M5.547,76.422v6.688h1.188c0.864,0,1.536-0.266,2.016-0.797C9.239,81.771,9.484,81,9.484,80
	v-0.5c0-0.969-0.229-1.719-0.688-2.25c-0.448-0.542-1.094-0.818-1.938-0.828H5.547z M14.891,84.157
	c-0.864,0-1.567-0.281-2.109-0.844c-0.531-0.573-0.797-1.333-0.797-2.281v-0.188c0-0.635,0.12-1.198,0.359-1.688
	c0.239-0.5,0.573-0.885,1-1.156c0.438-0.281,0.906-0.422,1.406-0.422c0.823,0,1.464,0.271,1.922,0.812s0.688,1.318,0.688,2.328
	v0.453h-4.297c0.021,0.625,0.203,1.13,0.547,1.516c0.354,0.385,0.802,0.578,1.344,0.578c0.375,0,0.692-0.078,0.953-0.234
	c0.271-0.156,0.511-0.365,0.719-0.625l0.656,0.516C16.75,83.745,15.953,84.157,14.891,84.157z M14.75,78.469
	c-0.438,0-0.808,0.162-1.109,0.484c-0.292,0.312-0.469,0.755-0.531,1.328h3.172v-0.078c-0.031-0.552-0.183-0.979-0.453-1.281
	C15.567,78.62,15.208,78.469,14.75,78.469z M20.344,82.563l1.578-4.875h1.109l-2.281,6.344h-0.828l-2.297-6.344h1.109L20.344,82.563
	z M26.891,84.157c-0.864,0-1.567-0.281-2.109-0.844c-0.531-0.573-0.797-1.333-0.797-2.281v-0.188c0-0.635,0.12-1.198,0.359-1.688
	c0.239-0.5,0.573-0.885,1-1.156c0.438-0.281,0.906-0.422,1.406-0.422c0.823,0,1.464,0.271,1.922,0.812s0.688,1.318,0.688,2.328
	v0.453h-4.297c0.021,0.625,0.203,1.13,0.547,1.516c0.354,0.385,0.802,0.578,1.344,0.578c0.375,0,0.692-0.078,0.953-0.234
	c0.271-0.156,0.511-0.365,0.719-0.625l0.656,0.516C28.75,83.745,27.953,84.157,26.891,84.157z M26.75,78.469
	c-0.438,0-0.808,0.162-1.109,0.484c-0.292,0.312-0.469,0.755-0.531,1.328h3.172v-0.078c-0.031-0.552-0.183-0.979-0.453-1.281
	C27.567,78.62,27.208,78.469,26.75,78.469z M31.438,84.032h-1.078v-9h1.078V84.032z M32.969,80.797c0-0.615,0.12-1.172,0.359-1.672
	c0.25-0.5,0.594-0.88,1.031-1.141c0.438-0.271,0.933-0.406,1.484-0.406c0.864,0,1.562,0.297,2.094,0.891
	c0.542,0.594,0.812,1.391,0.812,2.391v0.078c0,0.615-0.12,1.167-0.359,1.656s-0.578,0.875-1.016,1.156
	c-0.438,0.271-0.942,0.406-1.516,0.406c-0.854,0-1.552-0.297-2.094-0.891c-0.531-0.604-0.797-1.401-0.797-2.391V80.797z
	 M34.062,80.938c0,0.698,0.161,1.26,0.484,1.688c0.333,0.427,0.771,0.641,1.312,0.641c0.552,0,0.989-0.213,1.312-0.641
	c0.323-0.438,0.484-1.047,0.484-1.828c0-0.688-0.167-1.245-0.5-1.672c-0.323-0.438-0.761-0.656-1.312-0.656
	c-0.531,0-0.964,0.213-1.297,0.641C34.224,79.526,34.062,80.136,34.062,80.938z M45.609,80.938c0,0.958-0.219,1.734-0.656,2.328
	s-1.036,0.891-1.797,0.891c-0.771,0-1.375-0.245-1.812-0.734v3.047h-1.078v-8.781h0.984l0.047,0.703
	c0.448-0.542,1.062-0.812,1.844-0.812c0.761,0,1.359,0.287,1.797,0.859c0.448,0.573,0.672,1.37,0.672,2.391V80.938z M44.531,80.813
	c0-0.719-0.156-1.281-0.469-1.688c-0.302-0.417-0.719-0.625-1.25-0.625c-0.656,0-1.146,0.287-1.469,0.859v3.031
	c0.323,0.583,0.817,0.875,1.484,0.875c0.521,0,0.933-0.203,1.234-0.609C44.375,82.24,44.531,81.625,44.531,80.813z M49.891,84.157
	c-0.864,0-1.567-0.281-2.109-0.844c-0.531-0.573-0.797-1.333-0.797-2.281v-0.188c0-0.635,0.12-1.198,0.359-1.688
	c0.239-0.5,0.573-0.885,1-1.156c0.438-0.281,0.906-0.422,1.406-0.422c0.823,0,1.464,0.271,1.922,0.812s0.688,1.318,0.688,2.328
	v0.453h-4.297c0.021,0.625,0.203,1.13,0.547,1.516c0.354,0.385,0.802,0.578,1.344,0.578c0.375,0,0.692-0.078,0.953-0.234
	c0.271-0.156,0.511-0.365,0.719-0.625l0.656,0.516C51.75,83.745,50.953,84.157,49.891,84.157z M49.75,78.469
	c-0.438,0-0.808,0.162-1.109,0.484c-0.292,0.312-0.469,0.755-0.531,1.328h3.172v-0.078c-0.031-0.552-0.183-0.979-0.453-1.281
	C50.567,78.62,50.208,78.469,49.75,78.469z M56.328,78.657c-0.167-0.021-0.344-0.031-0.531-0.031c-0.719,0-1.203,0.302-1.453,0.906
	v4.5h-1.078v-6.344h1.047l0.016,0.734c0.354-0.562,0.859-0.844,1.516-0.844c0.208,0,0.37,0.026,0.484,0.078V78.657z M65.141,81.797
	h-3.578l-0.797,2.234h-1.156l3.25-8.531h0.984l3.266,8.531h-1.156L65.141,81.797z M61.906,80.875h2.906l-1.453-3.984L61.906,80.875z
	 M68,80.813c0-0.979,0.229-1.76,0.688-2.344c0.458-0.594,1.062-0.891,1.812-0.891c0.739,0,1.328,0.25,1.766,0.75v-3.297h1.078v9h-1
	l-0.047-0.688c-0.438,0.542-1.042,0.812-1.812,0.812c-0.729,0-1.328-0.302-1.797-0.906C68.229,82.646,68,81.86,68,80.891V80.813z
	 M69.078,80.938c0,0.719,0.146,1.281,0.438,1.688c0.302,0.406,0.714,0.609,1.234,0.609c0.688,0,1.192-0.312,1.516-0.938v-2.906
	c-0.323-0.594-0.823-0.891-1.5-0.891c-0.531,0-0.948,0.203-1.25,0.609C69.224,79.516,69.078,80.125,69.078,80.938z M77.344,82.563
	l1.578-4.875h1.109l-2.281,6.344h-0.828l-2.297-6.344h1.109L77.344,82.563z M80.969,80.797c0-0.615,0.12-1.172,0.359-1.672
	c0.25-0.5,0.594-0.88,1.031-1.141c0.438-0.271,0.933-0.406,1.484-0.406c0.864,0,1.562,0.297,2.094,0.891
	c0.542,0.594,0.812,1.391,0.812,2.391v0.078c0,0.615-0.12,1.167-0.359,1.656s-0.578,0.875-1.016,1.156
	c-0.438,0.271-0.942,0.406-1.516,0.406c-0.854,0-1.552-0.297-2.094-0.891c-0.531-0.604-0.797-1.401-0.797-2.391V80.797z
	 M82.062,80.938c0,0.698,0.161,1.26,0.484,1.688c0.333,0.427,0.771,0.641,1.312,0.641c0.552,0,0.989-0.213,1.312-0.641
	c0.323-0.438,0.484-1.047,0.484-1.828c0-0.688-0.167-1.245-0.5-1.672c-0.323-0.438-0.761-0.656-1.312-0.656
	c-0.531,0-0.964,0.213-1.297,0.641C82.224,79.526,82.062,80.136,82.062,80.938z M90.797,83.266c0.386,0,0.724-0.115,1.016-0.344
	c0.292-0.24,0.453-0.537,0.484-0.891h1.031c-0.021,0.365-0.151,0.713-0.391,1.047c-0.229,0.323-0.536,0.583-0.922,0.781
	c-0.375,0.198-0.781,0.297-1.219,0.297c-0.864,0-1.552-0.287-2.062-0.859c-0.5-0.583-0.75-1.375-0.75-2.375v-0.188
	c0-0.615,0.109-1.162,0.328-1.641c0.229-0.479,0.552-0.849,0.969-1.109c0.427-0.271,0.933-0.406,1.516-0.406
	c0.708,0,1.297,0.213,1.766,0.641c0.479,0.417,0.734,0.969,0.766,1.656h-1.031c-0.031-0.417-0.188-0.755-0.469-1.016
	s-0.625-0.391-1.031-0.391c-0.552,0-0.979,0.198-1.281,0.594s-0.453,0.969-0.453,1.719v0.203c0,0.729,0.151,1.292,0.453,1.688
	S90.245,83.266,90.797,83.266z M98.172,84.032c-0.062-0.125-0.114-0.349-0.156-0.672c-0.5,0.531-1.099,0.797-1.797,0.797
	c-0.625,0-1.141-0.177-1.547-0.531c-0.396-0.354-0.594-0.807-0.594-1.359c0-0.656,0.25-1.167,0.75-1.531s1.208-0.547,2.125-0.547H98
	v-0.5c0-0.375-0.114-0.672-0.344-0.891c-0.219-0.229-0.552-0.344-1-0.344c-0.386,0-0.708,0.099-0.969,0.297
	c-0.261,0.188-0.391,0.422-0.391,0.703h-1.094c0-0.323,0.109-0.63,0.328-0.922c0.229-0.292,0.536-0.521,0.922-0.688
	c0.386-0.177,0.808-0.266,1.266-0.266c0.739,0,1.312,0.182,1.719,0.547c0.417,0.365,0.636,0.865,0.656,1.5v2.922
	c0,0.583,0.073,1.047,0.219,1.391v0.094H98.172z M96.375,83.204c0.344,0,0.667-0.088,0.969-0.266S97.864,82.532,98,82.25v-1.297
	h-0.844c-1.333,0-2,0.391-2,1.172c0,0.333,0.114,0.599,0.344,0.797C95.729,83.11,96.021,83.204,96.375,83.204z M102.734,76.157
	v1.531h1.172v0.844h-1.172v3.922c0,0.26,0.052,0.453,0.156,0.578s0.281,0.188,0.531,0.188c0.125,0,0.297-0.021,0.516-0.062v0.875
	c-0.281,0.083-0.558,0.125-0.828,0.125c-0.479,0-0.844-0.146-1.094-0.438c-0.25-0.302-0.375-0.724-0.375-1.266v-3.922h-1.156v-0.844
	h1.156v-1.531H102.734z M107.891,84.157c-0.864,0-1.567-0.281-2.109-0.844c-0.531-0.573-0.797-1.333-0.797-2.281v-0.188
	c0-0.635,0.12-1.198,0.359-1.688c0.239-0.5,0.573-0.885,1-1.156c0.438-0.281,0.906-0.422,1.406-0.422
	c0.823,0,1.464,0.271,1.922,0.812s0.688,1.318,0.688,2.328v0.453h-4.297c0.021,0.625,0.203,1.13,0.547,1.516
	c0.354,0.385,0.802,0.578,1.344,0.578c0.375,0,0.692-0.078,0.953-0.234c0.271-0.156,0.511-0.365,0.719-0.625l0.656,0.516
	C109.75,83.745,108.953,84.157,107.891,84.157z M107.75,78.469c-0.438,0-0.808,0.162-1.109,0.484
	c-0.292,0.312-0.469,0.755-0.531,1.328h3.172v-0.078c-0.031-0.552-0.183-0.979-0.453-1.281
	C108.567,78.62,108.208,78.469,107.75,78.469z"/>
<path fill="#757575" d="M9.281,106.061c0.25,0,0.453-0.078,0.609-0.234c0.188-0.188,0.281-0.406,0.281-0.656
	s-0.094-0.469-0.281-0.656c-0.156-0.156-0.359-0.234-0.609-0.234s-0.453,0.078-0.609,0.234c-0.188,0.188-0.281,0.406-0.281,0.656
	s0.094,0.469,0.281,0.656C8.828,105.982,9.031,106.061,9.281,106.061z M9.281,106.342c-0.344,0-0.625-0.109-0.844-0.328
	s-0.328-0.5-0.328-0.844s0.109-0.625,0.328-0.844s0.5-0.328,0.844-0.328s0.625,0.109,0.844,0.328s0.328,0.5,0.328,0.844
	s-0.109,0.625-0.328,0.844S9.625,106.342,9.281,106.342z M7.734,107.139c-1.375,3.469-3.641,5.656-6.797,6.562
	c-0.188,0-0.219-0.078-0.094-0.234c2.938-1.031,5.016-3.266,6.234-6.703c0.062-0.188,0.016-0.281-0.141-0.281
	c-0.688,0.062-2.453,0.266-5.297,0.609c-0.125,0.031-0.266,0.109-0.422,0.234c-0.031,0.094-0.094,0.141-0.188,0.141
	s-0.297-0.141-0.609-0.422c-0.25-0.219-0.391-0.453-0.422-0.703c0-0.156,0.062-0.172,0.188-0.047
	c0.125,0.219,0.391,0.328,0.797,0.328c0.25,0,2.109-0.141,5.578-0.422c0.375-0.062,0.609-0.203,0.703-0.422
	c0.375,0.188,0.688,0.406,0.938,0.656c0.156,0.156,0.234,0.281,0.234,0.375s-0.109,0.141-0.328,0.141S7.766,107.014,7.734,107.139z
	 M12.312,112.482c-0.094-0.094-0.141-0.219-0.141-0.375c0.031-0.375,0.031-0.938,0-1.688c0.031-0.938-0.031-1.953-0.188-3.047
	c-0.062-0.219-0.156-0.375-0.281-0.469s-0.219-0.156-0.281-0.188c-0.125-0.062-0.125-0.109,0-0.141c0.562,0,0.953,0.219,1.172,0.656
	c1.625-0.125,3.328-0.266,5.109-0.422c0.094-0.094,0.188-0.203,0.281-0.328c0.25,0.188,0.484,0.375,0.703,0.562
	c0.125,0.094,0.188,0.188,0.188,0.281s-0.078,0.141-0.234,0.141c-0.094,0-0.172,0.078-0.234,0.234
	c-0.281,1.125-0.578,2.25-0.891,3.375c0.094,0,0.234-0.031,0.422-0.094c0.156,0.031,0.312,0.109,0.469,0.234
	s0.234,0.234,0.234,0.328c0,0.062-0.109,0.094-0.328,0.094c-0.75-0.094-1.938-0.078-3.562,0.047
	c-1.125,0.062-1.781,0.109-1.969,0.141c0,0.188,0,0.359,0,0.516c0,0.25-0.047,0.375-0.141,0.375
	C12.578,112.717,12.469,112.639,12.312,112.482z M12.734,111.451c1.469-0.094,2.922-0.203,4.359-0.328
	c0.25-1.312,0.5-2.625,0.75-3.938c-1.812,0.156-3.562,0.297-5.25,0.422C12.656,108.889,12.703,110.17,12.734,111.451z
	 M29.656,105.076c0,0.156-0.078,0.234-0.234,0.234c-0.125,0-0.219-0.031-0.281-0.094c-0.125-0.125-0.25-0.281-0.375-0.469
	c-0.219-0.25-0.516-0.484-0.891-0.703c-0.094-0.094-0.078-0.141,0.047-0.141c0.719,0.125,1.203,0.312,1.453,0.562
	C29.562,104.654,29.656,104.857,29.656,105.076z M27.828,105.264c0.281,0.188,0.422,0.422,0.422,0.703
	c0,0.219-0.094,0.328-0.281,0.328c-0.125,0-0.328-0.219-0.609-0.656c-0.125-0.188-0.438-0.484-0.938-0.891
	c-0.062-0.062-0.047-0.109,0.047-0.141C26.906,104.732,27.359,104.951,27.828,105.264z M23.984,106.67
	c0,0.219-0.125,0.328-0.375,0.328c-0.125,0-0.281-0.141-0.469-0.422c-0.344-0.5-0.891-0.828-1.641-0.984
	c-0.125-0.094-0.109-0.156,0.047-0.188c0.969,0,1.672,0.219,2.109,0.656C23.875,106.279,23.984,106.482,23.984,106.67z
	 M22.578,109.107c0,0.094-0.031,0.172-0.094,0.234s-0.141,0.094-0.234,0.094c-0.125,0-0.297-0.141-0.516-0.422
	c-0.375-0.469-0.906-0.797-1.594-0.984c-0.188-0.094-0.188-0.156,0-0.188c0.938,0,1.656,0.234,2.156,0.703
	C22.484,108.732,22.578,108.92,22.578,109.107z M23.656,112.717c-0.469,0.312-0.734,0.531-0.797,0.656s-0.141,0.188-0.234,0.188
	c-0.062,0-0.234-0.078-0.516-0.234c-0.219-0.125-0.406-0.266-0.562-0.422c-0.25-0.25-0.359-0.594-0.328-1.031
	c0-0.156,0.062-0.172,0.188-0.047c0.156,0.469,0.391,0.703,0.703,0.703c0.281,0,0.656-0.125,1.125-0.375
	c2.594-1.562,4.766-3.312,6.516-5.25c0.188-0.094,0.266-0.047,0.234,0.141C28.453,108.982,26.344,110.873,23.656,112.717z
	 M35.031,112.107c0-0.688,0-1.375,0-2.062c0-0.312-0.031-0.531-0.094-0.656s-0.219-0.188-0.469-0.188
	c-1.031,0.156-1.578,0.25-1.641,0.281c-0.062,0.094-0.141,0.141-0.234,0.141c-0.062,0-0.203-0.094-0.422-0.281
	c-0.188-0.156-0.312-0.359-0.375-0.609c0.031-0.125,0.078-0.141,0.141-0.047c0.156,0.25,0.531,0.359,1.125,0.328
	c0.906-0.094,2.219-0.219,3.938-0.375c0.25-0.031,0.438-0.125,0.562-0.281c0.312,0.125,0.562,0.281,0.75,0.469
	c0.094,0.094,0.141,0.188,0.141,0.281c0,0.062-0.141,0.062-0.422,0c-0.75-0.094-1.641-0.094-2.672,0
	c0.562,0.188,0.641,0.375,0.234,0.562c-0.031,0.844-0.062,1.641-0.094,2.391c0.938-0.031,1.781-0.062,2.531-0.094
	c0.281,0.031,0.5-0.031,0.656-0.188c0.25,0.125,0.469,0.281,0.656,0.469c0.094,0.094,0.141,0.188,0.141,0.281
	c0,0.062-0.094,0.078-0.281,0.047c-1.188-0.312-3.297-0.25-6.328,0.188c-0.312,0.062-0.531,0.125-0.656,0.188
	c-0.062,0.062-0.156,0.094-0.281,0.094s-0.297-0.094-0.516-0.281c-0.25-0.219-0.391-0.422-0.422-0.609
	c0-0.156,0.047-0.188,0.141-0.094c0.156,0.219,0.453,0.328,0.891,0.328C32.75,112.389,33.75,112.295,35.031,112.107z
	 M45.172,105.826c-0.094,0.219-0.188,0.438-0.281,0.656c0.531,0,1.359-0.047,2.484-0.141c0.125-0.094,0.266-0.219,0.422-0.375
	c0.281,0.188,0.516,0.344,0.703,0.469c0.156,0.125,0.234,0.234,0.234,0.328s-0.094,0.141-0.281,0.141
	c-0.188-0.031-0.312,0.047-0.375,0.234c-1.312,3.25-3.547,5.531-6.703,6.844c-0.188,0-0.219-0.062-0.094-0.188
	c3.125-1.719,5.172-4.078,6.141-7.078c-1,0.031-1.906,0.062-2.719,0.094c-0.656,1.281-1.828,2.406-3.516,3.375
	c-0.156,0-0.188-0.062-0.094-0.188c1.656-1.219,2.766-2.578,3.328-4.078c0.125-0.344,0.156-0.578,0.094-0.703
	s-0.203-0.219-0.422-0.281c-0.125-0.062-0.125-0.125,0-0.188c0.188-0.062,0.5,0.031,0.938,0.281
	c0.344,0.188,0.516,0.344,0.516,0.469c0,0.094-0.078,0.141-0.234,0.141C45.25,105.639,45.203,105.701,45.172,105.826z
	 M51.875,108.264c0.375,0.031,0.875,0.125,1.5,0.281c0.75,0.219,1.344,0.5,1.781,0.844c0.469,0.375,0.703,0.688,0.703,0.938
	c0,0.281-0.109,0.422-0.328,0.422c-0.125,0-0.297-0.141-0.516-0.422c-0.625-0.812-1.672-1.438-3.141-1.875c0,2.938,0,4.672,0,5.203
	c0,0.344-0.078,0.516-0.234,0.516c-0.188,0-0.344-0.141-0.469-0.422c-0.094-0.219-0.078-0.531,0.047-0.938
	c0.094-1.062,0.125-3.453,0.094-7.172c0-0.312-0.047-0.547-0.141-0.703c-0.094-0.125-0.312-0.203-0.656-0.234
	c-0.125-0.062-0.125-0.125,0-0.188c0.219-0.062,0.516-0.047,0.891,0.047c0.25,0.094,0.469,0.203,0.656,0.328s0.281,0.25,0.281,0.375
	c0,0.094-0.062,0.156-0.188,0.188s-0.188,0.109-0.188,0.234C51.875,106.498,51.844,107.357,51.875,108.264z M66.609,107.795
	c-0.219,0-0.391,0.062-0.516,0.188c-0.938,0.969-2.125,1.859-3.562,2.672c0.562,0.5,0.844,1,0.844,1.5
	c0,0.344-0.078,0.516-0.234,0.516s-0.266-0.078-0.328-0.234c-0.219-0.531-0.609-1.078-1.172-1.641
	c-0.406-0.406-0.984-0.797-1.734-1.172c-0.094-0.062-0.062-0.109,0.094-0.141c0.969,0.281,1.734,0.609,2.297,0.984
	c1.281-0.875,2.344-1.828,3.188-2.859c0.094-0.125,0.031-0.203-0.188-0.234c-2.25,0.125-4.203,0.391-5.859,0.797
	c-0.438,0.125-0.781,0.234-1.031,0.328c-0.094,0.188-0.188,0.281-0.281,0.281s-0.297-0.156-0.609-0.469
	c-0.281-0.281-0.422-0.547-0.422-0.797c0-0.156,0.062-0.172,0.188-0.047c0.094,0.25,0.297,0.375,0.609,0.375
	c0.438,0,0.828-0.031,1.172-0.094c1.75-0.312,3.891-0.547,6.422-0.703c0.156-0.094,0.297-0.219,0.422-0.375
	c0.156,0.094,0.406,0.281,0.75,0.562c0.219,0.188,0.328,0.328,0.328,0.422S66.859,107.795,66.609,107.795z M67.906,111.826
	c1.844-0.781,3.578-1.781,5.203-3c-0.031-0.125-0.156-0.219-0.375-0.281c-0.188-0.094-0.172-0.156,0.047-0.188
	c0.344,0,0.594,0.062,0.75,0.188c0.781-0.562,1.453-1.141,2.016-1.734c0.062-0.094,0.016-0.141-0.141-0.141
	c-2.219,0.344-3.469,0.562-3.75,0.656c-0.375,0.094-0.625,0.188-0.75,0.281c-0.062,0.094-0.141,0.141-0.234,0.141
	c-0.156,0-0.406-0.172-0.75-0.516c-0.156-0.156-0.266-0.375-0.328-0.656c0-0.156,0.062-0.188,0.188-0.094
	c0.156,0.312,0.484,0.469,0.984,0.469c0.312,0,0.859-0.078,1.641-0.234c0.719-0.094,1.828-0.25,3.328-0.469
	c0.125-0.094,0.234-0.203,0.328-0.328c0.125,0.062,0.344,0.234,0.656,0.516c0.219,0.188,0.328,0.312,0.328,0.375
	c0,0.156-0.078,0.219-0.234,0.188c-0.25,0-0.453,0.062-0.609,0.188c-0.75,0.688-1.469,1.266-2.156,1.734
	c0.25,0.125,0.172,0.234-0.234,0.328c0,1.344,0,2.609,0,3.797c0,0.406,0.031,0.812,0.094,1.219c0.031,0.188-0.062,0.281-0.281,0.281
	c-0.156,0-0.281-0.078-0.375-0.234c-0.125-0.188-0.188-0.312-0.188-0.375c0.062-0.156,0.109-0.359,0.141-0.609
	c0-1.281,0-2.578,0-3.891c-1.875,1.219-3.625,2.078-5.25,2.578C67.797,111.982,67.781,111.92,67.906,111.826z M71.938,103.951
	c-0.094-0.094-0.047-0.141,0.141-0.141c0.656,0.156,1.219,0.438,1.688,0.844c0.281,0.25,0.422,0.516,0.422,0.797
	c0,0.438-0.109,0.656-0.328,0.656c-0.188,0-0.344-0.234-0.469-0.703c-0.031-0.125-0.203-0.375-0.516-0.75
	C72.719,104.467,72.406,104.232,71.938,103.951z M74.516,109.576c-0.125-0.062-0.125-0.109,0-0.141
	c0.656,0.094,1.219,0.25,1.688,0.469c0.531,0.25,0.938,0.516,1.219,0.797s0.422,0.547,0.422,0.797s-0.125,0.375-0.375,0.375
	c-0.094,0-0.25-0.156-0.469-0.469C76.562,110.779,75.734,110.17,74.516,109.576z M88.656,105.076c0,0.156-0.078,0.234-0.234,0.234
	c-0.125,0-0.219-0.031-0.281-0.094c-0.125-0.125-0.25-0.281-0.375-0.469c-0.219-0.25-0.516-0.484-0.891-0.703
	c-0.094-0.094-0.078-0.141,0.047-0.141c0.719,0.125,1.203,0.312,1.453,0.562C88.562,104.654,88.656,104.857,88.656,105.076z
	 M86.828,105.264c0.281,0.188,0.422,0.422,0.422,0.703c0,0.219-0.094,0.328-0.281,0.328c-0.125,0-0.328-0.219-0.609-0.656
	c-0.125-0.188-0.438-0.484-0.938-0.891c-0.062-0.062-0.047-0.109,0.047-0.141C85.906,104.732,86.359,104.951,86.828,105.264z
	 M82.984,106.67c0,0.219-0.125,0.328-0.375,0.328c-0.125,0-0.281-0.141-0.469-0.422c-0.344-0.5-0.891-0.828-1.641-0.984
	c-0.125-0.094-0.109-0.156,0.047-0.188c0.969,0,1.672,0.219,2.109,0.656C82.875,106.279,82.984,106.482,82.984,106.67z
	 M81.578,109.107c0,0.094-0.031,0.172-0.094,0.234s-0.141,0.094-0.234,0.094c-0.125,0-0.297-0.141-0.516-0.422
	c-0.375-0.469-0.906-0.797-1.594-0.984c-0.188-0.094-0.188-0.156,0-0.188c0.938,0,1.656,0.234,2.156,0.703
	C81.484,108.732,81.578,108.92,81.578,109.107z M82.656,112.717c-0.469,0.312-0.734,0.531-0.797,0.656s-0.141,0.188-0.234,0.188
	c-0.062,0-0.234-0.078-0.516-0.234c-0.219-0.125-0.406-0.266-0.562-0.422c-0.25-0.25-0.359-0.594-0.328-1.031
	c0-0.156,0.062-0.172,0.188-0.047c0.156,0.469,0.391,0.703,0.703,0.703c0.281,0,0.656-0.125,1.125-0.375
	c2.594-1.562,4.766-3.312,6.516-5.25c0.188-0.094,0.266-0.047,0.234,0.141C87.453,108.982,85.344,110.873,82.656,112.717z
	 M94.781,110.748c0.812-0.594,1.531-1.266,2.156-2.016c0.062-0.125,0-0.172-0.188-0.141c-0.938,0.219-1.875,0.438-2.812,0.656
	c0.344,1.375,0.688,2.719,1.031,4.031c0.031,0.125,0.109,0.453,0.234,0.984c0.062,0.25-0.016,0.375-0.234,0.375
	c-0.281,0-0.438-0.094-0.469-0.281s-0.078-0.469-0.141-0.844c-0.25-1.281-0.547-2.641-0.891-4.078
	c-1.125,0.375-1.812,0.625-2.062,0.75c-0.125,0.156-0.234,0.234-0.328,0.234c-0.156,0-0.359-0.109-0.609-0.328
	c-0.219-0.188-0.359-0.391-0.422-0.609c0.031-0.188,0.094-0.219,0.188-0.094c0.156,0.219,0.422,0.328,0.797,0.328
	c0.188,0,0.969-0.188,2.344-0.562c-0.125-0.656-0.281-1.219-0.469-1.688c-0.062-0.156-0.172-0.266-0.328-0.328
	s-0.297-0.094-0.422-0.094c-0.125-0.062-0.125-0.125,0-0.188c0.406-0.094,0.719-0.109,0.938-0.047
	c0.438,0.125,0.656,0.25,0.656,0.375c0,0.094-0.031,0.141-0.094,0.141c-0.062,0.062-0.078,0.188-0.047,0.375
	c0.062,0.406,0.141,0.828,0.234,1.266c1.031-0.25,2.047-0.5,3.047-0.75c0.125-0.094,0.234-0.203,0.328-0.328
	c0.344,0.156,0.641,0.328,0.891,0.516c0.125,0.094,0.188,0.188,0.188,0.281s-0.109,0.125-0.328,0.094
	c-0.188,0-0.328,0.062-0.422,0.188c-0.844,0.812-1.734,1.469-2.672,1.969C94.719,110.904,94.688,110.842,94.781,110.748z
	 M108.094,109.295c-1.375-0.031-2.609-0.031-3.703,0c-0.875,0.031-1.812,0.078-2.812,0.141c-0.562,0.031-0.875,0.078-0.938,0.141
	c-0.125,0.125-0.234,0.188-0.328,0.188c-0.031,0-0.141-0.094-0.328-0.281c-0.219-0.219-0.375-0.422-0.469-0.609
	c-0.156-0.312-0.219-0.609-0.188-0.891c0.062-0.125,0.125-0.141,0.188-0.047c0.156,0.438,0.328,0.703,0.516,0.797
	s0.438,0.141,0.75,0.141c0.938,0,2.203-0.016,3.797-0.047s2.594-0.062,3-0.094c0.344-0.031,0.547-0.078,0.609-0.141
	c0.094-0.094,0.188-0.141,0.281-0.141c0.281,0,0.531,0.109,0.75,0.328s0.328,0.344,0.328,0.375c0.062,0.188-0.031,0.266-0.281,0.234
	C108.859,109.326,108.469,109.295,108.094,109.295z"/>
<path fill="#757575" d="M10.125,138.543l0.891,0.234c0.281,0.094,0.203,0.203-0.234,0.328l-0.234,2.016
	c0.406,0.562,0.844,1.016,1.312,1.359v-4.828H9.281v-0.281h2.391v-1.781H9.75v-0.281h1.922v-1.828l0.797,0.141
	c0.25,0.156,0.188,0.266-0.188,0.328v1.359h1.125l0.516-0.516l0.656,0.469c0.188,0.156,0.188,0.266,0,0.328h-2.297v1.781h1.312
	l0.516-0.516l0.656,0.469c0.188,0.156,0.188,0.266,0,0.328h-2.297v2.297h1.172l0.516-0.516l0.656,0.469
	c0.188,0.156,0.188,0.266,0,0.328h-2.344v2.531c0.656,0.344,1.359,0.516,2.109,0.516h5.344c-0.188,0.062-0.359,0.25-0.516,0.562
	h-5.062c-1.531,0-2.828-0.797-3.891-2.391c-0.219,0.844-0.609,1.641-1.172,2.391c-0.125,0.094-0.188,0.062-0.188-0.094
	c0.688-1.188,1.031-2.625,1.031-4.312V138.543z M18.234,137.605h-2.203v3.703c0,0.125,0.062,0.188,0.188,0.188H18
	c0.312,0,0.484-0.109,0.516-0.328l0.281-1.453c0.062-0.062,0.109-0.062,0.141,0v1.453c0,0.156,0.062,0.266,0.188,0.328
	c0.219,0.094,0.219,0.234,0,0.422c-0.094,0.094-0.375,0.141-0.844,0.141h-2.297c-0.375,0-0.562-0.188-0.562-0.562v-4.5l0.703,0.328
	h2.109v-2.672h-3.141v-0.281h3l0.281-0.375l0.656,0.469c0.188,0.156,0.125,0.266-0.188,0.328v3.281
	c-0.406,0.375-0.609,0.391-0.609,0.047V137.605z M22.125,138.027h2.578c-0.125-0.062-0.188-0.219-0.188-0.469
	c0-0.5-0.203-0.969-0.609-1.406h-2.719v-0.281h3.844v-2.391l0.797,0.141c0.25,0.156,0.188,0.266-0.188,0.328v1.922h1.172v-2.391
	l0.797,0.141c0.25,0.156,0.188,0.266-0.188,0.328v1.922h0.797l1.312-2.062l0.562,0.469c0.25,0.219,0.141,0.312-0.328,0.281
	l-1.312,1.312h1.828l0.609-0.609l0.75,0.562c0.188,0.156,0.188,0.266,0,0.328h-3.516l0.469,0.422c0.125,0.188,0,0.25-0.375,0.188
	l-0.891,1.266h2.391l0.609-0.609l0.75,0.562c0.188,0.156,0.188,0.266,0,0.328h-4.453v1.031h2.297l0.609-0.609l0.75,0.562
	c0.188,0.156,0.188,0.266,0,0.328h-3.656v1.031h3.703l0.609-0.609l0.75,0.562c0.188,0.156,0.188,0.266,0,0.328h-4.922
	c1.5,1.281,3.234,2.031,5.203,2.25c-0.531,0.25-0.812,0.516-0.844,0.797c-2.062-0.719-3.562-1.688-4.5-2.906v2.859
	c-0.406,0.375-0.609,0.391-0.609,0.047v-2.766c-1.438,1.344-3,2.359-4.688,3.047c-0.188,0.062-0.219,0-0.094-0.188
	c1.656-0.844,3.047-1.891,4.172-3.141h-4.172v-0.281h4.781v-1.031h-3.234v-0.281h3.234v-1.031h-3.891V138.027z M25.172,137.652
	c0,0.188-0.062,0.312-0.188,0.375h2.062l0.703-1.875h-3.609C24.828,136.59,25.172,137.09,25.172,137.652z M23.391,135.309
	c-0.156-0.406-0.516-0.781-1.078-1.125c-0.125-0.125-0.094-0.172,0.094-0.141c1.031,0.312,1.547,0.703,1.547,1.172
	c0,0.25-0.094,0.375-0.281,0.375C23.547,135.59,23.453,135.496,23.391,135.309z M34.219,141.215c0-1.375,0-2.766,0-4.172
	c0-0.5,0.016-1.016,0.047-1.547s-0.25-0.812-0.844-0.844c-0.188-0.062-0.203-0.125-0.047-0.188c0.188-0.031,0.359-0.047,0.516-0.047
	c0.375,0,0.766,0.156,1.172,0.469c0.125,0.094,0.125,0.234,0,0.422c-0.062,0.094-0.125,0.281-0.188,0.562s-0.094,0.625-0.094,1.031
	c0,1.438,0,2.859,0,4.266c0,0.562,0.094,0.953,0.281,1.172c0.281,0.312,0.75,0.469,1.406,0.469c0.906,0,1.703-0.188,2.391-0.562
	c0.75-0.406,1.578-1,2.484-1.781c0.125-0.062,0.172-0.031,0.141,0.094c-0.844,1-1.688,1.734-2.531,2.203
	c-0.719,0.406-1.578,0.609-2.578,0.609c-0.719,0-1.281-0.219-1.688-0.656C34.375,142.371,34.219,141.871,34.219,141.215z
	 M47.531,136.293c-0.688,0.156-1.484,0.312-2.391,0.469c-0.656,2.25-1.312,4.469-1.969,6.656c-0.062,0.188-0.172,0.234-0.328,0.141
	c-0.094-0.062-0.156-0.172-0.188-0.328c-0.094-0.344-0.094-0.578,0-0.703c0.188-0.312,0.359-0.672,0.516-1.078
	c0.531-1.5,1.031-3.031,1.5-4.594c-0.75,0.094-1.312,0.172-1.688,0.234c-0.188,0.094-0.344,0.078-0.469-0.047
	c-0.094-0.094-0.203-0.219-0.328-0.375c-0.094-0.125-0.141-0.266-0.141-0.422c0.031-0.156,0.078-0.188,0.141-0.094
	c0.219,0.312,0.531,0.469,0.938,0.469c0.562,0,1.109-0.047,1.641-0.141c0.281-0.719,0.438-1.281,0.469-1.688
	c0-0.156-0.047-0.281-0.141-0.375c-0.156-0.125-0.344-0.203-0.562-0.234c-0.219,0-0.234-0.062-0.047-0.188
	c0.156-0.031,0.328-0.047,0.516-0.047c0.25,0,0.594,0.156,1.031,0.469c0.219,0.156,0.219,0.297,0,0.422
	c-0.156,0.094-0.406,0.609-0.75,1.547c0.625-0.125,1.203-0.344,1.734-0.656c0.094-0.094,0.203-0.141,0.328-0.141
	s0.266,0.094,0.422,0.281C47.922,136.09,47.844,136.23,47.531,136.293z M46.219,138.027c0.625-0.375,1.328-0.641,2.109-0.797
	s1.453-0.203,2.016-0.141c0.312,0.031,0.469,0.156,0.469,0.375c0,0.188-0.125,0.281-0.375,0.281c-1.094,0-2.062,0.359-2.906,1.078
	c-0.156,0.094-0.188,0.062-0.094-0.094c0.25-0.312,0.688-0.625,1.312-0.938c0.25-0.125,0.219-0.188-0.094-0.188
	c-0.562,0-1.344,0.188-2.344,0.562C46.156,138.23,46.125,138.184,46.219,138.027z M46.266,140.699c0.125-0.25,0.188-0.25,0.188,0
	c-0.031,0.25-0.047,0.422-0.047,0.516c0,0.375,0.141,0.703,0.422,0.984c0.344,0.344,0.891,0.516,1.641,0.516
	c0.469,0,0.938,0,1.406,0c0.5,0,0.828-0.047,0.984-0.141c0.219-0.125,0.391-0.141,0.516-0.047c0.219,0.156,0.344,0.266,0.375,0.328
	c0.125,0.25,0,0.375-0.375,0.375c-0.781,0-1.562,0-2.344,0c-1.188,0-1.984-0.203-2.391-0.609c-0.312-0.312-0.469-0.719-0.469-1.219
	C46.172,141.121,46.203,140.887,46.266,140.699z M57.594,135.496c0.281,0.156,0.547,0.359,0.797,0.609
	c0.219,0.219,0.172,0.359-0.141,0.422c-0.781,2.219-1.547,3.859-2.297,4.922c-0.188,0.281-0.391,0.5-0.609,0.656
	c-0.344,0.25-0.578,0.219-0.703-0.094c-0.406-0.125-0.703-0.359-0.891-0.703c-0.25-0.438-0.375-0.953-0.375-1.547
	c0-1.25,0.391-2.266,1.172-3.047c1.031-1.031,2.281-1.547,3.75-1.547c1.562,0,2.781,0.438,3.656,1.312
	c0.625,0.625,0.938,1.406,0.938,2.344c0,0.844-0.297,1.594-0.891,2.25c-0.844,0.938-2.109,1.547-3.797,1.828
	c-0.125-0.062-0.125-0.125,0-0.188c1.406-0.344,2.484-0.953,3.234-1.828c0.5-0.594,0.75-1.297,0.75-2.109
	c0-0.844-0.219-1.516-0.656-2.016C60.656,135.762,59.344,135.34,57.594,135.496z M55.391,141.402
	c0.906-1.375,1.625-3.047,2.156-5.016c0.094-0.375,0.016-0.656-0.234-0.844c-0.812,0.125-1.531,0.5-2.156,1.125
	c-0.812,0.812-1.219,1.766-1.219,2.859c0,0.938,0.172,1.578,0.516,1.922c0.156,0.156,0.312,0.234,0.469,0.234
	C55.047,141.684,55.203,141.59,55.391,141.402z M71.453,135.215c0.5-0.094,0.844-0.219,1.031-0.375s0.391-0.156,0.609,0
	c0.344,0.25,0.531,0.391,0.562,0.422c0.156,0.156,0.125,0.266-0.094,0.328c-1.938-0.062-3.328,0.328-4.172,1.172
	c-0.812,0.812-1.219,1.625-1.219,2.438c0,0.938,0.312,1.719,0.938,2.344c0.656,0.656,1.406,1,2.25,1.031
	c0.312,0,0.516,0.062,0.609,0.188c0.125,0.156,0.188,0.297,0.188,0.422c0,0.156-0.125,0.234-0.375,0.234
	c-0.875,0-1.719-0.328-2.531-0.984c-0.969-0.781-1.453-1.812-1.453-3.094c0-1.188,0.609-2.266,1.828-3.234
	c0.156-0.125,0.156-0.188,0-0.188c-0.969,0.188-1.891,0.375-2.766,0.562c-0.375,0.062-0.75,0.188-1.125,0.375
	c-0.281,0.125-0.469,0.172-0.562,0.141c-0.156-0.031-0.312-0.109-0.469-0.234c-0.344-0.25-0.531-0.516-0.562-0.797
	c0.062-0.219,0.125-0.234,0.188-0.047c0.156,0.281,0.484,0.406,0.984,0.375c0.25,0,0.672-0.062,1.266-0.188
	C68.203,135.824,69.828,135.527,71.453,135.215z M73.047,138.355c0.062,0.25,0,0.406-0.188,0.469s-0.328-0.016-0.422-0.234
	c-0.219-0.5-0.625-0.938-1.219-1.312c-0.062-0.094-0.047-0.125,0.047-0.094c0.531,0.094,1,0.297,1.406,0.609
	C72.859,137.949,72.984,138.137,73.047,138.355z M73.656,137.84c-0.219-0.5-0.625-0.938-1.219-1.312
	c-0.062-0.094-0.047-0.125,0.047-0.094c0.531,0.094,1,0.297,1.406,0.609c0.188,0.156,0.312,0.344,0.375,0.562
	c0.062,0.25,0,0.406-0.188,0.469S73.75,138.059,73.656,137.84z M79.078,139.902c-0.156,0-0.188-0.062-0.094-0.188
	c1.219-0.781,2.172-1.578,2.859-2.391c-0.469-0.562-0.891-1.438-1.266-2.625h-1.312v-0.281h4.5l0.422-0.422l0.75,0.609
	c0.125,0.219,0,0.312-0.375,0.281c-0.594,0.906-1.234,1.719-1.922,2.438c1.125,0.844,2.203,1.359,3.234,1.547
	c-0.5,0.25-0.75,0.5-0.75,0.75c-1.156-0.531-2.125-1.172-2.906-1.922C81.344,138.574,80.297,139.309,79.078,139.902z
	 M82.219,136.949c0.719-0.812,1.25-1.562,1.594-2.25h-2.906C81.312,135.699,81.75,136.449,82.219,136.949z M79.359,141.777
	c0,0.25-0.094,0.375-0.281,0.375c-0.156,0-0.266-0.172-0.328-0.516c-0.125-0.656-0.359-1.188-0.703-1.594
	c-0.062-0.156,0-0.188,0.188-0.094c0.406,0.281,0.719,0.641,0.938,1.078C79.297,141.277,79.359,141.527,79.359,141.777z
	 M76.266,135.73c0.344,0.312,0.516,0.578,0.516,0.797c0,0.281-0.094,0.422-0.281,0.422c-0.156,0-0.281-0.141-0.375-0.422
	c-0.188-0.5-0.469-0.906-0.844-1.219c-0.125-0.156-0.094-0.203,0.094-0.141c0.344,0.156,0.594,0.312,0.75,0.469l0.844-2.25
	l0.844,0.516c0.25,0.188,0.125,0.266-0.375,0.234L76.266,135.73z M75,143.605c0.344-1.094,0.578-2.328,0.703-3.703l0.938,0.281
	c0.188,0.094,0.078,0.188-0.328,0.281c-0.312,1.312-0.688,2.391-1.125,3.234C75.062,143.793,75,143.762,75,143.605z M74.906,138.496
	l1.688-0.047l1.781-3.75l0.891,0.562c0.156,0.25,0,0.328-0.469,0.234l-1.969,2.953l1.828-0.141
	c-0.125-0.312-0.312-0.594-0.562-0.844c-0.062-0.156,0-0.188,0.188-0.094c0.25,0.094,0.516,0.281,0.797,0.562
	c0.25,0.25,0.375,0.531,0.375,0.844c0,0.281-0.078,0.422-0.234,0.422c-0.125,0-0.219-0.078-0.281-0.234s-0.125-0.297-0.188-0.422
	l-1.125,0.188v5.344c-0.406,0.375-0.609,0.391-0.609,0.047v-5.297l-1.406,0.188c-0.062,0.406-0.172,0.5-0.328,0.281L74.906,138.496z
	 M82.453,140.793h1.594l0.609-0.609l0.75,0.562c0.188,0.156,0.188,0.266,0,0.328h-2.953v2.438h1.875l0.703-0.703l0.891,0.656
	c0.188,0.156,0.188,0.266,0,0.328h-7.688v-0.281h3.609v-2.438h-2.203v-0.281h2.203v-2.156l0.797,0.141
	c0.25,0.156,0.188,0.266-0.188,0.328V140.793z M87.984,135.59c0.062-0.219,0.141-0.219,0.234,0c0.031,0.125,0.062,0.328,0.094,0.609
	h5.766l1.031-2.719l0.656,0.328c0.375,0.188,0.312,0.312-0.188,0.375l-1.219,2.016h1.781l0.422-0.562l0.891,0.75
	c0.344,0.25,0.266,0.375-0.234,0.375c-0.281,0.031-0.516,0.141-0.703,0.328l-0.562,0.609c-0.125,0.094-0.172,0.062-0.141-0.094
	l0.422-1.125h-7.922c0,0.375-0.047,0.734-0.141,1.078c-0.094,0.375-0.297,0.562-0.609,0.562c-0.219,0-0.328-0.109-0.328-0.328
	c0-0.156,0.094-0.344,0.281-0.562C87.922,136.73,88.078,136.184,87.984,135.59z M88.922,133.809c1.094,0.469,1.641,0.969,1.641,1.5
	c0,0.281-0.125,0.422-0.375,0.422c-0.125,0-0.219-0.109-0.281-0.328c-0.156-0.531-0.516-1.016-1.078-1.453
	C88.672,133.824,88.703,133.777,88.922,133.809z M92.812,134.934c0,0.281-0.109,0.422-0.328,0.422c-0.156,0-0.281-0.172-0.375-0.516
	c-0.125-0.438-0.438-0.859-0.938-1.266c-0.156-0.125-0.125-0.172,0.094-0.141c0.375,0.094,0.734,0.281,1.078,0.562
	C92.656,134.246,92.812,134.559,92.812,134.934z M89.625,143.23v0.797c-0.406,0.375-0.609,0.391-0.609,0.047v-3.562l0.703,0.375
	h1.828l0.234-1.219h-1.125v0.375c-0.406,0.375-0.609,0.391-0.609,0.047v-2.953l0.703,0.422h3.281l0.281-0.375l0.656,0.469
	c0.188,0.156,0.125,0.266-0.188,0.328v1.922c-0.406,0.375-0.609,0.391-0.609,0.047v-0.281h-1.641l-0.703,1.219h3.375l0.281-0.375
	l0.656,0.469c0.188,0.156,0.125,0.266-0.188,0.328v2.484c-0.406,0.375-0.609,0.391-0.609,0.047v-0.609H89.625z M95.344,141.168
	h-5.719v1.781h5.719V141.168z M94.172,139.387v-1.547h-3.516v1.547H94.172z M106.547,138.965l0.281-0.375l0.656,0.469
	c0.188,0.156,0.125,0.266-0.188,0.328v4.219c-0.406,0.375-0.609,0.391-0.609,0.047v-0.328h-3.984v0.609
	c-0.406,0.375-0.609,0.391-0.609,0.047v-4.266c-1.031,0.625-2.094,1.125-3.188,1.5c-0.219,0-0.25-0.078-0.094-0.234
	c1.5-0.688,2.594-1.297,3.281-1.828v-0.703l0.516,0.375c0.625-0.406,1.25-0.891,1.875-1.453h-5.203v-0.281h4.219v-1.641h-3.422
	v-0.281h3.422v-1.781l0.797,0.141c0.25,0.156,0.188,0.266-0.188,0.328v1.312h0.844l0.609-0.609l0.891,0.703
	c0.438-0.531,0.812-1.031,1.125-1.5l0.844,0.656c0.344,0.25,0.141,0.328-0.609,0.234c-0.781,1-1.516,1.812-2.203,2.438h2.672
	l0.703-0.703l0.891,0.656c0.188,0.156,0.188,0.266,0,0.328h-4.547c-0.625,0.594-1.297,1.125-2.016,1.594H106.547z M104.766,137.09
	c0.531-0.5,1.047-1.047,1.547-1.641h-2.203v1.641H104.766z M102.703,140.934h3.984v-1.688h-3.984V140.934z M102.703,143.043h3.984
	v-1.828h-3.984V143.043z"/>
<path fill="#757575" d="M88.125,165.213c0.031-0.188,0.094-0.188,0.188,0c0.031,0.125,0.062,0.281,0.094,0.469h5.625
	c0.5-0.875,0.906-1.703,1.219-2.484l0.703,0.375c0.594,0.281,0.516,0.438-0.234,0.469c-0.5,0.594-1,1.141-1.5,1.641h2.391
	l0.281-0.375l0.984,0.984c0.25,0.25,0.062,0.328-0.562,0.234l-1.031,0.656c-0.188,0.156-0.25,0.125-0.188-0.094l0.656-1.125h-8.297
	c-0.031,0.656-0.156,1.141-0.375,1.453c-0.156,0.219-0.312,0.328-0.469,0.328c-0.281,0-0.422-0.109-0.422-0.328
	c0-0.125,0.094-0.281,0.281-0.469C87.906,166.51,88.125,165.932,88.125,165.213z M91.312,163.01c0.938,0.375,1.406,0.875,1.406,1.5
	c0,0.281-0.094,0.422-0.281,0.422c-0.156,0-0.266-0.094-0.328-0.281c-0.156-0.594-0.453-1.078-0.891-1.453
	C91,163.01,91.031,162.947,91.312,163.01z M88.828,163.432c1,0.375,1.5,0.828,1.5,1.359c0,0.312-0.125,0.469-0.375,0.469
	c-0.094,0-0.172-0.109-0.234-0.328c-0.219-0.625-0.531-1.062-0.938-1.312C88.688,163.494,88.703,163.432,88.828,163.432z
	 M92.953,170.041h3.375l0.703-0.703l0.891,0.656c0.188,0.156,0.188,0.266,0,0.328h-4.969v2.391c0,0.375-0.109,0.656-0.328,0.844
	s-0.406,0.281-0.562,0.281c-0.188,0-0.281-0.094-0.281-0.281c0-0.125-0.078-0.234-0.234-0.328l-0.75-0.141
	c-0.156-0.062-0.156-0.125,0-0.188h1.125c0.281,0,0.422-0.141,0.422-0.422v-2.156h-4.875v-0.281h4.875v-1.359l0.609,0.328
	l1.266-1.266h-4.781v-0.281h4.922l0.375-0.375l0.75,0.75c0.188,0.188,0,0.25-0.562,0.188l-1.969,1.172V170.041z M99.234,169.385
	c1.281-1.656,2.141-3.516,2.578-5.578l1.031,0.281c0.344,0.125,0.203,0.266-0.422,0.422c-0.188,0.562-0.406,1.109-0.656,1.641h2.484
	v-2.953l0.797,0.141c0.25,0.156,0.188,0.266-0.188,0.328v2.484h2.812l0.609-0.609l0.75,0.562c0.188,0.156,0.188,0.266,0,0.328
	h-4.172v2.766h2.203l0.609-0.609l0.75,0.562c0.188,0.156,0.188,0.266,0,0.328h-3.562v3.281h3.328l0.703-0.703l0.891,0.656
	c0.188,0.156,0.188,0.266,0,0.328H99.375v-0.281h4.875v-3.281h-2.906v-0.281h2.906v-2.766h-2.625
	c-0.656,1.25-1.406,2.281-2.25,3.094C99.219,169.588,99.172,169.541,99.234,169.385z"/>
<path fill="#757575" d="M10.312,196.194c-0.188-0.406-0.594-0.828-1.219-1.266c-0.094-0.125-0.062-0.188,0.094-0.188
	c0.406,0.094,0.766,0.25,1.078,0.469l1.078-2.438l0.703,0.469c0.25,0.188,0.125,0.266-0.375,0.234l-1.219,1.875
	c0.375,0.281,0.562,0.578,0.562,0.891c0,0.281-0.094,0.422-0.281,0.422C10.609,196.663,10.469,196.507,10.312,196.194z
	 M18.469,202.054h0.234l0.609-0.609l0.75,0.562c0.188,0.156,0.188,0.266,0,0.328h-7.266v-0.281h1.734v-8.578l0.703,0.422h2.484
	L18,193.522l0.656,0.469c0.188,0.156,0.125,0.266-0.188,0.328V202.054z M15.141,196.522h2.719v-2.344h-2.719V196.522z
	 M15.141,196.804v2.203h2.719v-2.203H15.141z M15.141,199.288v2.766h2.719v-2.766H15.141z M12.609,194.226l0.656,0.375
	c0.25,0.188,0.141,0.312-0.328,0.375l-1.969,2.953l1.828-0.094c-0.156-0.281-0.375-0.531-0.656-0.75
	c-0.094-0.125-0.062-0.172,0.094-0.141c1,0.438,1.5,0.938,1.5,1.5c0,0.281-0.094,0.422-0.281,0.422
	c-0.125,0-0.203-0.078-0.234-0.234c-0.094-0.219-0.203-0.406-0.328-0.562l-1.172,0.141v4.828c-0.406,0.375-0.609,0.391-0.609,0.047
	v-4.781l-1.266,0.328c-0.125,0.312-0.25,0.375-0.375,0.188l-0.516-0.844h1.688L12.609,194.226z M10.641,199.569
	c0.25,0.188,0.141,0.312-0.328,0.375c-0.312,1.281-0.766,2.234-1.359,2.859c-0.125,0.094-0.188,0.062-0.188-0.094
	c0.469-0.844,0.812-2,1.031-3.469L10.641,199.569z M12.234,199.241c0.938,0.406,1.406,0.953,1.406,1.641
	c0,0.25-0.094,0.375-0.281,0.375c-0.156,0-0.266-0.172-0.328-0.516c-0.125-0.438-0.422-0.875-0.891-1.312
	C12.047,199.304,12.078,199.241,12.234,199.241z M28.031,196.616c-0.719,2.094-1.938,3.656-3.656,4.688
	c-0.156,0-0.188-0.062-0.094-0.188c1.656-1.281,2.703-3.031,3.141-5.25l0.656,0.281c-0.062-0.688-0.094-1.391-0.094-2.109H25.5
	v-0.281h2.297l0.234-0.422l0.797,0.422c0.219,0.156,0.125,0.266-0.281,0.328l-0.234,0.141c0,1.25,0.203,2.312,0.609,3.188
	c0.688,1.375,1.688,2.406,3,3.094c-0.406,0.062-0.688,0.25-0.844,0.562c-1.438-1.094-2.406-2.578-2.906-4.453H28.031z
	 M22.969,194.788c-0.219-0.469-0.688-0.891-1.406-1.266c-0.094-0.094-0.062-0.141,0.094-0.141c1.312,0.312,1.969,0.766,1.969,1.359
	c0,0.25-0.094,0.375-0.281,0.375C23.188,195.116,23.062,195.007,22.969,194.788z M22.828,197.647h-1.688v-0.281h1.547l0.281-0.375
	l0.656,0.469c0.188,0.156,0.125,0.266-0.188,0.328v3.328c0.781,0.844,1.828,1.266,3.141,1.266h5.109
	c-0.188,0.062-0.375,0.25-0.562,0.562h-4.172c-1.625,0-2.891-0.578-3.797-1.734l-1.125,1.125c0.094,0.438,0.016,0.562-0.234,0.375
	l-0.562-0.609l1.594-0.938V197.647z M43.547,200.507c-0.094,0-0.219-0.047-0.375-0.141c-0.469-0.25-1.172-0.562-2.109-0.938
	c-0.75,1.906-1.766,3.172-3.047,3.797c-0.156,0.062-0.203,0.031-0.141-0.094c1.188-0.906,2.078-2.203,2.672-3.891
	c-1.281-0.438-2.531-0.672-3.75-0.703c-0.5,1.094-0.953,1.844-1.359,2.25c-0.344,0.344-0.719,0.516-1.125,0.516
	c-0.312,0-0.547-0.078-0.703-0.234c-0.188-0.188-0.281-0.438-0.281-0.75c0-0.281,0.125-0.562,0.375-0.844
	c0.594-0.656,1.5-1.062,2.719-1.219c0.469-1.062,0.984-2.375,1.547-3.938c0.062-0.156,0.016-0.234-0.141-0.234
	c-0.531,0.188-1.047,0.359-1.547,0.516c-0.344,0.094-0.578,0.203-0.703,0.328c-0.188,0.156-0.359,0.141-0.516-0.047
	c-0.375-0.438-0.562-0.781-0.562-1.031c-0.031-0.156,0.016-0.188,0.141-0.094c0.188,0.375,0.422,0.562,0.703,0.562
	c0.156,0,0.359-0.031,0.609-0.094c0.719-0.156,1.438-0.328,2.156-0.516l0.188-0.234c0.344,0.094,0.594,0.219,0.75,0.375
	s0.094,0.281-0.188,0.375c-0.156,0.062-0.312,0.266-0.469,0.609c-0.469,1.156-0.953,2.281-1.453,3.375
	c1.375,0.031,2.625,0.219,3.75,0.562c0.094-0.188,0.203-0.531,0.328-1.031c0.031-0.125,0.062-0.375,0.094-0.75
	s-0.141-0.625-0.516-0.75c-0.188-0.062-0.188-0.125,0-0.188c0.5,0,0.984,0.203,1.453,0.609c0.219,0.188,0.219,0.328,0,0.422
	c-0.188,0.062-0.328,0.266-0.422,0.609c-0.156,0.531-0.297,0.938-0.422,1.219c1.375,0.438,2.156,0.719,2.344,0.844
	c0.156,0.094,0.234,0.25,0.234,0.469C43.781,200.413,43.703,200.507,43.547,200.507z M36.281,198.585
	c-1,0.219-1.719,0.547-2.156,0.984c-0.25,0.25-0.375,0.531-0.375,0.844c0,0.406,0.188,0.609,0.562,0.609
	c0.281,0,0.562-0.141,0.844-0.422C35.406,200.351,35.781,199.679,36.281,198.585z M50.438,194.132
	c-1.594,0.188-3.188,0.328-4.781,0.422c-0.344-0.062-0.344-0.156,0-0.281c3.062-0.312,5.766-0.734,8.109-1.266l0.656,0.516
	c0.125,0.188,0.031,0.266-0.281,0.234s-0.578-0.031-0.797,0c-0.406,0.062-1.047,0.156-1.922,0.281l-2.25,2.438
	c0.312,0.344,0.469,0.641,0.469,0.891c0,0.344-0.125,0.516-0.375,0.516c-0.094,0-0.203-0.156-0.328-0.469
	c-0.25-0.656-0.734-1.203-1.453-1.641c-0.156-0.094-0.125-0.141,0.094-0.141c0.531,0.125,1,0.359,1.406,0.703L50.438,194.132z
	 M52.125,199.991c-0.094-0.062-0.062-0.109,0.094-0.141c0.906,0.312,1.625,0.734,2.156,1.266c0.469,0.469,0.703,0.875,0.703,1.219
	c0,0.219-0.109,0.328-0.328,0.328c-0.125,0-0.25-0.109-0.375-0.328C53.812,201.335,53.062,200.554,52.125,199.991z M54.703,198.257
	c0.344,0.344,0.516,0.672,0.516,0.984c0,0.281-0.094,0.422-0.281,0.422c-0.156,0-0.266-0.094-0.328-0.281
	c-0.125-0.312-0.266-0.562-0.422-0.75l-3.469,0.281v4.219c-0.406,0.375-0.609,0.391-0.609,0.047v-4.219l-3.562,0.375
	c-0.125,0.406-0.234,0.516-0.328,0.328l-0.703-0.984l4.078-0.047l3.234-3.844l0.656,0.516c0.375,0.219,0.25,0.312-0.375,0.281
	l-3.141,3l4.078-0.188c-0.281-0.375-0.609-0.719-0.984-1.031c-0.156-0.125-0.125-0.172,0.094-0.141
	C53.781,197.507,54.297,197.851,54.703,198.257z M49.031,200.46c0.188,0.25,0,0.328-0.562,0.234c-1,1.062-2,1.797-3,2.203
	c-0.219,0.062-0.25,0-0.094-0.188c1-0.688,1.938-1.641,2.812-2.859L49.031,200.46z M65.625,196.147
	c-0.844-0.156-2.109-0.172-3.797-0.047c0.25,0.125,0.484,0.25,0.703,0.375s0.328,0.234,0.328,0.328c0,0.125-0.094,0.203-0.281,0.234
	c-0.031,0.938-0.062,1.859-0.094,2.766c1.594-0.031,2.562-0.047,2.906-0.047c0.281-0.031,0.516-0.125,0.703-0.281
	c0.219,0.062,0.453,0.188,0.703,0.375s0.375,0.344,0.375,0.469s-0.109,0.156-0.328,0.094c-0.531-0.125-1.047-0.188-1.547-0.188
	c-2.031-0.156-4.156-0.031-6.375,0.375c-0.281,0.031-0.469,0.078-0.562,0.141c-0.062,0.094-0.172,0.141-0.328,0.141
	c-0.094,0-0.266-0.109-0.516-0.328s-0.422-0.453-0.516-0.703c0-0.219,0.062-0.25,0.188-0.094c0.219,0.219,0.5,0.328,0.844,0.328
	c0.75,0.031,2.062-0.047,3.938-0.234c0-0.844,0-1.688,0-2.531c0-0.25-0.031-0.469-0.094-0.656c-0.094-0.188-0.281-0.359-0.562-0.516
	c-1.25,0.156-1.938,0.266-2.062,0.328c-0.156,0.094-0.281,0.141-0.375,0.141c-0.062,0-0.219-0.109-0.469-0.328
	c-0.281-0.25-0.422-0.484-0.422-0.703c0.031-0.156,0.078-0.188,0.141-0.094c0.188,0.281,0.484,0.422,0.891,0.422h0.938
	c1.375-0.125,2.859-0.234,4.453-0.328c0.25-0.094,0.453-0.172,0.609-0.234c0.25,0.094,0.469,0.219,0.656,0.375
	c0.156,0.125,0.234,0.234,0.234,0.328S65.812,196.179,65.625,196.147z M68.422,200.226c0.219,0.531,0.5,0.797,0.844,0.797
	c0.375,0,1.391-0.531,3.047-1.594s3.312-2.391,4.969-3.984c0.219-0.094,0.281-0.031,0.188,0.188
	c-2.156,2.406-4.703,4.422-7.641,6.047c-0.031,0.125-0.062,0.219-0.094,0.281s-0.094,0.094-0.188,0.094
	c-0.125,0-0.375-0.172-0.75-0.516c-0.438-0.406-0.625-0.812-0.562-1.219C68.234,200.163,68.297,200.132,68.422,200.226z
	 M70.625,196.194c0,0.312-0.156,0.469-0.469,0.469c-0.188,0-0.328-0.203-0.422-0.609c-0.062-0.25-0.266-0.562-0.609-0.938
	c-0.188-0.188-0.453-0.406-0.797-0.656c-0.156-0.125-0.125-0.172,0.094-0.141c0.812,0.25,1.391,0.562,1.734,0.938
	C70.469,195.601,70.625,195.913,70.625,196.194z M87.656,193.804c0,0.156-0.078,0.234-0.234,0.234c-0.125,0-0.219-0.031-0.281-0.094
	c-0.125-0.125-0.25-0.281-0.375-0.469c-0.219-0.25-0.516-0.484-0.891-0.703c-0.094-0.094-0.078-0.141,0.047-0.141
	c0.719,0.125,1.203,0.312,1.453,0.562C87.562,193.382,87.656,193.585,87.656,193.804z M85.828,193.991
	c0.281,0.188,0.422,0.422,0.422,0.703c0,0.219-0.094,0.328-0.281,0.328c-0.125,0-0.328-0.219-0.609-0.656
	c-0.125-0.188-0.438-0.484-0.938-0.891c-0.062-0.062-0.047-0.109,0.047-0.141C84.906,193.46,85.359,193.679,85.828,193.991z
	 M81.984,195.397c0,0.219-0.125,0.328-0.375,0.328c-0.125,0-0.281-0.141-0.469-0.422c-0.344-0.5-0.891-0.828-1.641-0.984
	c-0.125-0.094-0.109-0.156,0.047-0.188c0.969,0,1.672,0.219,2.109,0.656C81.875,195.007,81.984,195.21,81.984,195.397z
	 M80.578,197.835c0,0.094-0.031,0.172-0.094,0.234s-0.141,0.094-0.234,0.094c-0.125,0-0.297-0.141-0.516-0.422
	c-0.375-0.469-0.906-0.797-1.594-0.984c-0.188-0.094-0.188-0.156,0-0.188c0.938,0,1.656,0.234,2.156,0.703
	C80.484,197.46,80.578,197.647,80.578,197.835z M81.656,201.444c-0.469,0.312-0.734,0.531-0.797,0.656s-0.141,0.188-0.234,0.188
	c-0.062,0-0.234-0.078-0.516-0.234c-0.219-0.125-0.406-0.266-0.562-0.422c-0.25-0.25-0.359-0.594-0.328-1.031
	c0-0.156,0.062-0.172,0.188-0.047c0.156,0.469,0.391,0.703,0.703,0.703c0.281,0,0.656-0.125,1.125-0.375
	c2.594-1.562,4.766-3.312,6.516-5.25c0.188-0.094,0.266-0.047,0.234,0.141C86.453,197.71,84.344,199.601,81.656,201.444z
	 M98.281,200.226c-0.469-0.094-0.906-0.141-1.312-0.141c-2.125-0.031-4.125,0.141-6,0.516c-0.281,0.062-0.5,0.141-0.656,0.234
	c-0.094,0.125-0.172,0.188-0.234,0.188c-0.125,0-0.359-0.188-0.703-0.562c-0.25-0.281-0.375-0.516-0.375-0.703
	c0-0.156,0.062-0.188,0.188-0.094c0.188,0.312,0.516,0.469,0.984,0.469c0.594,0,2.656-0.188,6.188-0.562
	c0.281,0,0.547-0.031,0.797-0.094c0.156-0.062,0.297-0.141,0.422-0.234c0.281,0.125,0.516,0.234,0.703,0.328
	c0.281,0.156,0.422,0.328,0.422,0.516C98.703,200.241,98.562,200.288,98.281,200.226z M90.219,195.772
	c0.156,0.281,0.516,0.422,1.078,0.422c0.406,0,1.953-0.141,4.641-0.422c0.125-0.062,0.234-0.141,0.328-0.234
	c0.344,0.094,0.641,0.219,0.891,0.375c0.156,0.094,0.234,0.219,0.234,0.375c0,0.094-0.188,0.109-0.562,0.047
	c-1.062-0.062-2.703,0.047-4.922,0.328c-0.25,0.031-0.438,0.094-0.562,0.188c-0.094,0.062-0.188,0.094-0.281,0.094
	c-0.062,0-0.156-0.047-0.281-0.141c-0.438-0.312-0.672-0.625-0.703-0.938C90.109,195.71,90.156,195.679,90.219,195.772z
	 M109.047,194.179c0.281,0.281,0.422,0.469,0.422,0.562s-0.078,0.141-0.234,0.141c-0.094,0-0.219-0.016-0.375-0.047
	c-0.688,0.438-1.938,1.172-3.75,2.203c-0.344,2.438-1.578,4.25-3.703,5.438c-0.219,0.062-0.297,0.016-0.234-0.141
	c1.938-1.312,3-3.047,3.188-5.203c0.094-0.656-0.047-1.031-0.422-1.125c-0.219-0.062-0.25-0.125-0.094-0.188
	c0.438-0.031,0.812,0.078,1.125,0.328c0.156,0.125,0.219,0.281,0.188,0.469c1.219-0.719,2.234-1.469,3.047-2.25
	c-1.938,0.094-3.562,0.25-4.875,0.469c-1.094,0.188-1.703,0.328-1.828,0.422s-0.25,0.141-0.375,0.141
	c-0.094,0-0.281-0.125-0.562-0.375c-0.312-0.281-0.469-0.531-0.469-0.75c0-0.188,0.078-0.234,0.234-0.141
	c0.188,0.312,0.594,0.453,1.219,0.422c0.75-0.031,1.453-0.094,2.109-0.188c1.656-0.188,3.094-0.281,4.312-0.281
	c0.25-0.125,0.453-0.25,0.609-0.375L109.047,194.179z"/>
<path fill="#757575" d="M94.547,228.566v3.344h-1.125v-8.531h3.156c0.927,0,1.656,0.24,2.188,0.719
	c0.531,0.469,0.797,1.1,0.797,1.891c0,0.823-0.261,1.459-0.781,1.906c-0.511,0.448-1.25,0.672-2.219,0.672H94.547z M94.547,227.645
	h2.031c0.604,0,1.062-0.141,1.375-0.422c0.323-0.281,0.484-0.688,0.484-1.219c0-0.51-0.161-0.916-0.484-1.219
	c-0.312-0.312-0.75-0.474-1.312-0.484h-2.094V227.645z M102.875,223.379l2.797,6.953l2.781-6.953h1.469v8.531h-1.125v-3.328
	l0.109-3.578l-2.812,6.906h-0.859l-2.797-6.891l0.109,3.562v3.328h-1.125v-8.531H102.875z"/>
<path fill="#757575" d="M68.125,254.033c-0.656,0.062-2.234,0.266-4.734,0.609c-0.625,0.094-1,0.203-1.125,0.328
	c-0.031,0.094-0.094,0.141-0.188,0.141s-0.297-0.141-0.609-0.422c-0.25-0.219-0.391-0.453-0.422-0.703
	c0-0.156,0.062-0.172,0.188-0.047c0.125,0.219,0.391,0.328,0.797,0.328c0.531,0,2.5-0.188,5.906-0.562
	c0.25-0.031,0.438-0.156,0.562-0.375c0.312,0.188,0.625,0.406,0.938,0.656c0.156,0.125,0.234,0.234,0.234,0.328
	c0,0.125-0.109,0.188-0.328,0.188s-0.359,0.062-0.422,0.188c-1.281,3.188-3.641,5.391-7.078,6.609c-0.156,0-0.188-0.062-0.094-0.188
	c3.312-1.438,5.5-3.703,6.562-6.797C68.406,254.096,68.344,254.002,68.125,254.033z M72.078,253.752
	c0-0.219-0.062-0.391-0.188-0.516s-0.312-0.203-0.562-0.234c-0.125-0.062-0.125-0.125,0-0.188c0.5-0.031,0.922,0.047,1.266,0.234
	c0.25,0.094,0.375,0.203,0.375,0.328c0,0.094-0.047,0.156-0.141,0.188s-0.141,0.172-0.141,0.422c0,1.25,0,2.453,0,3.609
	c0.031,0.5-0.062,0.75-0.281,0.75c-0.094,0-0.188-0.078-0.281-0.234c-0.125-0.188-0.172-0.328-0.141-0.422
	c0.031-0.219,0.062-0.484,0.094-0.797C72.078,255.924,72.078,254.877,72.078,253.752z M76.109,256.658
	c0.031,2.625-1.562,4.453-4.781,5.484c-0.188-0.062-0.203-0.156-0.047-0.281c2.844-1.125,4.25-2.859,4.219-5.203
	c0-1.219,0-2.312,0-3.281c-0.031-0.25-0.094-0.438-0.188-0.562s-0.297-0.203-0.609-0.234c-0.062-0.062-0.047-0.109,0.047-0.141
	c0.5-0.062,0.953,0,1.359,0.188c0.281,0.125,0.422,0.234,0.422,0.328c0,0.156-0.141,0.312-0.422,0.469
	C76.109,254.486,76.109,255.564,76.109,256.658z M87.094,257.174c-1.375-0.031-2.609-0.031-3.703,0
	c-0.875,0.031-1.812,0.078-2.812,0.141c-0.562,0.031-0.875,0.078-0.938,0.141c-0.125,0.125-0.234,0.188-0.328,0.188
	c-0.031,0-0.141-0.094-0.328-0.281c-0.219-0.219-0.375-0.422-0.469-0.609c-0.156-0.312-0.219-0.609-0.188-0.891
	c0.062-0.125,0.125-0.141,0.188-0.047c0.156,0.438,0.328,0.703,0.516,0.797s0.438,0.141,0.75,0.141c0.938,0,2.203-0.016,3.797-0.047
	s2.594-0.062,3-0.094c0.344-0.031,0.547-0.078,0.609-0.141c0.094-0.094,0.188-0.141,0.281-0.141c0.281,0,0.531,0.109,0.75,0.328
	s0.328,0.344,0.328,0.375c0.062,0.188-0.031,0.266-0.281,0.234C87.859,257.205,87.469,257.174,87.094,257.174z M95.062,257.596
	c-0.688-0.625-1.578-1.047-2.672-1.266c-0.688,0.75-1.453,1.422-2.297,2.016c-0.156,0-0.188-0.062-0.094-0.188
	c1.719-1.469,2.859-3.109,3.422-4.922c0.094-0.281-0.078-0.484-0.516-0.609c-0.125-0.062-0.125-0.125,0-0.188
	c0.344-0.031,0.641,0.016,0.891,0.141c0.438,0.219,0.656,0.406,0.656,0.562c0,0.094-0.047,0.141-0.141,0.141
	s-0.172,0.062-0.234,0.188c-0.094,0.188-0.203,0.406-0.328,0.656c1.031-0.062,2.047-0.141,3.047-0.234
	c0.156-0.125,0.297-0.266,0.422-0.422c0.156,0.062,0.359,0.188,0.609,0.375c0.188,0.125,0.281,0.234,0.281,0.328
	s-0.062,0.156-0.188,0.188c-0.156,0.031-0.297,0.172-0.422,0.422c-0.375,0.812-0.875,1.672-1.5,2.578
	c0.375,0.25,0.547,0.516,0.516,0.797c-0.031,0.219-0.109,0.328-0.234,0.328s-0.359-0.172-0.703-0.516
	c-1.438,1.812-3.109,3.141-5.016,3.984c-0.188,0-0.234-0.062-0.141-0.188C92.547,260.518,94.094,259.127,95.062,257.596z
	 M95.438,257.033c0.594-0.844,1.062-1.688,1.406-2.531c0.062-0.156,0.031-0.25-0.094-0.281c-1.031,0.062-1.953,0.125-2.766,0.188
	c-0.125-0.031-0.219-0.078-0.281-0.141c-0.406,0.75-0.797,1.359-1.172,1.828C93.75,256.283,94.719,256.596,95.438,257.033z
	 M108.094,257.174c-1.375-0.031-2.609-0.031-3.703,0c-0.875,0.031-1.812,0.078-2.812,0.141c-0.562,0.031-0.875,0.078-0.938,0.141
	c-0.125,0.125-0.234,0.188-0.328,0.188c-0.031,0-0.141-0.094-0.328-0.281c-0.219-0.219-0.375-0.422-0.469-0.609
	c-0.156-0.312-0.219-0.609-0.188-0.891c0.062-0.125,0.125-0.141,0.188-0.047c0.156,0.438,0.328,0.703,0.516,0.797
	s0.438,0.141,0.75,0.141c0.938,0,2.203-0.016,3.797-0.047s2.594-0.062,3-0.094c0.344-0.031,0.547-0.078,0.609-0.141
	c0.094-0.094,0.188-0.141,0.281-0.141c0.281,0,0.531,0.109,0.75,0.328s0.328,0.344,0.328,0.375c0.062,0.188-0.031,0.266-0.281,0.234
	C108.859,257.205,108.469,257.174,108.094,257.174z"/>
<path fill="#757575" d="M262.11,302.584h1.723v-12.996l-3.598,1.957v-2.449l4.945-2.766h0.938v16.254h1.746v2.016h-5.754V302.584z"
	/>
<path fill="#757575" d="M408.314,302.877l6.246-7.547c0.211-0.25,0.432-0.52,0.662-0.809s0.445-0.594,0.645-0.914
	s0.363-0.654,0.492-1.002s0.193-0.709,0.193-1.084c0-0.391-0.078-0.758-0.234-1.102s-0.371-0.645-0.645-0.902
	s-0.6-0.461-0.979-0.609s-0.795-0.223-1.248-0.223c-0.406,0-0.791,0.064-1.154,0.193s-0.682,0.318-0.955,0.568
	s-0.494,0.561-0.662,0.932s-0.26,0.799-0.275,1.283h-2.109c0.008-0.742,0.152-1.428,0.434-2.057s0.658-1.172,1.131-1.629
	s1.021-0.812,1.646-1.066s1.281-0.381,1.969-0.381c0.797,0,1.52,0.127,2.168,0.381s1.203,0.604,1.664,1.049s0.818,0.973,1.072,1.582
	s0.381,1.27,0.381,1.98c0,0.281-0.033,0.58-0.1,0.896s-0.18,0.656-0.34,1.02s-0.371,0.752-0.633,1.166s-0.592,0.859-0.99,1.336
	l-5.543,6.598h7.582v2.062h-10.418V302.877z"/>
<path fill="#757575" d="M564.434,291.475c0-0.305-0.064-0.631-0.193-0.979s-0.328-0.668-0.598-0.961s-0.609-0.535-1.02-0.727
	s-0.893-0.287-1.447-0.287c-0.461,0-0.881,0.08-1.26,0.24s-0.756,0.459-1.131,0.896s-0.578,0.922-0.609,1.453h-2.227
	c0.039-0.68,0.209-1.293,0.51-1.84s0.682-1.027,1.143-1.441s1-0.742,1.617-0.984s1.262-0.363,1.934-0.363
	c0.836,0,1.594,0.139,2.273,0.416s1.26,0.645,1.74,1.102s0.852,0.979,1.113,1.564s0.393,1.184,0.393,1.793
	c0,0.375-0.047,0.75-0.141,1.125s-0.24,0.732-0.439,1.072s-0.455,0.654-0.768,0.943s-0.691,0.543-1.137,0.762
	c0.367,0.141,0.713,0.338,1.037,0.592s0.607,0.557,0.85,0.908s0.434,0.75,0.574,1.195s0.211,0.934,0.211,1.465
	c0,0.766-0.148,1.475-0.445,2.127s-0.699,1.217-1.207,1.693s-1.104,0.85-1.787,1.119s-1.416,0.404-2.197,0.404
	c-0.719,0-1.432-0.127-2.139-0.381s-1.307-0.615-1.799-1.084s-0.855-0.957-1.09-1.465s-0.375-1.012-0.422-1.512h2.25
	c0.227,0.727,0.631,1.297,1.213,1.711s1.322,0.621,2.221,0.621c0.406,0,0.803-0.082,1.189-0.246s0.729-0.393,1.025-0.686
	s0.535-0.637,0.715-1.031s0.27-0.826,0.27-1.295c0-0.492-0.09-0.938-0.27-1.336s-0.422-0.736-0.727-1.014s-0.658-0.492-1.061-0.645
	s-0.83-0.229-1.283-0.229h-1.008v-1.77h0.82c0.516,0,0.979-0.076,1.389-0.229s0.756-0.361,1.037-0.627s0.498-0.576,0.65-0.932
	S564.434,291.881,564.434,291.475z"/>
<path fill="#757575" d="M116.941,304.811c-1.266,0-2.324-0.234-3.176-0.703s-1.533-1.113-2.045-1.934s-0.877-1.781-1.096-2.883
	s-0.328-2.285-0.328-3.551c0-1.352,0.148-2.615,0.445-3.791s0.695-2.119,1.195-2.83s1.131-1.316,1.893-1.816s1.807-0.75,3.135-0.75
	c1.258,0,2.305,0.199,3.141,0.598s1.525,1.01,2.068,1.834s0.924,1.818,1.143,2.982s0.328,2.398,0.328,3.703
	c0,1.273-0.109,2.465-0.328,3.574s-0.588,2.076-1.107,2.9s-1.209,1.475-2.068,1.951S118.214,304.811,116.941,304.811z
	 M116.941,302.725c0.914,0,1.65-0.186,2.209-0.557s0.98-0.877,1.266-1.518s0.498-1.389,0.639-2.244s0.211-1.768,0.211-2.736
	c0-0.93-0.055-1.822-0.164-2.678s-0.32-1.611-0.633-2.268s-0.75-1.18-1.312-1.57s-1.293-0.586-2.191-0.586
	c-0.93,0-1.664,0.195-2.203,0.586s-0.941,0.861-1.207,1.412s-0.475,1.307-0.627,2.268s-0.229,1.906-0.229,2.836
	c0,0.969,0.049,1.881,0.146,2.736s0.297,1.604,0.598,2.244s0.73,1.146,1.289,1.518S116.027,302.725,116.941,302.725z"/>
<path fill="none" stroke="#333333" stroke-miterlimit="10" d="M116.808,0v277"/>
</svg>
