<?xml version="1.0" encoding="utf-8"?>
<!-- Generator: Adobe Illustrator 15.0.0, SVG Export Plug-In  -->
<!DOCTYPE svg PUBLIC "-//W3C//DTD SVG 1.1//EN" "http://www.w3.org/Graphics/SVG/1.1/DTD/svg11.dtd" [
	<!ENTITY ns_flows "http://ns.adobe.com/Flows/1.0/">
]>
<svg version="1.1"
	 xmlns="http://www.w3.org/2000/svg" xmlns:xlink="http://www.w3.org/1999/xlink" xmlns:a="http://ns.adobe.com/AdobeSVGViewerExtensions/3.0/"
	 x="0px" y="0px" width="600px" height="371px" viewBox="-18.55 -54.917 600 371"
	 overflow="visible" enable-background="new -18.55 -54.917 600 371" xml:space="preserve">
<defs>
</defs>
<path fill="#CE3262" d="M144.008,91.836C167.034,36.246,221.279,0,281.45,0v148.767L144.008,91.836z"/>
<path d="M136.794,183.496c-7.334-30.549-4.809-62.634,7.214-91.659l137.442,56.931L136.794,183.496z"/>
<path fill="#00ADD8" d="M281.45,0c77.635,0,142.217,59.699,148.308,137.095c6.091,77.395-48.356,146.462-125.036,158.607
	c-76.679,12.145-149.805-36.717-167.928-112.207l144.656-34.729V0z"/>
<path fill="none" stroke="#757575" stroke-miterlimit="10" d="M0,31.256h126.684h76.248"/>
<path fill="#9E9E9E" d="M204.932,31.256c0-1.104-0.895-2-2-2c-1.104,0-2,0.896-2,2c0,1.105,0.896,2,2,2
	C204.037,33.256,204.932,32.361,204.932,31.256"/>
<path fill="none" stroke="#757575" stroke-miterlimit="10" d="M0,137.678h126.684h13.874"/>
<path fill="#9E9E9E" d="M142.558,137.678c0-1.104-0.896-2-2-2s-2,0.896-2,2s0.896,2,2,2S142.558,138.783,142.558,137.678"/>
<path fill="none" stroke="#757575" stroke-miterlimit="10" d="M562.899,236.262H436.217h-43.779"/>
<path fill="#9E9E9E" d="M394.438,236.262c0-1.104-0.896-2-2-2s-2,0.896-2,2s0.896,2,2,2S394.438,237.367,394.438,236.262"/>
<path fill="#757575" d="M441.494,212.613h4.805v1.689h-1.289l-4.229,13.115h-2.988l-4.014-12.9l-3.701,12.9h-2.959l-4.316-13.115
	h-1.309v-1.689h4.805v1.689h-1.289l3.584,11.377l3.779-13.066h2.92l4.023,13.066l3.652-11.377h-1.475V212.613z"/>
<path fill="#757575" d="M449.092,222.593c0,0.287,0.021,0.549,0.063,0.787c0.042,0.237,0.103,0.463,0.181,0.678
	c0.24,0.651,0.626,1.142,1.157,1.471c0.53,0.328,1.131,0.492,1.802,0.492c0.527,0,1.04-0.072,1.538-0.219s1.021-0.377,1.567-0.689
	l0.732,1.24c-0.664,0.456-1.332,0.795-2.002,1.016c-0.671,0.222-1.367,0.332-2.09,0.332c-0.684,0-1.317-0.113-1.899-0.342
	c-0.583-0.228-1.084-0.566-1.504-1.016s-0.749-1.009-0.986-1.68c-0.238-0.67-0.356-1.451-0.356-2.344
	c0-0.723,0.101-1.404,0.303-2.045c0.201-0.642,0.503-1.201,0.903-1.68s0.896-0.858,1.489-1.139c0.592-0.279,1.282-0.42,2.07-0.42
	c0.762,0,1.397,0.116,1.909,0.348c0.511,0.23,0.928,0.537,1.25,0.918s0.566,0.814,0.732,1.303s0.281,0.986,0.347,1.494
	c0.032,0.248,0.054,0.498,0.063,0.752s0.015,0.502,0.015,0.742H449.092z M451.934,218.56c-0.424,0-0.793,0.061-1.108,0.182
	c-0.316,0.12-0.585,0.293-0.806,0.518c-0.222,0.225-0.399,0.499-0.532,0.824c-0.134,0.326-0.233,0.69-0.298,1.094h5.244
	c-0.026-0.377-0.087-0.726-0.181-1.045c-0.095-0.318-0.239-0.596-0.435-0.83s-0.446-0.416-0.752-0.547
	C452.76,218.625,452.383,218.56,451.934,218.56z"/>
<path fill="#757575" d="M458.428,212.222h3.281v5.918c0.43-0.332,0.898-0.596,1.406-0.791s1.031-0.293,1.572-0.293
	c0.664,0,1.272,0.124,1.826,0.371c0.553,0.248,1.03,0.596,1.431,1.045s0.711,0.988,0.933,1.617c0.221,0.628,0.332,1.322,0.332,2.084
	c0,0.814-0.124,1.552-0.371,2.213c-0.248,0.66-0.591,1.229-1.03,1.703c-0.439,0.476-0.962,0.842-1.567,1.1
	c-0.605,0.257-1.27,0.385-1.992,0.385c-0.502,0-0.972-0.072-1.411-0.219s-0.815-0.338-1.128-0.572v0.635h-1.816v-13.516h-1.465
	V212.222z M464.209,218.658c-0.476,0-0.932,0.098-1.367,0.293c-0.437,0.195-0.814,0.459-1.133,0.791v5.439
	c0.208,0.215,0.514,0.406,0.918,0.572c0.403,0.166,0.911,0.248,1.523,0.248c0.416,0,0.816-0.078,1.201-0.234
	c0.384-0.156,0.723-0.392,1.016-0.707c0.293-0.316,0.527-0.709,0.703-1.178s0.264-1.016,0.264-1.641c0-0.572-0.083-1.08-0.249-1.523
	c-0.166-0.442-0.391-0.816-0.674-1.123c-0.283-0.306-0.614-0.538-0.991-0.697C465.042,218.738,464.639,218.658,464.209,218.658z"/>
<path fill="#757575" d="M475.879,212.613h10.605v4.189h-2.002v-2.5h-5.283v4.736h4.443v1.68h-4.443v5.02h5.283v-2.5h2.002v4.18
	h-10.605v-1.68h1.406v-11.436h-1.406V212.613z"/>
<path fill="#757575" d="M494.678,225.738h1.426v-4.619c0-0.774-0.197-1.361-0.591-1.762c-0.395-0.4-0.959-0.602-1.694-0.602
	c-0.424,0-0.85,0.102-1.279,0.303c-0.43,0.202-0.837,0.453-1.221,0.752v5.928h1.426v1.68h-4.727v-1.68h1.406v-6.758h-1.406v-1.68
	h3.223v1.191h0.02c0.215-0.188,0.444-0.367,0.688-0.537c0.244-0.169,0.499-0.315,0.767-0.439c0.267-0.123,0.545-0.221,0.835-0.293
	c0.289-0.071,0.594-0.107,0.913-0.107c0.54,0,1.028,0.075,1.465,0.225c0.436,0.15,0.807,0.378,1.113,0.684
	c0.306,0.307,0.542,0.699,0.708,1.178s0.249,1.043,0.249,1.693v4.844h1.406v1.68h-4.727V225.738z"/>
<path fill="#757575" d="M508.76,226.529c-0.332,0.352-0.718,0.625-1.157,0.82s-0.939,0.293-1.499,0.293
	c-0.684,0-1.32-0.118-1.909-0.355c-0.59-0.238-1.101-0.586-1.533-1.045c-0.434-0.459-0.771-1.022-1.016-1.689
	c-0.244-0.668-0.366-1.432-0.366-2.291c0-0.781,0.117-1.492,0.352-2.133c0.234-0.642,0.566-1.188,0.996-1.641
	c0.43-0.453,0.947-0.805,1.553-1.055c0.605-0.251,1.279-0.377,2.021-0.377c0.508,0,0.965,0.058,1.372,0.172
	c0.406,0.113,0.802,0.311,1.187,0.59V217.3h1.816v9.717c0,1.602-0.38,2.812-1.138,3.633c-0.759,0.82-1.938,1.23-3.54,1.23
	c-0.352,0-0.72-0.025-1.104-0.078c-0.385-0.052-0.764-0.135-1.138-0.248c-0.375-0.114-0.739-0.26-1.094-0.436
	c-0.355-0.176-0.683-0.391-0.981-0.645l0.977-1.475c0.195,0.17,0.418,0.326,0.669,0.469c0.25,0.144,0.519,0.266,0.806,0.367
	c0.286,0.101,0.582,0.18,0.889,0.238c0.306,0.059,0.611,0.088,0.918,0.088c0.501,0,0.936-0.052,1.304-0.156
	c0.367-0.104,0.67-0.287,0.908-0.551c0.237-0.264,0.415-0.621,0.532-1.07s0.176-1.019,0.176-1.709V226.529z M506.338,226.06
	c0.299,0,0.572-0.029,0.82-0.088c0.247-0.059,0.472-0.135,0.674-0.229c0.201-0.095,0.379-0.204,0.532-0.328
	c0.152-0.123,0.284-0.254,0.396-0.391v-5.537c-0.332-0.293-0.715-0.504-1.147-0.635c-0.434-0.13-0.878-0.195-1.333-0.195
	c-0.43,0-0.834,0.08-1.211,0.24c-0.378,0.159-0.708,0.392-0.991,0.697c-0.283,0.307-0.507,0.681-0.669,1.123
	c-0.163,0.443-0.244,0.951-0.244,1.523c0,0.625,0.078,1.176,0.234,1.65c0.156,0.476,0.374,0.875,0.654,1.197
	c0.279,0.322,0.615,0.564,1.006,0.727C505.449,225.979,505.875,226.06,506.338,226.06z"/>
<path fill="#757575" d="M512.998,217.3h3.301v8.438h1.523v1.68h-4.805v-1.68h1.445v-6.758h-1.465V217.3z M514.121,213.716
	c0-0.169,0.034-0.33,0.103-0.482c0.068-0.153,0.159-0.287,0.273-0.4c0.113-0.114,0.249-0.205,0.405-0.273s0.322-0.104,0.498-0.104
	c0.169,0,0.33,0.035,0.483,0.104c0.152,0.068,0.286,0.159,0.4,0.273c0.113,0.113,0.205,0.247,0.273,0.4
	c0.068,0.152,0.103,0.313,0.103,0.482c0,0.176-0.034,0.342-0.103,0.498s-0.16,0.295-0.273,0.416c-0.114,0.12-0.248,0.215-0.4,0.283
	c-0.153,0.068-0.314,0.102-0.483,0.102c-0.176,0-0.342-0.033-0.498-0.102s-0.292-0.163-0.405-0.283
	c-0.114-0.121-0.205-0.26-0.273-0.416S514.121,213.892,514.121,213.716z"/>
<path fill="#757575" d="M526.152,225.738h1.426v-4.619c0-0.774-0.197-1.361-0.591-1.762c-0.395-0.4-0.959-0.602-1.694-0.602
	c-0.424,0-0.85,0.102-1.279,0.303c-0.43,0.202-0.837,0.453-1.221,0.752v5.928h1.426v1.68h-4.727v-1.68h1.406v-6.758h-1.406v-1.68
	h3.223v1.191h0.02c0.215-0.188,0.444-0.367,0.688-0.537c0.244-0.169,0.499-0.315,0.767-0.439c0.267-0.123,0.545-0.221,0.835-0.293
	c0.289-0.071,0.594-0.107,0.913-0.107c0.54,0,1.028,0.075,1.465,0.225c0.436,0.15,0.807,0.378,1.113,0.684
	c0.306,0.307,0.542,0.699,0.708,1.178s0.249,1.043,0.249,1.693v4.844h1.406v1.68h-4.727V225.738z"/>
<path fill="#757575" d="M534.551,222.593c0,0.287,0.021,0.549,0.063,0.787c0.042,0.237,0.103,0.463,0.181,0.678
	c0.24,0.651,0.626,1.142,1.157,1.471c0.53,0.328,1.131,0.492,1.802,0.492c0.527,0,1.04-0.072,1.538-0.219s1.021-0.377,1.567-0.689
	l0.732,1.24c-0.664,0.456-1.332,0.795-2.002,1.016c-0.671,0.222-1.367,0.332-2.09,0.332c-0.684,0-1.317-0.113-1.899-0.342
	c-0.583-0.228-1.084-0.566-1.504-1.016s-0.749-1.009-0.986-1.68c-0.238-0.67-0.356-1.451-0.356-2.344
	c0-0.723,0.101-1.404,0.303-2.045c0.201-0.642,0.503-1.201,0.903-1.68s0.896-0.858,1.489-1.139c0.592-0.279,1.282-0.42,2.07-0.42
	c0.762,0,1.397,0.116,1.909,0.348c0.511,0.23,0.928,0.537,1.25,0.918s0.566,0.814,0.732,1.303s0.281,0.986,0.347,1.494
	c0.032,0.248,0.054,0.498,0.063,0.752s0.015,0.502,0.015,0.742H534.551z M537.393,218.56c-0.424,0-0.793,0.061-1.108,0.182
	c-0.316,0.12-0.585,0.293-0.806,0.518c-0.222,0.225-0.399,0.499-0.532,0.824c-0.134,0.326-0.233,0.69-0.298,1.094h5.244
	c-0.026-0.377-0.087-0.726-0.181-1.045c-0.095-0.318-0.239-0.596-0.435-0.83s-0.446-0.416-0.752-0.547
	C538.219,218.625,537.842,218.56,537.393,218.56z"/>
<path fill="#757575" d="M546.025,222.593c0,0.287,0.021,0.549,0.063,0.787c0.042,0.237,0.103,0.463,0.181,0.678
	c0.24,0.651,0.626,1.142,1.157,1.471c0.53,0.328,1.131,0.492,1.802,0.492c0.527,0,1.04-0.072,1.538-0.219s1.021-0.377,1.567-0.689
	l0.732,1.24c-0.664,0.456-1.332,0.795-2.002,1.016c-0.671,0.222-1.367,0.332-2.09,0.332c-0.684,0-1.317-0.113-1.899-0.342
	c-0.583-0.228-1.084-0.566-1.504-1.016s-0.749-1.009-0.986-1.68c-0.238-0.67-0.356-1.451-0.356-2.344
	c0-0.723,0.101-1.404,0.303-2.045c0.201-0.642,0.503-1.201,0.903-1.68s0.896-0.858,1.489-1.139c0.592-0.279,1.282-0.42,2.07-0.42
	c0.762,0,1.397,0.116,1.909,0.348c0.511,0.23,0.928,0.537,1.25,0.918s0.566,0.814,0.732,1.303s0.281,0.986,0.347,1.494
	c0.032,0.248,0.054,0.498,0.063,0.752s0.015,0.502,0.015,0.742H546.025z M548.867,218.56c-0.424,0-0.793,0.061-1.108,0.182
	c-0.316,0.12-0.585,0.293-0.806,0.518c-0.222,0.225-0.399,0.499-0.532,0.824c-0.134,0.326-0.233,0.69-0.298,1.094h5.244
	c-0.026-0.377-0.087-0.726-0.181-1.045c-0.095-0.318-0.239-0.596-0.435-0.83s-0.446-0.416-0.752-0.547
	C549.693,218.625,549.316,218.56,548.867,218.56z"/>
<path fill="#757575" d="M563.057,219.439h-1.855v-0.625c-0.215,0-0.435,0.041-0.659,0.123c-0.225,0.081-0.435,0.205-0.63,0.371
	s-0.366,0.377-0.513,0.635c-0.146,0.257-0.253,0.561-0.317,0.912v4.883h1.719v1.68h-5.02v-1.68h1.396l0.01-6.758h-1.406v-1.68h3.232
	v1.396c0.117-0.208,0.249-0.401,0.396-0.58c0.146-0.18,0.309-0.336,0.488-0.469c0.179-0.134,0.377-0.238,0.596-0.312
	c0.218-0.075,0.454-0.113,0.708-0.113c0.338,0,0.657,0,0.957,0c0.299,0,0.599,0.007,0.898,0.02V219.439z"/>
<path fill="#FFFFFF" d="M303.083,197.068h1.371c0.422-1.203,0.887-2.424,1.395-3.662s1.023-2.443,1.547-3.615
	s1.039-2.287,1.547-3.346s0.973-2.014,1.395-2.865h-6.656v1.371h-2.25v-3.633h11.66v1.758c-0.516,1.016-1.055,2.092-1.617,3.229
	s-1.119,2.303-1.67,3.498s-1.084,2.406-1.6,3.633s-0.984,2.438-1.406,3.633h1.477v2.016h-5.191V197.068z"/>
<path fill="#FFFFFF" d="M316.407,197.068h1.723v-12.996l-3.598,1.957v-2.449l4.945-2.766h0.938v16.254h1.746v2.016h-5.754V197.068z"
	/>
<path fill="#FFFFFF" d="M324.751,197.666c0-0.203,0.041-0.396,0.123-0.58s0.193-0.344,0.334-0.48s0.303-0.246,0.486-0.328
	s0.381-0.123,0.592-0.123c0.203,0,0.396,0.041,0.58,0.123s0.344,0.191,0.48,0.328s0.246,0.297,0.328,0.48s0.123,0.377,0.123,0.58
	c0,0.211-0.041,0.41-0.123,0.598s-0.191,0.354-0.328,0.498s-0.297,0.258-0.48,0.34s-0.377,0.123-0.58,0.123
	c-0.211,0-0.408-0.041-0.592-0.123s-0.346-0.195-0.486-0.34s-0.252-0.311-0.334-0.498S324.751,197.876,324.751,197.666z"/>
<path fill="#FFFFFF" d="M338.11,185.958c0-0.305-0.064-0.631-0.193-0.979s-0.328-0.668-0.598-0.961s-0.609-0.535-1.02-0.727
	s-0.893-0.287-1.447-0.287c-0.461,0-0.881,0.08-1.26,0.24s-0.756,0.459-1.131,0.896s-0.578,0.922-0.609,1.453h-2.227
	c0.039-0.68,0.209-1.293,0.51-1.84s0.682-1.027,1.143-1.441s1-0.742,1.617-0.984s1.262-0.363,1.934-0.363
	c0.836,0,1.594,0.139,2.273,0.416s1.26,0.645,1.74,1.102s0.852,0.979,1.113,1.564s0.393,1.184,0.393,1.793
	c0,0.375-0.047,0.75-0.141,1.125s-0.24,0.732-0.439,1.072s-0.455,0.654-0.768,0.943s-0.691,0.543-1.137,0.762
	c0.367,0.141,0.713,0.338,1.037,0.592s0.607,0.557,0.85,0.908s0.434,0.75,0.574,1.195s0.211,0.934,0.211,1.465
	c0,0.766-0.148,1.475-0.445,2.127s-0.699,1.217-1.207,1.693s-1.104,0.85-1.787,1.119s-1.416,0.404-2.197,0.404
	c-0.719,0-1.432-0.127-2.139-0.381s-1.307-0.615-1.799-1.084s-0.855-0.957-1.09-1.465s-0.375-1.012-0.422-1.512h2.25
	c0.227,0.727,0.631,1.297,1.213,1.711s1.322,0.621,2.221,0.621c0.406,0,0.803-0.082,1.189-0.246s0.729-0.393,1.025-0.686
	s0.535-0.637,0.715-1.031s0.27-0.826,0.27-1.295c0-0.492-0.09-0.938-0.27-1.336s-0.422-0.736-0.727-1.014s-0.658-0.492-1.061-0.645
	s-0.83-0.229-1.283-0.229h-1.008v-1.77h0.82c0.516,0,0.979-0.076,1.389-0.229s0.756-0.361,1.037-0.627s0.498-0.576,0.65-0.932
	S338.11,186.365,338.11,185.958z"/>
<path fill="#FFFFFF" d="M342.49,191.106c0-0.306,0.058-0.596,0.171-0.872c0.113-0.275,0.274-0.517,0.482-0.725
	c0.207-0.207,0.454-0.371,0.741-0.492c0.287-0.12,0.602-0.181,0.943-0.181s0.656,0.061,0.943,0.181
	c0.287,0.121,0.533,0.285,0.738,0.492c0.205,0.208,0.366,0.449,0.481,0.725c0.117,0.276,0.175,0.566,0.175,0.872
	c0,0.31-0.056,0.602-0.167,0.875c-0.112,0.273-0.271,0.515-0.476,0.725s-0.451,0.375-0.738,0.495
	c-0.287,0.121-0.606,0.182-0.957,0.182c-0.355,0-0.677-0.061-0.964-0.182c-0.287-0.12-0.532-0.285-0.734-0.495
	c-0.203-0.21-0.36-0.451-0.473-0.725C342.546,191.708,342.49,191.416,342.49,191.106z M350.536,188.556h1.333l-7.116,10.637h-1.326
	L350.536,188.556z M344.828,189.958c-0.164,0-0.317,0.028-0.462,0.085c-0.143,0.058-0.269,0.137-0.375,0.24
	c-0.107,0.102-0.191,0.225-0.254,0.365c-0.061,0.141-0.092,0.294-0.092,0.458c0,0.159,0.031,0.312,0.092,0.454
	c0.062,0.145,0.146,0.27,0.254,0.377c0.106,0.106,0.232,0.191,0.375,0.252c0.145,0.062,0.298,0.093,0.462,0.093
	c0.159,0,0.31-0.03,0.451-0.093c0.142-0.061,0.265-0.145,0.369-0.249s0.188-0.229,0.249-0.372c0.062-0.145,0.093-0.298,0.093-0.462
	s-0.03-0.317-0.093-0.458c-0.061-0.141-0.145-0.264-0.249-0.365c-0.104-0.104-0.228-0.183-0.369-0.24
	C345.138,189.986,344.987,189.958,344.828,189.958z M348.41,196.875c0-0.306,0.058-0.595,0.171-0.868s0.274-0.514,0.482-0.721
	c0.207-0.208,0.454-0.373,0.741-0.496s0.602-0.185,0.943-0.185s0.656,0.062,0.943,0.185s0.534,0.288,0.741,0.496
	c0.208,0.207,0.369,0.447,0.482,0.721s0.171,0.562,0.171,0.868c0,0.31-0.056,0.603-0.167,0.878c-0.112,0.276-0.27,0.518-0.473,0.725
	c-0.202,0.208-0.447,0.373-0.734,0.496s-0.608,0.185-0.964,0.185s-0.677-0.062-0.964-0.185s-0.532-0.288-0.734-0.496
	c-0.203-0.207-0.36-0.448-0.473-0.725C348.466,197.478,348.41,197.185,348.41,196.875z M350.748,195.727
	c-0.159,0-0.312,0.03-0.454,0.089c-0.145,0.059-0.27,0.141-0.377,0.242c-0.106,0.104-0.191,0.224-0.252,0.363
	c-0.062,0.139-0.093,0.29-0.093,0.454c0,0.159,0.03,0.312,0.093,0.454c0.061,0.145,0.146,0.27,0.252,0.377
	c0.107,0.106,0.232,0.191,0.377,0.252c0.143,0.062,0.295,0.093,0.454,0.093s0.31-0.03,0.451-0.093
	c0.142-0.061,0.265-0.145,0.369-0.249s0.188-0.229,0.249-0.372c0.062-0.145,0.093-0.298,0.093-0.462s-0.03-0.315-0.093-0.454
	c-0.061-0.14-0.145-0.26-0.249-0.363c-0.104-0.102-0.228-0.184-0.369-0.242S350.907,195.727,350.748,195.727z"/>
<path fill="#757575" d="M10.557,8.196h4.805v1.689h-1.26V23h-2.5L4.717,10.725v10.596H6.24V23H1.436v-1.68h1.367V9.885H1.396V8.176
	h3.984l6.758,12.158l0.078-0.469v-9.98h-1.66V8.196z"/>
<path fill="#757575" d="M16.699,17.942c0.006-0.801,0.135-1.53,0.386-2.188s0.601-1.222,1.05-1.694s0.983-0.835,1.602-1.089
	s1.299-0.381,2.041-0.381c0.749,0,1.434,0.127,2.056,0.381s1.154,0.614,1.597,1.079s0.788,1.027,1.035,1.685
	s0.371,1.387,0.371,2.188c0,0.788-0.124,1.512-0.371,2.173s-0.592,1.229-1.035,1.704s-0.975,0.845-1.597,1.108
	s-1.307,0.396-2.056,0.396c-0.762,0-1.452-0.13-2.07-0.391s-1.149-0.626-1.592-1.099s-0.788-1.037-1.035-1.694
	S16.706,18.736,16.699,17.942z M18.623,17.942c0,0.58,0.083,1.104,0.249,1.572s0.394,0.868,0.684,1.196s0.625,0.583,1.006,0.762
	s0.786,0.269,1.216,0.269c0.449,0,0.868-0.088,1.255-0.264s0.724-0.428,1.011-0.757s0.511-0.728,0.674-1.196
	s0.244-0.996,0.244-1.582c0-0.612-0.082-1.156-0.244-1.631s-0.386-0.873-0.669-1.191s-0.62-0.56-1.011-0.723
	s-0.811-0.244-1.26-0.244c-0.43,0-0.835,0.082-1.216,0.244s-0.716,0.404-1.006,0.723s-0.518,0.716-0.684,1.191
	S18.623,17.33,18.623,17.942z"/>
<path fill="#757575" d="M35.459,21.321h1.426v-4.619c0-0.775-0.197-1.362-0.591-1.763s-0.958-0.601-1.694-0.601
	c-0.423,0-0.85,0.101-1.279,0.303s-0.836,0.453-1.221,0.752v5.928h1.426V23h-4.727v-1.68h1.406v-6.758h-1.406v-1.68h3.223v1.191
	h0.02c0.215-0.189,0.444-0.368,0.688-0.537s0.5-0.316,0.767-0.439s0.545-0.221,0.835-0.293s0.594-0.107,0.913-0.107
	c0.541,0,1.029,0.075,1.465,0.225s0.807,0.377,1.113,0.684s0.542,0.698,0.708,1.177s0.249,1.043,0.249,1.694v4.844h1.406V23h-4.727
	V21.321z"/>
<path fill="#757575" d="M42.08,18.157v-1.68h5.381v1.68H42.08z"/>
<path fill="#757575" d="M68.457,8.196h4.805v1.689h-1.289L67.744,23h-2.988l-4.014-12.9L57.041,23h-2.959L49.766,9.885h-1.309V8.196
	h4.805v1.689h-1.289l3.584,11.377l3.779-13.066h2.92l4.023,13.066l3.652-11.377h-1.475V8.196z"/>
<path fill="#757575" d="M76.055,18.176c0,0.287,0.021,0.548,0.063,0.786s0.103,0.464,0.181,0.679
	c0.241,0.651,0.626,1.141,1.157,1.47s1.131,0.493,1.802,0.493c0.527,0,1.04-0.073,1.538-0.22s1.021-0.376,1.567-0.688l0.732,1.24
	c-0.664,0.456-1.332,0.794-2.002,1.016s-1.367,0.332-2.09,0.332c-0.684,0-1.317-0.114-1.899-0.342s-1.084-0.566-1.504-1.016
	s-0.749-1.009-0.986-1.68s-0.356-1.452-0.356-2.344c0-0.723,0.101-1.405,0.303-2.046s0.503-1.201,0.903-1.68
	s0.897-0.858,1.489-1.138s1.283-0.42,2.07-0.42c0.762,0,1.398,0.116,1.909,0.347s0.928,0.537,1.25,0.918s0.566,0.815,0.732,1.304
	s0.282,0.986,0.347,1.494c0.033,0.248,0.054,0.498,0.063,0.752s0.015,0.501,0.015,0.742H76.055z M78.896,14.143
	c-0.423,0-0.792,0.06-1.108,0.181s-0.584,0.293-0.806,0.518s-0.399,0.5-0.532,0.825s-0.233,0.69-0.298,1.094h5.244
	c-0.026-0.377-0.086-0.726-0.181-1.045s-0.239-0.596-0.435-0.83s-0.446-0.417-0.752-0.547S79.346,14.143,78.896,14.143z"/>
<path fill="#757575" d="M85.391,7.805h3.281v5.918c0.43-0.332,0.898-0.596,1.406-0.791s1.032-0.293,1.572-0.293
	c0.664,0,1.273,0.124,1.826,0.371s1.03,0.596,1.431,1.045s0.711,0.988,0.933,1.616s0.332,1.323,0.332,2.085
	c0,0.814-0.124,1.551-0.371,2.212s-0.591,1.229-1.03,1.704s-0.962,0.841-1.567,1.099s-1.27,0.386-1.992,0.386
	c-0.501,0-0.972-0.073-1.411-0.22s-0.815-0.337-1.128-0.571V23h-1.816V9.485h-1.465V7.805z M91.172,14.241
	c-0.475,0-0.931,0.098-1.367,0.293s-0.814,0.459-1.133,0.791v5.439c0.208,0.215,0.514,0.405,0.918,0.571s0.912,0.249,1.523,0.249
	c0.417,0,0.817-0.078,1.201-0.234s0.723-0.392,1.016-0.708s0.527-0.708,0.703-1.177s0.264-1.016,0.264-1.641
	c0-0.573-0.083-1.081-0.249-1.523s-0.391-0.817-0.674-1.123s-0.614-0.539-0.991-0.698S91.602,14.241,91.172,14.241z"/>
<path fill="#757575" d="M102.842,8.196h10.605v4.189h-2.002v-2.5h-5.283v4.736h4.443v1.68h-4.443v5.02h5.283v-2.5h2.002V23h-10.605
	v-1.68h1.406V9.885h-1.406V8.196z"/>
<path fill="#757575" d="M121.641,21.321h1.426v-4.619c0-0.775-0.197-1.362-0.591-1.763s-0.958-0.601-1.694-0.601
	c-0.423,0-0.85,0.101-1.279,0.303s-0.836,0.453-1.221,0.752v5.928h1.426V23h-4.727v-1.68h1.406v-6.758h-1.406v-1.68h3.223v1.191
	h0.02c0.215-0.189,0.444-0.368,0.688-0.537s0.5-0.316,0.767-0.439s0.545-0.221,0.835-0.293s0.594-0.107,0.913-0.107
	c0.541,0,1.029,0.075,1.465,0.225s0.807,0.377,1.113,0.684s0.542,0.698,0.708,1.177s0.249,1.043,0.249,1.694v4.844h1.406V23h-4.727
	V21.321z"/>
<path fill="#757575" d="M135.723,22.112c-0.332,0.352-0.718,0.625-1.157,0.82s-0.939,0.293-1.499,0.293
	c-0.684,0-1.32-0.119-1.909-0.356s-1.1-0.586-1.533-1.045s-0.771-1.022-1.016-1.689s-0.366-1.431-0.366-2.29
	c0-0.781,0.117-1.493,0.352-2.134s0.566-1.188,0.996-1.641s0.947-0.804,1.553-1.055s1.279-0.376,2.021-0.376
	c0.508,0,0.965,0.057,1.372,0.171s0.802,0.311,1.187,0.591v-0.518h1.816V22.6c0,1.602-0.379,2.812-1.138,3.633
	s-1.938,1.23-3.54,1.23c-0.352,0-0.719-0.026-1.104-0.078s-0.763-0.135-1.138-0.249s-0.739-0.259-1.094-0.435
	s-0.682-0.391-0.981-0.645l0.977-1.475c0.195,0.169,0.418,0.326,0.669,0.469s0.519,0.265,0.806,0.366s0.583,0.181,0.889,0.239
	s0.612,0.088,0.918,0.088c0.501,0,0.936-0.052,1.304-0.156s0.67-0.288,0.908-0.552s0.415-0.62,0.532-1.069s0.176-1.019,0.176-1.709
	V22.112z M133.301,21.643c0.299,0,0.573-0.029,0.82-0.088s0.472-0.135,0.674-0.229s0.379-0.204,0.532-0.327s0.285-0.254,0.396-0.391
	v-5.537c-0.332-0.293-0.714-0.504-1.147-0.635s-0.877-0.195-1.333-0.195c-0.43,0-0.833,0.08-1.211,0.239s-0.708,0.392-0.991,0.698
	s-0.506,0.68-0.669,1.123s-0.244,0.951-0.244,1.523c0,0.625,0.078,1.175,0.234,1.65s0.375,0.874,0.654,1.196
	s0.615,0.565,1.006,0.728S132.838,21.643,133.301,21.643z"/>
<path fill="#757575" d="M139.961,12.883h3.301v8.438h1.523V23h-4.805v-1.68h1.445v-6.758h-1.465V12.883z M141.084,9.299
	c0-0.169,0.034-0.331,0.103-0.483s0.16-0.287,0.273-0.4s0.249-0.205,0.405-0.273s0.322-0.103,0.498-0.103
	c0.169,0,0.331,0.034,0.483,0.103s0.287,0.16,0.4,0.273s0.205,0.248,0.273,0.4s0.103,0.314,0.103,0.483
	c0,0.176-0.034,0.342-0.103,0.498s-0.16,0.294-0.273,0.415s-0.248,0.215-0.4,0.283s-0.314,0.103-0.483,0.103
	c-0.176,0-0.342-0.034-0.498-0.103s-0.292-0.163-0.405-0.283s-0.205-0.259-0.273-0.415S141.084,9.475,141.084,9.299z"/>
<path fill="#757575" d="M153.115,21.321h1.426v-4.619c0-0.775-0.197-1.362-0.591-1.763s-0.958-0.601-1.694-0.601
	c-0.423,0-0.85,0.101-1.279,0.303s-0.836,0.453-1.221,0.752v5.928h1.426V23h-4.727v-1.68h1.406v-6.758h-1.406v-1.68h3.223v1.191
	h0.02c0.215-0.189,0.444-0.368,0.688-0.537s0.5-0.316,0.767-0.439s0.545-0.221,0.835-0.293s0.594-0.107,0.913-0.107
	c0.541,0,1.029,0.075,1.465,0.225s0.807,0.377,1.113,0.684s0.542,0.698,0.708,1.177s0.249,1.043,0.249,1.694v4.844h1.406V23h-4.727
	V21.321z"/>
<path fill="#757575" d="M161.514,18.176c0,0.287,0.021,0.548,0.063,0.786s0.103,0.464,0.181,0.679
	c0.241,0.651,0.626,1.141,1.157,1.47s1.131,0.493,1.802,0.493c0.527,0,1.04-0.073,1.538-0.22s1.021-0.376,1.567-0.688l0.732,1.24
	c-0.664,0.456-1.332,0.794-2.002,1.016s-1.367,0.332-2.09,0.332c-0.684,0-1.317-0.114-1.899-0.342s-1.084-0.566-1.504-1.016
	s-0.749-1.009-0.986-1.68s-0.356-1.452-0.356-2.344c0-0.723,0.101-1.405,0.303-2.046s0.503-1.201,0.903-1.68
	s0.897-0.858,1.489-1.138s1.283-0.42,2.07-0.42c0.762,0,1.398,0.116,1.909,0.347s0.928,0.537,1.25,0.918s0.566,0.815,0.732,1.304
	s0.282,0.986,0.347,1.494c0.033,0.248,0.054,0.498,0.063,0.752s0.015,0.501,0.015,0.742H161.514z M164.355,14.143
	c-0.423,0-0.792,0.06-1.108,0.181s-0.584,0.293-0.806,0.518s-0.399,0.5-0.532,0.825s-0.233,0.69-0.298,1.094h5.244
	c-0.026-0.377-0.086-0.726-0.181-1.045s-0.239-0.596-0.435-0.83s-0.446-0.417-0.752-0.547S164.805,14.143,164.355,14.143z"/>
<path fill="#757575" d="M172.988,18.176c0,0.287,0.021,0.548,0.063,0.786s0.103,0.464,0.181,0.679
	c0.241,0.651,0.626,1.141,1.157,1.47s1.131,0.493,1.802,0.493c0.527,0,1.04-0.073,1.538-0.22s1.021-0.376,1.567-0.688l0.732,1.24
	c-0.664,0.456-1.332,0.794-2.002,1.016s-1.367,0.332-2.09,0.332c-0.684,0-1.317-0.114-1.899-0.342s-1.084-0.566-1.504-1.016
	s-0.749-1.009-0.986-1.68s-0.356-1.452-0.356-2.344c0-0.723,0.101-1.405,0.303-2.046s0.503-1.201,0.903-1.68
	s0.897-0.858,1.489-1.138s1.283-0.42,2.07-0.42c0.762,0,1.398,0.116,1.909,0.347s0.928,0.537,1.25,0.918s0.566,0.815,0.732,1.304
	s0.282,0.986,0.347,1.494c0.033,0.248,0.054,0.498,0.063,0.752s0.015,0.501,0.015,0.742H172.988z M175.83,14.143
	c-0.423,0-0.792,0.06-1.108,0.181s-0.584,0.293-0.806,0.518s-0.399,0.5-0.532,0.825s-0.233,0.69-0.298,1.094h5.244
	c-0.026-0.377-0.086-0.726-0.181-1.045s-0.239-0.596-0.435-0.83s-0.446-0.417-0.752-0.547S176.279,14.143,175.83,14.143z"/>
<path fill="#757575" d="M190.02,15.022h-1.855v-0.625c-0.215,0-0.435,0.041-0.659,0.122s-0.435,0.205-0.63,0.371
	s-0.366,0.377-0.513,0.635s-0.252,0.562-0.317,0.913v4.883h1.719V23h-5.02v-1.68h1.396l0.01-6.758h-1.406v-1.68h3.232v1.396
	c0.117-0.208,0.249-0.402,0.396-0.581s0.309-0.335,0.488-0.469s0.377-0.238,0.596-0.312s0.454-0.112,0.708-0.112
	c0.338,0,0.658,0,0.957,0s0.599,0.006,0.898,0.02V15.022z"/>
<path fill="#FFFFFF" d="M209.903,85.068h1.723V72.072l-3.598,1.957V71.58l4.945-2.766h0.938v16.254h1.746v2.016h-5.754V85.068z"/>
<path fill="#FFFFFF" d="M224.516,68.99c0.672,0,1.307,0.121,1.904,0.363s1.123,0.574,1.576,0.996s0.811,0.916,1.072,1.482
	s0.393,1.17,0.393,1.811c0,0.766-0.18,1.473-0.539,2.121s-0.84,1.184-1.441,1.605c0.398,0.234,0.762,0.514,1.09,0.838
	s0.609,0.68,0.844,1.066s0.416,0.803,0.545,1.248s0.193,0.906,0.193,1.383c0,0.742-0.15,1.438-0.451,2.086s-0.709,1.217-1.225,1.705
	s-1.117,0.873-1.805,1.154s-1.422,0.422-2.203,0.422c-0.789,0-1.531-0.141-2.227-0.422s-1.301-0.666-1.816-1.154
	s-0.924-1.057-1.225-1.705s-0.451-1.344-0.451-2.086c0-0.477,0.064-0.939,0.193-1.389s0.312-0.867,0.551-1.254
	s0.523-0.742,0.855-1.066s0.701-0.604,1.107-0.838c-0.594-0.43-1.064-0.967-1.412-1.611s-0.521-1.346-0.521-2.104
	c0-0.641,0.129-1.244,0.387-1.811s0.611-1.061,1.061-1.482s0.979-0.754,1.588-0.996S223.821,68.99,224.516,68.99z M220.895,81.857
	c0,0.461,0.094,0.896,0.281,1.307s0.443,0.768,0.768,1.072s0.703,0.547,1.137,0.727s0.896,0.27,1.389,0.27
	c0.484,0,0.941-0.09,1.371-0.27s0.807-0.422,1.131-0.727s0.58-0.662,0.768-1.072s0.281-0.846,0.281-1.307
	c0-0.453-0.094-0.883-0.281-1.289s-0.443-0.762-0.768-1.066s-0.701-0.545-1.131-0.721s-0.887-0.264-1.371-0.264
	c-0.492,0-0.955,0.088-1.389,0.264s-0.812,0.416-1.137,0.721s-0.58,0.66-0.768,1.066S220.895,81.404,220.895,81.857z M221.54,73.689
	c0,0.391,0.074,0.756,0.223,1.096s0.355,0.637,0.621,0.891s0.58,0.455,0.943,0.604s0.76,0.223,1.189,0.223
	c0.398,0,0.773-0.074,1.125-0.223s0.662-0.35,0.932-0.604s0.482-0.551,0.639-0.891s0.234-0.705,0.234-1.096
	c0-0.383-0.078-0.744-0.234-1.084s-0.369-0.637-0.639-0.891s-0.58-0.455-0.932-0.604s-0.727-0.223-1.125-0.223
	c-0.43,0-0.826,0.074-1.189,0.223s-0.678,0.35-0.943,0.604s-0.473,0.551-0.621,0.891S221.54,73.306,221.54,73.689z"/>
<path fill="#FFFFFF" d="M233.2,85.666c0-0.203,0.041-0.396,0.123-0.58s0.193-0.344,0.334-0.48s0.303-0.246,0.486-0.328
	s0.381-0.123,0.592-0.123c0.203,0,0.396,0.041,0.58,0.123s0.344,0.191,0.48,0.328s0.246,0.297,0.328,0.48s0.123,0.377,0.123,0.58
	c0,0.211-0.041,0.41-0.123,0.598s-0.191,0.354-0.328,0.498s-0.297,0.258-0.48,0.34s-0.377,0.123-0.58,0.123
	c-0.211,0-0.408-0.041-0.592-0.123s-0.346-0.195-0.486-0.34s-0.252-0.311-0.334-0.498S233.2,85.876,233.2,85.666z"/>
<path fill="#FFFFFF" d="M244.813,68.99c0.672,0,1.307,0.121,1.904,0.363s1.123,0.574,1.576,0.996s0.811,0.916,1.072,1.482
	s0.393,1.17,0.393,1.811c0,0.766-0.18,1.473-0.539,2.121s-0.84,1.184-1.441,1.605c0.398,0.234,0.762,0.514,1.09,0.838
	s0.609,0.68,0.844,1.066s0.416,0.803,0.545,1.248s0.193,0.906,0.193,1.383c0,0.742-0.15,1.438-0.451,2.086s-0.709,1.217-1.225,1.705
	s-1.117,0.873-1.805,1.154s-1.422,0.422-2.203,0.422c-0.789,0-1.531-0.141-2.227-0.422s-1.301-0.666-1.816-1.154
	s-0.924-1.057-1.225-1.705s-0.451-1.344-0.451-2.086c0-0.477,0.064-0.939,0.193-1.389s0.312-0.867,0.551-1.254
	s0.523-0.742,0.855-1.066s0.701-0.604,1.107-0.838c-0.594-0.43-1.064-0.967-1.412-1.611s-0.521-1.346-0.521-2.104
	c0-0.641,0.129-1.244,0.387-1.811s0.611-1.061,1.061-1.482s0.979-0.754,1.588-0.996S244.118,68.99,244.813,68.99z M241.192,81.857
	c0,0.461,0.094,0.896,0.281,1.307s0.443,0.768,0.768,1.072s0.703,0.547,1.137,0.727s0.896,0.27,1.389,0.27
	c0.484,0,0.941-0.09,1.371-0.27s0.807-0.422,1.131-0.727s0.58-0.662,0.768-1.072s0.281-0.846,0.281-1.307
	c0-0.453-0.094-0.883-0.281-1.289s-0.443-0.762-0.768-1.066s-0.701-0.545-1.131-0.721s-0.887-0.264-1.371-0.264
	c-0.492,0-0.955,0.088-1.389,0.264s-0.812,0.416-1.137,0.721s-0.58,0.66-0.768,1.066S241.192,81.404,241.192,81.857z
	 M241.836,73.689c0,0.391,0.074,0.756,0.223,1.096s0.355,0.637,0.621,0.891s0.58,0.455,0.943,0.604s0.76,0.223,1.189,0.223
	c0.398,0,0.773-0.074,1.125-0.223s0.662-0.35,0.932-0.604s0.482-0.551,0.639-0.891s0.234-0.705,0.234-1.096
	c0-0.383-0.078-0.744-0.234-1.084s-0.369-0.637-0.639-0.891s-0.58-0.455-0.932-0.604s-0.727-0.223-1.125-0.223
	c-0.43,0-0.826,0.074-1.189,0.223s-0.678,0.35-0.943,0.604s-0.473,0.551-0.621,0.891S241.836,73.306,241.836,73.689z"/>
<path fill="#FFFFFF" d="M252.884,79.106c0-0.305,0.057-0.596,0.171-0.872s0.274-0.517,0.482-0.725s0.455-0.372,0.742-0.492
	s0.602-0.181,0.943-0.181s0.656,0.061,0.943,0.181s0.533,0.285,0.738,0.492s0.366,0.449,0.482,0.725s0.174,0.566,0.174,0.872
	c0,0.31-0.056,0.602-0.167,0.875s-0.27,0.515-0.475,0.725s-0.451,0.375-0.738,0.496s-0.606,0.181-0.957,0.181
	c-0.355,0-0.677-0.061-0.964-0.181s-0.532-0.286-0.735-0.496s-0.36-0.451-0.472-0.725S252.884,79.416,252.884,79.106z
	 M260.93,76.556h1.333l-7.116,10.637h-1.326L260.93,76.556z M255.222,77.958c-0.164,0-0.318,0.028-0.461,0.085
	s-0.269,0.137-0.376,0.239s-0.191,0.225-0.253,0.366s-0.092,0.294-0.092,0.458c0,0.16,0.031,0.311,0.092,0.455
	s0.146,0.269,0.253,0.376s0.232,0.191,0.376,0.253s0.297,0.092,0.461,0.092c0.16,0,0.31-0.031,0.451-0.092s0.264-0.145,0.369-0.25
	s0.188-0.229,0.25-0.373s0.092-0.297,0.092-0.461s-0.031-0.317-0.092-0.458s-0.145-0.263-0.25-0.366s-0.228-0.182-0.369-0.239
	S255.382,77.958,255.222,77.958z M258.804,84.875c0-0.305,0.057-0.595,0.171-0.868s0.274-0.514,0.482-0.721s0.455-0.373,0.742-0.496
	s0.602-0.185,0.943-0.185s0.656,0.062,0.943,0.185s0.534,0.288,0.742,0.496s0.368,0.448,0.482,0.721s0.171,0.563,0.171,0.868
	c0,0.31-0.056,0.603-0.167,0.878s-0.269,0.517-0.472,0.725s-0.448,0.373-0.735,0.496s-0.608,0.185-0.964,0.185
	s-0.677-0.062-0.964-0.185s-0.532-0.288-0.735-0.496s-0.36-0.449-0.472-0.725S258.804,85.186,258.804,84.875z M261.142,83.727
	c-0.16,0-0.311,0.03-0.455,0.089s-0.269,0.14-0.376,0.243s-0.191,0.223-0.253,0.362s-0.092,0.291-0.092,0.455
	c0,0.16,0.031,0.311,0.092,0.455s0.146,0.269,0.253,0.376s0.232,0.191,0.376,0.253s0.295,0.092,0.455,0.092s0.31-0.031,0.451-0.092
	s0.264-0.145,0.369-0.25s0.188-0.229,0.25-0.373s0.092-0.297,0.092-0.461s-0.031-0.315-0.092-0.455s-0.145-0.26-0.25-0.362
	s-0.228-0.184-0.369-0.243S261.302,83.727,261.142,83.727z"/>
<path fill="#FFFFFF" d="M167.903,149.288h1.723v-12.996l-3.598,1.957v-2.449l4.945-2.766h0.938v16.254h1.746v2.016h-5.754V149.288z"
	/>
<path fill="#FFFFFF" d="M182.797,151.514c-1.266,0-2.324-0.234-3.176-0.703s-1.533-1.113-2.045-1.934s-0.877-1.781-1.096-2.883
	s-0.328-2.285-0.328-3.551c0-1.352,0.148-2.615,0.445-3.791s0.695-2.119,1.195-2.83s1.131-1.316,1.893-1.816s1.807-0.75,3.135-0.75
	c1.258,0,2.305,0.199,3.141,0.598s1.525,1.01,2.068,1.834s0.924,1.818,1.143,2.982s0.328,2.398,0.328,3.703
	c0,1.273-0.109,2.465-0.328,3.574s-0.588,2.076-1.107,2.9s-1.209,1.475-2.068,1.951S184.071,151.514,182.797,151.514z
	 M182.797,149.428c0.914,0,1.65-0.186,2.209-0.557s0.98-0.877,1.266-1.518s0.498-1.389,0.639-2.244s0.211-1.768,0.211-2.736
	c0-0.93-0.055-1.822-0.164-2.678s-0.32-1.611-0.633-2.268s-0.75-1.18-1.312-1.57s-1.293-0.586-2.191-0.586
	c-0.93,0-1.664,0.195-2.203,0.586s-0.941,0.861-1.207,1.412s-0.475,1.307-0.627,2.268s-0.229,1.906-0.229,2.836
	c0,0.969,0.049,1.881,0.146,2.736s0.297,1.604,0.598,2.244s0.73,1.146,1.289,1.518S181.883,149.428,182.797,149.428z"/>
<path fill="#FFFFFF" d="M191.22,143.326c0-0.305,0.057-0.596,0.171-0.871c0.114-0.276,0.274-0.518,0.482-0.725
	c0.208-0.208,0.455-0.372,0.742-0.492c0.287-0.121,0.602-0.182,0.943-0.182s0.656,0.061,0.943,0.182
	c0.287,0.12,0.533,0.284,0.738,0.492c0.205,0.207,0.366,0.448,0.482,0.725c0.116,0.275,0.174,0.566,0.174,0.871
	c0,0.311-0.056,0.602-0.167,0.875s-0.27,0.516-0.475,0.725s-0.451,0.375-0.738,0.496c-0.287,0.12-0.606,0.181-0.957,0.181
	c-0.355,0-0.677-0.061-0.964-0.181c-0.287-0.121-0.532-0.287-0.735-0.496s-0.36-0.451-0.472-0.725S191.22,143.636,191.22,143.326z
	 M199.266,140.776h1.333l-7.116,10.637h-1.326L199.266,140.776z M193.558,142.177c-0.164,0-0.318,0.028-0.461,0.086
	c-0.144,0.057-0.269,0.137-0.376,0.238c-0.107,0.104-0.191,0.225-0.253,0.366s-0.092,0.294-0.092,0.458
	c0,0.16,0.031,0.311,0.092,0.455c0.062,0.143,0.146,0.269,0.253,0.375c0.107,0.107,0.232,0.191,0.376,0.254
	c0.144,0.061,0.297,0.092,0.461,0.092c0.16,0,0.31-0.031,0.451-0.092c0.141-0.062,0.264-0.145,0.369-0.25s0.188-0.229,0.25-0.373
	c0.062-0.143,0.092-0.297,0.092-0.461s-0.031-0.316-0.092-0.458s-0.145-0.263-0.25-0.366c-0.105-0.102-0.228-0.182-0.369-0.238
	C193.868,142.206,193.718,142.177,193.558,142.177z M197.14,149.095c0-0.305,0.057-0.595,0.171-0.868s0.274-0.514,0.482-0.722
	c0.208-0.207,0.455-0.372,0.742-0.495s0.602-0.185,0.943-0.185s0.656,0.062,0.943,0.185s0.534,0.288,0.742,0.495
	c0.208,0.208,0.368,0.448,0.482,0.722s0.171,0.563,0.171,0.868c0,0.311-0.056,0.603-0.167,0.879
	c-0.112,0.275-0.269,0.517-0.472,0.725c-0.203,0.207-0.448,0.372-0.735,0.495s-0.608,0.185-0.964,0.185s-0.677-0.062-0.964-0.185
	s-0.532-0.288-0.735-0.495c-0.203-0.208-0.36-0.449-0.472-0.725C197.196,149.698,197.14,149.406,197.14,149.095z M199.478,147.947
	c-0.16,0-0.311,0.029-0.455,0.089s-0.269,0.14-0.376,0.243c-0.107,0.102-0.191,0.223-0.253,0.361
	c-0.062,0.14-0.092,0.291-0.092,0.455c0,0.16,0.031,0.311,0.092,0.455c0.062,0.143,0.146,0.269,0.253,0.375
	c0.107,0.107,0.232,0.191,0.376,0.254c0.144,0.061,0.295,0.092,0.455,0.092s0.31-0.031,0.451-0.092
	c0.141-0.062,0.264-0.145,0.369-0.25s0.188-0.229,0.25-0.373c0.062-0.143,0.092-0.297,0.092-0.461s-0.031-0.315-0.092-0.455
	c-0.062-0.139-0.145-0.26-0.25-0.361c-0.105-0.104-0.228-0.184-0.369-0.243S199.638,147.947,199.478,147.947z"/>
<path fill="#757575" d="M7.803,130.876c-1.022,0-1.957-0.19-2.803-0.571s-1.602-0.923-2.266-1.626s-1.168-1.537-1.514-2.5
	s-0.518-1.963-0.518-2.998c0-1.068,0.174-2.07,0.522-3.008s0.836-1.753,1.465-2.446s1.377-1.24,2.246-1.641s1.825-0.601,2.866-0.601
	c1.048,0,2.008,0.2,2.881,0.601s1.621,0.947,2.246,1.641s1.11,1.509,1.455,2.446s0.518,1.94,0.518,3.008s-0.174,2.069-0.522,3.003
	s-0.836,1.75-1.465,2.446s-1.377,1.245-2.246,1.646S8.844,130.876,7.803,130.876z M7.803,129.06c0.775,0,1.476-0.16,2.104-0.479
	s1.164-0.747,1.606-1.284s0.785-1.161,1.025-1.87s0.361-1.458,0.361-2.246c0-0.807-0.132-1.587-0.396-2.339
	s-0.631-1.388-1.104-1.909s-1.021-0.923-1.646-1.206s-1.276-0.425-1.953-0.425c-0.775,0-1.478,0.16-2.109,0.479
	s-1.168,0.747-1.611,1.284s-0.785,1.162-1.025,1.875s-0.361,1.46-0.361,2.241c0,0.912,0.133,1.724,0.4,2.437s0.62,1.305,1.06,1.777
	s0.963,0.868,1.572,1.187S7.028,129.06,7.803,129.06z"/>
<path fill="#757575" d="M19.502,120.466h2.373v1.475h-2.393l-0.029,5.84c0,0.397,0.045,0.719,0.137,0.967s0.238,0.418,0.439,0.513
	s0.43,0.142,0.684,0.142c0.273,0,0.514-0.024,0.723-0.073s0.436-0.132,0.684-0.249l0.42,1.221c-0.312,0.163-0.641,0.292-0.986,0.386
	s-0.752,0.142-1.221,0.142c-0.443,0-0.829-0.054-1.157-0.161s-0.605-0.288-0.83-0.542s-0.392-0.594-0.503-1.021
	s-0.166-0.958-0.166-1.597l0.029-5.566h-1.611v-1.475h1.631v-2.422l1.777-0.84V120.466z"/>
<path fill="#757575" d="M24.15,115.388h3.203v6.191h0.059c0.182-0.182,0.392-0.353,0.63-0.513s0.487-0.298,0.747-0.415
	s0.531-0.208,0.811-0.273s0.573-0.098,0.879-0.098c0.541,0,1.029,0.075,1.465,0.225s0.807,0.377,1.113,0.684
	s0.542,0.698,0.708,1.177s0.249,1.043,0.249,1.694v4.844h1.523v1.68h-4.805v-1.68h1.387v-4.619c0-0.775-0.197-1.362-0.591-1.763
	s-0.958-0.601-1.694-0.601c-0.417,0-0.84,0.099-1.27,0.298s-0.833,0.448-1.211,0.747v5.938h1.465v1.68h-4.805v-1.68h1.523v-11.836
	H24.15V115.388z"/>
<path fill="#757575" d="M38.955,125.759c0,0.287,0.021,0.548,0.063,0.786s0.103,0.464,0.181,0.679
	c0.241,0.651,0.626,1.141,1.157,1.47s1.131,0.493,1.802,0.493c0.527,0,1.04-0.073,1.538-0.22s1.021-0.376,1.567-0.688l0.732,1.24
	c-0.664,0.456-1.332,0.794-2.002,1.016s-1.367,0.332-2.09,0.332c-0.684,0-1.317-0.114-1.899-0.342s-1.084-0.566-1.504-1.016
	s-0.749-1.009-0.986-1.68s-0.356-1.452-0.356-2.344c0-0.723,0.101-1.405,0.303-2.046s0.503-1.201,0.903-1.68
	s0.897-0.858,1.489-1.138s1.283-0.42,2.07-0.42c0.762,0,1.398,0.116,1.909,0.347s0.928,0.537,1.25,0.918s0.566,0.815,0.732,1.304
	s0.282,0.986,0.347,1.494c0.033,0.248,0.054,0.498,0.063,0.752s0.015,0.501,0.015,0.742H38.955z M41.797,121.726
	c-0.423,0-0.792,0.06-1.108,0.181s-0.584,0.293-0.806,0.518s-0.399,0.5-0.532,0.825s-0.233,0.69-0.298,1.094h5.244
	c-0.026-0.377-0.086-0.726-0.181-1.045s-0.239-0.596-0.435-0.83s-0.446-0.417-0.752-0.547S42.246,121.726,41.797,121.726z"/>
<path fill="#757575" d="M55.986,122.605h-1.855v-0.625c-0.215,0-0.435,0.041-0.659,0.122s-0.435,0.205-0.63,0.371
	s-0.366,0.377-0.513,0.635s-0.252,0.562-0.317,0.913v4.883h1.719v1.68h-5.02v-1.68h1.396l0.01-6.758h-1.406v-1.68h3.232v1.396
	c0.117-0.208,0.249-0.402,0.396-0.581s0.309-0.335,0.488-0.469s0.377-0.238,0.596-0.312s0.454-0.112,0.708-0.112
	c0.338,0,0.658,0,0.957,0s0.599,0.006,0.898,0.02V122.605z"/>
</svg>
