<?xml version="1.0" encoding="utf-8"?>
<!-- Generator: Adobe Illustrator 15.0.0, SVG Export Plug-In  -->
<!DOCTYPE svg PUBLIC "-//W3C//DTD SVG 1.1//EN" "http://www.w3.org/Graphics/SVG/1.1/DTD/svg11.dtd" [
	<!ENTITY ns_flows "http://ns.adobe.com/Flows/1.0/">
]>
<svg version="1.1"
	 xmlns="http://www.w3.org/2000/svg" xmlns:xlink="http://www.w3.org/1999/xlink" xmlns:a="http://ns.adobe.com/AdobeSVGViewerExtensions/3.0/"
	 x="0px" y="0px" width="600px" height="371px" viewBox="-18.55 -44.557 600 371"
	 overflow="visible" enable-background="new -18.55 -44.557 600 371" xml:space="preserve">
<defs>
</defs>
<path d="M258.178,12.191c7.697-1.219,15.479-1.832,23.272-1.832v148.767L258.178,12.191z"/>
<path fill="#CE3262" d="M168.327,255.743c-34.97-40.944-45.086-97.59-26.449-148.107c18.638-50.517,63.117-87.021,116.3-95.444
	l23.272,146.936L168.327,255.743z"/>
<path fill="#00ADD8" d="M281.45,10.36c68.783,0,128.599,47.155,144.655,114.038c16.058,66.883-15.83,136.053-77.117,167.281
	s-135.99,16.368-180.661-35.936l113.123-96.616V10.36z"/>
<path fill="none" stroke="#757575" stroke-miterlimit="10" d="M0,26.86h126.684l143.678-8.626"/>
<path fill="#9E9E9E" d="M272.361,18.234c0-1.104-0.896-2-2-2s-2,0.896-2,2c0,1.105,0.896,2,2,2S272.361,19.339,272.361,18.234"/>
<path fill="none" stroke="#757575" stroke-miterlimit="10" d="M0,110.21h126.684h22.173"/>
<path fill="#9E9E9E" d="M150.856,110.21c0-1.104-0.895-2-2-2c-1.104,0-2,0.896-2,2s0.896,2,2,2
	C149.962,112.21,150.856,111.315,150.856,110.21"/>
<path fill="none" stroke="#757575" stroke-miterlimit="10" d="M562.899,218.295H436.217h-26.421"/>
<path fill="#9E9E9E" d="M411.796,218.295c0-1.104-0.896-2-2-2s-2,0.896-2,2c0,1.105,0.896,2,2,2S411.796,219.4,411.796,218.295"/>
<path fill="#757575" d="M454.072,204.762h1.688v-13.723h-1.688v-2.051l7.992,0.023c0.719,0,1.395,0.135,2.027,0.404
	s1.184,0.637,1.652,1.102s0.838,1.014,1.107,1.646s0.404,1.312,0.404,2.039c0,0.758-0.211,1.449-0.633,2.074s-1.023,1.125-1.805,1.5
	c0.383,0.203,0.73,0.439,1.043,0.709s0.578,0.564,0.797,0.885s0.389,0.66,0.51,1.02s0.182,0.727,0.182,1.102
	c0,0.742-0.135,1.434-0.404,2.074s-0.639,1.199-1.107,1.676s-1.018,0.852-1.646,1.125s-1.303,0.41-2.021,0.41h-8.098V204.762z
	 M458.057,191.039v5.801h4.031c0.375,0,0.725-0.074,1.049-0.223s0.605-0.348,0.844-0.598s0.428-0.539,0.568-0.867
	s0.211-0.668,0.211-1.02c0-0.383-0.07-0.76-0.211-1.131s-0.332-0.701-0.574-0.99s-0.525-0.523-0.85-0.703s-0.67-0.27-1.037-0.27
	H458.057z M458.057,198.879v5.883h4.137c0.375,0,0.723-0.094,1.043-0.281s0.602-0.432,0.844-0.732s0.432-0.643,0.568-1.025
	s0.205-0.773,0.205-1.172c0-0.344-0.07-0.676-0.211-0.996s-0.33-0.605-0.568-0.855s-0.52-0.449-0.844-0.598s-0.67-0.223-1.037-0.223
	H458.057z"/>
<path fill="#757575" d="M471.475,200.988c0,0.344,0.025,0.658,0.076,0.943s0.123,0.557,0.217,0.814
	c0.289,0.781,0.752,1.369,1.389,1.764s1.357,0.592,2.162,0.592c0.633,0,1.248-0.088,1.846-0.264s1.225-0.451,1.881-0.826
	l0.879,1.488c-0.797,0.547-1.598,0.953-2.402,1.219s-1.641,0.398-2.508,0.398c-0.82,0-1.58-0.137-2.279-0.41
	s-1.301-0.68-1.805-1.219s-0.898-1.211-1.184-2.016s-0.428-1.742-0.428-2.812c0-0.867,0.121-1.686,0.363-2.455
	s0.604-1.441,1.084-2.016s1.076-1.029,1.787-1.365s1.539-0.504,2.484-0.504c0.914,0,1.678,0.139,2.291,0.416s1.113,0.645,1.5,1.102
	s0.68,0.979,0.879,1.564s0.338,1.184,0.416,1.793c0.039,0.297,0.064,0.598,0.076,0.902s0.018,0.602,0.018,0.891H471.475z
	 M474.885,196.148c-0.508,0-0.951,0.072-1.33,0.217s-0.701,0.352-0.967,0.621s-0.479,0.6-0.639,0.99s-0.279,0.828-0.357,1.312h6.293
	c-0.031-0.453-0.104-0.871-0.217-1.254s-0.287-0.715-0.521-0.996s-0.535-0.5-0.902-0.656S475.424,196.148,474.885,196.148z"/>
<path fill="#757575" d="M492.064,205.711c-0.398,0.422-0.861,0.75-1.389,0.984s-1.127,0.352-1.799,0.352
	c-0.82,0-1.584-0.143-2.291-0.428s-1.32-0.703-1.84-1.254s-0.926-1.227-1.219-2.027s-0.439-1.717-0.439-2.748
	c0-0.938,0.141-1.791,0.422-2.561s0.68-1.426,1.195-1.969s1.137-0.965,1.863-1.266s1.535-0.451,2.426-0.451
	c0.609,0,1.158,0.068,1.646,0.205s0.963,0.373,1.424,0.709v-0.621h2.18v11.66c0,1.922-0.455,3.375-1.365,4.359
	s-2.326,1.477-4.248,1.477c-0.422,0-0.863-0.031-1.324-0.094s-0.916-0.162-1.365-0.299s-0.887-0.311-1.312-0.521
	s-0.818-0.469-1.178-0.773l1.172-1.77c0.234,0.203,0.502,0.391,0.803,0.562s0.623,0.318,0.967,0.439s0.699,0.217,1.066,0.287
	s0.734,0.105,1.102,0.105c0.602,0,1.123-0.062,1.564-0.188s0.805-0.346,1.09-0.662s0.498-0.744,0.639-1.283s0.211-1.223,0.211-2.051
	V205.711z M489.158,205.148c0.359,0,0.688-0.035,0.984-0.105s0.566-0.162,0.809-0.275s0.455-0.244,0.639-0.393
	s0.342-0.305,0.475-0.469v-6.645c-0.398-0.352-0.857-0.605-1.377-0.762s-1.053-0.234-1.6-0.234c-0.516,0-1,0.096-1.453,0.287
	s-0.85,0.471-1.189,0.838s-0.607,0.816-0.803,1.348s-0.293,1.141-0.293,1.828c0,0.75,0.094,1.41,0.281,1.98s0.449,1.049,0.785,1.436
	s0.738,0.678,1.207,0.873S488.604,205.148,489.158,205.148z"/>
<path fill="#757575" d="M497.15,194.637h3.961v10.125h1.828v2.016h-5.766v-2.016h1.734v-8.109h-1.758V194.637z M498.498,190.336
	c0-0.203,0.041-0.396,0.123-0.58s0.191-0.344,0.328-0.48s0.299-0.246,0.486-0.328s0.387-0.123,0.598-0.123
	c0.203,0,0.396,0.041,0.58,0.123s0.344,0.191,0.48,0.328s0.246,0.297,0.328,0.48s0.123,0.377,0.123,0.58
	c0,0.211-0.041,0.41-0.123,0.598s-0.191,0.354-0.328,0.498s-0.297,0.258-0.48,0.34s-0.377,0.123-0.58,0.123
	c-0.211,0-0.41-0.041-0.598-0.123s-0.35-0.195-0.486-0.34s-0.246-0.311-0.328-0.498S498.498,190.547,498.498,190.336z"/>
<path fill="#757575" d="M512.936,204.762h1.711v-5.543c0-0.93-0.236-1.635-0.709-2.115s-1.15-0.721-2.033-0.721
	c-0.508,0-1.02,0.121-1.535,0.363s-1.004,0.543-1.465,0.902v7.113h1.711v2.016h-5.672v-2.016h1.688v-8.109h-1.688v-2.016h3.867v1.43
	h0.023c0.258-0.227,0.533-0.441,0.826-0.645s0.6-0.379,0.92-0.527s0.654-0.266,1.002-0.352s0.713-0.129,1.096-0.129
	c0.648,0,1.234,0.09,1.758,0.27s0.969,0.453,1.336,0.82s0.65,0.838,0.85,1.412s0.299,1.252,0.299,2.033v5.812h1.688v2.016h-5.672
	V204.762z"/>
<path fill="#757575" d="M528.943,204.762h1.711v-5.543c0-0.93-0.236-1.635-0.709-2.115s-1.15-0.721-2.033-0.721
	c-0.508,0-1.02,0.121-1.535,0.363s-1.004,0.543-1.465,0.902v7.113h1.711v2.016h-5.672v-2.016h1.688v-8.109h-1.688v-2.016h3.867v1.43
	h0.023c0.258-0.227,0.533-0.441,0.826-0.645s0.6-0.379,0.92-0.527s0.654-0.266,1.002-0.352s0.713-0.129,1.096-0.129
	c0.648,0,1.234,0.09,1.758,0.27s0.969,0.453,1.336,0.82s0.65,0.838,0.85,1.412s0.299,1.252,0.299,2.033v5.812h1.688v2.016h-5.672
	V204.762z"/>
<path fill="#757575" d="M539.021,200.988c0,0.344,0.025,0.658,0.076,0.943s0.123,0.557,0.217,0.814
	c0.289,0.781,0.752,1.369,1.389,1.764s1.357,0.592,2.162,0.592c0.633,0,1.248-0.088,1.846-0.264s1.225-0.451,1.881-0.826
	l0.879,1.488c-0.797,0.547-1.598,0.953-2.402,1.219s-1.641,0.398-2.508,0.398c-0.82,0-1.58-0.137-2.279-0.41
	s-1.301-0.68-1.805-1.219s-0.898-1.211-1.184-2.016s-0.428-1.742-0.428-2.812c0-0.867,0.121-1.686,0.363-2.455
	s0.604-1.441,1.084-2.016s1.076-1.029,1.787-1.365s1.539-0.504,2.484-0.504c0.914,0,1.678,0.139,2.291,0.416s1.113,0.645,1.5,1.102
	s0.68,0.979,0.879,1.564s0.338,1.184,0.416,1.793c0.039,0.297,0.064,0.598,0.076,0.902s0.018,0.602,0.018,0.891H539.021z
	 M542.432,196.148c-0.508,0-0.951,0.072-1.33,0.217s-0.701,0.352-0.967,0.621s-0.479,0.6-0.639,0.99s-0.279,0.828-0.357,1.312h6.293
	c-0.031-0.453-0.104-0.871-0.217-1.254s-0.287-0.715-0.521-0.996s-0.535-0.5-0.902-0.656S542.971,196.148,542.432,196.148z"/>
<path fill="#757575" d="M559.459,197.203h-2.227v-0.75c-0.258,0-0.521,0.049-0.791,0.146s-0.521,0.246-0.756,0.445
	s-0.439,0.453-0.615,0.762s-0.303,0.674-0.381,1.096v5.859h2.062v2.016h-6.023v-2.016h1.676l0.012-8.109h-1.688v-2.016h3.879v1.676
	c0.141-0.25,0.299-0.482,0.475-0.697s0.371-0.402,0.586-0.562s0.453-0.285,0.715-0.375s0.545-0.135,0.85-0.135
	c0.406,0,0.789,0,1.148,0s0.719,0.008,1.078,0.023V197.203z"/>
<path fill="#FFFFFF" d="M317.501,174.678l-3.984,6.645c0.477-0.203,0.908-0.32,1.295-0.352s0.732-0.047,1.037-0.047
	c0.719,0,1.414,0.135,2.086,0.404s1.268,0.648,1.787,1.137s0.936,1.07,1.248,1.746s0.469,1.42,0.469,2.232
	c0,0.992-0.168,1.875-0.504,2.648s-0.789,1.426-1.359,1.957s-1.232,0.936-1.986,1.213s-1.553,0.416-2.396,0.416
	c-0.797,0-1.564-0.145-2.303-0.434s-1.393-0.693-1.963-1.213s-1.025-1.145-1.365-1.875s-0.51-1.541-0.51-2.432
	c0-0.688,0.131-1.367,0.393-2.039s0.588-1.375,0.979-2.109l4.348-7.898H317.501z M314.935,182.846c-0.562,0-1.041,0.088-1.436,0.264
	s-0.768,0.422-1.119,0.738s-0.629,0.719-0.832,1.207s-0.305,1.053-0.305,1.693c0,0.609,0.102,1.156,0.305,1.641
	s0.484,0.893,0.844,1.225s0.783,0.586,1.271,0.762s1.018,0.264,1.588,0.264c0.531,0,1.039-0.094,1.523-0.281s0.91-0.453,1.277-0.797
	s0.66-0.754,0.879-1.23s0.328-1.004,0.328-1.582c0-0.641-0.117-1.205-0.352-1.693s-0.549-0.896-0.943-1.225
	s-0.854-0.574-1.377-0.738S315.513,182.846,314.935,182.846z"/>
<path fill="#FFFFFF" d="M331.728,179.318c0-0.305-0.064-0.631-0.193-0.979s-0.328-0.668-0.598-0.961s-0.609-0.535-1.02-0.727
	s-0.893-0.287-1.447-0.287c-0.461,0-0.881,0.08-1.26,0.24s-0.756,0.459-1.131,0.896s-0.578,0.922-0.609,1.453h-2.227
	c0.039-0.68,0.209-1.293,0.51-1.84s0.682-1.027,1.143-1.441s1-0.742,1.617-0.984s1.262-0.363,1.934-0.363
	c0.836,0,1.594,0.139,2.273,0.416s1.26,0.645,1.74,1.102s0.852,0.979,1.113,1.564s0.393,1.184,0.393,1.793
	c0,0.375-0.047,0.75-0.141,1.125s-0.24,0.732-0.439,1.072s-0.455,0.654-0.768,0.943s-0.691,0.543-1.137,0.762
	c0.367,0.141,0.713,0.338,1.037,0.592s0.607,0.557,0.85,0.908s0.434,0.75,0.574,1.195s0.211,0.934,0.211,1.465
	c0,0.766-0.148,1.475-0.445,2.127s-0.699,1.217-1.207,1.693s-1.104,0.85-1.787,1.119s-1.416,0.404-2.197,0.404
	c-0.719,0-1.432-0.127-2.139-0.381s-1.307-0.615-1.799-1.084s-0.855-0.957-1.09-1.465s-0.375-1.012-0.422-1.512h2.25
	c0.227,0.727,0.631,1.297,1.213,1.711s1.322,0.621,2.221,0.621c0.406,0,0.803-0.082,1.189-0.246s0.729-0.393,1.025-0.686
	s0.535-0.637,0.715-1.031s0.27-0.826,0.27-1.295c0-0.492-0.09-0.938-0.27-1.336s-0.422-0.736-0.727-1.014s-0.658-0.492-1.061-0.645
	s-0.83-0.229-1.283-0.229h-1.008v-1.77h0.82c0.516,0,0.979-0.076,1.389-0.229s0.756-0.361,1.037-0.627s0.498-0.576,0.65-0.932
	S331.728,179.725,331.728,179.318z"/>
<path fill="#FFFFFF" d="M336.72,191.025c0-0.203,0.041-0.396,0.123-0.58s0.193-0.344,0.334-0.48s0.303-0.246,0.486-0.328
	s0.381-0.123,0.592-0.123c0.203,0,0.396,0.041,0.58,0.123s0.344,0.191,0.48,0.328s0.246,0.297,0.328,0.48s0.123,0.377,0.123,0.58
	c0,0.211-0.041,0.41-0.123,0.598s-0.191,0.354-0.328,0.498s-0.297,0.258-0.48,0.34s-0.377,0.123-0.58,0.123
	c-0.211,0-0.408-0.041-0.592-0.123s-0.346-0.195-0.486-0.34s-0.252-0.311-0.334-0.498S336.72,191.236,336.72,191.025z"/>
<path fill="#FFFFFF" d="M348.333,174.35c0.672,0,1.307,0.121,1.904,0.363s1.123,0.574,1.576,0.996s0.811,0.916,1.072,1.482
	s0.393,1.17,0.393,1.811c0,0.766-0.18,1.473-0.539,2.121s-0.84,1.184-1.441,1.605c0.398,0.234,0.762,0.514,1.09,0.838
	s0.609,0.68,0.844,1.066s0.416,0.803,0.545,1.248s0.193,0.906,0.193,1.383c0,0.742-0.15,1.438-0.451,2.086s-0.709,1.217-1.225,1.705
	s-1.117,0.873-1.805,1.154s-1.422,0.422-2.203,0.422c-0.789,0-1.531-0.141-2.227-0.422s-1.301-0.666-1.816-1.154
	s-0.924-1.057-1.225-1.705s-0.451-1.344-0.451-2.086c0-0.477,0.064-0.939,0.193-1.389s0.312-0.867,0.551-1.254
	s0.523-0.742,0.855-1.066s0.701-0.604,1.107-0.838c-0.594-0.43-1.064-0.967-1.412-1.611s-0.521-1.346-0.521-2.104
	c0-0.641,0.129-1.244,0.387-1.811s0.611-1.061,1.061-1.482s0.979-0.754,1.588-0.996S347.638,174.35,348.333,174.35z
	 M344.712,187.217c0,0.461,0.094,0.896,0.281,1.307s0.443,0.768,0.768,1.072s0.703,0.547,1.137,0.727s0.896,0.27,1.389,0.27
	c0.484,0,0.941-0.09,1.371-0.27s0.807-0.422,1.131-0.727s0.58-0.662,0.768-1.072s0.281-0.846,0.281-1.307
	c0-0.453-0.094-0.883-0.281-1.289s-0.443-0.762-0.768-1.066s-0.701-0.545-1.131-0.721s-0.887-0.264-1.371-0.264
	c-0.492,0-0.955,0.088-1.389,0.264s-0.812,0.416-1.137,0.721s-0.58,0.66-0.768,1.066S344.712,186.764,344.712,187.217z
	 M345.356,179.049c0,0.391,0.074,0.756,0.223,1.096s0.355,0.637,0.621,0.891s0.58,0.455,0.943,0.604s0.76,0.223,1.189,0.223
	c0.398,0,0.773-0.074,1.125-0.223s0.662-0.35,0.932-0.604s0.482-0.551,0.639-0.891s0.234-0.705,0.234-1.096
	c0-0.383-0.078-0.744-0.234-1.084s-0.369-0.637-0.639-0.891s-0.58-0.455-0.932-0.604s-0.727-0.223-1.125-0.223
	c-0.43,0-0.826,0.074-1.189,0.223s-0.678,0.35-0.943,0.604s-0.473,0.551-0.621,0.891S345.356,178.666,345.356,179.049z"/>
<path fill="#FFFFFF" d="M356.404,184.466c0-0.306,0.058-0.596,0.171-0.872c0.113-0.275,0.274-0.517,0.482-0.725
	c0.207-0.207,0.454-0.371,0.741-0.492c0.287-0.12,0.602-0.181,0.943-0.181s0.656,0.061,0.943,0.181
	c0.287,0.121,0.533,0.285,0.738,0.492c0.205,0.208,0.366,0.449,0.481,0.725c0.117,0.276,0.175,0.566,0.175,0.872
	c0,0.31-0.056,0.602-0.167,0.875c-0.112,0.273-0.271,0.515-0.476,0.725s-0.451,0.375-0.738,0.495
	c-0.287,0.121-0.606,0.182-0.957,0.182c-0.355,0-0.677-0.061-0.964-0.182c-0.287-0.12-0.532-0.285-0.734-0.495
	c-0.203-0.21-0.36-0.451-0.473-0.725C356.46,185.067,356.404,184.775,356.404,184.466z M364.45,181.916h1.333l-7.116,10.637h-1.326
	L364.45,181.916z M358.742,183.317c-0.164,0-0.317,0.028-0.462,0.085c-0.143,0.058-0.269,0.137-0.375,0.24
	c-0.107,0.102-0.191,0.225-0.254,0.365c-0.061,0.141-0.092,0.294-0.092,0.458c0,0.159,0.031,0.312,0.092,0.454
	c0.062,0.145,0.146,0.27,0.254,0.377c0.106,0.106,0.232,0.191,0.375,0.252c0.145,0.062,0.298,0.093,0.462,0.093
	c0.159,0,0.31-0.03,0.451-0.093c0.142-0.061,0.265-0.145,0.369-0.249s0.188-0.229,0.249-0.372c0.062-0.145,0.093-0.298,0.093-0.462
	s-0.03-0.317-0.093-0.458c-0.061-0.141-0.145-0.264-0.249-0.365c-0.104-0.104-0.228-0.183-0.369-0.24
	C359.052,183.346,358.901,183.317,358.742,183.317z M362.324,190.235c0-0.306,0.058-0.595,0.171-0.868s0.274-0.514,0.482-0.721
	c0.207-0.208,0.454-0.373,0.741-0.496s0.602-0.185,0.943-0.185s0.656,0.062,0.943,0.185s0.534,0.288,0.741,0.496
	c0.208,0.207,0.369,0.447,0.482,0.721S367,189.93,367,190.235c0,0.31-0.056,0.603-0.167,0.878c-0.112,0.276-0.27,0.518-0.473,0.725
	c-0.202,0.208-0.447,0.373-0.734,0.496s-0.608,0.185-0.964,0.185s-0.677-0.062-0.964-0.185s-0.532-0.288-0.734-0.496
	c-0.203-0.207-0.36-0.448-0.473-0.725C362.38,190.838,362.324,190.545,362.324,190.235z M364.662,189.087
	c-0.159,0-0.312,0.03-0.454,0.089c-0.145,0.059-0.27,0.141-0.377,0.242c-0.106,0.104-0.191,0.224-0.252,0.363
	c-0.062,0.139-0.093,0.29-0.093,0.454c0,0.159,0.03,0.312,0.093,0.454c0.061,0.145,0.146,0.27,0.252,0.377
	c0.107,0.106,0.232,0.191,0.377,0.252c0.143,0.062,0.295,0.093,0.454,0.093s0.31-0.03,0.451-0.093
	c0.142-0.061,0.265-0.145,0.369-0.249s0.188-0.229,0.249-0.372c0.062-0.145,0.093-0.298,0.093-0.462s-0.03-0.315-0.093-0.454
	c-0.061-0.14-0.145-0.26-0.249-0.363c-0.104-0.102-0.228-0.184-0.369-0.242S364.821,189.087,364.662,189.087z"/>
<path fill="#757575" d="M2.38,83.493h5.199v1.858H6.032V97.93h1.547v1.848H2.38V97.93h1.547V85.351H2.38V83.493z"/>
<path fill="#757575" d="M17.516,97.93h1.568v-5.081c0-0.852-0.217-1.499-0.65-1.939C18,90.47,17.379,90.25,16.57,90.25
	c-0.466,0-0.935,0.111-1.407,0.333c-0.473,0.222-0.92,0.498-1.343,0.827v6.521h1.568v1.848h-5.199V97.93h1.547v-7.434h-1.547v-1.848
	h3.545v1.311h0.021c0.236-0.208,0.489-0.404,0.757-0.591c0.269-0.186,0.549-0.347,0.843-0.483c0.293-0.136,0.6-0.243,0.918-0.322
	c0.318-0.079,0.653-0.118,1.004-0.118c0.594,0,1.131,0.083,1.611,0.247c0.479,0.165,0.888,0.416,1.225,0.752
	c0.336,0.337,0.596,0.768,0.779,1.294s0.274,1.148,0.274,1.864v5.328h1.547v1.848h-5.199V97.93z"/>
<path fill="#757575" d="M28.086,88.649h2.61v1.622h-2.632l-0.032,6.424c0,0.437,0.05,0.792,0.15,1.063
	c0.1,0.272,0.261,0.46,0.483,0.564c0.222,0.104,0.473,0.156,0.752,0.156c0.301,0,0.565-0.027,0.795-0.081
	c0.229-0.054,0.479-0.145,0.752-0.274l0.462,1.343c-0.344,0.179-0.706,0.32-1.085,0.424c-0.38,0.104-0.827,0.156-1.343,0.156
	c-0.487,0-0.912-0.059-1.273-0.177c-0.362-0.118-0.666-0.317-0.913-0.596s-0.432-0.653-0.553-1.123
	c-0.122-0.469-0.183-1.054-0.183-1.756l0.032-6.123h-1.772v-1.622h1.794v-2.664l1.955-0.924V88.649z"/>
<path fill="#757575" d="M34.939,94.471c0,0.315,0.023,0.604,0.07,0.865c0.046,0.262,0.113,0.51,0.199,0.747
	c0.265,0.716,0.689,1.255,1.273,1.617c0.583,0.362,1.244,0.542,1.982,0.542c0.58,0,1.144-0.081,1.692-0.242s1.123-0.414,1.724-0.757
	l0.806,1.364c-0.73,0.501-1.465,0.874-2.202,1.117c-0.738,0.243-1.504,0.365-2.299,0.365c-0.752,0-1.449-0.125-2.089-0.376
	c-0.641-0.25-1.192-0.623-1.654-1.117s-0.824-1.11-1.085-1.848c-0.262-0.737-0.392-1.597-0.392-2.578
	c0-0.795,0.111-1.545,0.333-2.25c0.222-0.705,0.553-1.321,0.994-1.848s0.986-0.943,1.638-1.251c0.651-0.308,1.411-0.462,2.277-0.462
	c0.838,0,1.538,0.127,2.1,0.381c0.562,0.254,1.021,0.591,1.375,1.01s0.623,0.897,0.806,1.434s0.31,1.085,0.381,1.644
	c0.036,0.272,0.059,0.548,0.07,0.827s0.016,0.552,0.016,0.816H34.939z M38.065,90.035c-0.466,0-0.872,0.066-1.219,0.199
	c-0.348,0.133-0.643,0.322-0.886,0.569c-0.244,0.247-0.439,0.55-0.585,0.908c-0.147,0.358-0.256,0.759-0.328,1.203h5.769
	c-0.029-0.415-0.095-0.798-0.199-1.149c-0.104-0.351-0.263-0.655-0.478-0.913s-0.491-0.458-0.827-0.602
	C38.975,90.106,38.56,90.035,38.065,90.035z"/>
<path fill="#757575" d="M53.674,91.001h-2.041v-0.688c-0.236,0-0.478,0.045-0.725,0.134c-0.247,0.09-0.478,0.226-0.693,0.408
	s-0.403,0.416-0.564,0.698c-0.161,0.283-0.278,0.618-0.349,1.004v5.371h1.891v1.848h-5.521V97.93h1.536l0.011-7.434h-1.547v-1.848
	h3.556v1.536c0.129-0.229,0.274-0.442,0.435-0.639c0.161-0.197,0.34-0.369,0.537-0.516c0.197-0.146,0.415-0.261,0.655-0.344
	c0.24-0.082,0.5-0.124,0.779-0.124c0.372,0,0.723,0,1.053,0c0.329,0,0.659,0.007,0.988,0.021V91.001z"/>
<path fill="#757575" d="M55.983,88.649h3.545v1.3h0.021c0.243-0.208,0.5-0.403,0.768-0.585s0.549-0.342,0.843-0.478
	c0.293-0.136,0.6-0.243,0.918-0.322c0.318-0.079,0.65-0.118,0.994-0.118c0.802,0,1.493,0.149,2.073,0.446
	c0.58,0.297,1.027,0.761,1.343,1.391c0.272-0.243,0.559-0.478,0.859-0.704s0.614-0.42,0.94-0.585
	c0.326-0.165,0.667-0.297,1.026-0.397c0.358-0.1,0.73-0.15,1.117-0.15c0.602,0,1.142,0.083,1.622,0.247
	c0.479,0.165,0.888,0.416,1.225,0.752c0.336,0.337,0.592,0.768,0.768,1.294c0.175,0.526,0.263,1.148,0.263,1.864v5.328h1.547v1.848
	h-5.199V97.93h1.568v-5.081c0-0.852-0.215-1.499-0.645-1.939s-1.049-0.661-1.858-0.661c-0.48,0-0.971,0.115-1.472,0.344
	c-0.501,0.229-0.931,0.52-1.289,0.87v6.467h1.536v1.848H63.31V97.93h1.568v-5.081c0-0.852-0.217-1.499-0.65-1.939
	c-0.434-0.44-1.055-0.661-1.864-0.661c-0.466,0-0.935,0.111-1.407,0.333c-0.473,0.222-0.92,0.498-1.343,0.827v6.521h1.568v1.848
	h-5.199V97.93h1.547v-7.434h-1.547V88.649z"/>
<path fill="#757575" d="M79.896,94.471c0,0.315,0.023,0.604,0.07,0.865c0.046,0.262,0.113,0.51,0.199,0.747
	c0.265,0.716,0.689,1.255,1.273,1.617c0.583,0.362,1.244,0.542,1.982,0.542c0.58,0,1.144-0.081,1.692-0.242s1.123-0.414,1.724-0.757
	l0.806,1.364c-0.73,0.501-1.465,0.874-2.202,1.117c-0.738,0.243-1.504,0.365-2.299,0.365c-0.752,0-1.449-0.125-2.089-0.376
	c-0.641-0.25-1.192-0.623-1.654-1.117s-0.824-1.11-1.085-1.848c-0.262-0.737-0.392-1.597-0.392-2.578
	c0-0.795,0.111-1.545,0.333-2.25c0.222-0.705,0.553-1.321,0.994-1.848s0.986-0.943,1.638-1.251c0.651-0.308,1.411-0.462,2.277-0.462
	c0.838,0,1.538,0.127,2.1,0.381c0.562,0.254,1.021,0.591,1.375,1.01s0.623,0.897,0.806,1.434s0.31,1.085,0.381,1.644
	c0.036,0.272,0.059,0.548,0.07,0.827s0.016,0.552,0.016,0.816H79.896z M83.021,90.035c-0.466,0-0.872,0.066-1.219,0.199
	c-0.348,0.133-0.643,0.322-0.886,0.569c-0.244,0.247-0.439,0.55-0.585,0.908c-0.147,0.358-0.256,0.759-0.328,1.203h5.769
	c-0.029-0.415-0.095-0.798-0.199-1.149c-0.104-0.351-0.263-0.655-0.478-0.913s-0.491-0.458-0.827-0.602
	C83.931,90.106,83.516,90.035,83.021,90.035z"/>
<path fill="#757575" d="M97.19,83.063h3.513V97.93h1.633v1.848h-3.631v-0.913c-0.358,0.365-0.773,0.65-1.246,0.854
	s-1.01,0.306-1.611,0.306c-0.752,0-1.452-0.131-2.1-0.392c-0.648-0.261-1.21-0.645-1.687-1.149
	c-0.477-0.505-0.849-1.124-1.117-1.858c-0.269-0.734-0.403-1.574-0.403-2.519c0-0.859,0.129-1.642,0.387-2.347
	c0.258-0.705,0.623-1.307,1.096-1.805c0.473-0.498,1.042-0.884,1.708-1.16c0.666-0.275,1.407-0.414,2.224-0.414
	c0.537,0,1.027,0.059,1.472,0.177c0.444,0.118,0.87,0.324,1.278,0.618v-4.265H97.19V83.063z M96.105,98.285
	c0.594,0,1.092-0.087,1.493-0.263c0.401-0.175,0.77-0.438,1.106-0.79v-6.23c-0.358-0.301-0.77-0.519-1.235-0.655
	c-0.466-0.136-0.942-0.204-1.429-0.204c-0.473,0-0.917,0.088-1.332,0.263c-0.416,0.176-0.779,0.432-1.09,0.768
	c-0.312,0.337-0.557,0.749-0.736,1.235c-0.179,0.487-0.269,1.046-0.269,1.676c0,0.688,0.086,1.293,0.258,1.815
	c0.172,0.523,0.412,0.961,0.72,1.316c0.308,0.354,0.677,0.622,1.106,0.8C95.128,98.195,95.597,98.285,96.105,98.285z"/>
<path fill="#757575" d="M104.162,88.649h3.631v9.281h1.676v1.848h-5.285V97.93h1.59v-7.434h-1.611V88.649z M105.397,84.707
	c0-0.186,0.038-0.363,0.113-0.532c0.075-0.168,0.175-0.315,0.301-0.44c0.125-0.125,0.274-0.226,0.446-0.301s0.354-0.113,0.548-0.113
	c0.186,0,0.363,0.038,0.532,0.113c0.168,0.075,0.315,0.176,0.44,0.301c0.125,0.125,0.226,0.272,0.301,0.44
	c0.075,0.168,0.113,0.346,0.113,0.532c0,0.193-0.038,0.376-0.113,0.548s-0.176,0.324-0.301,0.457
	c-0.125,0.133-0.272,0.236-0.44,0.312c-0.168,0.075-0.346,0.113-0.532,0.113c-0.193,0-0.376-0.038-0.548-0.113
	s-0.321-0.179-0.446-0.312c-0.125-0.132-0.226-0.285-0.301-0.457S105.397,84.9,105.397,84.707z"/>
<path fill="#757575" d="M117.848,98.747c-0.423,0.394-0.89,0.716-1.402,0.967c-0.512,0.25-1.094,0.376-1.746,0.376
	c-0.544,0-1.044-0.086-1.499-0.258c-0.455-0.172-0.847-0.406-1.176-0.704c-0.33-0.297-0.585-0.643-0.768-1.037
	c-0.183-0.394-0.274-0.812-0.274-1.257c0-0.473,0.07-0.892,0.209-1.257s0.326-0.682,0.559-0.951
	c0.232-0.269,0.505-0.494,0.816-0.677s0.637-0.329,0.978-0.44c0.34-0.111,0.688-0.189,1.042-0.236
	c0.354-0.046,0.693-0.07,1.015-0.07c0.516,0,0.949,0.016,1.3,0.048c0.351,0.032,0.669,0.077,0.956,0.134l0.011-0.913
	c0-0.394-0.058-0.736-0.172-1.026c-0.115-0.29-0.276-0.53-0.483-0.72c-0.208-0.189-0.457-0.331-0.747-0.424
	c-0.29-0.093-0.614-0.14-0.972-0.14c-0.337,0-0.659,0.023-0.967,0.07c-0.308,0.047-0.596,0.107-0.865,0.183
	s-0.516,0.161-0.741,0.258s-0.417,0.199-0.575,0.306l-0.655-1.386c0.265-0.172,0.555-0.331,0.87-0.478
	c0.315-0.146,0.646-0.272,0.994-0.376c0.347-0.104,0.702-0.186,1.063-0.247c0.361-0.061,0.718-0.091,1.069-0.091
	c0.645,0,1.225,0.077,1.74,0.231c0.516,0.154,0.952,0.392,1.311,0.714c0.358,0.322,0.634,0.732,0.827,1.23
	c0.193,0.498,0.29,1.094,0.29,1.789l-0.011,5.564h1.235v1.848h-3.233V98.747z M115.141,98.414c0.265,0,0.53-0.032,0.795-0.097
	c0.265-0.064,0.516-0.152,0.752-0.263c0.236-0.111,0.455-0.24,0.655-0.387c0.2-0.146,0.369-0.299,0.505-0.457l0.011-2.514h-2.32
	c-0.387,0-0.74,0.043-1.058,0.129c-0.319,0.086-0.595,0.211-0.827,0.376c-0.233,0.165-0.414,0.369-0.542,0.612
	c-0.129,0.244-0.193,0.523-0.193,0.838c0,0.294,0.054,0.55,0.161,0.768c0.107,0.219,0.259,0.401,0.457,0.548
	c0.197,0.147,0.431,0.258,0.704,0.333C114.51,98.376,114.811,98.414,115.141,98.414z"/>
<path fill="#757575" d="M126.56,88.649h2.61v1.622h-2.632l-0.032,6.424c0,0.437,0.05,0.792,0.15,1.063
	c0.1,0.272,0.261,0.46,0.483,0.564c0.222,0.104,0.473,0.156,0.752,0.156c0.301,0,0.565-0.027,0.795-0.081
	c0.229-0.054,0.479-0.145,0.752-0.274l0.462,1.343c-0.344,0.179-0.706,0.32-1.085,0.424c-0.38,0.104-0.827,0.156-1.343,0.156
	c-0.487,0-0.912-0.059-1.273-0.177c-0.362-0.118-0.666-0.317-0.913-0.596s-0.432-0.653-0.553-1.123
	c-0.122-0.469-0.183-1.054-0.183-1.756l0.032-6.123h-1.772v-1.622h1.794v-2.664l1.955-0.924V88.649z"/>
<path fill="#757575" d="M133.413,94.471c0,0.315,0.023,0.604,0.07,0.865c0.046,0.262,0.113,0.51,0.199,0.747
	c0.265,0.716,0.689,1.255,1.273,1.617c0.583,0.362,1.244,0.542,1.982,0.542c0.58,0,1.144-0.081,1.692-0.242s1.123-0.414,1.724-0.757
	l0.806,1.364c-0.73,0.501-1.465,0.874-2.202,1.117c-0.738,0.243-1.504,0.365-2.299,0.365c-0.752,0-1.449-0.125-2.089-0.376
	c-0.641-0.25-1.192-0.623-1.654-1.117s-0.824-1.11-1.085-1.848c-0.262-0.737-0.392-1.597-0.392-2.578
	c0-0.795,0.111-1.545,0.333-2.25c0.222-0.705,0.553-1.321,0.994-1.848s0.986-0.943,1.638-1.251c0.651-0.308,1.411-0.462,2.277-0.462
	c0.838,0,1.538,0.127,2.1,0.381c0.562,0.254,1.021,0.591,1.375,1.01s0.623,0.897,0.806,1.434s0.31,1.085,0.381,1.644
	c0.036,0.272,0.059,0.548,0.07,0.827s0.016,0.552,0.016,0.816H133.413z M136.539,90.035c-0.466,0-0.872,0.066-1.219,0.199
	c-0.348,0.133-0.643,0.322-0.886,0.569c-0.244,0.247-0.439,0.55-0.585,0.908c-0.147,0.358-0.256,0.759-0.328,1.203h5.769
	c-0.029-0.415-0.095-0.798-0.199-1.149c-0.104-0.351-0.263-0.655-0.478-0.913s-0.491-0.458-0.827-0.602
	C137.448,90.106,137.033,90.035,136.539,90.035z"/>
<path fill="#FFFFFF" d="M189.091,134.318c0-0.305-0.064-0.631-0.193-0.979s-0.328-0.668-0.598-0.961s-0.609-0.535-1.02-0.727
	s-0.893-0.287-1.447-0.287c-0.461,0-0.881,0.08-1.26,0.24s-0.756,0.459-1.131,0.896s-0.578,0.922-0.609,1.453h-2.227
	c0.039-0.68,0.209-1.293,0.51-1.84s0.682-1.027,1.143-1.441s1-0.742,1.617-0.984s1.262-0.363,1.934-0.363
	c0.836,0,1.594,0.139,2.273,0.416s1.26,0.645,1.74,1.102s0.852,0.979,1.113,1.564s0.393,1.184,0.393,1.793
	c0,0.375-0.047,0.75-0.141,1.125s-0.24,0.732-0.439,1.072s-0.455,0.654-0.768,0.943s-0.691,0.543-1.137,0.762
	c0.367,0.141,0.713,0.338,1.037,0.592s0.607,0.557,0.85,0.908s0.434,0.75,0.574,1.195s0.211,0.934,0.211,1.465
	c0,0.766-0.148,1.475-0.445,2.127s-0.699,1.217-1.207,1.693s-1.104,0.85-1.787,1.119s-1.416,0.404-2.197,0.404
	c-0.719,0-1.432-0.127-2.139-0.381s-1.307-0.615-1.799-1.084s-0.855-0.957-1.09-1.465s-0.375-1.012-0.422-1.512h2.25
	c0.227,0.727,0.631,1.297,1.213,1.711s1.322,0.621,2.221,0.621c0.406,0,0.803-0.082,1.189-0.246s0.729-0.393,1.025-0.686
	s0.535-0.637,0.715-1.031s0.27-0.826,0.27-1.295c0-0.492-0.09-0.938-0.27-1.336s-0.422-0.736-0.727-1.014s-0.658-0.492-1.061-0.645
	s-0.83-0.229-1.283-0.229h-1.008v-1.77h0.82c0.516,0,0.979-0.076,1.389-0.229s0.756-0.361,1.037-0.627s0.498-0.576,0.65-0.932
	S189.091,134.725,189.091,134.318z"/>
<path fill="#FFFFFF" d="M202.099,134.318c0-0.305-0.064-0.631-0.193-0.979s-0.328-0.668-0.598-0.961s-0.609-0.535-1.02-0.727
	s-0.893-0.287-1.447-0.287c-0.461,0-0.881,0.08-1.26,0.24s-0.756,0.459-1.131,0.896s-0.578,0.922-0.609,1.453h-2.227
	c0.039-0.68,0.209-1.293,0.51-1.84s0.682-1.027,1.143-1.441s1-0.742,1.617-0.984s1.262-0.363,1.934-0.363
	c0.836,0,1.594,0.139,2.273,0.416s1.26,0.645,1.74,1.102s0.852,0.979,1.113,1.564s0.393,1.184,0.393,1.793
	c0,0.375-0.047,0.75-0.141,1.125s-0.24,0.732-0.439,1.072s-0.455,0.654-0.768,0.943s-0.691,0.543-1.137,0.762
	c0.367,0.141,0.713,0.338,1.037,0.592s0.607,0.557,0.85,0.908s0.434,0.75,0.574,1.195s0.211,0.934,0.211,1.465
	c0,0.766-0.148,1.475-0.445,2.127s-0.699,1.217-1.207,1.693s-1.104,0.85-1.787,1.119s-1.416,0.404-2.197,0.404
	c-0.719,0-1.432-0.127-2.139-0.381s-1.307-0.615-1.799-1.084s-0.855-0.957-1.09-1.465s-0.375-1.012-0.422-1.512h2.25
	c0.227,0.727,0.631,1.297,1.213,1.711s1.322,0.621,2.221,0.621c0.406,0,0.803-0.082,1.189-0.246s0.729-0.393,1.025-0.686
	s0.535-0.637,0.715-1.031s0.27-0.826,0.27-1.295c0-0.492-0.09-0.938-0.27-1.336s-0.422-0.736-0.727-1.014s-0.658-0.492-1.061-0.645
	s-0.83-0.229-1.283-0.229h-1.008v-1.77h0.82c0.516,0,0.979-0.076,1.389-0.229s0.756-0.361,1.037-0.627s0.498-0.576,0.65-0.932
	S202.099,134.725,202.099,134.318z"/>
<path fill="#FFFFFF" d="M207.091,146.025c0-0.203,0.041-0.396,0.123-0.58s0.193-0.344,0.334-0.48s0.303-0.246,0.486-0.328
	s0.381-0.123,0.592-0.123c0.203,0,0.396,0.041,0.58,0.123s0.344,0.191,0.48,0.328s0.246,0.297,0.328,0.48s0.123,0.377,0.123,0.58
	c0,0.211-0.041,0.41-0.123,0.598s-0.191,0.354-0.328,0.498s-0.297,0.258-0.48,0.34s-0.377,0.123-0.58,0.123
	c-0.211,0-0.408-0.041-0.592-0.123s-0.346-0.195-0.486-0.34s-0.252-0.311-0.334-0.498S207.091,146.236,207.091,146.025z"/>
<path fill="#FFFFFF" d="M218.704,129.35c0.672,0,1.307,0.121,1.904,0.363s1.123,0.574,1.576,0.996s0.811,0.916,1.072,1.482
	s0.393,1.17,0.393,1.811c0,0.766-0.18,1.473-0.539,2.121s-0.84,1.184-1.441,1.605c0.398,0.234,0.762,0.514,1.09,0.838
	s0.609,0.68,0.844,1.066s0.416,0.803,0.545,1.248s0.193,0.906,0.193,1.383c0,0.742-0.15,1.438-0.451,2.086s-0.709,1.217-1.225,1.705
	s-1.117,0.873-1.805,1.154s-1.422,0.422-2.203,0.422c-0.789,0-1.531-0.141-2.227-0.422s-1.301-0.666-1.816-1.154
	s-0.924-1.057-1.225-1.705s-0.451-1.344-0.451-2.086c0-0.477,0.064-0.939,0.193-1.389s0.312-0.867,0.551-1.254
	s0.523-0.742,0.855-1.066s0.701-0.604,1.107-0.838c-0.594-0.43-1.064-0.967-1.412-1.611s-0.521-1.346-0.521-2.104
	c0-0.641,0.129-1.244,0.387-1.811s0.611-1.061,1.061-1.482s0.979-0.754,1.588-0.996S218.009,129.35,218.704,129.35z
	 M215.083,142.217c0,0.461,0.094,0.896,0.281,1.307s0.443,0.768,0.768,1.072s0.703,0.547,1.137,0.727s0.896,0.27,1.389,0.27
	c0.484,0,0.941-0.09,1.371-0.27s0.807-0.422,1.131-0.727s0.58-0.662,0.768-1.072s0.281-0.846,0.281-1.307
	c0-0.453-0.094-0.883-0.281-1.289s-0.443-0.762-0.768-1.066s-0.701-0.545-1.131-0.721s-0.887-0.264-1.371-0.264
	c-0.492,0-0.955,0.088-1.389,0.264s-0.812,0.416-1.137,0.721s-0.58,0.66-0.768,1.066S215.083,141.764,215.083,142.217z
	 M215.728,134.049c0,0.391,0.074,0.756,0.223,1.096s0.355,0.637,0.621,0.891s0.58,0.455,0.943,0.604s0.76,0.223,1.189,0.223
	c0.398,0,0.773-0.074,1.125-0.223s0.662-0.35,0.932-0.604s0.482-0.551,0.639-0.891s0.234-0.705,0.234-1.096
	c0-0.383-0.078-0.744-0.234-1.084s-0.369-0.637-0.639-0.891s-0.58-0.455-0.932-0.604s-0.727-0.223-1.125-0.223
	c-0.43,0-0.826,0.074-1.189,0.223s-0.678,0.35-0.943,0.604s-0.473,0.551-0.621,0.891S215.728,133.666,215.728,134.049z"/>
<path fill="#FFFFFF" d="M226.775,139.466c0-0.305,0.057-0.596,0.171-0.872s0.274-0.517,0.482-0.725s0.455-0.372,0.742-0.492
	s0.602-0.181,0.943-0.181s0.656,0.061,0.943,0.181s0.533,0.285,0.738,0.492s0.366,0.449,0.482,0.725s0.174,0.566,0.174,0.872
	c0,0.31-0.056,0.602-0.167,0.875s-0.27,0.515-0.475,0.725s-0.451,0.375-0.738,0.495c-0.287,0.121-0.606,0.182-0.957,0.182
	c-0.355,0-0.677-0.061-0.964-0.182c-0.287-0.12-0.532-0.286-0.735-0.495s-0.36-0.451-0.472-0.725S226.775,139.776,226.775,139.466z
	 M234.821,136.916h1.333l-7.116,10.637h-1.326L234.821,136.916z M229.113,138.317c-0.164,0-0.318,0.028-0.461,0.085
	s-0.269,0.137-0.376,0.239s-0.191,0.225-0.253,0.366s-0.092,0.294-0.092,0.458c0,0.16,0.031,0.311,0.092,0.455
	s0.146,0.269,0.253,0.376s0.232,0.191,0.376,0.253s0.297,0.092,0.461,0.092c0.16,0,0.31-0.031,0.451-0.092s0.264-0.145,0.369-0.25
	s0.188-0.229,0.25-0.373s0.092-0.297,0.092-0.461s-0.031-0.317-0.092-0.458s-0.145-0.263-0.25-0.366s-0.228-0.182-0.369-0.239
	S229.273,138.317,229.113,138.317z M232.695,145.235c0-0.306,0.057-0.595,0.171-0.868s0.274-0.514,0.482-0.721
	c0.208-0.208,0.455-0.373,0.742-0.496s0.602-0.185,0.943-0.185s0.656,0.062,0.943,0.185s0.534,0.288,0.742,0.496
	c0.208,0.207,0.368,0.447,0.482,0.721s0.171,0.562,0.171,0.868c0,0.31-0.056,0.603-0.167,0.878
	c-0.112,0.276-0.269,0.518-0.472,0.725c-0.203,0.208-0.448,0.373-0.735,0.496s-0.608,0.185-0.964,0.185s-0.677-0.062-0.964-0.185
	s-0.532-0.288-0.735-0.496c-0.203-0.207-0.36-0.448-0.472-0.725C232.751,145.838,232.695,145.545,232.695,145.235z M235.033,144.087
	c-0.16,0-0.311,0.03-0.455,0.089s-0.269,0.141-0.376,0.242c-0.107,0.104-0.191,0.224-0.253,0.363
	c-0.062,0.139-0.092,0.29-0.092,0.454c0,0.159,0.031,0.312,0.092,0.454c0.062,0.145,0.146,0.27,0.253,0.377
	c0.107,0.106,0.232,0.191,0.376,0.252c0.144,0.062,0.295,0.093,0.455,0.093s0.31-0.03,0.451-0.093
	c0.141-0.061,0.264-0.145,0.369-0.249s0.188-0.229,0.25-0.372c0.062-0.145,0.092-0.298,0.092-0.462s-0.031-0.315-0.092-0.454
	c-0.062-0.14-0.145-0.26-0.25-0.363c-0.105-0.102-0.228-0.184-0.369-0.242S235.193,144.087,235.033,144.087z"/>
<path fill="#FFFFFF" d="M269.393,58.721l6.246-7.547c0.211-0.25,0.432-0.52,0.662-0.809s0.445-0.594,0.645-0.914
	s0.363-0.654,0.492-1.002s0.193-0.709,0.193-1.084c0-0.391-0.078-0.758-0.234-1.102s-0.371-0.645-0.645-0.902
	s-0.6-0.461-0.979-0.609s-0.795-0.223-1.248-0.223c-0.406,0-0.791,0.064-1.154,0.193s-0.682,0.318-0.955,0.568
	s-0.494,0.561-0.662,0.932s-0.26,0.799-0.275,1.283h-2.109c0.008-0.742,0.152-1.428,0.434-2.057s0.658-1.172,1.131-1.629
	s1.021-0.812,1.646-1.066s1.281-0.381,1.969-0.381c0.797,0,1.52,0.127,2.168,0.381s1.203,0.604,1.664,1.049s0.818,0.973,1.072,1.582
	s0.381,1.27,0.381,1.98c0,0.281-0.033,0.58-0.1,0.896s-0.18,0.656-0.34,1.02s-0.371,0.752-0.633,1.166s-0.592,0.859-0.99,1.336
	l-5.543,6.598h7.582v2.062h-10.418V58.721z"/>
<path fill="#FFFFFF" d="M282.377,59.025c0-0.203,0.041-0.396,0.123-0.58s0.193-0.344,0.334-0.48s0.303-0.246,0.486-0.328
	s0.381-0.123,0.592-0.123c0.203,0,0.396,0.041,0.58,0.123s0.344,0.191,0.48,0.328s0.246,0.297,0.328,0.48s0.123,0.377,0.123,0.58
	c0,0.211-0.041,0.41-0.123,0.598s-0.191,0.354-0.328,0.498s-0.297,0.258-0.48,0.34s-0.377,0.123-0.58,0.123
	c-0.211,0-0.408-0.041-0.592-0.123s-0.346-0.195-0.486-0.34s-0.252-0.311-0.334-0.498S282.377,59.236,282.377,59.025z"/>
<path fill="#FFFFFF" d="M290.311,49.967c0.438-0.297,0.887-0.521,1.348-0.674s0.988-0.229,1.582-0.229
	c0.875,0,1.68,0.156,2.414,0.469s1.365,0.734,1.893,1.266s0.938,1.15,1.23,1.857s0.439,1.455,0.439,2.244
	c0,0.797-0.145,1.553-0.434,2.268s-0.699,1.342-1.23,1.881s-1.17,0.967-1.916,1.283s-1.576,0.475-2.49,0.475
	c-0.695,0-1.344-0.092-1.945-0.275s-1.145-0.441-1.629-0.773s-0.904-0.729-1.26-1.189s-0.639-0.965-0.85-1.512l1.922-0.961
	c0.125,0.398,0.309,0.768,0.551,1.107s0.527,0.633,0.855,0.879s0.691,0.438,1.09,0.574s0.82,0.205,1.266,0.205
	c0.562,0,1.084-0.104,1.564-0.311s0.898-0.49,1.254-0.85s0.635-0.779,0.838-1.26s0.305-0.994,0.305-1.541
	c0-0.555-0.102-1.068-0.305-1.541s-0.484-0.883-0.844-1.23s-0.779-0.621-1.26-0.82s-0.998-0.299-1.553-0.299
	c-0.625,0-1.201,0.111-1.729,0.334s-0.967,0.521-1.318,0.896l-1.723-0.27v-9.293h10.008v1.945h-8.074V49.967z"/>
<path fill="#FFFFFF" d="M300.456,52.466c0-0.305,0.057-0.596,0.171-0.872s0.274-0.517,0.481-0.725
	c0.208-0.208,0.455-0.372,0.742-0.492s0.602-0.181,0.943-0.181s0.656,0.061,0.943,0.181s0.533,0.285,0.738,0.492
	s0.365,0.449,0.482,0.725c0.115,0.276,0.174,0.566,0.174,0.872c0,0.31-0.056,0.602-0.168,0.875c-0.111,0.273-0.27,0.515-0.475,0.725
	s-0.451,0.375-0.738,0.496s-0.605,0.181-0.957,0.181c-0.355,0-0.677-0.061-0.964-0.181s-0.532-0.286-0.735-0.496
	c-0.202-0.209-0.359-0.451-0.471-0.725C300.512,53.067,300.456,52.776,300.456,52.466z M308.502,49.916h1.333l-7.116,10.637h-1.326
	L308.502,49.916z M302.794,51.317c-0.164,0-0.318,0.028-0.461,0.085c-0.145,0.057-0.27,0.137-0.377,0.239
	c-0.106,0.103-0.191,0.225-0.252,0.366c-0.062,0.141-0.093,0.294-0.093,0.458c0,0.16,0.03,0.311,0.093,0.455
	c0.061,0.144,0.146,0.269,0.252,0.376c0.107,0.107,0.232,0.191,0.377,0.253c0.143,0.062,0.297,0.092,0.461,0.092
	c0.16,0,0.311-0.031,0.451-0.092s0.264-0.145,0.369-0.25s0.188-0.229,0.25-0.373c0.061-0.144,0.092-0.297,0.092-0.461
	s-0.031-0.317-0.092-0.458c-0.062-0.141-0.145-0.263-0.25-0.366s-0.229-0.182-0.369-0.239S302.954,51.317,302.794,51.317z
	 M306.376,58.235c0-0.305,0.057-0.595,0.171-0.868s0.274-0.514,0.481-0.721c0.208-0.208,0.455-0.373,0.742-0.496
	s0.602-0.185,0.943-0.185s0.656,0.062,0.943,0.185s0.534,0.288,0.742,0.496c0.207,0.208,0.367,0.448,0.481,0.721
	s0.171,0.563,0.171,0.868c0,0.31-0.056,0.603-0.168,0.878c-0.111,0.276-0.269,0.517-0.471,0.725
	c-0.203,0.208-0.448,0.373-0.735,0.496s-0.608,0.185-0.964,0.185s-0.677-0.062-0.964-0.185s-0.532-0.288-0.735-0.496
	c-0.202-0.208-0.359-0.449-0.471-0.725C306.432,58.838,306.376,58.545,306.376,58.235z M308.714,57.087
	c-0.16,0-0.311,0.03-0.455,0.089c-0.143,0.059-0.269,0.14-0.375,0.243c-0.107,0.103-0.191,0.223-0.254,0.362
	c-0.061,0.139-0.092,0.291-0.092,0.455c0,0.16,0.031,0.311,0.092,0.455c0.062,0.144,0.146,0.269,0.254,0.376
	c0.106,0.107,0.232,0.191,0.375,0.253c0.145,0.062,0.295,0.092,0.455,0.092s0.311-0.031,0.451-0.092s0.264-0.145,0.369-0.25
	s0.188-0.229,0.25-0.373c0.061-0.144,0.092-0.297,0.092-0.461s-0.031-0.315-0.092-0.455c-0.062-0.139-0.145-0.26-0.25-0.362
	s-0.229-0.184-0.369-0.243S308.874,57.087,308.714,57.087z"/>
<path fill="#757575" d="M13.031,16.219h1.477l-1.406-4.031H6.27l-1.371,4.031h1.828v2.016H0.961v-2.016h1.547l5.531-15.75h3.457
	l5.52,15.75h1.781v2.016h-5.766V16.219z M6.938,10.242h5.484L9.656,2.297L6.938,10.242z"/>
<path fill="#757575" d="M27.246,0h3.832v16.219h1.781v2.016h-3.961v-0.996c-0.391,0.398-0.844,0.709-1.359,0.932
	s-1.102,0.334-1.758,0.334c-0.82,0-1.584-0.143-2.291-0.428s-1.32-0.703-1.84-1.254s-0.926-1.227-1.219-2.027
	s-0.439-1.717-0.439-2.748c0-0.938,0.141-1.791,0.422-2.561s0.68-1.426,1.195-1.969s1.137-0.965,1.863-1.266
	s1.535-0.451,2.426-0.451c0.586,0,1.121,0.064,1.605,0.193s0.949,0.354,1.395,0.674V2.016h-1.652V0z M26.062,16.605
	c0.648,0,1.191-0.096,1.629-0.287s0.84-0.479,1.207-0.861V8.66c-0.391-0.328-0.84-0.566-1.348-0.715s-1.027-0.223-1.559-0.223
	c-0.516,0-1,0.096-1.453,0.287s-0.85,0.471-1.189,0.838s-0.607,0.816-0.803,1.348s-0.293,1.141-0.293,1.828
	c0,0.75,0.094,1.41,0.281,1.98s0.449,1.049,0.785,1.436s0.738,0.678,1.207,0.873S25.508,16.605,26.062,16.605z"/>
<path fill="#757575" d="M34.008,6.094h4.195v2.016h-1.137l3,8.367l2.93-8.367h-0.738V6.094h3.844v2.016h-1.043l-3.973,10.312H38.93
	L34.969,8.109h-0.961V6.094z"/>
<path fill="#757575" d="M54.973,17.109c-0.461,0.43-0.971,0.781-1.529,1.055s-1.193,0.41-1.904,0.41
	c-0.594,0-1.139-0.094-1.635-0.281s-0.924-0.443-1.283-0.768s-0.639-0.701-0.838-1.131s-0.299-0.887-0.299-1.371
	c0-0.516,0.076-0.973,0.229-1.371s0.355-0.744,0.609-1.037s0.551-0.539,0.891-0.738s0.695-0.359,1.066-0.48s0.75-0.207,1.137-0.258
	s0.756-0.076,1.107-0.076c0.562,0,1.035,0.018,1.418,0.053s0.73,0.084,1.043,0.146l0.012-0.996c0-0.43-0.062-0.803-0.188-1.119
	s-0.301-0.578-0.527-0.785S53.783,8,53.467,7.898s-0.67-0.152-1.061-0.152c-0.367,0-0.719,0.025-1.055,0.076
	s-0.65,0.117-0.943,0.199S49.846,8.197,49.6,8.303s-0.455,0.217-0.627,0.334l-0.715-1.512c0.289-0.188,0.605-0.361,0.949-0.521
	s0.705-0.297,1.084-0.41s0.766-0.203,1.16-0.27s0.783-0.1,1.166-0.1c0.703,0,1.336,0.084,1.898,0.252s1.039,0.428,1.43,0.779
	s0.691,0.799,0.902,1.342s0.316,1.193,0.316,1.951l-0.012,6.07H58.5v2.016h-3.527V17.109z M52.02,16.746
	c0.289,0,0.578-0.035,0.867-0.105s0.562-0.166,0.82-0.287s0.496-0.262,0.715-0.422s0.402-0.326,0.551-0.498l0.012-2.742h-2.531
	c-0.422,0-0.807,0.047-1.154,0.141s-0.648,0.23-0.902,0.41s-0.451,0.402-0.592,0.668s-0.211,0.57-0.211,0.914
	c0,0.32,0.059,0.6,0.176,0.838s0.283,0.438,0.498,0.598s0.471,0.281,0.768,0.363S51.66,16.746,52.02,16.746z"/>
<path fill="#757575" d="M68.953,16.219h1.711v-5.543c0-0.93-0.236-1.635-0.709-2.115s-1.15-0.721-2.033-0.721
	c-0.508,0-1.02,0.121-1.535,0.363s-1.004,0.543-1.465,0.902v7.113h1.711v2.016h-5.672v-2.016h1.688V8.109h-1.688V6.094h3.867v1.43
	h0.023c0.258-0.227,0.533-0.441,0.826-0.645s0.6-0.379,0.92-0.527S67.252,6.086,67.6,6s0.713-0.129,1.096-0.129
	c0.648,0,1.234,0.09,1.758,0.27s0.969,0.453,1.336,0.82s0.65,0.838,0.85,1.412s0.299,1.252,0.299,2.033v5.812h1.688v2.016h-5.672
	V16.219z"/>
<path fill="#757575" d="M85.734,9.328c-0.328-0.586-0.744-1.016-1.248-1.289s-1.088-0.41-1.752-0.41
	c-0.508,0-0.984,0.105-1.43,0.316s-0.834,0.512-1.166,0.902s-0.594,0.865-0.785,1.424s-0.287,1.182-0.287,1.869
	c0,0.68,0.096,1.293,0.287,1.84s0.455,1.014,0.791,1.4s0.725,0.684,1.166,0.891s0.916,0.311,1.424,0.311
	c0.75,0,1.402-0.182,1.957-0.545s0.996-0.896,1.324-1.6l1.805,0.891c-0.234,0.5-0.523,0.949-0.867,1.348s-0.732,0.738-1.166,1.02
	s-0.91,0.498-1.43,0.65s-1.068,0.229-1.646,0.229c-0.844,0-1.623-0.158-2.338-0.475s-1.332-0.76-1.852-1.33s-0.924-1.25-1.213-2.039
	s-0.434-1.652-0.434-2.59s0.152-1.801,0.457-2.59s0.723-1.467,1.254-2.033s1.152-1.01,1.863-1.33s1.473-0.48,2.285-0.48
	c0.766,0,1.49,0.133,2.174,0.398s1.283,0.668,1.799,1.207h1.23v2.016H85.734z"/>
<path fill="#757575" d="M92.133,12.445c0,0.344,0.025,0.658,0.076,0.943s0.123,0.557,0.217,0.814
	c0.289,0.781,0.752,1.369,1.389,1.764s1.357,0.592,2.162,0.592c0.633,0,1.248-0.088,1.846-0.264s1.225-0.451,1.881-0.826
	l0.879,1.488c-0.797,0.547-1.598,0.953-2.402,1.219s-1.641,0.398-2.508,0.398c-0.82,0-1.58-0.137-2.279-0.41
	s-1.301-0.68-1.805-1.219s-0.898-1.211-1.184-2.016s-0.428-1.742-0.428-2.812c0-0.867,0.121-1.686,0.363-2.455
	s0.604-1.441,1.084-2.016s1.076-1.029,1.787-1.365s1.539-0.504,2.484-0.504c0.914,0,1.678,0.139,2.291,0.416s1.113,0.645,1.5,1.102
	s0.68,0.979,0.879,1.564s0.338,1.184,0.416,1.793c0.039,0.297,0.064,0.598,0.076,0.902s0.018,0.602,0.018,0.891H92.133z
	 M95.543,7.605c-0.508,0-0.951,0.072-1.33,0.217s-0.701,0.352-0.967,0.621s-0.479,0.6-0.639,0.99s-0.279,0.828-0.357,1.312h6.293
	c-0.031-0.453-0.104-0.871-0.217-1.254s-0.287-0.715-0.521-0.996s-0.535-0.5-0.902-0.656S96.082,7.605,95.543,7.605z"/>
<path fill="#757575" d="M111,0h3.832v16.219h1.781v2.016h-3.961v-0.996c-0.391,0.398-0.844,0.709-1.359,0.932
	s-1.102,0.334-1.758,0.334c-0.82,0-1.584-0.143-2.291-0.428s-1.32-0.703-1.84-1.254s-0.926-1.227-1.219-2.027
	s-0.439-1.717-0.439-2.748c0-0.938,0.141-1.791,0.422-2.561s0.68-1.426,1.195-1.969s1.137-0.965,1.863-1.266
	s1.535-0.451,2.426-0.451c0.586,0,1.121,0.064,1.605,0.193s0.949,0.354,1.395,0.674V2.016H111V0z M109.816,16.605
	c0.648,0,1.191-0.096,1.629-0.287s0.84-0.479,1.207-0.861V8.66c-0.391-0.328-0.84-0.566-1.348-0.715s-1.027-0.223-1.559-0.223
	c-0.516,0-1,0.096-1.453,0.287s-0.85,0.471-1.189,0.838s-0.607,0.816-0.803,1.348s-0.293,1.141-0.293,1.828
	c0,0.75,0.094,1.41,0.281,1.98s0.449,1.049,0.785,1.436s0.738,0.678,1.207,0.873S109.262,16.605,109.816,16.605z"/>
</svg>
