<?xml version="1.0" encoding="utf-8"?>
<!-- Generator: Adobe Illustrator 15.0.0, SVG Export Plug-In  -->
<!DOCTYPE svg PUBLIC "-//W3C//DTD SVG 1.1//EN" "http://www.w3.org/Graphics/SVG/1.1/DTD/svg11.dtd" [
	<!ENTITY ns_flows "http://ns.adobe.com/Flows/1.0/">
]>
<svg version="1.1"
	 xmlns="http://www.w3.org/2000/svg" xmlns:xlink="http://www.w3.org/1999/xlink" xmlns:a="http://ns.adobe.com/AdobeSVGViewerExtensions/3.0/"
	 x="0px" y="0px" width="1240px" height="570px" viewBox="-28.619 -105.5 1240 570"
	 overflow="visible" enable-background="new -28.619 -105.5 1240 570" xml:space="preserve">
<defs>
</defs>
<path fill="none" stroke="#CCCCCC" stroke-miterlimit="10" d="M340.88,0v415"/>
<path fill="none" stroke="#CCCCCC" stroke-miterlimit="10" d="M551.88,0v415"/>
<path fill="none" stroke="#CCCCCC" stroke-miterlimit="10" d="M761.88,0v415"/>
<path fill="none" stroke="#CCCCCC" stroke-miterlimit="10" d="M972.88,0v415"/>
<path fill="none" stroke="#CCCCCC" stroke-miterlimit="10" d="M1182.88,0v415"/>
<path fill="#00ADD8" d="M130.38,95.5v-62h190v62H130.38z"/>
<path fill="#00ADD8" d="M130.38,190.5v-62h716v62H130.38z"/>
<path fill="#00ADD8" d="M130.38,286.5v-62h190v62H130.38z"/>
<path fill="#00ADD8" d="M130.38,381.5v-62h22v62H130.38z"/>
<path fill="#CE3262" d="M320.38,95.5v-62h315v62H320.38z"/>
<path fill="#CE3262" d="M846.38,190.5v-62h63v62H846.38z"/>
<path fill="#CE3262" d="M320.38,286.5v-62h21v62H320.38z"/>
<path fill="#B8B7B5" d="M635.38,95.5v-62h43v62H635.38z"/>
<path fill="#B8B7B5" d="M909.38,190.5v-62h63v62H909.38z"/>
<path d="M678.38,95.5v-62h19c1.104,0,2,0.896,2,2v58c0,1.104-0.896,2-2,2H678.38z"/>
<path d="M972.38,190.5v-62h40c1.104,0,2,0.896,2,2v58c0,1.104-0.896,2-2,2H972.38z"/>
<path fill="#757575" d="M11.083,68.615c0,0.281-0.062,0.484-0.188,0.609h1.688l0.516-2.109l0.75,0.234
	c0.344,0.125,0.266,0.25-0.234,0.375l-0.75,1.5h2.625l0.703-0.703l0.891,0.656c0.188,0.156,0.188,0.266,0,0.328H6.724v-0.281h3.891
	c-0.125-0.156-0.188-0.406-0.188-0.75c0-0.531-0.125-0.922-0.375-1.172c-0.406,0.375-0.609,0.391-0.609,0.047v-3.094l0.703,0.328
	h3.469l0.281-0.375l0.656,0.469c0.188,0.156,0.125,0.266-0.188,0.328v1.922c-0.406,0.375-0.609,0.391-0.609,0.047V66.74h-3.703
	v0.422C10.74,67.412,11.083,67.896,11.083,68.615z M13.615,61.678c0.312,0.5,0.578,0.891,0.797,1.172
	c0.531-0.5,1.047-1.078,1.547-1.734l0.516,0.328c0.375,0.219,0.312,0.312-0.188,0.281l-1.734,1.266
	c0.781,0.781,1.734,1.438,2.859,1.969c-0.281,0.031-0.547,0.25-0.797,0.656c-2.156-1.375-3.531-3.328-4.125-5.859l0.234-0.094
	c0.188,0.562,0.453,1.188,0.797,1.875c0.562-0.562,1.016-1.109,1.359-1.641l0.562,0.375c0.375,0.219,0.312,0.312-0.188,0.281
	L13.615,61.678z M9.677,63.412c-0.938,0.969-1.938,1.719-3,2.25c-0.219,0.031-0.25-0.031-0.094-0.188
	c1.062-0.688,1.906-1.422,2.531-2.203c-0.219,0-0.391-0.141-0.516-0.422c-0.188-0.469-0.578-0.891-1.172-1.266
	c-0.094-0.125-0.062-0.172,0.094-0.141c0.75,0.25,1.281,0.531,1.594,0.844c0.188,0.188,0.297,0.391,0.328,0.609
	c0.531-0.75,0.984-1.516,1.359-2.297H7.427v-0.281h3.234l0.328-0.328l0.656,0.469c0.281,0.219,0.219,0.312-0.188,0.281
	c-0.469,0.969-0.984,1.766-1.547,2.391h2.484l0.516-0.516l0.656,0.469c0.188,0.156,0.188,0.266,0,0.328H9.677z M10.052,66.459h3.703
	v-1.594h-3.703V66.459z M20.599,69.084h7.359l0.609-0.609l0.75,0.562c0.188,0.156,0.188,0.266,0,0.328h-8.719V69.084z
	 M26.927,67.256H23.74v0.797h3.188V67.256z M27.724,66.084c0.188,0.156,0.125,0.266-0.188,0.328v2.062
	c-0.406,0.375-0.609,0.391-0.609,0.047v-0.188H23.74v0.281c-0.406,0.375-0.609,0.391-0.609,0.047v-2.953l0.703,0.281h2.953
	l0.281-0.375L27.724,66.084z M26.927,66.271H23.74v0.703h3.188V66.271z M26.599,62.803c0.188,0.156,0.125,0.266-0.188,0.328v1.312
	c-0.406,0.375-0.609,0.391-0.609,0.047v-0.234h-1.359v0.234c-0.406,0.375-0.609,0.391-0.609,0.047v-2.062l0.703,0.234h1.125
	l0.281-0.375L26.599,62.803z M25.802,62.99h-1.359v0.984h1.359V62.99z M23.083,65.006h4.359V62.1h-4.359V65.006z M27.302,61.818
	l0.281-0.375l0.656,0.469c0.188,0.156,0.125,0.266-0.188,0.328v3.094c-0.406,0.375-0.609,0.391-0.609,0.047v-0.094h-4.359v0.234
	c-0.406,0.375-0.609,0.391-0.609,0.047v-4.031l0.656,0.281H27.302z M25.38,60.646h2.438l0.609-0.609l0.75,0.562
	c0.188,0.156,0.188,0.266,0,0.328h-7.453v-0.281h3.047V59.24l0.797,0.141c0.25,0.156,0.188,0.266-0.188,0.328V60.646z M18.255,67.49
	l1.688-0.516v-3.938h-1.594v-0.281h1.594v-3.141l0.844,0.141c0.344,0.125,0.266,0.25-0.234,0.375v2.625h0.469l0.516-0.516
	l0.656,0.469c0.188,0.156,0.188,0.266,0,0.328h-1.641v3.75l1.781-0.609c0.156,0.031,0.188,0.078,0.094,0.141l-3.094,1.594
	c0.062,0.5-0.062,0.625-0.375,0.375L18.255,67.49z M37.99,64.678l0.281-0.375l0.656,0.469c0.188,0.156,0.125,0.266-0.188,0.328
	v4.219c-0.406,0.375-0.609,0.391-0.609,0.047v-0.328h-3.984v0.609c-0.406,0.375-0.609,0.391-0.609,0.047v-4.266
	c-1.031,0.625-2.094,1.125-3.188,1.5c-0.219,0-0.25-0.078-0.094-0.234c1.5-0.688,2.594-1.297,3.281-1.828v-0.703l0.516,0.375
	c0.625-0.406,1.25-0.891,1.875-1.453h-5.203v-0.281h4.219v-1.641h-3.422v-0.281h3.422V59.1l0.797,0.141
	c0.25,0.156,0.188,0.266-0.188,0.328v1.312h0.844l0.609-0.609l0.891,0.703c0.438-0.531,0.812-1.031,1.125-1.5l0.844,0.656
	c0.344,0.25,0.141,0.328-0.609,0.234c-0.781,1-1.516,1.812-2.203,2.438h2.672l0.703-0.703l0.891,0.656
	c0.188,0.156,0.188,0.266,0,0.328h-4.547c-0.625,0.594-1.297,1.125-2.016,1.594H37.99z M36.208,62.803
	c0.531-0.5,1.047-1.047,1.547-1.641h-2.203v1.641H36.208z M34.146,66.646h3.984v-1.688h-3.984V66.646z M34.146,68.756h3.984v-1.828
	h-3.984V68.756z M45.958,69.271c-1.188,0-2.031-0.25-2.531-0.75c-0.344-0.344-0.516-0.734-0.516-1.172c0-0.5,0.25-0.984,0.75-1.453
	s1.125-0.906,1.875-1.312c-0.375-0.438-0.562-1.062-0.562-1.875c0-1.438-0.031-2.234-0.094-2.391
	c-0.125-0.312-0.344-0.469-0.656-0.469c-0.125-0.062-0.125-0.125,0-0.188c0.531-0.062,1.016,0.078,1.453,0.422
	c0.156,0.125,0.172,0.25,0.047,0.375c-0.094,0.094-0.141,0.281-0.141,0.562c0,0.812,0,1.625,0,2.438
	c0,0.531,0.078,0.859,0.234,0.984c0.875-0.375,1.781-0.703,2.719-0.984c0.25-0.062,0.297-0.219,0.141-0.469
	c-0.062-0.094-0.172-0.188-0.328-0.281c-0.125-0.062-0.109-0.109,0.047-0.141c0.375,0.031,0.656,0.172,0.844,0.422
	c0.219,0.281,0.328,0.516,0.328,0.703c0,0.156-0.125,0.234-0.375,0.234c-1.375,0.281-2.562,0.656-3.562,1.125
	c-0.844,0.406-1.484,0.844-1.922,1.312c-0.281,0.312-0.422,0.625-0.422,0.938c0,0.656,0.391,1.094,1.172,1.312
	c0.344,0.094,1.031,0.141,2.062,0.141c0.906,0,1.547-0.062,1.922-0.188c0.344-0.125,0.594-0.125,0.75,0
	c0.125,0.094,0.188,0.203,0.188,0.328s-0.094,0.203-0.281,0.234C48.537,69.225,47.49,69.271,45.958,69.271z M51.662,66.928
	c0-1.375,0-2.766,0-4.172c0-0.5,0.016-1.016,0.047-1.547s-0.25-0.812-0.844-0.844c-0.188-0.062-0.203-0.125-0.047-0.188
	c0.188-0.031,0.359-0.047,0.516-0.047c0.375,0,0.766,0.156,1.172,0.469c0.125,0.094,0.125,0.234,0,0.422
	c-0.062,0.094-0.125,0.281-0.188,0.562s-0.094,0.625-0.094,1.031c0,1.438,0,2.859,0,4.266c0,0.562,0.094,0.953,0.281,1.172
	c0.281,0.312,0.75,0.469,1.406,0.469c0.906,0,1.703-0.188,2.391-0.562c0.75-0.406,1.578-1,2.484-1.781
	c0.125-0.062,0.172-0.031,0.141,0.094c-0.844,1-1.688,1.734-2.531,2.203c-0.719,0.406-1.578,0.609-2.578,0.609
	c-0.719,0-1.281-0.219-1.688-0.656C51.818,68.084,51.662,67.584,51.662,66.928z M66.896,60.928c0.5-0.094,0.844-0.219,1.031-0.375
	s0.391-0.156,0.609,0c0.344,0.25,0.531,0.391,0.562,0.422c0.156,0.156,0.125,0.266-0.094,0.328
	c-1.938-0.062-3.328,0.328-4.172,1.172c-0.812,0.812-1.219,1.625-1.219,2.438c0,0.938,0.312,1.719,0.938,2.344
	c0.656,0.656,1.406,1,2.25,1.031c0.312,0,0.516,0.062,0.609,0.188c0.125,0.156,0.188,0.297,0.188,0.422
	c0,0.156-0.125,0.234-0.375,0.234c-0.875,0-1.719-0.328-2.531-0.984c-0.969-0.781-1.453-1.812-1.453-3.094
	c0-1.188,0.609-2.266,1.828-3.234c0.156-0.125,0.156-0.188,0-0.188c-0.969,0.188-1.891,0.375-2.766,0.562
	c-0.375,0.062-0.75,0.188-1.125,0.375c-0.281,0.125-0.469,0.172-0.562,0.141c-0.156-0.031-0.312-0.109-0.469-0.234
	c-0.344-0.25-0.531-0.516-0.562-0.797c0.062-0.219,0.125-0.234,0.188-0.047c0.156,0.281,0.484,0.406,0.984,0.375
	c0.25,0,0.672-0.062,1.266-0.188C63.646,61.537,65.271,61.24,66.896,60.928z M70.583,66.787c-0.156,0.031-0.188-0.031-0.094-0.188
	c1.375-1.062,2.5-2.125,3.375-3.188H70.63v-0.281h3.422c0.281-0.406,0.594-0.906,0.938-1.5l-2.719,0.141
	c-0.031,0.531-0.188,0.578-0.469,0.141l-0.562-0.703h2.578l0.844-2.016l0.562,0.281c0.562,0.25,0.516,0.375-0.141,0.375
	l-0.984,1.359l4.219-0.188c-0.312-0.281-0.766-0.609-1.359-0.984c-0.094-0.062-0.078-0.109,0.047-0.141
	c0.781,0.219,1.484,0.578,2.109,1.078c0.438,0.344,0.656,0.672,0.656,0.984c0,0.281-0.109,0.422-0.328,0.422
	c-0.094,0-0.234-0.156-0.422-0.469c-0.094-0.156-0.266-0.375-0.516-0.656l-3.281,0.328l0.656,0.469c0.156,0.219,0,0.297-0.469,0.234
	c-0.25,0.344-0.469,0.625-0.656,0.844h4.922l0.609-0.609l0.75,0.562c0.188,0.156,0.188,0.266,0,0.328h-3.984
	c1.25,1.469,2.625,2.438,4.125,2.906c-0.438,0.156-0.734,0.375-0.891,0.656c-1.156-0.594-2.359-1.781-3.609-3.562h-2.156
	C73.333,64.85,72.021,65.975,70.583,66.787z M77.662,65.85c0.156,0.188,0,0.266-0.469,0.234c-1.656,1.156-3.469,2-5.438,2.531
	c-0.188,0-0.203-0.062-0.047-0.188c2.031-0.75,3.781-1.781,5.25-3.094L77.662,65.85z M79.208,67.021
	c0.25,0.219,0.109,0.297-0.422,0.234c-2.312,1.5-4.562,2.328-6.75,2.484c-0.219,0-0.234-0.062-0.047-0.188
	c2.281-0.375,4.453-1.375,6.516-3L79.208,67.021z M75.974,64.725c-1.75,1.406-3.359,2.375-4.828,2.906
	c-0.188,0-0.203-0.062-0.047-0.188c1.719-0.875,3.234-2.031,4.547-3.469l0.75,0.562C76.552,64.725,76.412,64.787,75.974,64.725z
	 M84.787,61.771h-2.25V61.49h2.25v-2.297l0.844,0.141c0.344,0.125,0.266,0.25-0.234,0.375v1.781h1.828l0.281-0.375l0.656,0.469
	c0.188,0.156,0.125,0.266-0.188,0.328v1.406c0,3.031-0.312,4.859-0.938,5.484c-0.281,0.281-0.562,0.422-0.844,0.422
	c-0.156,0-0.234-0.062-0.234-0.188c0-0.188-0.078-0.328-0.234-0.422l-0.656-0.422c-0.188-0.125-0.188-0.188,0-0.188l0.609,0.234
	c0.25,0.094,0.469,0.141,0.656,0.141c0.125,0,0.219-0.031,0.281-0.094c0.5-0.5,0.75-2.109,0.75-4.828v-1.688h-1.969v0.516
	c0,3.062-1.062,5.406-3.188,7.031c-0.188,0.125-0.234,0.078-0.141-0.141c1.812-1.812,2.719-4.031,2.719-6.656V61.771z
	 M89.896,61.115h2.109l0.281-0.375l0.656,0.469c0.188,0.156,0.125,0.266-0.188,0.328v7.078c-0.406,0.375-0.609,0.391-0.609,0.047
	V68.1h-2.297v1.078c-0.406,0.375-0.609,0.391-0.609,0.047v-8.531L89.896,61.115z M92.146,61.396h-2.297v6.422h2.297V61.396z
	 M95.662,66.928c0-1.375,0-2.766,0-4.172c0-0.5,0.016-1.016,0.047-1.547s-0.25-0.812-0.844-0.844
	c-0.188-0.062-0.203-0.125-0.047-0.188c0.188-0.031,0.359-0.047,0.516-0.047c0.375,0,0.766,0.156,1.172,0.469
	c0.125,0.094,0.125,0.234,0,0.422c-0.062,0.094-0.125,0.281-0.188,0.562s-0.094,0.625-0.094,1.031c0,1.438,0,2.859,0,4.266
	c0,0.562,0.094,0.953,0.281,1.172c0.281,0.312,0.75,0.469,1.406,0.469c0.906,0,1.703-0.188,2.391-0.562
	c0.75-0.406,1.578-1,2.484-1.781c0.125-0.062,0.172-0.031,0.141,0.094c-0.844,1-1.688,1.734-2.531,2.203
	c-0.719,0.406-1.578,0.609-2.578,0.609c-0.719,0-1.281-0.219-1.688-0.656C95.818,68.084,95.662,67.584,95.662,66.928z
	 M108.974,62.006c-0.688,0.156-1.484,0.312-2.391,0.469c-0.656,2.25-1.312,4.469-1.969,6.656c-0.062,0.188-0.172,0.234-0.328,0.141
	c-0.094-0.062-0.156-0.172-0.188-0.328c-0.094-0.344-0.094-0.578,0-0.703c0.188-0.312,0.359-0.672,0.516-1.078
	c0.531-1.5,1.031-3.031,1.5-4.594c-0.75,0.094-1.312,0.172-1.688,0.234c-0.188,0.094-0.344,0.078-0.469-0.047
	c-0.094-0.094-0.203-0.219-0.328-0.375c-0.094-0.125-0.141-0.266-0.141-0.422c0.031-0.156,0.078-0.188,0.141-0.094
	c0.219,0.312,0.531,0.469,0.938,0.469c0.562,0,1.109-0.047,1.641-0.141c0.281-0.719,0.438-1.281,0.469-1.688
	c0-0.156-0.047-0.281-0.141-0.375c-0.156-0.125-0.344-0.203-0.562-0.234c-0.219,0-0.234-0.062-0.047-0.188
	c0.156-0.031,0.328-0.047,0.516-0.047c0.25,0,0.594,0.156,1.031,0.469c0.219,0.156,0.219,0.297,0,0.422
	c-0.156,0.094-0.406,0.609-0.75,1.547c0.625-0.125,1.203-0.344,1.734-0.656c0.094-0.094,0.203-0.141,0.328-0.141
	s0.266,0.094,0.422,0.281C109.365,61.803,109.287,61.943,108.974,62.006z M107.662,63.74c0.625-0.375,1.328-0.641,2.109-0.797
	s1.453-0.203,2.016-0.141c0.312,0.031,0.469,0.156,0.469,0.375c0,0.188-0.125,0.281-0.375,0.281c-1.094,0-2.062,0.359-2.906,1.078
	c-0.156,0.094-0.188,0.062-0.094-0.094c0.25-0.312,0.688-0.625,1.312-0.938c0.25-0.125,0.219-0.188-0.094-0.188
	c-0.562,0-1.344,0.188-2.344,0.562C107.599,63.943,107.568,63.896,107.662,63.74z M107.708,66.412c0.125-0.25,0.188-0.25,0.188,0
	c-0.031,0.25-0.047,0.422-0.047,0.516c0,0.375,0.141,0.703,0.422,0.984c0.344,0.344,0.891,0.516,1.641,0.516
	c0.469,0,0.938,0,1.406,0c0.5,0,0.828-0.047,0.984-0.141c0.219-0.125,0.391-0.141,0.516-0.047c0.219,0.156,0.344,0.266,0.375,0.328
	c0.125,0.25,0,0.375-0.375,0.375c-0.781,0-1.562,0-2.344,0c-1.188,0-1.984-0.203-2.391-0.609c-0.312-0.312-0.469-0.719-0.469-1.219
	C107.615,66.834,107.646,66.6,107.708,66.412z M121.708,61.537c0.656,0.344,1.172,0.719,1.547,1.125
	c0.906,1,1.359,1.984,1.359,2.953c0,0.344-0.141,0.516-0.422,0.516c-0.219,0-0.344-0.125-0.375-0.375
	c-0.094-0.812-0.328-1.562-0.703-2.25c-0.344-0.656-0.844-1.266-1.5-1.828C121.521,61.584,121.552,61.537,121.708,61.537z
	 M115.287,64.865c0-0.844,0-1.688,0-2.531c0-0.719-0.219-1.172-0.656-1.359c-0.125-0.062-0.109-0.109,0.047-0.141
	c0.375,0.031,0.75,0.203,1.125,0.516c0.312,0.25,0.359,0.5,0.141,0.75c-0.094,0.812-0.141,1.484-0.141,2.016
	c0,1.438,0.172,2.438,0.516,3c0.188,0.281,0.359,0.281,0.516,0c0.531-0.906,1.109-1.891,1.734-2.953
	c0.125-0.156,0.188-0.125,0.188,0.094c-0.469,1-0.891,1.922-1.266,2.766c-0.219,0.438-0.281,0.797-0.188,1.078
	c0.125,0.406,0.016,0.547-0.328,0.422c-0.531-0.188-0.969-0.688-1.312-1.5C115.412,66.428,115.287,65.709,115.287,64.865z"/>
<path fill="#757575" d="M57.13,158.627c-0.688-0.062-1.141-0.094-1.359-0.094c-0.781,0.031-1.406,0.062-1.875,0.094
	c0,0.594,0,1.172,0,1.734c0,1.062-0.219,1.719-0.656,1.969c-0.312,0.188-0.453,0.156-0.422-0.094
	c0.031-0.219-0.062-0.391-0.281-0.516c-0.406-0.25-0.859-0.516-1.359-0.797c-0.156-0.125-0.125-0.172,0.094-0.141
	c0.5,0.188,0.984,0.375,1.453,0.562c0.25,0.094,0.422,0,0.516-0.281c0.062-0.188,0.094-0.969,0.094-2.344
	c-1.219,0.156-2.312,0.344-3.281,0.562c0,1,0,1.797,0,2.391c0.031,0.625,0.078,1.078,0.141,1.359
	c0.062,0.312,0.188,0.531,0.375,0.656c0.25,0.156,0.781,0.234,1.594,0.234c1.125,0,2-0.094,2.625-0.281
	c0.312-0.094,0.531-0.094,0.656,0s0.234,0.203,0.328,0.328c0.156,0.219,0.094,0.344-0.188,0.375s-1.5,0.047-3.656,0.047
	c-0.906,0-1.516-0.156-1.828-0.469c-0.406-0.406-0.609-1.328-0.609-2.766c0-0.625,0-1.219,0-1.781
	c-0.281,0.062-0.797,0.219-1.547,0.469c-0.281,0.094-0.469,0.172-0.562,0.234c-0.125,0.094-0.266,0.062-0.422-0.094
	c-0.469-0.438-0.688-0.75-0.656-0.938c0-0.219,0.062-0.25,0.188-0.094c0.188,0.312,0.469,0.469,0.844,0.469
	c0.156,0,0.469-0.047,0.938-0.141c0.438-0.094,0.844-0.188,1.219-0.281c0-0.719-0.031-1.281-0.094-1.688
	c-0.062-0.469-0.359-0.734-0.891-0.797c-0.25,0-0.25-0.062,0-0.188c0.562-0.062,1.109,0.078,1.641,0.422
	c0.281,0.188,0.297,0.359,0.047,0.516c-0.094,0.062-0.141,0.594-0.141,1.594c1.219-0.219,2.312-0.391,3.281-0.516
	c0-1.188-0.016-1.906-0.047-2.156c-0.031-0.281-0.297-0.484-0.797-0.609c-0.219,0-0.234-0.062-0.047-0.188
	c0.688-0.031,1.234,0.109,1.641,0.422c0.25,0.188,0.25,0.344,0,0.469c-0.125,0.062-0.188,0.734-0.188,2.016
	c1.375-0.188,2.156-0.344,2.344-0.469c0.156-0.094,0.328-0.078,0.516,0.047c0.344,0.219,0.531,0.344,0.562,0.375
	C57.505,158.533,57.443,158.658,57.13,158.627z M56.38,156.564c0.062,0.25,0,0.406-0.188,0.469s-0.328-0.016-0.422-0.234
	c-0.219-0.5-0.625-0.938-1.219-1.312c-0.062-0.094-0.047-0.125,0.047-0.094c0.531,0.094,1,0.297,1.406,0.609
	C56.193,156.158,56.318,156.346,56.38,156.564z M56.896,156.049c-0.219-0.5-0.625-0.938-1.219-1.312
	c-0.062-0.094-0.047-0.125,0.047-0.094c0.531,0.094,1,0.297,1.406,0.609c0.188,0.156,0.312,0.344,0.375,0.562
	c0.062,0.25,0,0.406-0.188,0.469S56.99,156.268,56.896,156.049z M63.037,156.518c-0.375,0.031-0.719,0.234-1.031,0.609
	c-1,1.188-1.5,2.562-1.5,4.125c0,1.031,0.203,1.75,0.609,2.156c0.5,0.5,1.062,0.75,1.688,0.75c0.812,0,1.469-0.234,1.969-0.703
	c0.844-0.781,1.266-1.875,1.266-3.281c0-1.469-0.203-2.766-0.609-3.891c-0.062-0.156-0.078-0.281-0.047-0.375
	c0.062-0.188,0.234-0.203,0.516-0.047c0.188,0.094,0.312,0.172,0.375,0.234c0.094,0.094,0.094,0.203,0,0.328
	c0.156,0.531,0.344,0.969,0.562,1.312c0.562,0.875,1.203,1.672,1.922,2.391c0.094,0.094,0.234,0.219,0.422,0.375
	s0.25,0.391,0.188,0.703c-0.031,0.188-0.109,0.281-0.234,0.281c-0.094,0-0.203-0.078-0.328-0.234
	c-0.906-1.062-1.75-2.344-2.531-3.844c-0.156-0.188-0.203-0.156-0.141,0.094c0.25,1.094,0.375,2.016,0.375,2.766
	c0,1.5-0.391,2.641-1.172,3.422c-0.625,0.625-1.406,0.938-2.344,0.938s-1.656-0.25-2.156-0.75c-0.625-0.625-0.938-1.422-0.938-2.391
	c0-1.5,0.594-2.984,1.781-4.453c0.094-0.156,0.062-0.203-0.094-0.141c-0.531,0.156-1.031,0.359-1.5,0.609
	c-0.25,0.156-0.469,0.172-0.656,0.047c-0.344-0.219-0.562-0.453-0.656-0.703c-0.031-0.188,0.016-0.219,0.141-0.094
	c0.188,0.188,0.438,0.281,0.75,0.281c0.219,0,0.438-0.031,0.656-0.094c0.875-0.25,1.531-0.516,1.969-0.797
	c0.312-0.188,0.562-0.203,0.75-0.047C63.349,156.346,63.349,156.486,63.037,156.518z M70.583,162.189
	c-0.156,0.031-0.188-0.031-0.094-0.188c1.375-1.062,2.5-2.125,3.375-3.188H70.63v-0.281h3.422c0.281-0.406,0.594-0.906,0.938-1.5
	l-2.719,0.141c-0.031,0.531-0.188,0.578-0.469,0.141l-0.562-0.703h2.578l0.844-2.016l0.562,0.281
	c0.562,0.25,0.516,0.375-0.141,0.375l-0.984,1.359l4.219-0.188c-0.312-0.281-0.766-0.609-1.359-0.984
	c-0.094-0.062-0.078-0.109,0.047-0.141c0.781,0.219,1.484,0.578,2.109,1.078c0.438,0.344,0.656,0.672,0.656,0.984
	c0,0.281-0.109,0.422-0.328,0.422c-0.094,0-0.234-0.156-0.422-0.469c-0.094-0.156-0.266-0.375-0.516-0.656l-3.281,0.328l0.656,0.469
	c0.156,0.219,0,0.297-0.469,0.234c-0.25,0.344-0.469,0.625-0.656,0.844h4.922l0.609-0.609l0.75,0.562
	c0.188,0.156,0.188,0.266,0,0.328h-3.984c1.25,1.469,2.625,2.438,4.125,2.906c-0.438,0.156-0.734,0.375-0.891,0.656
	c-1.156-0.594-2.359-1.781-3.609-3.562h-2.156C73.333,160.252,72.021,161.377,70.583,162.189z M77.662,161.252
	c0.156,0.188,0,0.266-0.469,0.234c-1.656,1.156-3.469,2-5.438,2.531c-0.188,0-0.203-0.062-0.047-0.188
	c2.031-0.75,3.781-1.781,5.25-3.094L77.662,161.252z M79.208,162.424c0.25,0.219,0.109,0.297-0.422,0.234
	c-2.312,1.5-4.562,2.328-6.75,2.484c-0.219,0-0.234-0.062-0.047-0.188c2.281-0.375,4.453-1.375,6.516-3L79.208,162.424z
	 M75.974,160.127c-1.75,1.406-3.359,2.375-4.828,2.906c-0.188,0-0.203-0.062-0.047-0.188c1.719-0.875,3.234-2.031,4.547-3.469
	l0.75,0.562C76.552,160.127,76.412,160.189,75.974,160.127z M84.787,157.174h-2.25v-0.281h2.25v-2.297l0.844,0.141
	c0.344,0.125,0.266,0.25-0.234,0.375v1.781h1.828l0.281-0.375l0.656,0.469c0.188,0.156,0.125,0.266-0.188,0.328v1.406
	c0,3.031-0.312,4.859-0.938,5.484c-0.281,0.281-0.562,0.422-0.844,0.422c-0.156,0-0.234-0.062-0.234-0.188
	c0-0.188-0.078-0.328-0.234-0.422l-0.656-0.422c-0.188-0.125-0.188-0.188,0-0.188l0.609,0.234c0.25,0.094,0.469,0.141,0.656,0.141
	c0.125,0,0.219-0.031,0.281-0.094c0.5-0.5,0.75-2.109,0.75-4.828v-1.688h-1.969v0.516c0,3.062-1.062,5.406-3.188,7.031
	c-0.188,0.125-0.234,0.078-0.141-0.141c1.812-1.812,2.719-4.031,2.719-6.656V157.174z M89.896,156.518h2.109l0.281-0.375
	l0.656,0.469c0.188,0.156,0.125,0.266-0.188,0.328v7.078c-0.406,0.375-0.609,0.391-0.609,0.047v-0.562h-2.297v1.078
	c-0.406,0.375-0.609,0.391-0.609,0.047v-8.531L89.896,156.518z M92.146,156.799h-2.297v6.422h2.297V156.799z M95.662,162.33
	c0-1.375,0-2.766,0-4.172c0-0.5,0.016-1.016,0.047-1.547s-0.25-0.812-0.844-0.844c-0.188-0.062-0.203-0.125-0.047-0.188
	c0.188-0.031,0.359-0.047,0.516-0.047c0.375,0,0.766,0.156,1.172,0.469c0.125,0.094,0.125,0.234,0,0.422
	c-0.062,0.094-0.125,0.281-0.188,0.562s-0.094,0.625-0.094,1.031c0,1.438,0,2.859,0,4.266c0,0.562,0.094,0.953,0.281,1.172
	c0.281,0.312,0.75,0.469,1.406,0.469c0.906,0,1.703-0.188,2.391-0.562c0.75-0.406,1.578-1,2.484-1.781
	c0.125-0.062,0.172-0.031,0.141,0.094c-0.844,1-1.688,1.734-2.531,2.203c-0.719,0.406-1.578,0.609-2.578,0.609
	c-0.719,0-1.281-0.219-1.688-0.656C95.818,163.486,95.662,162.986,95.662,162.33z M108.974,157.408
	c-0.688,0.156-1.484,0.312-2.391,0.469c-0.656,2.25-1.312,4.469-1.969,6.656c-0.062,0.188-0.172,0.234-0.328,0.141
	c-0.094-0.062-0.156-0.172-0.188-0.328c-0.094-0.344-0.094-0.578,0-0.703c0.188-0.312,0.359-0.672,0.516-1.078
	c0.531-1.5,1.031-3.031,1.5-4.594c-0.75,0.094-1.312,0.172-1.688,0.234c-0.188,0.094-0.344,0.078-0.469-0.047
	c-0.094-0.094-0.203-0.219-0.328-0.375c-0.094-0.125-0.141-0.266-0.141-0.422c0.031-0.156,0.078-0.188,0.141-0.094
	c0.219,0.312,0.531,0.469,0.938,0.469c0.562,0,1.109-0.047,1.641-0.141c0.281-0.719,0.438-1.281,0.469-1.688
	c0-0.156-0.047-0.281-0.141-0.375c-0.156-0.125-0.344-0.203-0.562-0.234c-0.219,0-0.234-0.062-0.047-0.188
	c0.156-0.031,0.328-0.047,0.516-0.047c0.25,0,0.594,0.156,1.031,0.469c0.219,0.156,0.219,0.297,0,0.422
	c-0.156,0.094-0.406,0.609-0.75,1.547c0.625-0.125,1.203-0.344,1.734-0.656c0.094-0.094,0.203-0.141,0.328-0.141
	s0.266,0.094,0.422,0.281C109.365,157.205,109.287,157.346,108.974,157.408z M107.662,159.143c0.625-0.375,1.328-0.641,2.109-0.797
	s1.453-0.203,2.016-0.141c0.312,0.031,0.469,0.156,0.469,0.375c0,0.188-0.125,0.281-0.375,0.281c-1.094,0-2.062,0.359-2.906,1.078
	c-0.156,0.094-0.188,0.062-0.094-0.094c0.25-0.312,0.688-0.625,1.312-0.938c0.25-0.125,0.219-0.188-0.094-0.188
	c-0.562,0-1.344,0.188-2.344,0.562C107.599,159.346,107.568,159.299,107.662,159.143z M107.708,161.814
	c0.125-0.25,0.188-0.25,0.188,0c-0.031,0.25-0.047,0.422-0.047,0.516c0,0.375,0.141,0.703,0.422,0.984
	c0.344,0.344,0.891,0.516,1.641,0.516c0.469,0,0.938,0,1.406,0c0.5,0,0.828-0.047,0.984-0.141c0.219-0.125,0.391-0.141,0.516-0.047
	c0.219,0.156,0.344,0.266,0.375,0.328c0.125,0.25,0,0.375-0.375,0.375c-0.781,0-1.562,0-2.344,0c-1.188,0-1.984-0.203-2.391-0.609
	c-0.312-0.312-0.469-0.719-0.469-1.219C107.615,162.236,107.646,162.002,107.708,161.814z M121.708,156.939
	c0.656,0.344,1.172,0.719,1.547,1.125c0.906,1,1.359,1.984,1.359,2.953c0,0.344-0.141,0.516-0.422,0.516
	c-0.219,0-0.344-0.125-0.375-0.375c-0.094-0.812-0.328-1.562-0.703-2.25c-0.344-0.656-0.844-1.266-1.5-1.828
	C121.521,156.986,121.552,156.939,121.708,156.939z M115.287,160.268c0-0.844,0-1.688,0-2.531c0-0.719-0.219-1.172-0.656-1.359
	c-0.125-0.062-0.109-0.109,0.047-0.141c0.375,0.031,0.75,0.203,1.125,0.516c0.312,0.25,0.359,0.5,0.141,0.75
	c-0.094,0.812-0.141,1.484-0.141,2.016c0,1.438,0.172,2.438,0.516,3c0.188,0.281,0.359,0.281,0.516,0
	c0.531-0.906,1.109-1.891,1.734-2.953c0.125-0.156,0.188-0.125,0.188,0.094c-0.469,1-0.891,1.922-1.266,2.766
	c-0.219,0.438-0.281,0.797-0.188,1.078c0.125,0.406,0.016,0.547-0.328,0.422c-0.531-0.188-0.969-0.688-1.312-1.5
	C115.412,161.83,115.287,161.111,115.287,160.268z"/>
<path fill="#757575" d="M2.365,260.451c-0.406,0.375-0.609,0.391-0.609,0.047v-5.109c-0.469,1.031-0.969,1.812-1.5,2.344
	c-0.219,0.156-0.297,0.125-0.234-0.094c0.906-1.344,1.469-2.891,1.688-4.641H0.302v-0.281h1.453v-2.578l0.797,0.141
	c0.25,0.156,0.188,0.266-0.188,0.328v2.109h0.281l0.516-0.516l0.656,0.469c0.188,0.156,0.188,0.266,0,0.328H2.365v1.828
	c0.438,0.125,0.766,0.297,0.984,0.516c0.156,0.156,0.234,0.328,0.234,0.516s-0.078,0.281-0.234,0.281s-0.266-0.094-0.328-0.281
	c-0.125-0.344-0.344-0.609-0.656-0.797V260.451z M7.755,251.967c0.281,0.094,0.516,0.203,0.703,0.328l0.891-1.969l0.562,0.375
	c0.25,0.219,0.141,0.312-0.328,0.281l-0.938,1.406c0.438,0.406,0.547,0.734,0.328,0.984c-0.219,0.125-0.375,0.078-0.469-0.141
	c-0.188-0.531-0.453-0.906-0.797-1.125C7.646,252.045,7.662,251.998,7.755,251.967z M4.568,252.529
	c0.188,0.219,0.281,0.453,0.281,0.703c0,0.281-0.109,0.422-0.328,0.422s-0.312-0.156-0.281-0.469c0-0.406-0.156-0.781-0.469-1.125
	c-0.062-0.062-0.047-0.109,0.047-0.141c0.312,0.188,0.516,0.328,0.609,0.422l0.797-1.922l0.562,0.375
	c0.156,0.188,0.078,0.266-0.234,0.234L4.568,252.529z M4.521,255.154l1.5-0.234c-0.062-0.188-0.141-0.359-0.234-0.516
	c-0.031-0.156,0.016-0.188,0.141-0.094c0.469,0.406,0.703,0.828,0.703,1.266c0,0.219-0.094,0.328-0.281,0.328
	c-0.125,0-0.203-0.094-0.234-0.281c0-0.156-0.016-0.344-0.047-0.562l-1.641,0.516c-0.125,0.438-0.25,0.5-0.375,0.188l-0.234-0.609
	h0.516l1.594-3l0.562,0.422c0.25,0.219,0.141,0.312-0.328,0.281L4.521,255.154z M5.365,257.732c0.906,0.344,1.359,0.75,1.359,1.219
	c0,0.219-0.094,0.328-0.281,0.328c-0.156,0-0.266-0.078-0.328-0.234c-0.125-0.469-0.391-0.828-0.797-1.078
	c-0.344,1.031-1.078,1.859-2.203,2.484c-0.156,0.062-0.188,0.016-0.094-0.141c1.219-0.812,1.828-2.047,1.828-3.703H3.583v-0.281
	h3.516c-0.219-0.938-0.328-1.859-0.328-2.766v-3.469l0.797,0.141c0.25,0.156,0.188,0.266-0.188,0.328v3.375
	c0,0.688,0.109,1.484,0.328,2.391h1.359c-0.094-0.594-0.297-1.016-0.609-1.266l-0.094,0.047c0.031,0.438-0.062,0.516-0.281,0.234
	l-0.328-0.656l0.938-0.141l1.547-2.719l0.562,0.422c0.25,0.188,0.141,0.266-0.328,0.234l-1.547,2.062l1.359-0.281
	c-0.062-0.156-0.188-0.344-0.375-0.562c-0.125-0.156-0.094-0.203,0.094-0.141c0.375,0.188,0.656,0.406,0.844,0.656
	s0.281,0.469,0.281,0.656s-0.078,0.281-0.234,0.281c-0.188,0-0.297-0.062-0.328-0.188c-0.062-0.219-0.125-0.375-0.188-0.469
	l-1.781,0.516c0.594,0.25,0.906,0.547,0.938,0.891c0,0.188-0.062,0.328-0.188,0.422h0.469l0.609-0.609l0.75,0.562
	c0.188,0.156,0.188,0.266,0,0.328H7.802c0.188,0.625,0.453,1.172,0.797,1.641c0.375-0.375,0.75-0.875,1.125-1.5l0.703,0.469
	c0.25,0.156,0.125,0.25-0.375,0.281c-0.344,0.406-0.719,0.797-1.125,1.172c0.219,0.25,0.578,0.516,1.078,0.797
	c0.406,0.188,0.641,0.188,0.703,0l0.469-1.312c0.062-0.188,0.125-0.188,0.188,0l-0.234,1.312c-0.031,0.156,0.016,0.312,0.141,0.469
	c0.125,0.281,0.078,0.438-0.141,0.469c-0.875,0-1.75-0.438-2.625-1.312c-0.875,0.812-1.812,1.391-2.812,1.734
	c-0.156,0-0.172-0.047-0.047-0.141c0.781-0.406,1.625-1.078,2.531-2.016c-0.406-0.531-0.734-1.219-0.984-2.062H5.458
	C5.458,257.014,5.427,257.389,5.365,257.732z M12.49,254.779c2.062-1.188,3.719-2.812,4.969-4.875l1.031,0.422
	c0.156,0.25,0,0.328-0.469,0.234c1.188,1.531,2.938,2.719,5.25,3.562c-0.375,0.125-0.656,0.344-0.844,0.656
	c-2.062-1.062-3.594-2.438-4.594-4.125c-1.781,2.25-3.547,3.688-5.297,4.312C12.38,254.967,12.365,254.904,12.49,254.779z
	 M20.505,259.139c-0.406-0.406-0.859-0.797-1.359-1.172c-0.156-0.125-0.125-0.172,0.094-0.141c0.812,0.312,1.516,0.719,2.109,1.219
	c0.438,0.375,0.656,0.766,0.656,1.172c0,0.312-0.109,0.469-0.328,0.469c-0.156,0-0.297-0.141-0.422-0.422
	c-0.094-0.219-0.281-0.516-0.562-0.891l-6.375,0.656c-0.188,0.594-0.359,0.703-0.516,0.328l-0.469-0.891l2.156-0.047l0.938-2.672
	h-3.844v-0.281h8.719l0.609-0.609l0.75,0.562c0.188,0.156,0.188,0.266,0,0.328h-5.438l-1.406,2.625L20.505,259.139z M14.833,254.264
	h4.219l0.516-0.516l0.656,0.469c0.188,0.156,0.188,0.266,0,0.328h-5.391V254.264z M29.693,255.014c0-0.562-0.047-0.938-0.141-1.125
	c-0.125-0.25-0.359-0.375-0.703-0.375c-0.156,0-0.406,0.031-0.75,0.094c-0.719,1.656-1.453,3.312-2.203,4.969
	c-0.094,0.156-0.234,0.469-0.422,0.938c-0.094,0.25-0.203,0.375-0.328,0.375c-0.094,0-0.172-0.078-0.234-0.234
	c-0.031-0.062-0.047-0.188-0.047-0.375c0-0.281,0.094-0.516,0.281-0.703s0.406-0.531,0.656-1.031
	c0.688-1.344,1.297-2.625,1.828-3.844c-0.844,0.156-1.438,0.312-1.781,0.469c-0.188,0.094-0.359,0.078-0.516-0.047
	c-0.312-0.219-0.469-0.547-0.469-0.984c0.031-0.094,0.078-0.094,0.141,0c0.188,0.344,0.438,0.516,0.75,0.516
	c0.25,0,0.922-0.094,2.016-0.281c0.156-0.344,0.312-0.703,0.469-1.078c0.156-0.438,0.141-0.766-0.047-0.984
	c-0.156-0.188-0.406-0.297-0.75-0.328c-0.125-0.062-0.125-0.125,0-0.188c0.312,0,0.531,0.016,0.656,0.047
	c0.344,0.094,0.641,0.266,0.891,0.516c0.281,0.281,0.266,0.453-0.047,0.516c-0.219,0.5-0.453,0.984-0.703,1.453
	c0.25-0.062,0.453-0.094,0.609-0.094c0.406,0,0.703,0.109,0.891,0.328c0.281,0.344,0.422,0.922,0.422,1.734
	c0,2.406-0.578,3.906-1.734,4.5c-0.312,0.156-0.469,0.094-0.469-0.188c0-0.219-0.062-0.375-0.188-0.469
	c-0.312-0.219-0.625-0.453-0.938-0.703c-0.062-0.125-0.031-0.172,0.094-0.141c0.375,0.219,0.734,0.406,1.078,0.562
	c0.312,0.156,0.594,0.062,0.844-0.281c0.281-0.406,0.484-0.906,0.609-1.5C29.615,256.326,29.693,255.639,29.693,255.014z
	 M34.193,251.967c-0.188,0.062-0.328-0.016-0.422-0.234c-0.219-0.5-0.625-0.938-1.219-1.312c-0.062-0.094-0.047-0.125,0.047-0.094
	c0.531,0.094,1,0.297,1.406,0.609c0.188,0.156,0.312,0.344,0.375,0.562C34.443,251.748,34.38,251.904,34.193,251.967z
	 M31.333,253.42c-0.156-0.125-0.125-0.172,0.094-0.141c0.531,0.219,1.094,0.562,1.688,1.031c0.781,0.625,1.219,1.391,1.312,2.297
	c0.031,0.312-0.016,0.547-0.141,0.703c-0.188,0.25-0.375,0.234-0.562-0.047c-0.188-0.312-0.422-0.453-0.703-0.422
	c-0.438,0.031-0.891,0.062-1.359,0.094c-0.188-0.031-0.203-0.094-0.047-0.188c0.5-0.062,1.031-0.141,1.594-0.234
	c0.219-0.031,0.312-0.125,0.281-0.281c-0.062-0.5-0.297-1.016-0.703-1.547C32.412,254.186,31.927,253.764,31.333,253.42z
	 M33.162,252.295c0.062,0.25,0,0.406-0.188,0.469s-0.328-0.016-0.422-0.234c-0.219-0.5-0.625-0.938-1.219-1.312
	c-0.062-0.094-0.047-0.125,0.047-0.094c0.531,0.094,1,0.297,1.406,0.609C32.974,251.889,33.099,252.076,33.162,252.295z
	 M40.833,250.654c-1.5,2.25-3.281,3.891-5.344,4.922c-0.156,0.031-0.203-0.031-0.141-0.188c2.281-1.375,3.938-3.203,4.969-5.484
	l1.031,0.328c0.188,0.156,0.188,0.266,0,0.328c1.438,2.094,3.172,3.484,5.203,4.172c-0.469,0.125-0.797,0.328-0.984,0.609
	c-1.875-1.062-3.391-2.625-4.547-4.688H40.833z M38.115,254.686v-0.281h3.938l0.516-0.516l0.656,0.469
	c0.188,0.156,0.188,0.266,0,0.328H38.115z M37.693,255.998l0.703,0.422h4.453l0.328-0.422l0.75,0.516
	c0.25,0.188,0.141,0.312-0.328,0.375v3.562c-0.406,0.375-0.609,0.391-0.609,0.047v-0.562h-4.688v0.469
	c-0.406,0.375-0.609,0.391-0.609,0.047V255.998z M42.99,259.654v-2.953h-4.688v2.953H42.99z M50.302,257.779
	c-1.062,1.062-1.688,1.719-1.875,1.969c-0.094,0.125-0.203,0.203-0.328,0.234c-0.156,0.031-0.234-0.047-0.234-0.234
	c-0.031-0.406,0.094-0.703,0.375-0.891s0.609-0.453,0.984-0.797c1.875-1.719,3.312-3.078,4.312-4.078
	c0.25-0.25,0.203-0.344-0.141-0.281c-0.969,0.156-1.875,0.375-2.719,0.656c-0.281,0.094-0.641,0.266-1.078,0.516
	c-0.219,0.125-0.438,0.078-0.656-0.141c-0.281-0.281-0.375-0.672-0.281-1.172c0.125-0.25,0.188-0.25,0.188,0
	c0.031,0.25,0.094,0.422,0.188,0.516s0.234,0.141,0.422,0.141c0.25,0,0.531-0.047,0.844-0.141c1.062-0.312,2.188-0.547,3.375-0.703
	l0.234-0.188c0.094-0.062,0.203-0.062,0.328,0c0.281,0.156,0.469,0.281,0.562,0.375c0.156,0.188,0.125,0.297-0.094,0.328
	c-0.25,0.031-0.422,0.094-0.516,0.188c-1.062,0.969-2.125,1.938-3.188,2.906c0.219-0.062,0.469-0.094,0.75-0.094
	c0.375,0,0.656,0.094,0.844,0.281s0.297,0.469,0.328,0.844c0.062,0.656,0.141,1.062,0.234,1.219c0.125,0.188,0.5,0.281,1.125,0.281
	c1.031,0,1.672-0.062,1.922-0.188s0.484-0.062,0.703,0.188c0.219,0.312,0.172,0.469-0.141,0.469c-0.969,0-1.859,0-2.672,0
	c-0.844,0-1.359-0.234-1.547-0.703c-0.062-0.156-0.125-0.609-0.188-1.359c-0.031-0.469-0.297-0.703-0.797-0.703
	C51.099,257.217,50.677,257.404,50.302,257.779z M50.865,252.061c0.375-0.188,0.812-0.328,1.312-0.422
	c-0.75-0.25-1.266-0.734-1.547-1.453c0-0.094,0.047-0.109,0.141-0.047c0.312,0.531,0.906,0.859,1.781,0.984
	c0.406,0.062,0.672,0.234,0.797,0.516c0.188,0.406,0.078,0.547-0.328,0.422c-0.562-0.156-1.266-0.109-2.109,0.141
	C50.787,252.232,50.771,252.186,50.865,252.061z M68.521,259.42c-0.875-0.531-1.547-0.875-2.016-1.031
	c-0.094,0.5-0.312,0.859-0.656,1.078c-0.312,0.219-0.734,0.328-1.266,0.328c-0.688,0-1.188-0.156-1.5-0.469
	c-0.219-0.219-0.328-0.469-0.328-0.75c0-0.219,0.125-0.422,0.375-0.609c0.312-0.219,0.797-0.328,1.453-0.328
	c0.531,0,1,0.047,1.406,0.141c0-1.75-0.031-3.094-0.094-4.031c-1.094,0.156-2.031,0.234-2.812,0.234
	c-0.281,0-0.516-0.078-0.703-0.234c-0.375-0.344-0.594-0.641-0.656-0.891c-0.031-0.156,0.016-0.188,0.141-0.094
	c0.344,0.531,0.766,0.797,1.266,0.797c0.656,0,1.562-0.078,2.719-0.234c-0.031-0.781-0.062-1.312-0.094-1.594
	c-0.031-0.344-0.328-0.531-0.891-0.562c-0.281,0-0.297-0.062-0.047-0.188c0.219-0.094,0.469-0.125,0.75-0.094
	c0.312,0.031,0.609,0.141,0.891,0.328c0.125,0.094,0.109,0.219-0.047,0.375c-0.062,0.062-0.094,0.219-0.094,0.469
	c0,0.344,0.016,0.734,0.047,1.172c0.938-0.125,1.453-0.219,1.547-0.281c0.156-0.094,0.312-0.094,0.469,0s0.266,0.172,0.328,0.234
	c0.094,0.125,0.047,0.203-0.141,0.234c-0.75,0.125-1.469,0.219-2.156,0.281c0.094,1.469,0.141,2.859,0.141,4.172
	c0.688,0.25,1.359,0.5,2.016,0.75c0.156,0.062,0.25,0.156,0.281,0.281c0.062,0.188,0.078,0.328,0.047,0.422
	C68.833,259.514,68.708,259.545,68.521,259.42z M60.88,252.061c0.125,0.125,0.125,0.25,0,0.375
	c-0.062,0.062-0.141,0.234-0.234,0.516c-0.625,1.781-0.938,3.156-0.938,4.125c0,0.531,0.031,0.844,0.094,0.938
	s0.125,0.078,0.188-0.047c0.344-0.875,0.703-1.688,1.078-2.438c0.156-0.031,0.203,0.016,0.141,0.141
	c-0.312,0.719-0.562,1.438-0.75,2.156c-0.094,0.375-0.141,0.672-0.141,0.891c0,0.344,0.016,0.688,0.047,1.031
	c0.031,0.312-0.078,0.469-0.328,0.469c-0.156,0-0.281-0.141-0.375-0.422c-0.25-0.75-0.359-1.719-0.328-2.906
	c0.031-1.281,0.25-2.625,0.656-4.031c0.062-0.219,0.094-0.469,0.094-0.75c0-0.312-0.188-0.547-0.562-0.703
	c-0.156-0.062-0.156-0.109,0-0.141c0.281,0,0.516,0.062,0.703,0.188C60.318,251.514,60.537,251.717,60.88,252.061z M65.943,258.248
	c-0.469-0.188-0.953-0.281-1.453-0.281c-0.625,0-1.047,0.109-1.266,0.328c-0.094,0.094-0.141,0.203-0.141,0.328
	c0,0.188,0.047,0.328,0.141,0.422c0.281,0.281,0.688,0.422,1.219,0.422c0.5,0,0.844-0.094,1.031-0.281
	C65.755,258.904,65.912,258.592,65.943,258.248z M68.474,251.686c0.062,0.25,0,0.406-0.188,0.469s-0.328-0.016-0.422-0.234
	c-0.219-0.5-0.625-0.938-1.219-1.312c-0.062-0.094-0.047-0.125,0.047-0.094c0.531,0.094,1,0.297,1.406,0.609
	C68.287,251.279,68.412,251.467,68.474,251.686z M68.943,251.357c-0.219-0.5-0.625-0.938-1.219-1.312
	c-0.062-0.094-0.047-0.125,0.047-0.094c0.531,0.094,1,0.297,1.406,0.609c0.188,0.156,0.312,0.344,0.375,0.562
	c0.062,0.25,0,0.406-0.188,0.469S69.037,251.576,68.943,251.357z M70.583,257.592c-0.156,0.031-0.188-0.031-0.094-0.188
	c1.375-1.062,2.5-2.125,3.375-3.188H70.63v-0.281h3.422c0.281-0.406,0.594-0.906,0.938-1.5l-2.719,0.141
	c-0.031,0.531-0.188,0.578-0.469,0.141l-0.562-0.703h2.578l0.844-2.016l0.562,0.281c0.562,0.25,0.516,0.375-0.141,0.375
	l-0.984,1.359l4.219-0.188c-0.312-0.281-0.766-0.609-1.359-0.984c-0.094-0.062-0.078-0.109,0.047-0.141
	c0.781,0.219,1.484,0.578,2.109,1.078c0.438,0.344,0.656,0.672,0.656,0.984c0,0.281-0.109,0.422-0.328,0.422
	c-0.094,0-0.234-0.156-0.422-0.469c-0.094-0.156-0.266-0.375-0.516-0.656l-3.281,0.328l0.656,0.469c0.156,0.219,0,0.297-0.469,0.234
	c-0.25,0.344-0.469,0.625-0.656,0.844h4.922l0.609-0.609l0.75,0.562c0.188,0.156,0.188,0.266,0,0.328h-3.984
	c1.25,1.469,2.625,2.438,4.125,2.906c-0.438,0.156-0.734,0.375-0.891,0.656c-1.156-0.594-2.359-1.781-3.609-3.562h-2.156
	C73.333,255.654,72.021,256.779,70.583,257.592z M77.662,256.654c0.156,0.188,0,0.266-0.469,0.234c-1.656,1.156-3.469,2-5.438,2.531
	c-0.188,0-0.203-0.062-0.047-0.188c2.031-0.75,3.781-1.781,5.25-3.094L77.662,256.654z M79.208,257.826
	c0.25,0.219,0.109,0.297-0.422,0.234c-2.312,1.5-4.562,2.328-6.75,2.484c-0.219,0-0.234-0.062-0.047-0.188
	c2.281-0.375,4.453-1.375,6.516-3L79.208,257.826z M75.974,255.529c-1.75,1.406-3.359,2.375-4.828,2.906
	c-0.188,0-0.203-0.062-0.047-0.188c1.719-0.875,3.234-2.031,4.547-3.469l0.75,0.562C76.552,255.529,76.412,255.592,75.974,255.529z
	 M84.787,252.576h-2.25v-0.281h2.25v-2.297l0.844,0.141c0.344,0.125,0.266,0.25-0.234,0.375v1.781h1.828l0.281-0.375l0.656,0.469
	c0.188,0.156,0.125,0.266-0.188,0.328v1.406c0,3.031-0.312,4.859-0.938,5.484c-0.281,0.281-0.562,0.422-0.844,0.422
	c-0.156,0-0.234-0.062-0.234-0.188c0-0.188-0.078-0.328-0.234-0.422l-0.656-0.422c-0.188-0.125-0.188-0.188,0-0.188l0.609,0.234
	c0.25,0.094,0.469,0.141,0.656,0.141c0.125,0,0.219-0.031,0.281-0.094c0.5-0.5,0.75-2.109,0.75-4.828v-1.688h-1.969v0.516
	c0,3.062-1.062,5.406-3.188,7.031c-0.188,0.125-0.234,0.078-0.141-0.141c1.812-1.812,2.719-4.031,2.719-6.656V252.576z
	 M89.896,251.92h2.109l0.281-0.375l0.656,0.469c0.188,0.156,0.125,0.266-0.188,0.328v7.078c-0.406,0.375-0.609,0.391-0.609,0.047
	v-0.562h-2.297v1.078c-0.406,0.375-0.609,0.391-0.609,0.047v-8.531L89.896,251.92z M92.146,252.201h-2.297v6.422h2.297V252.201z
	 M95.662,257.732c0-1.375,0-2.766,0-4.172c0-0.5,0.016-1.016,0.047-1.547s-0.25-0.812-0.844-0.844
	c-0.188-0.062-0.203-0.125-0.047-0.188c0.188-0.031,0.359-0.047,0.516-0.047c0.375,0,0.766,0.156,1.172,0.469
	c0.125,0.094,0.125,0.234,0,0.422c-0.062,0.094-0.125,0.281-0.188,0.562s-0.094,0.625-0.094,1.031c0,1.438,0,2.859,0,4.266
	c0,0.562,0.094,0.953,0.281,1.172c0.281,0.312,0.75,0.469,1.406,0.469c0.906,0,1.703-0.188,2.391-0.562
	c0.75-0.406,1.578-1,2.484-1.781c0.125-0.062,0.172-0.031,0.141,0.094c-0.844,1-1.688,1.734-2.531,2.203
	c-0.719,0.406-1.578,0.609-2.578,0.609c-0.719,0-1.281-0.219-1.688-0.656C95.818,258.889,95.662,258.389,95.662,257.732z
	 M108.974,252.811c-0.688,0.156-1.484,0.312-2.391,0.469c-0.656,2.25-1.312,4.469-1.969,6.656c-0.062,0.188-0.172,0.234-0.328,0.141
	c-0.094-0.062-0.156-0.172-0.188-0.328c-0.094-0.344-0.094-0.578,0-0.703c0.188-0.312,0.359-0.672,0.516-1.078
	c0.531-1.5,1.031-3.031,1.5-4.594c-0.75,0.094-1.312,0.172-1.688,0.234c-0.188,0.094-0.344,0.078-0.469-0.047
	c-0.094-0.094-0.203-0.219-0.328-0.375c-0.094-0.125-0.141-0.266-0.141-0.422c0.031-0.156,0.078-0.188,0.141-0.094
	c0.219,0.312,0.531,0.469,0.938,0.469c0.562,0,1.109-0.047,1.641-0.141c0.281-0.719,0.438-1.281,0.469-1.688
	c0-0.156-0.047-0.281-0.141-0.375c-0.156-0.125-0.344-0.203-0.562-0.234c-0.219,0-0.234-0.062-0.047-0.188
	c0.156-0.031,0.328-0.047,0.516-0.047c0.25,0,0.594,0.156,1.031,0.469c0.219,0.156,0.219,0.297,0,0.422
	c-0.156,0.094-0.406,0.609-0.75,1.547c0.625-0.125,1.203-0.344,1.734-0.656c0.094-0.094,0.203-0.141,0.328-0.141
	s0.266,0.094,0.422,0.281C109.365,252.607,109.287,252.748,108.974,252.811z M107.662,254.545c0.625-0.375,1.328-0.641,2.109-0.797
	s1.453-0.203,2.016-0.141c0.312,0.031,0.469,0.156,0.469,0.375c0,0.188-0.125,0.281-0.375,0.281c-1.094,0-2.062,0.359-2.906,1.078
	c-0.156,0.094-0.188,0.062-0.094-0.094c0.25-0.312,0.688-0.625,1.312-0.938c0.25-0.125,0.219-0.188-0.094-0.188
	c-0.562,0-1.344,0.188-2.344,0.562C107.599,254.748,107.568,254.701,107.662,254.545z M107.708,257.217
	c0.125-0.25,0.188-0.25,0.188,0c-0.031,0.25-0.047,0.422-0.047,0.516c0,0.375,0.141,0.703,0.422,0.984
	c0.344,0.344,0.891,0.516,1.641,0.516c0.469,0,0.938,0,1.406,0c0.5,0,0.828-0.047,0.984-0.141c0.219-0.125,0.391-0.141,0.516-0.047
	c0.219,0.156,0.344,0.266,0.375,0.328c0.125,0.25,0,0.375-0.375,0.375c-0.781,0-1.562,0-2.344,0c-1.188,0-1.984-0.203-2.391-0.609
	c-0.312-0.312-0.469-0.719-0.469-1.219C107.615,257.639,107.646,257.404,107.708,257.217z M121.708,252.342
	c0.656,0.344,1.172,0.719,1.547,1.125c0.906,1,1.359,1.984,1.359,2.953c0,0.344-0.141,0.516-0.422,0.516
	c-0.219,0-0.344-0.125-0.375-0.375c-0.094-0.812-0.328-1.562-0.703-2.25c-0.344-0.656-0.844-1.266-1.5-1.828
	C121.521,252.389,121.552,252.342,121.708,252.342z M115.287,255.67c0-0.844,0-1.688,0-2.531c0-0.719-0.219-1.172-0.656-1.359
	c-0.125-0.062-0.109-0.109,0.047-0.141c0.375,0.031,0.75,0.203,1.125,0.516c0.312,0.25,0.359,0.5,0.141,0.75
	c-0.094,0.812-0.141,1.484-0.141,2.016c0,1.438,0.172,2.438,0.516,3c0.188,0.281,0.359,0.281,0.516,0
	c0.531-0.906,1.109-1.891,1.734-2.953c0.125-0.156,0.188-0.125,0.188,0.094c-0.469,1-0.891,1.922-1.266,2.766
	c-0.219,0.438-0.281,0.797-0.188,1.078c0.125,0.406,0.016,0.547-0.328,0.422c-0.531-0.188-0.969-0.688-1.312-1.5
	C115.412,257.232,115.287,256.514,115.287,255.67z"/>
<path fill="#757575" d="M75.162,351.166c-0.438,0.656-0.891,1.297-1.359,1.922c0.375,0.406,0.734,0.766,1.078,1.078
	c0.125,0.094,0.203,0.062,0.234-0.094C75.177,353.447,75.193,352.479,75.162,351.166z M73.708,353.275
	c-0.188,0.312-0.359,0.609-0.516,0.891c-0.062,0.156-0.141,0.234-0.234,0.234c-0.188,0-0.281-0.266-0.281-0.797
	c0-0.188,0.109-0.344,0.328-0.469s0.469-0.375,0.75-0.75c0.5-0.656,0.969-1.297,1.406-1.922c0-0.5,0-1,0-1.5
	c-0.406,0.156-0.797,0.312-1.172,0.469c-0.125,0.094-0.234,0.141-0.328,0.141s-0.203-0.062-0.328-0.188
	c-0.438-0.25-0.625-0.547-0.562-0.891c0.062-0.125,0.125-0.125,0.188,0c0.125,0.312,0.359,0.469,0.703,0.469s0.844-0.109,1.5-0.328
	c0-0.938-0.016-1.625-0.047-2.062c-0.094-0.375-0.359-0.578-0.797-0.609c-0.25,0-0.25-0.062,0-0.188
	c0.5-0.094,1.031,0.047,1.594,0.422c0.188,0.188,0.188,0.328,0,0.422c-0.219,0.188-0.328,0.812-0.328,1.875
	c0.156-0.031,0.312-0.078,0.469-0.141c0.156,0.062,0.297,0.156,0.422,0.281c0.094,0.094,0.047,0.172-0.141,0.234
	c-0.25,0.156-0.5,0.391-0.75,0.703c0,0.25,0,0.5,0,0.75c1.531-1.125,2.922-1.688,4.172-1.688c0.938,0,1.688,0.281,2.25,0.844
	c0.406,0.406,0.609,0.938,0.609,1.594c0,0.719-0.266,1.344-0.797,1.875c-0.875,0.875-2.281,1.438-4.219,1.688
	c-0.125-0.031-0.125-0.109,0-0.234c1.562-0.281,2.719-0.797,3.469-1.547c0.562-0.562,0.844-1.203,0.844-1.922
	c0-0.531-0.172-0.969-0.516-1.312c-0.438-0.438-1.047-0.656-1.828-0.656c-1.156,0-2.484,0.609-3.984,1.828
	c0,0.812,0.047,1.688,0.141,2.625c0.031,0.312,0.047,0.703,0.047,1.172c0,0.281-0.062,0.5-0.188,0.656
	c-0.156,0.219-0.297,0.328-0.422,0.328c-0.156,0-0.234-0.125-0.234-0.375C74.927,354.822,74.521,354.182,73.708,353.275z
	 M87.708,348.916c-0.344,0-0.688,0.031-1.031,0.094c-0.719,1.656-1.453,3.312-2.203,4.969c-0.094,0.156-0.234,0.469-0.422,0.938
	c-0.094,0.25-0.203,0.375-0.328,0.375c-0.094,0-0.172-0.078-0.234-0.234c-0.031-0.062-0.047-0.188-0.047-0.375
	c0-0.281,0.094-0.516,0.281-0.703s0.406-0.531,0.656-1.031c0.688-1.344,1.297-2.625,1.828-3.844
	c-0.938,0.188-1.531,0.344-1.781,0.469c-0.188,0.094-0.359,0.078-0.516-0.047c-0.312-0.219-0.469-0.547-0.469-0.984
	c0.031-0.094,0.078-0.094,0.141,0c0.156,0.344,0.406,0.516,0.75,0.516c0.219,0,0.891-0.094,2.016-0.281
	c0.156-0.344,0.312-0.703,0.469-1.078c0.156-0.438,0.141-0.766-0.047-0.984c-0.156-0.188-0.406-0.297-0.75-0.328
	c-0.125-0.062-0.125-0.125,0-0.188c0.312,0,0.531,0.016,0.656,0.047c0.344,0.094,0.641,0.266,0.891,0.516
	c0.281,0.281,0.266,0.453-0.047,0.516c-0.219,0.5-0.453,0.984-0.703,1.453c0.438-0.062,0.734-0.094,0.891-0.094
	c0.406,0,0.703,0.109,0.891,0.328c0.281,0.344,0.422,0.922,0.422,1.734c0,2.406-0.578,3.906-1.734,4.5
	c-0.312,0.156-0.469,0.094-0.469-0.188c0-0.219-0.062-0.375-0.188-0.469c-0.281-0.219-0.594-0.453-0.938-0.703
	c-0.062-0.125-0.031-0.172,0.094-0.141c0.344,0.188,0.703,0.375,1.078,0.562c0.312,0.156,0.594,0.062,0.844-0.281
	c0.281-0.406,0.484-0.906,0.609-1.5c0.156-0.75,0.234-1.438,0.234-2.062c0-0.562-0.047-0.938-0.141-1.125
	C88.287,349.041,88.052,348.916,87.708,348.916z M90.708,348.635c-0.156-0.125-0.125-0.172,0.094-0.141
	c0.531,0.219,1.094,0.562,1.688,1.031c0.781,0.625,1.219,1.391,1.312,2.297c0.031,0.312-0.016,0.547-0.141,0.703
	c-0.188,0.25-0.375,0.234-0.562-0.047c-0.188-0.312-0.422-0.453-0.703-0.422c-0.438,0.031-0.891,0.062-1.359,0.094
	c-0.188-0.031-0.203-0.094-0.047-0.188c0.5-0.062,1.031-0.141,1.594-0.234c0.219-0.031,0.312-0.125,0.281-0.281
	c-0.062-0.5-0.297-1.016-0.703-1.547C91.787,349.4,91.302,348.979,90.708,348.635z M95.755,352.244
	c1.094-1.156,2.297-1.734,3.609-1.734c1.062,0,1.859,0.266,2.391,0.797c0.406,0.406,0.609,0.891,0.609,1.453
	c0,0.625-0.219,1.156-0.656,1.594c-0.906,0.875-2.625,1.297-5.156,1.266c-0.188-0.094-0.188-0.188,0-0.281
	c2.281-0.062,3.828-0.5,4.641-1.312c0.344-0.344,0.516-0.797,0.516-1.359c0-0.5-0.125-0.875-0.375-1.125
	c-0.5-0.5-1.125-0.75-1.875-0.75c-1.062,0-1.969,0.375-2.719,1.125c-0.469,0.469-0.75,0.922-0.844,1.359
	c-0.062,0.281-0.203,0.359-0.422,0.234c-0.344-0.188-0.5-0.578-0.469-1.172c0.031-0.781,0.109-1.484,0.234-2.109
	c0.062-0.344,0.094-0.688,0.094-1.031c0-0.219-0.047-0.406-0.141-0.562s-0.078-0.328,0.047-0.516c0.25-0.375,0.672-0.625,1.266-0.75
	c0.281-0.062,0.656-0.094,1.125-0.094c0.062,0,0.078-0.031,0.047-0.094c-0.031-0.094-0.141-0.156-0.328-0.188
	c-0.688-0.125-1.203-0.547-1.547-1.266c0.031-0.094,0.078-0.109,0.141-0.047c0.375,0.469,1.031,0.797,1.969,0.984
	c0.594,0.125,0.922,0.438,0.984,0.938c0.031,0.281-0.094,0.359-0.375,0.234c-0.406-0.188-0.75-0.281-1.031-0.281
	c-0.875,0-1.484,0.172-1.828,0.516c-0.219,0.219-0.219,0.438,0,0.656c0.188,0.188,0.234,0.438,0.141,0.75
	c-0.188,0.625-0.266,1.547-0.234,2.766C95.568,352.432,95.63,352.432,95.755,352.244z M112.537,350.322
	c-0.312-0.312-0.656-0.469-1.031-0.469c-0.625,0-1.141,0.141-1.547,0.422c-0.219,0.156-0.312,0.422-0.281,0.797
	c0.062,0.906,0.141,1.719,0.234,2.438c1.344,0.312,2.188,0.594,2.531,0.844c0.125,0.094,0.172,0.297,0.141,0.609
	c-0.031,0.281-0.188,0.328-0.469,0.141c-0.906-0.562-1.625-0.938-2.156-1.125c0,0.656-0.188,1.125-0.562,1.406
	c-0.281,0.219-0.672,0.328-1.172,0.328c-0.531,0-0.938-0.141-1.219-0.422c-0.219-0.219-0.328-0.469-0.328-0.75
	c0-0.375,0.156-0.672,0.469-0.891c0.281-0.188,0.719-0.281,1.312-0.281c0.281,0,0.578,0.016,0.891,0.047
	c-0.125-1.125-0.188-1.891-0.188-2.297c0-0.594,0.266-1,0.797-1.219s1.031-0.328,1.5-0.328c0.281,0,0.359-0.094,0.234-0.281
	c-0.406-0.594-1.109-1.094-2.109-1.5c-0.125-0.062-0.109-0.109,0.047-0.141c1.156,0.188,2.109,0.656,2.859,1.406
	c0.344,0.344,0.516,0.672,0.516,0.984c0,0.25-0.078,0.375-0.234,0.375C112.677,350.416,112.599,350.385,112.537,350.322z
	 M108.177,348.307c-0.531,0.125-1.094,0.25-1.688,0.375c-1.219,2.781-1.969,4.406-2.25,4.875c-0.188,0.312-0.359,0.391-0.516,0.234
	c-0.094-0.094-0.156-0.219-0.188-0.375c-0.031-0.25,0.047-0.469,0.234-0.656c0.219-0.219,0.422-0.484,0.609-0.797
	c0.406-0.688,0.938-1.75,1.594-3.188c-0.406,0.062-0.812,0.156-1.219,0.281c-0.219,0.125-0.391,0.125-0.516,0
	c-0.406-0.406-0.594-0.703-0.562-0.891c0-0.156,0.062-0.156,0.188,0c0.125,0.25,0.391,0.375,0.797,0.375
	c0.531,0,1.016-0.062,1.453-0.188c0.375-0.906,0.578-1.562,0.609-1.969c0.031-0.312-0.172-0.516-0.609-0.609
	c-0.156-0.062-0.156-0.125,0-0.188c0.281-0.031,0.562,0.016,0.844,0.141c0.219,0.094,0.406,0.219,0.562,0.375
	c0.188,0.188,0.172,0.344-0.047,0.469c-0.156,0.094-0.438,0.656-0.844,1.688c0.438-0.094,0.828-0.266,1.172-0.516
	c0.219-0.156,0.406-0.109,0.562,0.141C108.49,348.104,108.427,348.244,108.177,348.307z M109.349,353.838
	c-0.344-0.125-0.688-0.188-1.031-0.188c-0.438,0-0.766,0.078-0.984,0.234s-0.328,0.359-0.328,0.609c0,0.188,0.062,0.359,0.188,0.516
	c0.219,0.25,0.562,0.375,1.031,0.375c0.312,0,0.531-0.047,0.656-0.141C109.224,354.994,109.38,354.525,109.349,353.838z
	 M121.708,347.744c0.656,0.344,1.172,0.719,1.547,1.125c0.906,1,1.359,1.984,1.359,2.953c0,0.344-0.141,0.516-0.422,0.516
	c-0.219,0-0.344-0.125-0.375-0.375c-0.094-0.812-0.328-1.562-0.703-2.25c-0.344-0.656-0.844-1.266-1.5-1.828
	C121.521,347.791,121.552,347.744,121.708,347.744z M115.287,351.072c0-0.844,0-1.688,0-2.531c0-0.719-0.219-1.172-0.656-1.359
	c-0.125-0.062-0.109-0.109,0.047-0.141c0.375,0.031,0.75,0.203,1.125,0.516c0.312,0.25,0.359,0.5,0.141,0.75
	c-0.094,0.812-0.141,1.484-0.141,2.016c0,1.438,0.172,2.438,0.516,3c0.188,0.281,0.359,0.281,0.516,0
	c0.531-0.906,1.109-1.891,1.734-2.953c0.125-0.156,0.188-0.125,0.188,0.094c-0.469,1-0.891,1.922-1.266,2.766
	c-0.219,0.438-0.281,0.797-0.188,1.078c0.125,0.406,0.016,0.547-0.328,0.422c-0.531-0.188-0.969-0.688-1.312-1.5
	C115.412,352.635,115.287,351.916,115.287,351.072z"/>
<path fill="#757575" d="M717.199,59.85c-0.25-0.344-0.525-0.607-0.826-0.791s-0.631-0.324-0.99-0.422s-0.719-0.146-1.078-0.146
	c-0.594,0-1.113,0.068-1.559,0.205s-0.814,0.322-1.107,0.557s-0.514,0.508-0.662,0.82s-0.223,0.641-0.223,0.984
	c0,0.516,0.092,0.932,0.275,1.248s0.416,0.57,0.697,0.762s0.592,0.342,0.932,0.451s0.666,0.219,0.979,0.328l2.367,0.773
	c0.711,0.227,1.338,0.484,1.881,0.773s0.998,0.631,1.365,1.025s0.646,0.85,0.838,1.365s0.287,1.113,0.287,1.793
	c0,0.734-0.15,1.414-0.451,2.039s-0.721,1.168-1.26,1.629s-1.182,0.822-1.928,1.084s-1.564,0.393-2.455,0.393
	c-0.914,0-1.695-0.104-2.344-0.311s-1.193-0.484-1.635-0.832s-0.795-0.744-1.061-1.189s-0.473-0.902-0.621-1.371h-0.891v-2.016
	h2.953c0,0.867,0.092,1.48,0.275,1.84s0.439,0.658,0.768,0.896s0.719,0.418,1.172,0.539s0.953,0.182,1.5,0.182
	c0.531,0,1.01-0.062,1.436-0.188s0.789-0.307,1.09-0.545s0.531-0.527,0.691-0.867s0.24-0.725,0.24-1.154
	c0-0.477-0.1-0.881-0.299-1.213s-0.455-0.615-0.768-0.85s-0.654-0.426-1.025-0.574s-0.729-0.277-1.072-0.387l-2.566-0.727
	c-0.562-0.172-1.076-0.391-1.541-0.656s-0.863-0.59-1.195-0.973s-0.588-0.83-0.768-1.342s-0.27-1.104-0.27-1.775
	c0-0.68,0.133-1.316,0.398-1.91s0.656-1.113,1.172-1.559s1.146-0.795,1.893-1.049s1.6-0.381,2.561-0.381
	c0.633,0,1.217,0.074,1.752,0.223s1.02,0.357,1.453,0.627s0.816,0.594,1.148,0.973s0.611,0.795,0.838,1.248h0.879v2.016h-2.871
	C717.574,60.709,717.449,60.194,717.199,59.85z"/>
<path fill="#757575" d="M725.66,62.194h2.848v1.77h-2.871l-0.035,7.008c0,0.477,0.055,0.863,0.164,1.16s0.285,0.502,0.527,0.615
	s0.516,0.17,0.82,0.17c0.328,0,0.617-0.029,0.867-0.088s0.523-0.158,0.82-0.299l0.504,1.465c-0.375,0.195-0.77,0.35-1.184,0.463
	s-0.902,0.17-1.465,0.17c-0.531,0-0.994-0.064-1.389-0.193s-0.727-0.346-0.996-0.65s-0.471-0.713-0.604-1.225
	s-0.199-1.15-0.199-1.916l0.035-6.68h-1.934v-1.77h1.957v-2.906l2.133-1.008V62.194z"/>
<path fill="#757575" d="M738.21,73.209c-0.461,0.43-0.971,0.781-1.529,1.055s-1.193,0.41-1.904,0.41
	c-0.594,0-1.139-0.094-1.635-0.281s-0.924-0.443-1.283-0.768s-0.639-0.701-0.838-1.131s-0.299-0.887-0.299-1.371
	c0-0.516,0.076-0.973,0.229-1.371s0.355-0.744,0.609-1.037s0.551-0.539,0.891-0.738s0.695-0.359,1.066-0.48s0.75-0.207,1.137-0.258
	s0.756-0.076,1.107-0.076c0.562,0,1.035,0.018,1.418,0.053s0.73,0.084,1.043,0.146l0.012-0.996c0-0.43-0.062-0.803-0.188-1.119
	s-0.301-0.578-0.527-0.785s-0.498-0.361-0.814-0.463s-0.67-0.152-1.061-0.152c-0.367,0-0.719,0.025-1.055,0.076
	s-0.65,0.117-0.943,0.199s-0.562,0.176-0.809,0.281s-0.455,0.217-0.627,0.334l-0.715-1.512c0.289-0.188,0.605-0.361,0.949-0.521
	s0.705-0.297,1.084-0.41s0.766-0.203,1.16-0.27s0.783-0.1,1.166-0.1c0.703,0,1.336,0.084,1.898,0.252s1.039,0.428,1.43,0.779
	s0.691,0.799,0.902,1.342s0.316,1.193,0.316,1.951l-0.012,6.07h1.348v2.016h-3.527V73.209z M735.257,72.846
	c0.289,0,0.578-0.035,0.867-0.105s0.562-0.166,0.82-0.287s0.496-0.262,0.715-0.422s0.402-0.326,0.551-0.498l0.012-2.742h-2.531
	c-0.422,0-0.807,0.047-1.154,0.141s-0.648,0.23-0.902,0.41s-0.451,0.402-0.592,0.668s-0.211,0.57-0.211,0.914
	c0,0.32,0.059,0.6,0.176,0.838s0.283,0.438,0.498,0.598s0.471,0.281,0.768,0.363S734.898,72.846,735.257,72.846z"/>
<path fill="#757575" d="M748.207,62.194h2.812v1.77h-2.812v8.355h1.898v2.016h-5.906v-2.016h1.828v-8.355h-2.004v-1.77h2.004v-1.898
	c0.016-0.703,0.117-1.316,0.305-1.84s0.453-0.961,0.797-1.312s0.758-0.613,1.242-0.785s1.023-0.258,1.617-0.258
	c0.414,0,0.785,0.02,1.113,0.059s0.621,0.092,0.879,0.158s0.486,0.139,0.686,0.217s0.377,0.156,0.533,0.234l-0.668,1.559
	c-0.25-0.133-0.576-0.246-0.979-0.34s-0.822-0.141-1.26-0.141c-0.648,0-1.158,0.201-1.529,0.604s-0.557,0.994-0.557,1.775V62.194z"
	/>
<path fill="#757575" d="M756.937,62.194h2.812v1.77h-2.812v8.355h1.898v2.016h-5.906v-2.016h1.828v-8.355h-2.004v-1.77h2.004v-1.898
	c0.016-0.703,0.117-1.316,0.305-1.84s0.453-0.961,0.797-1.312s0.758-0.613,1.242-0.785s1.023-0.258,1.617-0.258
	c0.414,0,0.785,0.02,1.113,0.059s0.621,0.092,0.879,0.158s0.486,0.139,0.686,0.217s0.377,0.156,0.533,0.234l-0.668,1.559
	c-0.25-0.133-0.576-0.246-0.979-0.34s-0.822-0.141-1.26-0.141c-0.648,0-1.158,0.201-1.529,0.604s-0.557,0.994-0.557,1.775V62.194z"
	/>
<g>
	<g>
		<path fill="#FFFFFF" d="M452.755,59.85c-0.25-0.344-0.525-0.607-0.826-0.791s-0.631-0.324-0.99-0.422s-0.719-0.146-1.078-0.146
			c-0.594,0-1.113,0.068-1.559,0.205s-0.814,0.322-1.107,0.557s-0.514,0.508-0.662,0.82s-0.223,0.641-0.223,0.984
			c0,0.516,0.092,0.932,0.275,1.248s0.416,0.57,0.697,0.762s0.592,0.342,0.932,0.451s0.666,0.219,0.979,0.328l2.367,0.773
			c0.711,0.227,1.338,0.484,1.881,0.773s0.998,0.631,1.365,1.025s0.646,0.85,0.838,1.365s0.287,1.113,0.287,1.793
			c0,0.734-0.15,1.414-0.451,2.039s-0.721,1.168-1.26,1.629s-1.182,0.822-1.928,1.084s-1.564,0.393-2.455,0.393
			c-0.914,0-1.695-0.104-2.344-0.311s-1.193-0.484-1.635-0.832s-0.795-0.744-1.061-1.189s-0.473-0.902-0.621-1.371h-0.891v-2.016
			h2.953c0,0.867,0.092,1.48,0.275,1.84s0.439,0.658,0.768,0.896s0.719,0.418,1.172,0.539s0.953,0.182,1.5,0.182
			c0.531,0,1.01-0.062,1.436-0.188s0.789-0.307,1.09-0.545s0.531-0.527,0.691-0.867s0.24-0.725,0.24-1.154
			c0-0.477-0.1-0.881-0.299-1.213s-0.455-0.615-0.768-0.85s-0.654-0.426-1.025-0.574s-0.729-0.277-1.072-0.387l-2.566-0.727
			c-0.562-0.172-1.076-0.391-1.541-0.656s-0.863-0.59-1.195-0.973s-0.588-0.83-0.768-1.342s-0.27-1.104-0.27-1.775
			c0-0.68,0.133-1.316,0.398-1.91s0.656-1.113,1.172-1.559s1.146-0.795,1.893-1.049s1.6-0.381,2.561-0.381
			c0.633,0,1.217,0.074,1.752,0.223s1.02,0.357,1.453,0.627s0.816,0.594,1.148,0.973s0.611,0.795,0.838,1.248h0.879v2.016h-2.871
			C453.13,60.709,453.005,60.193,452.755,59.85z"/>
		<path fill="#FFFFFF" d="M457.22,62.193h3.867v1.008c0.516-0.398,1.078-0.715,1.688-0.949s1.238-0.352,1.887-0.352
			c0.797,0,1.527,0.148,2.191,0.445s1.236,0.715,1.717,1.254s0.854,1.186,1.119,1.939s0.398,1.588,0.398,2.502
			c0,0.977-0.148,1.867-0.445,2.672s-0.709,1.494-1.236,2.068s-1.154,1.021-1.881,1.342s-1.523,0.48-2.391,0.48
			c-0.617,0-1.166-0.064-1.646-0.193s-0.939-0.295-1.377-0.498v3.926h1.898v2.016h-5.766v-2.016h1.664V64.209h-1.688V62.193z
			 M464.087,63.822c-0.562,0-1.104,0.113-1.623,0.34s-0.971,0.539-1.354,0.938v6.574c0.258,0.266,0.627,0.504,1.107,0.715
			s1.08,0.316,1.799,0.316c0.5,0,0.98-0.098,1.441-0.293s0.867-0.486,1.219-0.873s0.633-0.865,0.844-1.436s0.316-1.23,0.316-1.98
			c0-0.688-0.1-1.297-0.299-1.828s-0.469-0.98-0.809-1.348s-0.736-0.646-1.189-0.838S464.603,63.822,464.087,63.822z"/>
		<path fill="#FFFFFF" d="M474.399,68.545c0,0.344,0.025,0.658,0.076,0.943s0.123,0.557,0.217,0.814
			c0.289,0.781,0.752,1.369,1.389,1.764s1.357,0.592,2.162,0.592c0.633,0,1.248-0.088,1.846-0.264s1.225-0.451,1.881-0.826
			l0.879,1.488c-0.797,0.547-1.598,0.953-2.402,1.219s-1.641,0.398-2.508,0.398c-0.82,0-1.58-0.137-2.279-0.41
			s-1.301-0.68-1.805-1.219s-0.898-1.211-1.184-2.016s-0.428-1.742-0.428-2.812c0-0.867,0.121-1.686,0.363-2.455
			s0.604-1.441,1.084-2.016s1.076-1.029,1.787-1.365s1.539-0.504,2.484-0.504c0.914,0,1.678,0.139,2.291,0.416
			s1.113,0.645,1.5,1.102s0.68,0.979,0.879,1.564s0.338,1.184,0.416,1.793c0.039,0.297,0.064,0.598,0.076,0.902
			s0.018,0.602,0.018,0.891H474.399z M477.81,63.705c-0.508,0-0.951,0.072-1.33,0.217s-0.701,0.352-0.967,0.621
			s-0.479,0.6-0.639,0.99s-0.279,0.828-0.357,1.312h6.293c-0.031-0.453-0.104-0.871-0.217-1.254s-0.287-0.715-0.521-0.996
			s-0.535-0.5-0.902-0.656S478.349,63.705,477.81,63.705z"/>
		<path fill="#FFFFFF" d="M493.243,73.209c-0.461,0.43-0.971,0.781-1.529,1.055s-1.193,0.41-1.904,0.41
			c-0.594,0-1.139-0.094-1.635-0.281s-0.924-0.443-1.283-0.768s-0.639-0.701-0.838-1.131s-0.299-0.887-0.299-1.371
			c0-0.516,0.076-0.973,0.229-1.371s0.355-0.744,0.609-1.037s0.551-0.539,0.891-0.738s0.695-0.359,1.066-0.48
			s0.75-0.207,1.137-0.258s0.756-0.076,1.107-0.076c0.562,0,1.035,0.018,1.418,0.053s0.73,0.084,1.043,0.146l0.012-0.996
			c0-0.43-0.062-0.803-0.188-1.119s-0.301-0.578-0.527-0.785s-0.498-0.361-0.814-0.463s-0.67-0.152-1.061-0.152
			c-0.367,0-0.719,0.025-1.055,0.076s-0.65,0.117-0.943,0.199s-0.562,0.176-0.809,0.281s-0.455,0.217-0.627,0.334l-0.715-1.512
			c0.289-0.188,0.605-0.361,0.949-0.521s0.705-0.297,1.084-0.41s0.766-0.203,1.16-0.27s0.783-0.1,1.166-0.1
			c0.703,0,1.336,0.084,1.898,0.252s1.039,0.428,1.43,0.779s0.691,0.799,0.902,1.342s0.316,1.193,0.316,1.951l-0.012,6.07h1.348
			v2.016h-3.527V73.209z M490.29,72.846c0.289,0,0.578-0.035,0.867-0.105s0.562-0.166,0.82-0.287s0.496-0.262,0.715-0.422
			s0.402-0.326,0.551-0.498l0.012-2.742h-2.531c-0.422,0-0.807,0.047-1.154,0.141s-0.648,0.23-0.902,0.41s-0.451,0.402-0.592,0.668
			s-0.211,0.57-0.211,0.914c0,0.32,0.059,0.6,0.176,0.838s0.283,0.438,0.498,0.598s0.471,0.281,0.768,0.363
			S489.931,72.846,490.29,72.846z"/>
		<path fill="#FFFFFF" d="M499.138,56.1h4.277v2.016h-0.023v9.07h2.109l2.883-2.977h-0.727v-2.016h4.605v2.016h-1.535l-3.691,3.809
			l4.031,4.301h1.465v2.016h-2.566l-4.969-5.426h-1.605v3.41h1.008v2.016h-5.191v-2.016h1.992V58.115h-2.062V56.1z"/>
		<path fill="#FFFFFF" d="M516.364,68.545c0,0.344,0.025,0.658,0.076,0.943s0.123,0.557,0.217,0.814
			c0.289,0.781,0.752,1.369,1.389,1.764s1.357,0.592,2.162,0.592c0.633,0,1.248-0.088,1.846-0.264s1.225-0.451,1.881-0.826
			l0.879,1.488c-0.797,0.547-1.598,0.953-2.402,1.219s-1.641,0.398-2.508,0.398c-0.82,0-1.58-0.137-2.279-0.41
			s-1.301-0.68-1.805-1.219s-0.898-1.211-1.184-2.016s-0.428-1.742-0.428-2.812c0-0.867,0.121-1.686,0.363-2.455
			s0.604-1.441,1.084-2.016s1.076-1.029,1.787-1.365s1.539-0.504,2.484-0.504c0.914,0,1.678,0.139,2.291,0.416
			s1.113,0.645,1.5,1.102s0.68,0.979,0.879,1.564s0.338,1.184,0.416,1.793c0.039,0.297,0.064,0.598,0.076,0.902
			s0.018,0.602,0.018,0.891H516.364z M519.774,63.705c-0.508,0-0.951,0.072-1.33,0.217s-0.701,0.352-0.967,0.621
			s-0.479,0.6-0.639,0.99s-0.279,0.828-0.357,1.312h6.293c-0.031-0.453-0.104-0.871-0.217-1.254s-0.287-0.715-0.521-0.996
			s-0.535-0.5-0.902-0.656S520.313,63.705,519.774,63.705z"/>
		<path fill="#FFFFFF" d="M536.802,64.76h-2.227v-0.75c-0.258,0-0.521,0.049-0.791,0.146s-0.521,0.246-0.756,0.445
			s-0.439,0.453-0.615,0.762s-0.303,0.674-0.381,1.096v5.859h2.062v2.016h-6.023v-2.016h1.676l0.012-8.109h-1.688v-2.016h3.879
			v1.676c0.141-0.25,0.299-0.482,0.475-0.697s0.371-0.402,0.586-0.562s0.453-0.285,0.715-0.375s0.545-0.135,0.85-0.135
			c0.406,0,0.789,0,1.148,0s0.719,0.008,1.078,0.023V64.76z"/>
	</g>
</g>
<g>
	<g>
		<path fill="#757575" d="M618.452,8.85c-0.25-0.344-0.525-0.607-0.826-0.791s-0.631-0.324-0.99-0.422s-0.719-0.146-1.078-0.146
			c-0.594,0-1.113,0.068-1.559,0.205s-0.814,0.322-1.107,0.557s-0.514,0.508-0.662,0.82s-0.223,0.641-0.223,0.984
			c0,0.516,0.092,0.932,0.275,1.248s0.416,0.57,0.697,0.762s0.592,0.342,0.932,0.451s0.666,0.219,0.979,0.328l2.367,0.773
			c0.711,0.227,1.338,0.484,1.881,0.773s0.998,0.631,1.365,1.025s0.646,0.85,0.838,1.365s0.287,1.113,0.287,1.793
			c0,0.734-0.15,1.414-0.451,2.039s-0.721,1.168-1.26,1.629s-1.182,0.822-1.928,1.084s-1.564,0.393-2.455,0.393
			c-0.914,0-1.695-0.104-2.344-0.311s-1.193-0.484-1.635-0.832s-0.795-0.744-1.061-1.189s-0.473-0.902-0.621-1.371h-0.891v-2.016
			h2.953c0,0.867,0.092,1.48,0.275,1.84s0.439,0.658,0.768,0.896s0.719,0.418,1.172,0.539s0.953,0.182,1.5,0.182
			c0.531,0,1.01-0.062,1.436-0.188s0.789-0.307,1.09-0.545s0.531-0.527,0.691-0.867s0.24-0.725,0.24-1.154
			c0-0.477-0.1-0.881-0.299-1.213s-0.455-0.615-0.768-0.85s-0.654-0.426-1.025-0.574s-0.729-0.277-1.072-0.387l-2.566-0.727
			c-0.562-0.172-1.076-0.391-1.541-0.656s-0.863-0.59-1.195-0.973s-0.588-0.83-0.768-1.342s-0.27-1.104-0.27-1.775
			c0-0.68,0.133-1.316,0.398-1.91s0.656-1.113,1.172-1.559s1.146-0.795,1.893-1.049s1.6-0.381,2.561-0.381
			c0.633,0,1.217,0.074,1.752,0.223s1.02,0.357,1.453,0.627s0.816,0.594,1.148,0.973s0.611,0.795,0.838,1.248h0.879v2.016h-2.871
			C618.827,9.709,618.702,9.193,618.452,8.85z"/>
		<path fill="#757575" d="M622.917,11.193h3.867v1.008c0.516-0.398,1.078-0.715,1.688-0.949s1.238-0.352,1.887-0.352
			c0.797,0,1.527,0.148,2.191,0.445s1.236,0.715,1.717,1.254s0.854,1.186,1.119,1.939s0.398,1.588,0.398,2.502
			c0,0.977-0.148,1.867-0.445,2.672s-0.709,1.494-1.236,2.068s-1.154,1.021-1.881,1.342s-1.523,0.48-2.391,0.48
			c-0.617,0-1.166-0.064-1.646-0.193s-0.939-0.295-1.377-0.498v3.926h1.898v2.016h-5.766v-2.016h1.664V13.209h-1.688V11.193z
			 M629.784,12.822c-0.562,0-1.104,0.113-1.623,0.34s-0.971,0.539-1.354,0.938v6.574c0.258,0.266,0.627,0.504,1.107,0.715
			s1.08,0.316,1.799,0.316c0.5,0,0.98-0.098,1.441-0.293s0.867-0.486,1.219-0.873s0.633-0.865,0.844-1.436s0.316-1.23,0.316-1.98
			c0-0.688-0.1-1.297-0.299-1.828s-0.469-0.98-0.809-1.348s-0.736-0.646-1.189-0.838S630.299,12.822,629.784,12.822z"/>
		<path fill="#757575" d="M637.87,17.264c0.008-0.961,0.162-1.836,0.463-2.625s0.721-1.467,1.26-2.033s1.18-1.002,1.922-1.307
			s1.559-0.457,2.449-0.457c0.898,0,1.721,0.152,2.467,0.457s1.385,0.736,1.916,1.295s0.945,1.232,1.242,2.021
			s0.445,1.664,0.445,2.625c0,0.945-0.148,1.814-0.445,2.607s-0.711,1.475-1.242,2.045s-1.17,1.014-1.916,1.33
			s-1.568,0.475-2.467,0.475c-0.914,0-1.742-0.156-2.484-0.469s-1.379-0.752-1.91-1.318s-0.945-1.244-1.242-2.033
			S637.877,18.217,637.87,17.264z M640.178,17.264c0,0.695,0.1,1.324,0.299,1.887s0.473,1.041,0.82,1.436s0.75,0.699,1.207,0.914
			s0.943,0.322,1.459,0.322c0.539,0,1.041-0.105,1.506-0.316s0.869-0.514,1.213-0.908s0.613-0.873,0.809-1.436
			s0.293-1.195,0.293-1.898c0-0.734-0.098-1.387-0.293-1.957s-0.463-1.047-0.803-1.43s-0.744-0.672-1.213-0.867
			s-0.973-0.293-1.512-0.293c-0.516,0-1.002,0.098-1.459,0.293s-0.859,0.484-1.207,0.867s-0.621,0.859-0.82,1.43
			S640.178,16.529,640.178,17.264z"/>
		<path fill="#757575" d="M660.381,21.318h1.711v-5.543c0-0.93-0.236-1.635-0.709-2.115s-1.15-0.721-2.033-0.721
			c-0.508,0-1.02,0.121-1.535,0.363s-1.004,0.543-1.465,0.902v7.113h1.711v2.016h-5.672v-2.016h1.688v-8.109h-1.688v-2.016h3.867
			v1.43h0.023c0.258-0.227,0.533-0.441,0.826-0.645s0.6-0.379,0.92-0.527s0.654-0.266,1.002-0.352s0.713-0.129,1.096-0.129
			c0.648,0,1.234,0.09,1.758,0.27s0.969,0.453,1.336,0.82s0.65,0.838,0.85,1.412s0.299,1.252,0.299,2.033v5.812h1.688v2.016h-5.672
			V21.318z"/>
		<path fill="#757575" d="M675.176,13.613c-0.152-0.23-0.35-0.418-0.592-0.562s-0.512-0.25-0.809-0.316s-0.586-0.1-0.867-0.1
			c-0.312,0-0.6,0.035-0.861,0.105s-0.486,0.172-0.674,0.305s-0.334,0.295-0.439,0.486s-0.158,0.404-0.158,0.639
			c0,0.406,0.123,0.729,0.369,0.967s0.658,0.459,1.236,0.662l2.332,0.82c1,0.336,1.73,0.793,2.191,1.371s0.691,1.27,0.691,2.074
			c0,0.539-0.107,1.033-0.322,1.482s-0.52,0.832-0.914,1.148s-0.869,0.562-1.424,0.738s-1.172,0.264-1.852,0.264
			c-0.945,0-1.715-0.152-2.309-0.457s-1.051-0.707-1.371-1.207h-1.219v-2.016h2.426c0,0.336,0.072,0.623,0.217,0.861
			s0.336,0.432,0.574,0.58s0.508,0.258,0.809,0.328s0.607,0.105,0.92,0.105c0.305,0,0.598-0.037,0.879-0.111
			s0.529-0.184,0.744-0.328s0.385-0.318,0.51-0.521s0.188-0.434,0.188-0.691c0-0.391-0.127-0.723-0.381-0.996
			s-0.686-0.52-1.295-0.738l-2.32-0.867c-0.945-0.336-1.646-0.764-2.104-1.283s-0.686-1.17-0.686-1.951
			c0-0.516,0.096-0.992,0.287-1.43s0.469-0.814,0.832-1.131s0.807-0.564,1.33-0.744s1.121-0.27,1.793-0.27
			c0.867,0,1.594,0.121,2.18,0.363s1.113,0.656,1.582,1.242h1.137v2.016h-2.402C675.405,14.123,675.329,13.844,675.176,13.613z"/>
		<path fill="#757575" d="M679.87,17.264c0.008-0.961,0.162-1.836,0.463-2.625s0.721-1.467,1.26-2.033s1.18-1.002,1.922-1.307
			s1.559-0.457,2.449-0.457c0.898,0,1.721,0.152,2.467,0.457s1.385,0.736,1.916,1.295s0.945,1.232,1.242,2.021
			s0.445,1.664,0.445,2.625c0,0.945-0.148,1.814-0.445,2.607s-0.711,1.475-1.242,2.045s-1.17,1.014-1.916,1.33
			s-1.568,0.475-2.467,0.475c-0.914,0-1.742-0.156-2.484-0.469s-1.379-0.752-1.91-1.318s-0.945-1.244-1.242-2.033
			S679.877,18.217,679.87,17.264z M682.178,17.264c0,0.695,0.1,1.324,0.299,1.887s0.473,1.041,0.82,1.436s0.75,0.699,1.207,0.914
			s0.943,0.322,1.459,0.322c0.539,0,1.041-0.105,1.506-0.316s0.869-0.514,1.213-0.908s0.613-0.873,0.809-1.436
			s0.293-1.195,0.293-1.898c0-0.734-0.098-1.387-0.293-1.957s-0.463-1.047-0.803-1.43s-0.744-0.672-1.213-0.867
			s-0.973-0.293-1.512-0.293c-0.516,0-1.002,0.098-1.459,0.293s-0.859,0.484-1.207,0.867s-0.621,0.859-0.82,1.43
			S682.178,16.529,682.178,17.264z"/>
		<path fill="#757575" d="M703.12,13.76h-2.227v-0.75c-0.258,0-0.521,0.049-0.791,0.146s-0.521,0.246-0.756,0.445
			s-0.439,0.453-0.615,0.762s-0.303,0.674-0.381,1.096v5.859h2.062v2.016h-6.023v-2.016h1.676l0.012-8.109h-1.688v-2.016h3.879
			v1.676c0.141-0.25,0.299-0.482,0.475-0.697s0.371-0.402,0.586-0.562s0.453-0.285,0.715-0.375s0.545-0.135,0.85-0.135
			c0.406,0,0.789,0,1.148,0s0.719,0.008,1.078,0.023V13.76z"/>
	</g>
</g>
<g>
	<g>
		<path fill="#FFFFFF" d="M193.317,74.404v-3.562c-0.297,0.617-0.668,1.154-1.113,1.611s-0.941,0.834-1.488,1.131
			s-1.131,0.52-1.752,0.668s-1.252,0.223-1.893,0.223c-1.156,0-2.223-0.193-3.199-0.58s-1.861-1.002-2.654-1.846
			s-1.398-1.844-1.816-3s-0.627-2.363-0.627-3.621c0-1.266,0.209-2.461,0.627-3.586s1.004-2.105,1.758-2.941
			s1.652-1.492,2.695-1.969s2.174-0.715,3.393-0.715c1.125,0,2.092,0.16,2.9,0.48s1.5,0.709,2.074,1.166s1.033,0.893,1.377,1.307
			h1.137v2.086h-2.52c-0.523-0.891-1.217-1.594-2.08-2.109s-1.83-0.766-2.9-0.75c-0.898,0-1.723,0.191-2.473,0.574
			s-1.393,0.898-1.928,1.547s-0.951,1.395-1.248,2.238s-0.445,1.734-0.445,2.672c0,1.039,0.164,2.004,0.492,2.895
			s0.746,1.613,1.254,2.168s1.135,1.014,1.881,1.377s1.572,0.545,2.479,0.545c1.5,0,2.73-0.365,3.691-1.096s1.633-1.869,2.016-3.416
			h-4.969v-2.016h7.512v8.52H193.317z"/>
		<path fill="#FFFFFF" d="M200.887,68.545c0,0.344,0.025,0.658,0.076,0.943s0.123,0.557,0.217,0.814
			c0.289,0.781,0.752,1.369,1.389,1.764s1.357,0.592,2.162,0.592c0.633,0,1.248-0.088,1.846-0.264s1.225-0.451,1.881-0.826
			l0.879,1.488c-0.797,0.547-1.598,0.953-2.402,1.219s-1.641,0.398-2.508,0.398c-0.82,0-1.58-0.137-2.279-0.41
			s-1.301-0.68-1.805-1.219s-0.898-1.211-1.184-2.016s-0.428-1.742-0.428-2.812c0-0.867,0.121-1.686,0.363-2.455
			s0.604-1.441,1.084-2.016s1.076-1.029,1.787-1.365s1.539-0.504,2.484-0.504c0.914,0,1.678,0.139,2.291,0.416
			s1.113,0.645,1.5,1.102s0.68,0.979,0.879,1.564s0.338,1.184,0.416,1.793c0.039,0.297,0.064,0.598,0.076,0.902
			s0.018,0.602,0.018,0.891H200.887z M204.297,63.705c-0.508,0-0.951,0.072-1.33,0.217s-0.701,0.352-0.967,0.621
			s-0.479,0.6-0.639,0.99s-0.279,0.828-0.357,1.312h6.293c-0.031-0.453-0.104-0.871-0.217-1.254s-0.287-0.715-0.521-0.996
			s-0.535-0.5-0.902-0.656S204.836,63.705,204.297,63.705z"/>
		<path fill="#FFFFFF" d="M220.586,72.318h1.711v-5.543c0-0.93-0.236-1.635-0.709-2.115s-1.15-0.721-2.033-0.721
			c-0.508,0-1.02,0.121-1.535,0.363s-1.004,0.543-1.465,0.902v7.113h1.711v2.016h-5.672v-2.016h1.688v-8.109h-1.688v-2.016h3.867
			v1.43h0.023c0.258-0.227,0.533-0.441,0.826-0.645s0.6-0.379,0.92-0.527s0.654-0.266,1.002-0.352s0.713-0.129,1.096-0.129
			c0.648,0,1.234,0.09,1.758,0.27s0.969,0.453,1.336,0.82s0.65,0.838,0.85,1.412s0.299,1.252,0.299,2.033v5.812h1.688v2.016h-5.672
			V72.318z"/>
		<path fill="#FFFFFF" d="M230.665,68.545c0,0.344,0.025,0.658,0.076,0.943s0.123,0.557,0.217,0.814
			c0.289,0.781,0.752,1.369,1.389,1.764s1.357,0.592,2.162,0.592c0.633,0,1.248-0.088,1.846-0.264s1.225-0.451,1.881-0.826
			l0.879,1.488c-0.797,0.547-1.598,0.953-2.402,1.219s-1.641,0.398-2.508,0.398c-0.82,0-1.58-0.137-2.279-0.41
			s-1.301-0.68-1.805-1.219s-0.898-1.211-1.184-2.016s-0.428-1.742-0.428-2.812c0-0.867,0.121-1.686,0.363-2.455
			s0.604-1.441,1.084-2.016s1.076-1.029,1.787-1.365s1.539-0.504,2.484-0.504c0.914,0,1.678,0.139,2.291,0.416
			s1.113,0.645,1.5,1.102s0.68,0.979,0.879,1.564s0.338,1.184,0.416,1.793c0.039,0.297,0.064,0.598,0.076,0.902
			s0.018,0.602,0.018,0.891H230.665z M234.075,63.705c-0.508,0-0.951,0.072-1.33,0.217s-0.701,0.352-0.967,0.621
			s-0.479,0.6-0.639,0.99s-0.279,0.828-0.357,1.312h6.293c-0.031-0.453-0.104-0.871-0.217-1.254s-0.287-0.715-0.521-0.996
			s-0.535-0.5-0.902-0.656S234.614,63.705,234.075,63.705z"/>
		<path fill="#FFFFFF" d="M251.102,64.76h-2.227v-0.75c-0.258,0-0.521,0.049-0.791,0.146s-0.521,0.246-0.756,0.445
			s-0.439,0.453-0.615,0.762s-0.303,0.674-0.381,1.096v5.859h2.062v2.016h-6.023v-2.016h1.676l0.012-8.109h-1.688v-2.016h3.879
			v1.676c0.141-0.25,0.299-0.482,0.475-0.697s0.371-0.402,0.586-0.562s0.453-0.285,0.715-0.375s0.545-0.135,0.85-0.135
			c0.406,0,0.789,0,1.148,0s0.719,0.008,1.078,0.023V64.76z"/>
		<path fill="#FFFFFF" d="M260.758,73.209c-0.461,0.43-0.971,0.781-1.529,1.055s-1.193,0.41-1.904,0.41
			c-0.594,0-1.139-0.094-1.635-0.281s-0.924-0.443-1.283-0.768s-0.639-0.701-0.838-1.131s-0.299-0.887-0.299-1.371
			c0-0.516,0.076-0.973,0.229-1.371s0.355-0.744,0.609-1.037s0.551-0.539,0.891-0.738s0.695-0.359,1.066-0.48
			s0.75-0.207,1.137-0.258s0.756-0.076,1.107-0.076c0.562,0,1.035,0.018,1.418,0.053s0.73,0.084,1.043,0.146l0.012-0.996
			c0-0.43-0.062-0.803-0.188-1.119s-0.301-0.578-0.527-0.785s-0.498-0.361-0.814-0.463s-0.67-0.152-1.061-0.152
			c-0.367,0-0.719,0.025-1.055,0.076s-0.65,0.117-0.943,0.199s-0.562,0.176-0.809,0.281s-0.455,0.217-0.627,0.334l-0.715-1.512
			c0.289-0.188,0.605-0.361,0.949-0.521s0.705-0.297,1.084-0.41s0.766-0.203,1.16-0.27s0.783-0.1,1.166-0.1
			c0.703,0,1.336,0.084,1.898,0.252s1.039,0.428,1.43,0.779s0.691,0.799,0.902,1.342s0.316,1.193,0.316,1.951l-0.012,6.07h1.348
			v2.016h-3.527V73.209z M257.805,72.846c0.289,0,0.578-0.035,0.867-0.105s0.562-0.166,0.82-0.287s0.496-0.262,0.715-0.422
			s0.402-0.326,0.551-0.498l0.012-2.742h-2.531c-0.422,0-0.807,0.047-1.154,0.141s-0.648,0.23-0.902,0.41s-0.451,0.402-0.592,0.668
			s-0.211,0.57-0.211,0.914c0,0.32,0.059,0.6,0.176,0.838s0.283,0.438,0.498,0.598s0.471,0.281,0.768,0.363
			S257.446,72.846,257.805,72.846z"/>
		<path fill="#FFFFFF" d="M266.653,56.1h3.938v16.219h1.828v2.016h-5.766v-2.016h1.758V58.115h-1.758V56.1z"/>
	</g>
</g>
<path fill="#757575" d="M331.396,440.084h1.723v-12.996l-3.598,1.957v-2.449l4.945-2.766h0.938v16.254h1.746v2.016h-5.754V440.084z"
	/>
<path fill="#757575" d="M346.29,442.311c-1.266,0-2.324-0.234-3.176-0.703s-1.533-1.113-2.045-1.934s-0.877-1.781-1.096-2.883
	s-0.328-2.285-0.328-3.551c0-1.352,0.148-2.615,0.445-3.791s0.695-2.119,1.195-2.83s1.131-1.316,1.893-1.816s1.807-0.75,3.135-0.75
	c1.258,0,2.305,0.199,3.141,0.598s1.525,1.01,2.068,1.834s0.924,1.818,1.143,2.982s0.328,2.398,0.328,3.703
	c0,1.273-0.109,2.465-0.328,3.574s-0.588,2.076-1.107,2.9s-1.209,1.475-2.068,1.951S347.563,442.311,346.29,442.311z
	 M346.29,440.225c0.914,0,1.65-0.186,2.209-0.557s0.98-0.877,1.266-1.518s0.498-1.389,0.639-2.244s0.211-1.768,0.211-2.736
	c0-0.93-0.055-1.822-0.164-2.678s-0.32-1.611-0.633-2.268s-0.75-1.18-1.312-1.57s-1.293-0.586-2.191-0.586
	c-0.93,0-1.664,0.195-2.203,0.586s-0.941,0.861-1.207,1.412s-0.475,1.307-0.627,2.268s-0.229,1.906-0.229,2.836
	c0,0.969,0.049,1.881,0.146,2.736s0.297,1.604,0.598,2.244s0.73,1.146,1.289,1.518S345.376,440.225,346.29,440.225z"/>
<path fill="#757575" d="M538.432,440.377l6.246-7.547c0.211-0.25,0.432-0.52,0.662-0.809s0.445-0.594,0.645-0.914
	s0.363-0.654,0.492-1.002s0.193-0.709,0.193-1.084c0-0.391-0.078-0.758-0.234-1.102s-0.371-0.645-0.645-0.902
	s-0.6-0.461-0.979-0.609s-0.795-0.223-1.248-0.223c-0.406,0-0.791,0.064-1.154,0.193s-0.682,0.318-0.955,0.568
	s-0.494,0.561-0.662,0.932s-0.26,0.799-0.275,1.283h-2.109c0.008-0.742,0.152-1.428,0.434-2.057s0.658-1.172,1.131-1.629
	s1.021-0.812,1.646-1.066s1.281-0.381,1.969-0.381c0.797,0,1.52,0.127,2.168,0.381s1.203,0.604,1.664,1.049s0.818,0.973,1.072,1.582
	s0.381,1.27,0.381,1.98c0,0.281-0.033,0.58-0.1,0.896s-0.18,0.656-0.34,1.02s-0.371,0.752-0.633,1.166s-0.592,0.859-0.99,1.336
	l-5.543,6.598h7.582v2.062h-10.418V440.377z"/>
<path fill="#757575" d="M557.967,442.311c-1.266,0-2.324-0.234-3.176-0.703s-1.533-1.113-2.045-1.934s-0.877-1.781-1.096-2.883
	s-0.328-2.285-0.328-3.551c0-1.352,0.148-2.615,0.445-3.791s0.695-2.119,1.195-2.83s1.131-1.316,1.893-1.816s1.807-0.75,3.135-0.75
	c1.258,0,2.305,0.199,3.141,0.598s1.525,1.01,2.068,1.834s0.924,1.818,1.143,2.982s0.328,2.398,0.328,3.703
	c0,1.273-0.109,2.465-0.328,3.574s-0.588,2.076-1.107,2.9s-1.209,1.475-2.068,1.951S559.24,442.311,557.967,442.311z
	 M557.967,440.225c0.914,0,1.65-0.186,2.209-0.557s0.98-0.877,1.266-1.518s0.498-1.389,0.639-2.244s0.211-1.768,0.211-2.736
	c0-0.93-0.055-1.822-0.164-2.678s-0.32-1.611-0.633-2.268s-0.75-1.18-1.312-1.57s-1.293-0.586-2.191-0.586
	c-0.93,0-1.664,0.195-2.203,0.586s-0.941,0.861-1.207,1.412s-0.475,1.307-0.627,2.268s-0.229,1.906-0.229,2.836
	c0,0.969,0.049,1.881,0.146,2.736s0.297,1.604,0.598,2.244s0.73,1.146,1.289,1.518S557.053,440.225,557.967,440.225z"/>
<path fill="#757575" d="M756.741,428.975c0-0.305-0.064-0.631-0.193-0.979s-0.328-0.668-0.598-0.961s-0.609-0.535-1.02-0.727
	s-0.893-0.287-1.447-0.287c-0.461,0-0.881,0.08-1.26,0.24s-0.756,0.459-1.131,0.896s-0.578,0.922-0.609,1.453h-2.227
	c0.039-0.68,0.209-1.293,0.51-1.84s0.682-1.027,1.143-1.441s1-0.742,1.617-0.984s1.262-0.363,1.934-0.363
	c0.836,0,1.594,0.139,2.273,0.416s1.26,0.645,1.74,1.102s0.852,0.979,1.113,1.564s0.393,1.184,0.393,1.793
	c0,0.375-0.047,0.75-0.141,1.125s-0.24,0.732-0.439,1.072s-0.455,0.654-0.768,0.943s-0.691,0.543-1.137,0.762
	c0.367,0.141,0.713,0.338,1.037,0.592s0.607,0.557,0.85,0.908s0.434,0.75,0.574,1.195s0.211,0.934,0.211,1.465
	c0,0.766-0.148,1.475-0.445,2.127s-0.699,1.217-1.207,1.693s-1.104,0.85-1.787,1.119s-1.416,0.404-2.197,0.404
	c-0.719,0-1.432-0.127-2.139-0.381s-1.307-0.615-1.799-1.084s-0.855-0.957-1.09-1.465s-0.375-1.012-0.422-1.512h2.25
	c0.227,0.727,0.631,1.297,1.213,1.711s1.322,0.621,2.221,0.621c0.406,0,0.803-0.082,1.189-0.246s0.729-0.393,1.025-0.686
	s0.535-0.637,0.715-1.031s0.27-0.826,0.27-1.295c0-0.492-0.09-0.938-0.27-1.336s-0.422-0.736-0.727-1.014s-0.658-0.492-1.061-0.645
	s-0.83-0.229-1.283-0.229h-1.008v-1.77h0.82c0.516,0,0.979-0.076,1.389-0.229s0.756-0.361,1.037-0.627s0.498-0.576,0.65-0.932
	S756.741,429.381,756.741,428.975z"/>
<path fill="#757575" d="M768.284,442.311c-1.266,0-2.324-0.234-3.176-0.703s-1.533-1.113-2.045-1.934s-0.877-1.781-1.096-2.883
	s-0.328-2.285-0.328-3.551c0-1.352,0.148-2.615,0.445-3.791s0.695-2.119,1.195-2.83s1.131-1.316,1.893-1.816s1.807-0.75,3.135-0.75
	c1.258,0,2.305,0.199,3.141,0.598s1.525,1.01,2.068,1.834s0.924,1.818,1.143,2.982s0.328,2.398,0.328,3.703
	c0,1.273-0.109,2.465-0.328,3.574s-0.588,2.076-1.107,2.9s-1.209,1.475-2.068,1.951S769.557,442.311,768.284,442.311z
	 M768.284,440.225c0.914,0,1.65-0.186,2.209-0.557s0.98-0.877,1.266-1.518s0.498-1.389,0.639-2.244s0.211-1.768,0.211-2.736
	c0-0.93-0.055-1.822-0.164-2.678s-0.32-1.611-0.633-2.268s-0.75-1.18-1.312-1.57s-1.293-0.586-2.191-0.586
	c-0.93,0-1.664,0.195-2.203,0.586s-0.941,0.861-1.207,1.412s-0.475,1.307-0.627,2.268s-0.229,1.906-0.229,2.836
	c0,0.969,0.049,1.881,0.146,2.736s0.297,1.604,0.598,2.244s0.73,1.146,1.289,1.518S767.37,440.225,768.284,440.225z"/>
<path fill="#757575" d="M958.111,435.115l6.316-10.781h2.496l-6.012,10.617h4.547v-2.93l2.297-0.164v3.094h2.648v2.016h-2.648v3.117
	h1.758v2.016h-5.766v-2.016h1.711v-3.117h-7.371L958.111,435.115z"/>
<path fill="#757575" d="M979.369,442.311c-1.266,0-2.324-0.234-3.176-0.703s-1.533-1.113-2.045-1.934s-0.877-1.781-1.096-2.883
	s-0.328-2.285-0.328-3.551c0-1.352,0.148-2.615,0.445-3.791s0.695-2.119,1.195-2.83s1.131-1.316,1.893-1.816s1.807-0.75,3.135-0.75
	c1.258,0,2.305,0.199,3.141,0.598s1.525,1.01,2.068,1.834s0.924,1.818,1.143,2.982s0.328,2.398,0.328,3.703
	c0,1.273-0.109,2.465-0.328,3.574s-0.588,2.076-1.107,2.9s-1.209,1.475-2.068,1.951S980.642,442.311,979.369,442.311z
	 M979.369,440.225c0.914,0,1.65-0.186,2.209-0.557s0.98-0.877,1.266-1.518s0.498-1.389,0.639-2.244s0.211-1.768,0.211-2.736
	c0-0.93-0.055-1.822-0.164-2.678s-0.32-1.611-0.633-2.268s-0.75-1.18-1.312-1.57s-1.293-0.586-2.191-0.586
	c-0.93,0-1.664,0.195-2.203,0.586s-0.941,0.861-1.207,1.412s-0.475,1.307-0.627,2.268s-0.229,1.906-0.229,2.836
	c0,0.969,0.049,1.881,0.146,2.736s0.297,1.604,0.598,2.244s0.73,1.146,1.289,1.518S978.455,440.225,979.369,440.225z"/>
<path fill="#757575" d="M1171.663,431.623c0.438-0.297,0.887-0.521,1.348-0.674s0.988-0.229,1.582-0.229
	c0.875,0,1.68,0.156,2.414,0.469s1.365,0.734,1.893,1.266s0.938,1.15,1.23,1.857s0.439,1.455,0.439,2.244
	c0,0.797-0.145,1.553-0.434,2.268s-0.699,1.342-1.23,1.881s-1.17,0.967-1.916,1.283s-1.576,0.475-2.49,0.475
	c-0.695,0-1.344-0.092-1.945-0.275s-1.145-0.441-1.629-0.773s-0.904-0.729-1.26-1.189s-0.639-0.965-0.85-1.512l1.922-0.961
	c0.125,0.398,0.309,0.768,0.551,1.107s0.527,0.633,0.855,0.879s0.691,0.438,1.09,0.574s0.82,0.205,1.266,0.205
	c0.562,0,1.084-0.104,1.564-0.311s0.898-0.49,1.254-0.85s0.635-0.779,0.838-1.26s0.305-0.994,0.305-1.541
	c0-0.555-0.102-1.068-0.305-1.541s-0.484-0.883-0.844-1.23s-0.779-0.621-1.26-0.82s-0.998-0.299-1.553-0.299
	c-0.625,0-1.201,0.111-1.729,0.334s-0.967,0.521-1.318,0.896l-1.723-0.27v-9.293h10.008v1.945h-8.074V431.623z"/>
<path fill="#757575" d="M1188.971,442.311c-1.266,0-2.324-0.234-3.176-0.703s-1.533-1.113-2.045-1.934s-0.877-1.781-1.096-2.883
	s-0.328-2.285-0.328-3.551c0-1.352,0.148-2.615,0.445-3.791s0.695-2.119,1.195-2.83s1.131-1.316,1.893-1.816s1.807-0.75,3.135-0.75
	c1.258,0,2.305,0.199,3.141,0.598s1.525,1.01,2.068,1.834s0.924,1.818,1.143,2.982s0.328,2.398,0.328,3.703
	c0,1.273-0.109,2.465-0.328,3.574s-0.588,2.076-1.107,2.9s-1.209,1.475-2.068,1.951S1190.245,442.311,1188.971,442.311z
	 M1188.971,440.225c0.914,0,1.65-0.186,2.209-0.557s0.98-0.877,1.266-1.518s0.498-1.389,0.639-2.244s0.211-1.768,0.211-2.736
	c0-0.93-0.055-1.822-0.164-2.678s-0.32-1.611-0.633-2.268s-0.75-1.18-1.312-1.57s-1.293-0.586-2.191-0.586
	c-0.93,0-1.664,0.195-2.203,0.586s-0.941,0.861-1.207,1.412s-0.475,1.307-0.627,2.268s-0.229,1.906-0.229,2.836
	c0,0.969,0.049,1.881,0.146,2.736s0.297,1.604,0.598,2.244s0.73,1.146,1.289,1.518S1188.057,440.225,1188.971,440.225z"/>
<path fill="#757575" d="M131.004,442.311c-1.266,0-2.324-0.234-3.176-0.703s-1.533-1.113-2.045-1.934s-0.877-1.781-1.096-2.883
	s-0.328-2.285-0.328-3.551c0-1.352,0.148-2.615,0.445-3.791s0.695-2.119,1.195-2.83s1.131-1.316,1.893-1.816s1.807-0.75,3.135-0.75
	c1.258,0,2.305,0.199,3.141,0.598s1.525,1.01,2.068,1.834s0.924,1.818,1.143,2.982s0.328,2.398,0.328,3.703
	c0,1.273-0.109,2.465-0.328,3.574s-0.588,2.076-1.107,2.9s-1.209,1.475-2.068,1.951S132.277,442.311,131.004,442.311z
	 M131.004,440.225c0.914,0,1.65-0.186,2.209-0.557s0.98-0.877,1.266-1.518s0.498-1.389,0.639-2.244s0.211-1.768,0.211-2.736
	c0-0.93-0.055-1.822-0.164-2.678s-0.32-1.611-0.633-2.268s-0.75-1.18-1.312-1.57s-1.293-0.586-2.191-0.586
	c-0.93,0-1.664,0.195-2.203,0.586s-0.941,0.861-1.207,1.412s-0.475,1.307-0.627,2.268s-0.229,1.906-0.229,2.836
	c0,0.969,0.049,1.881,0.146,2.736s0.297,1.604,0.598,2.244s0.73,1.146,1.289,1.518S130.09,440.225,131.004,440.225z"/>
<path fill="none" stroke="#333333" stroke-miterlimit="10" d="M130.88,0v415"/>
</svg>
