<?xml version="1.0" encoding="utf-8"?>
<!-- Generator: Adobe Illustrator 15.0.0, SVG Export Plug-In  -->
<!DOCTYPE svg PUBLIC "-//W3C//DTD SVG 1.1//EN" "http://www.w3.org/Graphics/SVG/1.1/DTD/svg11.dtd" [
	<!ENTITY ns_flows "http://ns.adobe.com/Flows/1.0/">
]>
<svg version="1.1"
	 xmlns="http://www.w3.org/2000/svg" xmlns:xlink="http://www.w3.org/1999/xlink" xmlns:a="http://ns.adobe.com/AdobeSVGViewerExtensions/3.0/"
	 x="0px" y="0px" width="600px" height="371px" viewBox="-18.55 -45.1 600 371"
	 overflow="visible" enable-background="new -18.55 -45.1 600 371" xml:space="preserve">
<defs>
</defs>
<path d="M281.45,9.816c11.697,0,23.354,1.38,34.729,4.111L281.45,158.583V9.816z"/>
<path fill="#CE3262" d="M316.179,13.927c75.489,18.123,124.351,91.249,112.206,167.928L281.45,158.583L316.179,13.927z"/>
<path fill="#B8B7B5" d="M428.385,181.855c-3.056,19.297-9.883,37.801-20.091,54.459l-126.844-77.73L428.385,181.855z"/>
<path fill="#00ADD8" d="M408.294,236.314c-37.466,61.139-113.214,86.852-180.157,61.154
	c-66.943-25.696-106.029-95.49-92.962-165.996S209.744,9.816,281.45,9.816v148.767L408.294,236.314z"/>
<path fill="none" stroke="#757575" stroke-miterlimit="10" d="M0,227.639h126.684h31.458"/>
<path fill="#9E9E9E" d="M160.142,227.639c0-1.104-0.896-2-2-2s-2,0.896-2,2s0.896,2,2,2S160.142,228.744,160.142,227.639"/>
<path fill="none" stroke="#757575" stroke-miterlimit="10" d="M562.899,26.316H436.217l-138.155-8.082"/>
<path fill="#9E9E9E" d="M300.062,18.234c0-1.104-0.896-2-2-2c-1.105,0-2,0.896-2,2c0,1.105,0.895,2,2,2
	C299.166,20.234,300.062,19.339,300.062,18.234"/>
<path fill="none" stroke="#757575" stroke-miterlimit="10" d="M562.899,80.065H436.217H398.96"/>
<path fill="#9E9E9E" d="M400.96,80.065c0-1.104-0.896-2-2-2s-2,0.896-2,2s0.896,2,2,2S400.96,81.17,400.96,80.065"/>
<path fill="none" stroke="#757575" stroke-miterlimit="10" d="M562.899,207.5H436.217h-22.174"/>
<path fill="#9E9E9E" d="M416.043,207.5c0-1.104-0.896-2-2-2s-2,0.896-2,2s0.896,2,2,2S416.043,208.604,416.043,207.5"/>
<path fill="#757575" d="M520.803,3.75c-0.25-0.344-0.525-0.607-0.826-0.791s-0.631-0.324-0.99-0.422s-0.719-0.146-1.078-0.146
	c-0.594,0-1.113,0.068-1.559,0.205s-0.814,0.322-1.107,0.557s-0.514,0.508-0.662,0.82s-0.223,0.641-0.223,0.984
	c0,0.516,0.092,0.932,0.275,1.248s0.416,0.57,0.697,0.762s0.592,0.342,0.932,0.451s0.666,0.219,0.979,0.328l2.367,0.773
	c0.711,0.227,1.338,0.484,1.881,0.773s0.998,0.631,1.365,1.025s0.646,0.85,0.838,1.365s0.287,1.113,0.287,1.793
	c0,0.734-0.15,1.414-0.451,2.039s-0.721,1.168-1.26,1.629s-1.182,0.822-1.928,1.084s-1.564,0.393-2.455,0.393
	c-0.914,0-1.695-0.104-2.344-0.311s-1.193-0.484-1.635-0.832s-0.795-0.744-1.061-1.189s-0.473-0.902-0.621-1.371h-0.891v-2.016
	h2.953c0,0.867,0.092,1.48,0.275,1.84s0.439,0.658,0.768,0.896s0.719,0.418,1.172,0.539s0.953,0.182,1.5,0.182
	c0.531,0,1.01-0.062,1.436-0.188s0.789-0.307,1.09-0.545s0.531-0.527,0.691-0.867s0.24-0.725,0.24-1.154
	c0-0.477-0.1-0.881-0.299-1.213s-0.455-0.615-0.768-0.85s-0.654-0.426-1.025-0.574s-0.729-0.277-1.072-0.387l-2.566-0.727
	c-0.562-0.172-1.076-0.391-1.541-0.656s-0.863-0.59-1.195-0.973s-0.588-0.83-0.768-1.342s-0.27-1.104-0.27-1.775
	c0-0.68,0.133-1.316,0.398-1.91s0.656-1.113,1.172-1.559s1.146-0.795,1.893-1.049s1.6-0.381,2.561-0.381
	c0.633,0,1.217,0.074,1.752,0.223s1.02,0.357,1.453,0.627s0.816,0.594,1.148,0.973s0.611,0.795,0.838,1.248h0.879v2.016h-2.871
	C521.178,4.609,521.053,4.094,520.803,3.75z"/>
<path fill="#757575" d="M529.264,6.094h2.848v1.77h-2.871l-0.035,7.008c0,0.477,0.055,0.863,0.164,1.16s0.285,0.502,0.527,0.615
	s0.516,0.17,0.82,0.17c0.328,0,0.617-0.029,0.867-0.088s0.523-0.158,0.82-0.299l0.504,1.465c-0.375,0.195-0.77,0.35-1.184,0.463
	s-0.902,0.17-1.465,0.17c-0.531,0-0.994-0.064-1.389-0.193s-0.727-0.346-0.996-0.65s-0.471-0.713-0.604-1.225
	s-0.199-1.15-0.199-1.916l0.035-6.68h-1.934v-1.77h1.957V3.188l2.133-1.008V6.094z"/>
<path fill="#757575" d="M541.814,17.109c-0.461,0.43-0.971,0.781-1.529,1.055s-1.193,0.41-1.904,0.41
	c-0.594,0-1.139-0.094-1.635-0.281s-0.924-0.443-1.283-0.768s-0.639-0.701-0.838-1.131s-0.299-0.887-0.299-1.371
	c0-0.516,0.076-0.973,0.229-1.371s0.355-0.744,0.609-1.037s0.551-0.539,0.891-0.738s0.695-0.359,1.066-0.48s0.75-0.207,1.137-0.258
	s0.756-0.076,1.107-0.076c0.562,0,1.035,0.018,1.418,0.053s0.73,0.084,1.043,0.146l0.012-0.996c0-0.43-0.062-0.803-0.188-1.119
	s-0.301-0.578-0.527-0.785S540.625,8,540.309,7.898s-0.67-0.152-1.061-0.152c-0.367,0-0.719,0.025-1.055,0.076
	s-0.65,0.117-0.943,0.199s-0.562,0.176-0.809,0.281s-0.455,0.217-0.627,0.334L535.1,7.125c0.289-0.188,0.605-0.361,0.949-0.521
	s0.705-0.297,1.084-0.41s0.766-0.203,1.16-0.27s0.783-0.1,1.166-0.1c0.703,0,1.336,0.084,1.898,0.252s1.039,0.428,1.43,0.779
	s0.691,0.799,0.902,1.342s0.316,1.193,0.316,1.951l-0.012,6.07h1.348v2.016h-3.527V17.109z M538.861,16.746
	c0.289,0,0.578-0.035,0.867-0.105s0.562-0.166,0.82-0.287s0.496-0.262,0.715-0.422s0.402-0.326,0.551-0.498l0.012-2.742h-2.531
	c-0.422,0-0.807,0.047-1.154,0.141s-0.648,0.23-0.902,0.41s-0.451,0.402-0.592,0.668s-0.211,0.57-0.211,0.914
	c0,0.32,0.059,0.6,0.176,0.838s0.283,0.438,0.498,0.598s0.471,0.281,0.768,0.363S538.502,16.746,538.861,16.746z"/>
<path fill="#757575" d="M551.811,6.094h2.812v1.77h-2.812v8.355h1.898v2.016h-5.906v-2.016h1.828V7.863h-2.004v-1.77h2.004V4.195
	c0.016-0.703,0.117-1.316,0.305-1.84s0.453-0.961,0.797-1.312s0.758-0.613,1.242-0.785S552.998,0,553.592,0
	c0.414,0,0.785,0.02,1.113,0.059s0.621,0.092,0.879,0.158s0.486,0.139,0.686,0.217s0.377,0.156,0.533,0.234l-0.668,1.559
	c-0.25-0.133-0.576-0.246-0.979-0.34s-0.822-0.141-1.26-0.141c-0.648,0-1.158,0.201-1.529,0.604s-0.557,0.994-0.557,1.775V6.094z"/>
<path fill="#757575" d="M560.541,6.094h2.812v1.77h-2.812v8.355h1.898v2.016h-5.906v-2.016h1.828V7.863h-2.004v-1.77h2.004V4.195
	c0.016-0.703,0.117-1.316,0.305-1.84s0.453-0.961,0.797-1.312s0.758-0.613,1.242-0.785S561.729,0,562.322,0
	c0.414,0,0.785,0.02,1.113,0.059s0.621,0.092,0.879,0.158s0.486,0.139,0.686,0.217s0.377,0.156,0.533,0.234l-0.668,1.559
	c-0.25-0.133-0.576-0.246-0.979-0.34s-0.822-0.141-1.26-0.141c-0.648,0-1.158,0.201-1.529,0.604s-0.557,0.994-0.557,1.775V6.094z"/>
<path fill="#FFFFFF" d="M300.091,45.775c0-0.305-0.064-0.631-0.193-0.979s-0.328-0.668-0.598-0.961s-0.609-0.535-1.02-0.727
	s-0.893-0.287-1.447-0.287c-0.461,0-0.881,0.08-1.26,0.24s-0.756,0.459-1.131,0.896s-0.578,0.922-0.609,1.453h-2.227
	c0.039-0.68,0.209-1.293,0.51-1.84s0.682-1.027,1.143-1.441s1-0.742,1.617-0.984s1.262-0.363,1.934-0.363
	c0.836,0,1.594,0.139,2.273,0.416s1.26,0.645,1.74,1.102s0.852,0.979,1.113,1.564s0.393,1.184,0.393,1.793
	c0,0.375-0.047,0.75-0.141,1.125s-0.24,0.732-0.439,1.072s-0.455,0.654-0.768,0.943s-0.691,0.543-1.137,0.762
	c0.367,0.141,0.713,0.338,1.037,0.592s0.607,0.557,0.85,0.908s0.434,0.75,0.574,1.195s0.211,0.934,0.211,1.465
	c0,0.766-0.148,1.475-0.445,2.127s-0.699,1.217-1.207,1.693s-1.104,0.85-1.787,1.119s-1.416,0.404-2.197,0.404
	c-0.719,0-1.432-0.127-2.139-0.381s-1.307-0.615-1.799-1.084s-0.855-0.957-1.09-1.465s-0.375-1.012-0.422-1.512h2.25
	c0.227,0.727,0.631,1.297,1.213,1.711s1.322,0.621,2.221,0.621c0.406,0,0.803-0.082,1.189-0.246s0.729-0.393,1.025-0.686
	s0.535-0.637,0.715-1.031s0.27-0.826,0.27-1.295c0-0.492-0.09-0.938-0.27-1.336s-0.422-0.736-0.727-1.014s-0.658-0.492-1.061-0.645
	s-0.83-0.229-1.283-0.229h-1.008v-1.77h0.82c0.516,0,0.979-0.076,1.389-0.229s0.756-0.361,1.037-0.627s0.498-0.576,0.65-0.932
	S300.091,46.181,300.091,45.775z"/>
<path fill="#FFFFFF" d="M305.083,57.482c0-0.203,0.041-0.396,0.123-0.58s0.193-0.344,0.334-0.48s0.303-0.246,0.486-0.328
	s0.381-0.123,0.592-0.123c0.203,0,0.396,0.041,0.58,0.123s0.344,0.191,0.48,0.328s0.246,0.297,0.328,0.48s0.123,0.377,0.123,0.58
	c0,0.211-0.041,0.41-0.123,0.598s-0.191,0.354-0.328,0.498s-0.297,0.258-0.48,0.34s-0.377,0.123-0.58,0.123
	c-0.211,0-0.408-0.041-0.592-0.123s-0.346-0.195-0.486-0.34s-0.252-0.311-0.334-0.498S305.083,57.693,305.083,57.482z"/>
<path fill="#FFFFFF" d="M316.696,40.806c0.672,0,1.307,0.121,1.904,0.363s1.123,0.574,1.576,0.996s0.811,0.916,1.072,1.482
	s0.393,1.17,0.393,1.811c0,0.766-0.18,1.473-0.539,2.121s-0.84,1.184-1.441,1.605c0.398,0.234,0.762,0.514,1.09,0.838
	s0.609,0.68,0.844,1.066s0.416,0.803,0.545,1.248s0.193,0.906,0.193,1.383c0,0.742-0.15,1.438-0.451,2.086s-0.709,1.217-1.225,1.705
	s-1.117,0.873-1.805,1.154s-1.422,0.422-2.203,0.422c-0.789,0-1.531-0.141-2.227-0.422s-1.301-0.666-1.816-1.154
	s-0.924-1.057-1.225-1.705s-0.451-1.344-0.451-2.086c0-0.477,0.064-0.939,0.193-1.389s0.312-0.867,0.551-1.254
	s0.523-0.742,0.855-1.066s0.701-0.604,1.107-0.838c-0.594-0.43-1.064-0.967-1.412-1.611s-0.521-1.346-0.521-2.104
	c0-0.641,0.129-1.244,0.387-1.811s0.611-1.061,1.061-1.482s0.979-0.754,1.588-0.996S316.001,40.806,316.696,40.806z M313.075,53.673
	c0,0.461,0.094,0.896,0.281,1.307s0.443,0.768,0.768,1.072s0.703,0.547,1.137,0.727s0.896,0.27,1.389,0.27
	c0.484,0,0.941-0.09,1.371-0.27s0.807-0.422,1.131-0.727s0.58-0.662,0.768-1.072s0.281-0.846,0.281-1.307
	c0-0.453-0.094-0.883-0.281-1.289s-0.443-0.762-0.768-1.066s-0.701-0.545-1.131-0.721s-0.887-0.264-1.371-0.264
	c-0.492,0-0.955,0.088-1.389,0.264s-0.812,0.416-1.137,0.721s-0.58,0.66-0.768,1.066S313.075,53.22,313.075,53.673z M313.72,45.505
	c0,0.391,0.074,0.756,0.223,1.096s0.355,0.637,0.621,0.891s0.58,0.455,0.943,0.604s0.76,0.223,1.189,0.223
	c0.398,0,0.773-0.074,1.125-0.223s0.662-0.35,0.932-0.604s0.482-0.551,0.639-0.891s0.234-0.705,0.234-1.096
	c0-0.383-0.078-0.744-0.234-1.084s-0.369-0.637-0.639-0.891s-0.58-0.455-0.932-0.604s-0.727-0.223-1.125-0.223
	c-0.43,0-0.826,0.074-1.189,0.223s-0.678,0.35-0.943,0.604s-0.473,0.551-0.621,0.891S313.72,45.123,313.72,45.505z"/>
<path fill="#FFFFFF" d="M324.768,50.922c0-0.305,0.058-0.596,0.171-0.872s0.274-0.517,0.482-0.725
	c0.207-0.208,0.454-0.372,0.741-0.492s0.602-0.181,0.943-0.181s0.656,0.061,0.943,0.181s0.533,0.285,0.738,0.492
	s0.366,0.449,0.481,0.725c0.117,0.276,0.175,0.566,0.175,0.872c0,0.31-0.056,0.602-0.167,0.875
	c-0.112,0.273-0.271,0.515-0.476,0.725s-0.451,0.375-0.738,0.496s-0.606,0.181-0.957,0.181c-0.355,0-0.677-0.061-0.964-0.181
	s-0.532-0.286-0.734-0.496c-0.203-0.209-0.36-0.451-0.473-0.725C324.823,51.524,324.768,51.232,324.768,50.922z M332.813,48.373
	h1.333l-7.116,10.637h-1.326L332.813,48.373z M327.105,49.774c-0.164,0-0.317,0.028-0.462,0.085
	c-0.143,0.057-0.269,0.137-0.375,0.239c-0.107,0.103-0.191,0.225-0.254,0.366c-0.061,0.141-0.092,0.294-0.092,0.458
	c0,0.16,0.031,0.311,0.092,0.455c0.062,0.144,0.146,0.269,0.254,0.376c0.106,0.107,0.232,0.191,0.375,0.253
	c0.145,0.062,0.298,0.092,0.462,0.092c0.159,0,0.31-0.031,0.451-0.092s0.265-0.145,0.369-0.25s0.188-0.229,0.249-0.373
	c0.062-0.144,0.093-0.297,0.093-0.461s-0.03-0.317-0.093-0.458c-0.061-0.141-0.145-0.263-0.249-0.366s-0.228-0.182-0.369-0.239
	S327.265,49.774,327.105,49.774z M330.688,56.692c0-0.305,0.058-0.595,0.171-0.868s0.274-0.514,0.482-0.721
	c0.207-0.208,0.454-0.373,0.741-0.496s0.602-0.185,0.943-0.185s0.656,0.062,0.943,0.185s0.534,0.288,0.741,0.496
	c0.208,0.208,0.369,0.448,0.482,0.721s0.171,0.563,0.171,0.868c0,0.31-0.056,0.603-0.167,0.878c-0.112,0.276-0.27,0.517-0.473,0.725
	c-0.202,0.208-0.447,0.373-0.734,0.496s-0.608,0.185-0.964,0.185s-0.677-0.062-0.964-0.185s-0.532-0.288-0.734-0.496
	c-0.203-0.208-0.36-0.449-0.473-0.725C330.743,57.294,330.688,57.002,330.688,56.692z M333.025,55.543
	c-0.159,0-0.312,0.03-0.454,0.089c-0.145,0.059-0.27,0.14-0.377,0.243c-0.106,0.103-0.191,0.223-0.252,0.362
	c-0.062,0.139-0.093,0.291-0.093,0.455c0,0.16,0.03,0.311,0.093,0.455c0.061,0.144,0.146,0.269,0.252,0.376
	c0.107,0.107,0.232,0.191,0.377,0.253c0.143,0.062,0.295,0.092,0.454,0.092s0.31-0.031,0.451-0.092s0.265-0.145,0.369-0.25
	s0.188-0.229,0.249-0.373c0.062-0.144,0.093-0.297,0.093-0.461s-0.03-0.315-0.093-0.455c-0.061-0.139-0.145-0.26-0.249-0.362
	s-0.228-0.184-0.369-0.243S333.185,55.543,333.025,55.543z"/>
<path fill="#FFFFFF" d="M338.981,112.177l6.246-7.547c0.211-0.25,0.432-0.52,0.662-0.809s0.445-0.594,0.645-0.914
	s0.363-0.654,0.492-1.002s0.193-0.709,0.193-1.084c0-0.391-0.078-0.758-0.234-1.102s-0.371-0.645-0.645-0.902
	s-0.6-0.461-0.979-0.609s-0.795-0.223-1.248-0.223c-0.406,0-0.791,0.064-1.154,0.193s-0.682,0.318-0.955,0.568
	s-0.494,0.561-0.662,0.932s-0.26,0.799-0.275,1.283h-2.109c0.008-0.742,0.152-1.428,0.434-2.057s0.658-1.172,1.131-1.629
	s1.021-0.812,1.646-1.066s1.281-0.381,1.969-0.381c0.797,0,1.52,0.127,2.168,0.381s1.203,0.604,1.664,1.049s0.818,0.973,1.072,1.582
	s0.381,1.27,0.381,1.98c0,0.281-0.033,0.58-0.1,0.896s-0.18,0.656-0.34,1.02s-0.371,0.752-0.633,1.166s-0.592,0.859-0.99,1.336
	l-5.543,6.598h7.582v2.062h-10.418V112.177z"/>
<path fill="#FFFFFF" d="M359.981,100.775c0-0.305-0.064-0.631-0.193-0.979s-0.328-0.668-0.598-0.961s-0.609-0.535-1.02-0.727
	s-0.893-0.287-1.447-0.287c-0.461,0-0.881,0.08-1.26,0.24s-0.756,0.459-1.131,0.896s-0.578,0.922-0.609,1.453h-2.227
	c0.039-0.68,0.209-1.293,0.51-1.84s0.682-1.027,1.143-1.441s1-0.742,1.617-0.984s1.262-0.363,1.934-0.363
	c0.836,0,1.594,0.139,2.273,0.416s1.26,0.645,1.74,1.102s0.852,0.979,1.113,1.564s0.393,1.184,0.393,1.793
	c0,0.375-0.047,0.75-0.141,1.125s-0.24,0.732-0.439,1.072s-0.455,0.654-0.768,0.943s-0.691,0.543-1.137,0.762
	c0.367,0.141,0.713,0.338,1.037,0.592s0.607,0.557,0.85,0.908s0.434,0.75,0.574,1.195s0.211,0.934,0.211,1.465
	c0,0.766-0.148,1.475-0.445,2.127s-0.699,1.217-1.207,1.693s-1.104,0.85-1.787,1.119s-1.416,0.404-2.197,0.404
	c-0.719,0-1.432-0.127-2.139-0.381s-1.307-0.615-1.799-1.084s-0.855-0.957-1.09-1.465s-0.375-1.012-0.422-1.512h2.25
	c0.227,0.727,0.631,1.297,1.213,1.711s1.322,0.621,2.221,0.621c0.406,0,0.803-0.082,1.189-0.246s0.729-0.393,1.025-0.686
	s0.535-0.637,0.715-1.031s0.27-0.826,0.27-1.295c0-0.492-0.09-0.938-0.27-1.336s-0.422-0.736-0.727-1.014s-0.658-0.492-1.061-0.645
	s-0.83-0.229-1.283-0.229h-1.008v-1.77h0.82c0.516,0,0.979-0.076,1.389-0.229s0.756-0.361,1.037-0.627s0.498-0.576,0.65-0.932
	S359.981,101.181,359.981,100.775z"/>
<path fill="#FFFFFF" d="M364.974,112.482c0-0.203,0.041-0.396,0.123-0.58s0.193-0.344,0.334-0.48s0.303-0.246,0.486-0.328
	s0.381-0.123,0.592-0.123c0.203,0,0.396,0.041,0.58,0.123s0.344,0.191,0.48,0.328s0.246,0.297,0.328,0.48s0.123,0.377,0.123,0.58
	c0,0.211-0.041,0.41-0.123,0.598s-0.191,0.354-0.328,0.498s-0.297,0.258-0.48,0.34s-0.377,0.123-0.58,0.123
	c-0.211,0-0.408-0.041-0.592-0.123s-0.346-0.195-0.486-0.34s-0.252-0.311-0.334-0.498S364.974,112.693,364.974,112.482z"/>
<path fill="#FFFFFF" d="M376.587,95.806c0.672,0,1.307,0.121,1.904,0.363s1.123,0.574,1.576,0.996s0.811,0.916,1.072,1.482
	s0.393,1.17,0.393,1.811c0,0.766-0.18,1.473-0.539,2.121s-0.84,1.184-1.441,1.605c0.398,0.234,0.762,0.514,1.09,0.838
	s0.609,0.68,0.844,1.066s0.416,0.803,0.545,1.248s0.193,0.906,0.193,1.383c0,0.742-0.15,1.438-0.451,2.086s-0.709,1.217-1.225,1.705
	s-1.117,0.873-1.805,1.154s-1.422,0.422-2.203,0.422c-0.789,0-1.531-0.141-2.227-0.422s-1.301-0.666-1.816-1.154
	s-0.924-1.057-1.225-1.705s-0.451-1.344-0.451-2.086c0-0.477,0.064-0.939,0.193-1.389s0.312-0.867,0.551-1.254
	s0.523-0.742,0.855-1.066s0.701-0.604,1.107-0.838c-0.594-0.43-1.064-0.967-1.412-1.611s-0.521-1.346-0.521-2.104
	c0-0.641,0.129-1.244,0.387-1.811s0.611-1.061,1.061-1.482s0.979-0.754,1.588-0.996S375.892,95.806,376.587,95.806z
	 M372.966,108.673c0,0.461,0.094,0.896,0.281,1.307s0.443,0.768,0.768,1.072s0.703,0.547,1.137,0.727s0.896,0.27,1.389,0.27
	c0.484,0,0.941-0.09,1.371-0.27s0.807-0.422,1.131-0.727s0.58-0.662,0.768-1.072s0.281-0.846,0.281-1.307
	c0-0.453-0.094-0.883-0.281-1.289s-0.443-0.762-0.768-1.066s-0.701-0.545-1.131-0.721s-0.887-0.264-1.371-0.264
	c-0.492,0-0.955,0.088-1.389,0.264s-0.812,0.416-1.137,0.721s-0.58,0.66-0.768,1.066S372.966,108.22,372.966,108.673z
	 M373.61,100.505c0,0.391,0.074,0.756,0.223,1.096s0.355,0.637,0.621,0.891s0.58,0.455,0.943,0.604s0.76,0.223,1.189,0.223
	c0.398,0,0.773-0.074,1.125-0.223s0.662-0.35,0.932-0.604s0.482-0.551,0.639-0.891s0.234-0.705,0.234-1.096
	c0-0.383-0.078-0.744-0.234-1.084s-0.369-0.637-0.639-0.891s-0.58-0.455-0.932-0.604s-0.727-0.223-1.125-0.223
	c-0.43,0-0.826,0.074-1.189,0.223s-0.678,0.35-0.943,0.604s-0.473,0.551-0.621,0.891S373.61,100.123,373.61,100.505z"/>
<path fill="#FFFFFF" d="M384.658,105.922c0-0.305,0.058-0.596,0.171-0.872s0.274-0.517,0.482-0.725
	c0.207-0.208,0.454-0.372,0.741-0.492s0.602-0.181,0.943-0.181s0.656,0.061,0.943,0.181s0.533,0.285,0.738,0.492
	s0.366,0.449,0.481,0.725c0.117,0.276,0.175,0.566,0.175,0.872c0,0.31-0.056,0.602-0.167,0.875
	c-0.112,0.273-0.271,0.515-0.476,0.725s-0.451,0.375-0.738,0.496s-0.606,0.181-0.957,0.181c-0.355,0-0.677-0.061-0.964-0.181
	s-0.532-0.286-0.734-0.496c-0.203-0.209-0.36-0.451-0.473-0.725C384.714,106.524,384.658,106.232,384.658,105.922z M392.704,103.373
	h1.333l-7.116,10.637h-1.326L392.704,103.373z M386.996,104.774c-0.164,0-0.317,0.028-0.462,0.085
	c-0.143,0.057-0.269,0.137-0.375,0.239c-0.107,0.103-0.191,0.225-0.254,0.366c-0.061,0.141-0.092,0.294-0.092,0.458
	c0,0.16,0.031,0.311,0.092,0.455c0.062,0.144,0.146,0.269,0.254,0.376c0.106,0.107,0.232,0.191,0.375,0.253
	c0.145,0.062,0.298,0.092,0.462,0.092c0.159,0,0.31-0.031,0.451-0.092s0.265-0.145,0.369-0.25s0.188-0.229,0.249-0.373
	c0.062-0.144,0.093-0.297,0.093-0.461s-0.03-0.317-0.093-0.458c-0.061-0.141-0.145-0.263-0.249-0.366s-0.228-0.182-0.369-0.239
	S387.155,104.774,386.996,104.774z M390.578,111.692c0-0.305,0.058-0.595,0.171-0.868s0.274-0.514,0.482-0.721
	c0.207-0.208,0.454-0.373,0.741-0.496s0.602-0.185,0.943-0.185s0.656,0.062,0.943,0.185s0.534,0.288,0.741,0.496
	c0.208,0.208,0.369,0.448,0.482,0.721s0.171,0.563,0.171,0.868c0,0.31-0.056,0.603-0.167,0.878c-0.112,0.276-0.27,0.517-0.473,0.725
	c-0.202,0.208-0.447,0.373-0.734,0.496s-0.608,0.185-0.964,0.185s-0.677-0.062-0.964-0.185s-0.532-0.288-0.734-0.496
	c-0.203-0.208-0.36-0.449-0.473-0.725C390.634,112.294,390.578,112.002,390.578,111.692z M392.916,110.543
	c-0.159,0-0.312,0.03-0.454,0.089c-0.145,0.059-0.27,0.14-0.377,0.243c-0.106,0.103-0.191,0.223-0.252,0.362
	c-0.062,0.139-0.093,0.291-0.093,0.455c0,0.16,0.03,0.311,0.093,0.455c0.061,0.144,0.146,0.269,0.252,0.376
	c0.107,0.107,0.232,0.191,0.377,0.253c0.143,0.062,0.295,0.092,0.454,0.092s0.31-0.031,0.451-0.092s0.265-0.145,0.369-0.25
	s0.188-0.229,0.249-0.373c0.062-0.144,0.093-0.297,0.093-0.461s-0.03-0.315-0.093-0.455c-0.061-0.139-0.145-0.26-0.249-0.362
	s-0.228-0.184-0.369-0.243S393.075,110.543,392.916,110.543z"/>
<g>
	<g>
		<path fill="#757575" d="M480.143,57.75c-0.25-0.344-0.525-0.607-0.826-0.791s-0.631-0.324-0.99-0.422s-0.719-0.146-1.078-0.146
			c-0.594,0-1.113,0.068-1.559,0.205s-0.814,0.322-1.107,0.557s-0.514,0.508-0.662,0.82s-0.223,0.641-0.223,0.984
			c0,0.516,0.092,0.932,0.275,1.248s0.416,0.57,0.697,0.762s0.592,0.342,0.932,0.451s0.666,0.219,0.979,0.328l2.367,0.773
			c0.711,0.227,1.338,0.484,1.881,0.773s0.998,0.631,1.365,1.025s0.646,0.85,0.838,1.365s0.287,1.113,0.287,1.793
			c0,0.734-0.15,1.414-0.451,2.039s-0.721,1.168-1.26,1.629s-1.182,0.822-1.928,1.084s-1.564,0.393-2.455,0.393
			c-0.914,0-1.695-0.104-2.344-0.311s-1.193-0.484-1.635-0.832s-0.795-0.744-1.061-1.189s-0.473-0.902-0.621-1.371h-0.891v-2.016
			h2.953c0,0.867,0.092,1.48,0.275,1.84s0.439,0.658,0.768,0.896s0.719,0.418,1.172,0.539s0.953,0.182,1.5,0.182
			c0.531,0,1.01-0.062,1.436-0.188s0.789-0.307,1.09-0.545s0.531-0.527,0.691-0.867s0.24-0.725,0.24-1.154
			c0-0.477-0.1-0.881-0.299-1.213s-0.455-0.615-0.768-0.85s-0.654-0.426-1.025-0.574s-0.729-0.277-1.072-0.387l-2.566-0.727
			c-0.562-0.172-1.076-0.391-1.541-0.656s-0.863-0.59-1.195-0.973s-0.588-0.83-0.768-1.342s-0.27-1.104-0.27-1.775
			c0-0.68,0.133-1.316,0.398-1.91s0.656-1.113,1.172-1.559s1.146-0.795,1.893-1.049s1.6-0.381,2.561-0.381
			c0.633,0,1.217,0.074,1.752,0.223s1.02,0.357,1.453,0.627s0.816,0.594,1.148,0.973s0.611,0.795,0.838,1.248h0.879v2.016h-2.871
			C480.518,58.609,480.393,58.094,480.143,57.75z"/>
		<path fill="#757575" d="M484.607,60.094h3.867v1.008c0.516-0.398,1.078-0.715,1.688-0.949s1.238-0.352,1.887-0.352
			c0.797,0,1.527,0.148,2.191,0.445s1.236,0.715,1.717,1.254s0.854,1.186,1.119,1.939s0.398,1.588,0.398,2.502
			c0,0.977-0.148,1.867-0.445,2.672s-0.709,1.494-1.236,2.068s-1.154,1.021-1.881,1.342s-1.523,0.48-2.391,0.48
			c-0.617,0-1.166-0.064-1.646-0.193s-0.939-0.295-1.377-0.498v3.926h1.898v2.016h-5.766v-2.016h1.664V62.109h-1.688V60.094z
			 M491.475,61.723c-0.562,0-1.104,0.113-1.623,0.34s-0.971,0.539-1.354,0.938v6.574c0.258,0.266,0.627,0.504,1.107,0.715
			s1.08,0.316,1.799,0.316c0.5,0,0.98-0.098,1.441-0.293s0.867-0.486,1.219-0.873s0.633-0.865,0.844-1.436s0.316-1.23,0.316-1.98
			c0-0.688-0.1-1.297-0.299-1.828s-0.469-0.98-0.809-1.348s-0.736-0.646-1.189-0.838S491.99,61.723,491.475,61.723z"/>
		<path fill="#757575" d="M501.787,66.445c0,0.344,0.025,0.658,0.076,0.943s0.123,0.557,0.217,0.814
			c0.289,0.781,0.752,1.369,1.389,1.764s1.357,0.592,2.162,0.592c0.633,0,1.248-0.088,1.846-0.264s1.225-0.451,1.881-0.826
			l0.879,1.488c-0.797,0.547-1.598,0.953-2.402,1.219s-1.641,0.398-2.508,0.398c-0.82,0-1.58-0.137-2.279-0.41
			s-1.301-0.68-1.805-1.219s-0.898-1.211-1.184-2.016s-0.428-1.742-0.428-2.812c0-0.867,0.121-1.686,0.363-2.455
			s0.604-1.441,1.084-2.016s1.076-1.029,1.787-1.365s1.539-0.504,2.484-0.504c0.914,0,1.678,0.139,2.291,0.416
			s1.113,0.645,1.5,1.102s0.68,0.979,0.879,1.564s0.338,1.184,0.416,1.793c0.039,0.297,0.064,0.598,0.076,0.902
			s0.018,0.602,0.018,0.891H501.787z M505.197,61.605c-0.508,0-0.951,0.072-1.33,0.217s-0.701,0.352-0.967,0.621
			s-0.479,0.6-0.639,0.99s-0.279,0.828-0.357,1.312h6.293c-0.031-0.453-0.104-0.871-0.217-1.254s-0.287-0.715-0.521-0.996
			s-0.535-0.5-0.902-0.656S505.736,61.605,505.197,61.605z"/>
		<path fill="#757575" d="M520.631,71.109c-0.461,0.43-0.971,0.781-1.529,1.055s-1.193,0.41-1.904,0.41
			c-0.594,0-1.139-0.094-1.635-0.281s-0.924-0.443-1.283-0.768s-0.639-0.701-0.838-1.131s-0.299-0.887-0.299-1.371
			c0-0.516,0.076-0.973,0.229-1.371s0.355-0.744,0.609-1.037s0.551-0.539,0.891-0.738s0.695-0.359,1.066-0.48
			s0.75-0.207,1.137-0.258s0.756-0.076,1.107-0.076c0.562,0,1.035,0.018,1.418,0.053s0.73,0.084,1.043,0.146l0.012-0.996
			c0-0.43-0.062-0.803-0.188-1.119s-0.301-0.578-0.527-0.785s-0.498-0.361-0.814-0.463s-0.67-0.152-1.061-0.152
			c-0.367,0-0.719,0.025-1.055,0.076s-0.65,0.117-0.943,0.199s-0.562,0.176-0.809,0.281s-0.455,0.217-0.627,0.334l-0.715-1.512
			c0.289-0.188,0.605-0.361,0.949-0.521s0.705-0.297,1.084-0.41s0.766-0.203,1.16-0.27s0.783-0.1,1.166-0.1
			c0.703,0,1.336,0.084,1.898,0.252s1.039,0.428,1.43,0.779s0.691,0.799,0.902,1.342s0.316,1.193,0.316,1.951l-0.012,6.07h1.348
			v2.016h-3.527V71.109z M517.678,70.746c0.289,0,0.578-0.035,0.867-0.105s0.562-0.166,0.82-0.287s0.496-0.262,0.715-0.422
			s0.402-0.326,0.551-0.498l0.012-2.742h-2.531c-0.422,0-0.807,0.047-1.154,0.141s-0.648,0.23-0.902,0.41s-0.451,0.402-0.592,0.668
			s-0.211,0.57-0.211,0.914c0,0.32,0.059,0.6,0.176,0.838s0.283,0.438,0.498,0.598s0.471,0.281,0.768,0.363
			S517.318,70.746,517.678,70.746z"/>
		<path fill="#757575" d="M526.525,54h4.277v2.016h-0.023v9.07h2.109l2.883-2.977h-0.727v-2.016h4.605v2.016h-1.535l-3.691,3.809
			l4.031,4.301h1.465v2.016h-2.566l-4.969-5.426h-1.605v3.41h1.008v2.016h-5.191v-2.016h1.992V56.016h-2.062V54z"/>
		<path fill="#757575" d="M543.752,66.445c0,0.344,0.025,0.658,0.076,0.943s0.123,0.557,0.217,0.814
			c0.289,0.781,0.752,1.369,1.389,1.764s1.357,0.592,2.162,0.592c0.633,0,1.248-0.088,1.846-0.264s1.225-0.451,1.881-0.826
			l0.879,1.488c-0.797,0.547-1.598,0.953-2.402,1.219s-1.641,0.398-2.508,0.398c-0.82,0-1.58-0.137-2.279-0.41
			s-1.301-0.68-1.805-1.219s-0.898-1.211-1.184-2.016s-0.428-1.742-0.428-2.812c0-0.867,0.121-1.686,0.363-2.455
			s0.604-1.441,1.084-2.016s1.076-1.029,1.787-1.365s1.539-0.504,2.484-0.504c0.914,0,1.678,0.139,2.291,0.416
			s1.113,0.645,1.5,1.102s0.68,0.979,0.879,1.564s0.338,1.184,0.416,1.793c0.039,0.297,0.064,0.598,0.076,0.902
			s0.018,0.602,0.018,0.891H543.752z M547.162,61.605c-0.508,0-0.951,0.072-1.33,0.217s-0.701,0.352-0.967,0.621
			s-0.479,0.6-0.639,0.99s-0.279,0.828-0.357,1.312h6.293c-0.031-0.453-0.104-0.871-0.217-1.254s-0.287-0.715-0.521-0.996
			s-0.535-0.5-0.902-0.656S547.701,61.605,547.162,61.605z"/>
		<path fill="#757575" d="M564.189,62.66h-2.227v-0.75c-0.258,0-0.521,0.049-0.791,0.146s-0.521,0.246-0.756,0.445
			s-0.439,0.453-0.615,0.762s-0.303,0.674-0.381,1.096v5.859h2.062v2.016h-6.023v-2.016h1.676l0.012-8.109h-1.688v-2.016h3.879
			v1.676c0.141-0.25,0.299-0.482,0.475-0.697s0.371-0.402,0.586-0.562s0.453-0.285,0.715-0.375S561.658,60,561.963,60
			c0.406,0,0.789,0,1.148,0s0.719,0.008,1.078,0.023V62.66z"/>
	</g>
</g>
<g>
	<g>
		<path fill="#757575" d="M479.521,182.964c-0.25-0.344-0.525-0.607-0.826-0.791s-0.631-0.324-0.99-0.422s-0.719-0.146-1.078-0.146
			c-0.594,0-1.113,0.068-1.559,0.205s-0.814,0.322-1.107,0.557s-0.514,0.508-0.662,0.82s-0.223,0.641-0.223,0.984
			c0,0.516,0.092,0.932,0.275,1.248s0.416,0.57,0.697,0.762s0.592,0.342,0.932,0.451s0.666,0.219,0.979,0.328l2.367,0.773
			c0.711,0.227,1.338,0.484,1.881,0.773s0.998,0.631,1.365,1.025s0.646,0.85,0.838,1.365s0.287,1.113,0.287,1.793
			c0,0.734-0.15,1.414-0.451,2.039s-0.721,1.168-1.26,1.629s-1.182,0.822-1.928,1.084s-1.564,0.393-2.455,0.393
			c-0.914,0-1.695-0.104-2.344-0.311s-1.193-0.484-1.635-0.832s-0.795-0.744-1.061-1.189s-0.473-0.902-0.621-1.371h-0.891v-2.016
			h2.953c0,0.867,0.092,1.48,0.275,1.84s0.439,0.658,0.768,0.896s0.719,0.418,1.172,0.539s0.953,0.182,1.5,0.182
			c0.531,0,1.01-0.062,1.436-0.188s0.789-0.307,1.09-0.545s0.531-0.527,0.691-0.867s0.24-0.725,0.24-1.154
			c0-0.477-0.1-0.881-0.299-1.213s-0.455-0.615-0.768-0.85s-0.654-0.426-1.025-0.574s-0.729-0.277-1.072-0.387l-2.566-0.727
			c-0.562-0.172-1.076-0.391-1.541-0.656s-0.863-0.59-1.195-0.973s-0.588-0.83-0.768-1.342s-0.27-1.104-0.27-1.775
			c0-0.68,0.133-1.316,0.398-1.91s0.656-1.113,1.172-1.559s1.146-0.795,1.893-1.049s1.6-0.381,2.561-0.381
			c0.633,0,1.217,0.074,1.752,0.223s1.02,0.357,1.453,0.627s0.816,0.594,1.148,0.973s0.611,0.795,0.838,1.248h0.879v2.016h-2.871
			C479.896,183.824,479.771,183.308,479.521,182.964z"/>
		<path fill="#757575" d="M483.986,185.308h3.867v1.008c0.516-0.398,1.078-0.715,1.688-0.949s1.238-0.352,1.887-0.352
			c0.797,0,1.527,0.148,2.191,0.445s1.236,0.715,1.717,1.254s0.854,1.186,1.119,1.939s0.398,1.588,0.398,2.502
			c0,0.977-0.148,1.867-0.445,2.672s-0.709,1.494-1.236,2.068s-1.154,1.021-1.881,1.342s-1.523,0.48-2.391,0.48
			c-0.617,0-1.166-0.064-1.646-0.193s-0.939-0.295-1.377-0.498v3.926h1.898v2.016h-5.766v-2.016h1.664v-13.629h-1.688V185.308z
			 M490.854,186.937c-0.562,0-1.104,0.113-1.623,0.34s-0.971,0.539-1.354,0.938v6.574c0.258,0.266,0.627,0.504,1.107,0.715
			s1.08,0.316,1.799,0.316c0.5,0,0.98-0.098,1.441-0.293s0.867-0.486,1.219-0.873s0.633-0.865,0.844-1.436s0.316-1.23,0.316-1.98
			c0-0.688-0.1-1.297-0.299-1.828s-0.469-0.98-0.809-1.348s-0.736-0.646-1.189-0.838S491.369,186.937,490.854,186.937z"/>
		<path fill="#757575" d="M498.939,191.378c0.008-0.961,0.162-1.836,0.463-2.625s0.721-1.467,1.26-2.033s1.18-1.002,1.922-1.307
			s1.559-0.457,2.449-0.457c0.898,0,1.721,0.152,2.467,0.457s1.385,0.736,1.916,1.295s0.945,1.232,1.242,2.021
			s0.445,1.664,0.445,2.625c0,0.945-0.148,1.814-0.445,2.607s-0.711,1.475-1.242,2.045s-1.17,1.014-1.916,1.33
			s-1.568,0.475-2.467,0.475c-0.914,0-1.742-0.156-2.484-0.469s-1.379-0.752-1.91-1.318s-0.945-1.244-1.242-2.033
			S498.947,192.332,498.939,191.378z M501.248,191.378c0,0.695,0.1,1.324,0.299,1.887s0.473,1.041,0.82,1.436
			s0.75,0.699,1.207,0.914s0.943,0.322,1.459,0.322c0.539,0,1.041-0.105,1.506-0.316s0.869-0.514,1.213-0.908
			s0.613-0.873,0.809-1.436s0.293-1.195,0.293-1.898c0-0.734-0.098-1.387-0.293-1.957s-0.463-1.047-0.803-1.43
			s-0.744-0.672-1.213-0.867s-0.973-0.293-1.512-0.293c-0.516,0-1.002,0.098-1.459,0.293s-0.859,0.484-1.207,0.867
			s-0.621,0.859-0.82,1.43S501.248,190.644,501.248,191.378z"/>
		<path fill="#757575" d="M521.451,195.433h1.711v-5.543c0-0.93-0.236-1.635-0.709-2.115s-1.15-0.721-2.033-0.721
			c-0.508,0-1.02,0.121-1.535,0.363s-1.004,0.543-1.465,0.902v7.113h1.711v2.016h-5.672v-2.016h1.688v-8.109h-1.688v-2.016h3.867
			v1.43h0.023c0.258-0.227,0.533-0.441,0.826-0.645s0.6-0.379,0.92-0.527s0.654-0.266,1.002-0.352s0.713-0.129,1.096-0.129
			c0.648,0,1.234,0.09,1.758,0.27s0.969,0.453,1.336,0.82s0.65,0.838,0.85,1.412s0.299,1.252,0.299,2.033v5.812h1.688v2.016h-5.672
			V195.433z"/>
		<path fill="#757575" d="M536.246,187.728c-0.152-0.23-0.35-0.418-0.592-0.562s-0.512-0.25-0.809-0.316s-0.586-0.1-0.867-0.1
			c-0.312,0-0.6,0.035-0.861,0.105s-0.486,0.172-0.674,0.305s-0.334,0.295-0.439,0.486s-0.158,0.404-0.158,0.639
			c0,0.406,0.123,0.729,0.369,0.967s0.658,0.459,1.236,0.662l2.332,0.82c1,0.336,1.73,0.793,2.191,1.371s0.691,1.27,0.691,2.074
			c0,0.539-0.107,1.033-0.322,1.482s-0.52,0.832-0.914,1.148s-0.869,0.562-1.424,0.738s-1.172,0.264-1.852,0.264
			c-0.945,0-1.715-0.152-2.309-0.457s-1.051-0.707-1.371-1.207h-1.219v-2.016h2.426c0,0.336,0.072,0.623,0.217,0.861
			s0.336,0.432,0.574,0.58s0.508,0.258,0.809,0.328s0.607,0.105,0.92,0.105c0.305,0,0.598-0.037,0.879-0.111
			s0.529-0.184,0.744-0.328s0.385-0.318,0.51-0.521s0.188-0.434,0.188-0.691c0-0.391-0.127-0.723-0.381-0.996
			s-0.686-0.52-1.295-0.738l-2.32-0.867c-0.945-0.336-1.646-0.764-2.104-1.283s-0.686-1.17-0.686-1.951
			c0-0.516,0.096-0.992,0.287-1.43s0.469-0.814,0.832-1.131s0.807-0.564,1.33-0.744s1.121-0.27,1.793-0.27
			c0.867,0,1.594,0.121,2.18,0.363s1.113,0.656,1.582,1.242h1.137v2.016h-2.402C536.475,188.238,536.398,187.958,536.246,187.728z"
			/>
		<path fill="#757575" d="M540.939,191.378c0.008-0.961,0.162-1.836,0.463-2.625s0.721-1.467,1.26-2.033s1.18-1.002,1.922-1.307
			s1.559-0.457,2.449-0.457c0.898,0,1.721,0.152,2.467,0.457s1.385,0.736,1.916,1.295s0.945,1.232,1.242,2.021
			s0.445,1.664,0.445,2.625c0,0.945-0.148,1.814-0.445,2.607s-0.711,1.475-1.242,2.045s-1.17,1.014-1.916,1.33
			s-1.568,0.475-2.467,0.475c-0.914,0-1.742-0.156-2.484-0.469s-1.379-0.752-1.91-1.318s-0.945-1.244-1.242-2.033
			S540.947,192.332,540.939,191.378z M543.248,191.378c0,0.695,0.1,1.324,0.299,1.887s0.473,1.041,0.82,1.436
			s0.75,0.699,1.207,0.914s0.943,0.322,1.459,0.322c0.539,0,1.041-0.105,1.506-0.316s0.869-0.514,1.213-0.908
			s0.613-0.873,0.809-1.436s0.293-1.195,0.293-1.898c0-0.734-0.098-1.387-0.293-1.957s-0.463-1.047-0.803-1.43
			s-0.744-0.672-1.213-0.867s-0.973-0.293-1.512-0.293c-0.516,0-1.002,0.098-1.459,0.293s-0.859,0.484-1.207,0.867
			s-0.621,0.859-0.82,1.43S543.248,190.644,543.248,191.378z"/>
		<path fill="#757575" d="M564.189,187.875h-2.227v-0.75c-0.258,0-0.521,0.049-0.791,0.146s-0.521,0.246-0.756,0.445
			s-0.439,0.453-0.615,0.762s-0.303,0.674-0.381,1.096v5.859h2.062v2.016h-6.023v-2.016h1.676l0.012-8.109h-1.688v-2.016h3.879
			v1.676c0.141-0.25,0.299-0.482,0.475-0.697s0.371-0.402,0.586-0.562s0.453-0.285,0.715-0.375s0.545-0.135,0.85-0.135
			c0.406,0,0.789,0,1.148,0s0.719,0.008,1.078,0.023V187.875z"/>
	</g>
</g>
<path fill="#FFFFFF" d="M367.468,184.683l-3.984,6.645c0.477-0.203,0.908-0.32,1.295-0.352s0.732-0.047,1.037-0.047
	c0.719,0,1.414,0.135,2.086,0.404s1.268,0.648,1.787,1.137s0.936,1.07,1.248,1.746s0.469,1.42,0.469,2.232
	c0,0.992-0.168,1.875-0.504,2.648s-0.789,1.426-1.359,1.957s-1.232,0.936-1.986,1.213s-1.553,0.416-2.396,0.416
	c-0.797,0-1.564-0.145-2.303-0.434s-1.393-0.693-1.963-1.213s-1.025-1.145-1.365-1.875s-0.51-1.541-0.51-2.432
	c0-0.688,0.131-1.367,0.393-2.039s0.588-1.375,0.979-2.109l4.348-7.898H367.468z M364.901,192.851c-0.562,0-1.041,0.088-1.436,0.264
	s-0.768,0.422-1.119,0.738s-0.629,0.719-0.832,1.207s-0.305,1.053-0.305,1.693c0,0.609,0.102,1.156,0.305,1.641
	s0.484,0.893,0.844,1.225s0.783,0.586,1.271,0.762s1.018,0.264,1.588,0.264c0.531,0,1.039-0.094,1.523-0.281s0.91-0.453,1.277-0.797
	s0.66-0.754,0.879-1.23s0.328-1.004,0.328-1.582c0-0.641-0.117-1.205-0.352-1.693s-0.549-0.896-0.943-1.225
	s-0.854-0.574-1.377-0.738S365.479,192.851,364.901,192.851z"/>
<path fill="#FFFFFF" d="M373.679,201.031c0-0.203,0.041-0.396,0.123-0.58s0.193-0.344,0.334-0.48s0.303-0.246,0.486-0.328
	s0.381-0.123,0.592-0.123c0.203,0,0.396,0.041,0.58,0.123s0.344,0.191,0.48,0.328s0.246,0.297,0.328,0.48s0.123,0.377,0.123,0.58
	c0,0.211-0.041,0.41-0.123,0.598s-0.191,0.354-0.328,0.498s-0.297,0.258-0.48,0.34s-0.377,0.123-0.58,0.123
	c-0.211,0-0.408-0.041-0.592-0.123s-0.346-0.195-0.486-0.34s-0.252-0.311-0.334-0.498S373.679,201.242,373.679,201.031z"/>
<path fill="#FFFFFF" d="M387.038,189.324c0-0.305-0.064-0.631-0.193-0.979s-0.328-0.668-0.598-0.961s-0.609-0.535-1.02-0.727
	s-0.893-0.287-1.447-0.287c-0.461,0-0.881,0.08-1.26,0.24s-0.756,0.459-1.131,0.896s-0.578,0.922-0.609,1.453h-2.227
	c0.039-0.68,0.209-1.293,0.51-1.84s0.682-1.027,1.143-1.441s1-0.742,1.617-0.984s1.262-0.363,1.934-0.363
	c0.836,0,1.594,0.139,2.273,0.416s1.26,0.645,1.74,1.102s0.852,0.979,1.113,1.564s0.393,1.184,0.393,1.793
	c0,0.375-0.047,0.75-0.141,1.125s-0.24,0.732-0.439,1.072s-0.455,0.654-0.768,0.943s-0.691,0.543-1.137,0.762
	c0.367,0.141,0.713,0.338,1.037,0.592s0.607,0.557,0.85,0.908s0.434,0.75,0.574,1.195s0.211,0.934,0.211,1.465
	c0,0.766-0.148,1.475-0.445,2.127s-0.699,1.217-1.207,1.693s-1.104,0.85-1.787,1.119s-1.416,0.404-2.197,0.404
	c-0.719,0-1.432-0.127-2.139-0.381s-1.307-0.615-1.799-1.084s-0.855-0.957-1.09-1.465s-0.375-1.012-0.422-1.512h2.25
	c0.227,0.727,0.631,1.297,1.213,1.711s1.322,0.621,2.221,0.621c0.406,0,0.803-0.082,1.189-0.246s0.729-0.393,1.025-0.686
	s0.535-0.637,0.715-1.031s0.27-0.826,0.27-1.295c0-0.492-0.09-0.938-0.27-1.336s-0.422-0.736-0.727-1.014s-0.658-0.492-1.061-0.645
	s-0.83-0.229-1.283-0.229h-1.008v-1.77h0.82c0.516,0,0.979-0.076,1.389-0.229s0.756-0.361,1.037-0.627s0.498-0.576,0.65-0.932
	S387.038,189.73,387.038,189.324z"/>
<path fill="#FFFFFF" d="M391.418,194.471c0-0.305,0.058-0.596,0.171-0.871c0.114-0.276,0.274-0.518,0.482-0.725
	c0.207-0.208,0.454-0.372,0.741-0.492c0.287-0.121,0.602-0.182,0.943-0.182s0.656,0.061,0.943,0.182
	c0.287,0.12,0.533,0.284,0.738,0.492c0.205,0.207,0.366,0.448,0.482,0.725c0.116,0.275,0.174,0.566,0.174,0.871
	c0,0.311-0.056,0.602-0.167,0.875c-0.112,0.273-0.271,0.516-0.476,0.725c-0.205,0.21-0.451,0.375-0.738,0.496
	c-0.287,0.12-0.605,0.181-0.957,0.181c-0.355,0-0.677-0.061-0.964-0.181c-0.287-0.121-0.532-0.286-0.734-0.496
	c-0.203-0.209-0.36-0.451-0.472-0.725C391.474,195.073,391.418,194.782,391.418,194.471z M399.464,191.921h1.333l-7.116,10.637
	h-1.326L399.464,191.921z M393.756,193.323c-0.164,0-0.317,0.028-0.461,0.086c-0.144,0.057-0.27,0.137-0.376,0.239
	c-0.107,0.103-0.191,0.225-0.253,0.365c-0.062,0.142-0.093,0.294-0.093,0.458c0,0.16,0.031,0.312,0.093,0.455
	s0.146,0.269,0.253,0.376c0.106,0.106,0.232,0.191,0.376,0.253s0.297,0.092,0.461,0.092c0.16,0,0.311-0.03,0.451-0.092
	c0.142-0.062,0.265-0.145,0.369-0.25c0.105-0.104,0.188-0.229,0.25-0.372s0.092-0.298,0.092-0.462s-0.03-0.316-0.092-0.458
	c-0.062-0.141-0.145-0.263-0.25-0.365c-0.104-0.103-0.228-0.183-0.369-0.239C394.066,193.351,393.916,193.323,393.756,193.323z
	 M397.338,200.241c0-0.305,0.058-0.595,0.171-0.868c0.114-0.273,0.274-0.514,0.482-0.721c0.207-0.208,0.454-0.373,0.741-0.496
	s0.602-0.185,0.943-0.185s0.656,0.062,0.943,0.185s0.534,0.288,0.742,0.496c0.207,0.207,0.368,0.447,0.481,0.721
	c0.114,0.273,0.171,0.563,0.171,0.868c0,0.311-0.056,0.603-0.167,0.879c-0.112,0.275-0.27,0.517-0.472,0.725
	c-0.203,0.207-0.448,0.372-0.735,0.495s-0.608,0.185-0.964,0.185s-0.677-0.062-0.964-0.185s-0.532-0.288-0.734-0.495
	c-0.203-0.208-0.36-0.449-0.472-0.725C397.394,200.843,397.338,200.551,397.338,200.241z M399.676,199.092
	c-0.159,0-0.311,0.03-0.454,0.089c-0.144,0.06-0.27,0.141-0.376,0.243c-0.107,0.103-0.191,0.223-0.253,0.362
	c-0.062,0.139-0.093,0.29-0.093,0.454c0,0.16,0.031,0.312,0.093,0.455s0.146,0.269,0.253,0.376c0.106,0.106,0.232,0.191,0.376,0.253
	s0.295,0.092,0.454,0.092c0.16,0,0.311-0.03,0.451-0.092c0.142-0.062,0.265-0.145,0.369-0.25c0.105-0.104,0.188-0.229,0.25-0.372
	s0.092-0.298,0.092-0.462s-0.03-0.315-0.092-0.454c-0.062-0.14-0.145-0.26-0.25-0.362c-0.104-0.103-0.228-0.184-0.369-0.243
	C399.986,199.123,399.836,199.092,399.676,199.092z"/>
<path fill="#FFFFFF" d="M208.468,187.734l-3.984,6.645c0.477-0.203,0.908-0.32,1.295-0.352s0.732-0.047,1.037-0.047
	c0.719,0,1.414,0.135,2.086,0.404s1.268,0.648,1.787,1.137s0.936,1.07,1.248,1.746s0.469,1.42,0.469,2.232
	c0,0.992-0.168,1.875-0.504,2.648s-0.789,1.426-1.359,1.957s-1.232,0.936-1.986,1.213s-1.553,0.416-2.396,0.416
	c-0.797,0-1.564-0.145-2.303-0.434s-1.393-0.693-1.963-1.213s-1.025-1.145-1.365-1.875s-0.51-1.541-0.51-2.432
	c0-0.688,0.131-1.367,0.393-2.039s0.588-1.375,0.979-2.109l4.348-7.898H208.468z M205.901,195.902c-0.562,0-1.041,0.088-1.436,0.264
	s-0.768,0.422-1.119,0.738s-0.629,0.719-0.832,1.207s-0.305,1.053-0.305,1.693c0,0.609,0.102,1.156,0.305,1.641
	s0.484,0.893,0.844,1.225s0.783,0.586,1.271,0.762s1.018,0.264,1.588,0.264c0.531,0,1.039-0.094,1.523-0.281s0.91-0.453,1.277-0.797
	s0.66-0.754,0.879-1.23s0.328-1.004,0.328-1.582c0-0.641-0.117-1.205-0.352-1.693s-0.549-0.896-0.943-1.225
	s-0.854-0.574-1.377-0.738S206.479,195.902,205.901,195.902z"/>
<path fill="#FFFFFF" d="M223.104,187.734l-3.984,6.645c0.477-0.203,0.908-0.32,1.295-0.352s0.732-0.047,1.037-0.047
	c0.719,0,1.414,0.135,2.086,0.404s1.268,0.648,1.787,1.137s0.936,1.07,1.248,1.746s0.469,1.42,0.469,2.232
	c0,0.992-0.168,1.875-0.504,2.648s-0.789,1.426-1.359,1.957s-1.232,0.936-1.986,1.213s-1.553,0.416-2.396,0.416
	c-0.797,0-1.564-0.145-2.303-0.434s-1.393-0.693-1.963-1.213s-1.025-1.145-1.365-1.875s-0.51-1.541-0.51-2.432
	c0-0.688,0.131-1.367,0.393-2.039s0.588-1.375,0.979-2.109l4.348-7.898H223.104z M220.538,195.902c-0.562,0-1.041,0.088-1.436,0.264
	s-0.768,0.422-1.119,0.738s-0.629,0.719-0.832,1.207s-0.305,1.053-0.305,1.693c0,0.609,0.102,1.156,0.305,1.641
	s0.484,0.893,0.844,1.225s0.783,0.586,1.271,0.762s1.018,0.264,1.588,0.264c0.531,0,1.039-0.094,1.523-0.281s0.91-0.453,1.277-0.797
	s0.66-0.754,0.879-1.23s0.328-1.004,0.328-1.582c0-0.641-0.117-1.205-0.352-1.693s-0.549-0.896-0.943-1.225
	s-0.854-0.574-1.377-0.738S221.116,195.902,220.538,195.902z"/>
<path fill="#FFFFFF" d="M229.315,204.082c0-0.203,0.041-0.396,0.123-0.58s0.193-0.344,0.334-0.48s0.303-0.246,0.486-0.328
	s0.381-0.123,0.592-0.123c0.203,0,0.396,0.041,0.58,0.123s0.344,0.191,0.48,0.328s0.246,0.297,0.328,0.48s0.123,0.377,0.123,0.58
	c0,0.211-0.041,0.41-0.123,0.598s-0.191,0.354-0.328,0.498s-0.297,0.258-0.48,0.34s-0.377,0.123-0.58,0.123
	c-0.211,0-0.408-0.041-0.592-0.123s-0.346-0.195-0.486-0.34s-0.252-0.311-0.334-0.498S229.315,204.292,229.315,204.082z"/>
<path fill="#FFFFFF" d="M242.675,192.375c0-0.305-0.064-0.631-0.193-0.979s-0.328-0.668-0.598-0.961s-0.609-0.535-1.02-0.727
	s-0.893-0.287-1.447-0.287c-0.461,0-0.881,0.08-1.26,0.24s-0.756,0.459-1.131,0.896s-0.578,0.922-0.609,1.453h-2.227
	c0.039-0.68,0.209-1.293,0.51-1.84s0.682-1.027,1.143-1.441s1-0.742,1.617-0.984s1.262-0.363,1.934-0.363
	c0.836,0,1.594,0.139,2.273,0.416s1.26,0.645,1.74,1.102s0.852,0.979,1.113,1.564s0.393,1.184,0.393,1.793
	c0,0.375-0.047,0.75-0.141,1.125s-0.24,0.732-0.439,1.072s-0.455,0.654-0.768,0.943s-0.691,0.543-1.137,0.762
	c0.367,0.141,0.713,0.338,1.037,0.592s0.607,0.557,0.85,0.908s0.434,0.75,0.574,1.195s0.211,0.934,0.211,1.465
	c0,0.766-0.148,1.475-0.445,2.127s-0.699,1.217-1.207,1.693s-1.104,0.85-1.787,1.119s-1.416,0.404-2.197,0.404
	c-0.719,0-1.432-0.127-2.139-0.381s-1.307-0.615-1.799-1.084s-0.855-0.957-1.09-1.465s-0.375-1.012-0.422-1.512h2.25
	c0.227,0.727,0.631,1.297,1.213,1.711s1.322,0.621,2.221,0.621c0.406,0,0.803-0.082,1.189-0.246s0.729-0.393,1.025-0.686
	s0.535-0.637,0.715-1.031s0.27-0.826,0.27-1.295c0-0.492-0.09-0.938-0.27-1.336s-0.422-0.736-0.727-1.014s-0.658-0.492-1.061-0.645
	s-0.83-0.229-1.283-0.229h-1.008v-1.77h0.82c0.516,0,0.979-0.076,1.389-0.229s0.756-0.361,1.037-0.627s0.498-0.576,0.65-0.932
	S242.675,192.781,242.675,192.375z"/>
<path fill="#FFFFFF" d="M247.055,197.522c0-0.305,0.057-0.596,0.171-0.871c0.114-0.276,0.274-0.518,0.482-0.725
	c0.208-0.208,0.455-0.372,0.742-0.492c0.287-0.121,0.602-0.182,0.943-0.182s0.656,0.061,0.943,0.182
	c0.287,0.12,0.533,0.284,0.738,0.492c0.205,0.207,0.366,0.448,0.482,0.725c0.116,0.275,0.174,0.566,0.174,0.871
	c0,0.311-0.056,0.602-0.167,0.875s-0.27,0.516-0.475,0.725c-0.205,0.21-0.451,0.375-0.738,0.496
	c-0.287,0.12-0.606,0.181-0.957,0.181c-0.355,0-0.677-0.061-0.964-0.181c-0.287-0.121-0.532-0.286-0.735-0.496
	c-0.203-0.209-0.36-0.451-0.472-0.725S247.055,197.833,247.055,197.522z M255.101,194.972h1.333l-7.116,10.637h-1.326
	L255.101,194.972z M249.393,196.374c-0.164,0-0.318,0.028-0.461,0.086c-0.144,0.057-0.269,0.137-0.376,0.239
	s-0.191,0.225-0.253,0.365c-0.062,0.142-0.092,0.294-0.092,0.458c0,0.16,0.031,0.312,0.092,0.455s0.146,0.269,0.253,0.376
	c0.107,0.106,0.232,0.191,0.376,0.253s0.297,0.092,0.461,0.092c0.16,0,0.31-0.03,0.451-0.092s0.264-0.145,0.369-0.25
	c0.105-0.104,0.188-0.229,0.25-0.372s0.092-0.298,0.092-0.462s-0.031-0.316-0.092-0.458c-0.062-0.141-0.145-0.263-0.25-0.365
	s-0.228-0.183-0.369-0.239C249.703,196.402,249.552,196.374,249.393,196.374z M252.975,203.292c0-0.305,0.057-0.595,0.171-0.868
	s0.274-0.514,0.482-0.721c0.208-0.208,0.455-0.373,0.742-0.496s0.602-0.185,0.943-0.185s0.656,0.062,0.943,0.185
	s0.534,0.288,0.742,0.496c0.208,0.207,0.368,0.447,0.482,0.721s0.171,0.563,0.171,0.868c0,0.311-0.056,0.603-0.167,0.879
	c-0.112,0.275-0.269,0.517-0.472,0.725c-0.203,0.207-0.448,0.372-0.735,0.495s-0.608,0.185-0.964,0.185s-0.677-0.062-0.964-0.185
	s-0.532-0.288-0.735-0.495c-0.203-0.208-0.36-0.449-0.472-0.725C253.03,203.894,252.975,203.602,252.975,203.292z M255.312,202.143
	c-0.16,0-0.311,0.03-0.455,0.089c-0.144,0.06-0.269,0.141-0.376,0.243s-0.191,0.223-0.253,0.362
	c-0.062,0.139-0.092,0.29-0.092,0.454c0,0.16,0.031,0.312,0.092,0.455s0.146,0.269,0.253,0.376c0.107,0.106,0.232,0.191,0.376,0.253
	s0.295,0.092,0.455,0.092s0.31-0.03,0.451-0.092s0.264-0.145,0.369-0.25c0.105-0.104,0.188-0.229,0.25-0.372
	s0.092-0.298,0.092-0.462s-0.031-0.315-0.092-0.454c-0.062-0.14-0.145-0.26-0.25-0.362s-0.228-0.184-0.369-0.243
	C255.623,202.173,255.472,202.143,255.312,202.143z"/>
<g>
	<g>
		<path fill="#757575" d="M15.387,217.805v-3.562c-0.297,0.617-0.668,1.154-1.113,1.611s-0.941,0.834-1.488,1.131
			s-1.131,0.52-1.752,0.668s-1.252,0.223-1.893,0.223c-1.156,0-2.223-0.193-3.199-0.58s-1.861-1.002-2.654-1.846
			s-1.398-1.844-1.816-3s-0.627-2.363-0.627-3.621c0-1.266,0.209-2.461,0.627-3.586s1.004-2.105,1.758-2.941
			s1.652-1.492,2.695-1.969s2.174-0.715,3.393-0.715c1.125,0,2.092,0.16,2.9,0.48s1.5,0.709,2.074,1.166s1.033,0.893,1.377,1.307
			h1.137v2.086h-2.52c-0.523-0.891-1.217-1.594-2.08-2.109s-1.83-0.766-2.9-0.75c-0.898,0-1.723,0.191-2.473,0.574
			s-1.393,0.898-1.928,1.547s-0.951,1.395-1.248,2.238s-0.445,1.734-0.445,2.672c0,1.039,0.164,2.004,0.492,2.895
			s0.746,1.613,1.254,2.168s1.135,1.014,1.881,1.377s1.572,0.545,2.479,0.545c1.5,0,2.73-0.365,3.691-1.096s1.633-1.869,2.016-3.416
			h-4.969v-2.016h7.512v8.52H15.387z"/>
		<path fill="#757575" d="M22.957,211.946c0,0.344,0.025,0.658,0.076,0.943s0.123,0.557,0.217,0.814
			c0.289,0.781,0.752,1.369,1.389,1.764s1.357,0.592,2.162,0.592c0.633,0,1.248-0.088,1.846-0.264s1.225-0.451,1.881-0.826
			l0.879,1.488c-0.797,0.547-1.598,0.953-2.402,1.219s-1.641,0.398-2.508,0.398c-0.82,0-1.58-0.137-2.279-0.41
			s-1.301-0.68-1.805-1.219s-0.898-1.211-1.184-2.016s-0.428-1.742-0.428-2.812c0-0.867,0.121-1.686,0.363-2.455
			s0.604-1.441,1.084-2.016s1.076-1.029,1.787-1.365s1.539-0.504,2.484-0.504c0.914,0,1.678,0.139,2.291,0.416
			s1.113,0.645,1.5,1.102s0.68,0.979,0.879,1.564s0.338,1.184,0.416,1.793c0.039,0.297,0.064,0.598,0.076,0.902
			s0.018,0.602,0.018,0.891H22.957z M26.367,207.106c-0.508,0-0.951,0.072-1.33,0.217s-0.701,0.352-0.967,0.621
			s-0.479,0.6-0.639,0.99s-0.279,0.828-0.357,1.312h6.293c-0.031-0.453-0.104-0.871-0.217-1.254s-0.287-0.715-0.521-0.996
			s-0.535-0.5-0.902-0.656S26.906,207.106,26.367,207.106z"/>
		<path fill="#757575" d="M42.656,215.719h1.711v-5.543c0-0.93-0.236-1.635-0.709-2.115s-1.15-0.721-2.033-0.721
			c-0.508,0-1.02,0.121-1.535,0.363s-1.004,0.543-1.465,0.902v7.113h1.711v2.016h-5.672v-2.016h1.688v-8.109h-1.688v-2.016h3.867
			v1.43h0.023c0.258-0.227,0.533-0.441,0.826-0.645s0.6-0.379,0.92-0.527s0.654-0.266,1.002-0.352s0.713-0.129,1.096-0.129
			c0.648,0,1.234,0.09,1.758,0.27s0.969,0.453,1.336,0.82s0.65,0.838,0.85,1.412s0.299,1.252,0.299,2.033v5.812h1.688v2.016h-5.672
			V215.719z"/>
		<path fill="#757575" d="M52.734,211.946c0,0.344,0.025,0.658,0.076,0.943s0.123,0.557,0.217,0.814
			c0.289,0.781,0.752,1.369,1.389,1.764s1.357,0.592,2.162,0.592c0.633,0,1.248-0.088,1.846-0.264s1.225-0.451,1.881-0.826
			l0.879,1.488c-0.797,0.547-1.598,0.953-2.402,1.219s-1.641,0.398-2.508,0.398c-0.82,0-1.58-0.137-2.279-0.41
			s-1.301-0.68-1.805-1.219s-0.898-1.211-1.184-2.016s-0.428-1.742-0.428-2.812c0-0.867,0.121-1.686,0.363-2.455
			s0.604-1.441,1.084-2.016s1.076-1.029,1.787-1.365s1.539-0.504,2.484-0.504c0.914,0,1.678,0.139,2.291,0.416
			s1.113,0.645,1.5,1.102s0.68,0.979,0.879,1.564s0.338,1.184,0.416,1.793c0.039,0.297,0.064,0.598,0.076,0.902
			s0.018,0.602,0.018,0.891H52.734z M56.145,207.106c-0.508,0-0.951,0.072-1.33,0.217s-0.701,0.352-0.967,0.621
			s-0.479,0.6-0.639,0.99s-0.279,0.828-0.357,1.312h6.293c-0.031-0.453-0.104-0.871-0.217-1.254s-0.287-0.715-0.521-0.996
			s-0.535-0.5-0.902-0.656S56.684,207.106,56.145,207.106z"/>
		<path fill="#757575" d="M73.172,208.161h-2.227v-0.75c-0.258,0-0.521,0.049-0.791,0.146s-0.521,0.246-0.756,0.445
			s-0.439,0.453-0.615,0.762s-0.303,0.674-0.381,1.096v5.859h2.062v2.016h-6.023v-2.016h1.676l0.012-8.109h-1.688v-2.016h3.879
			v1.676c0.141-0.25,0.299-0.482,0.475-0.697s0.371-0.402,0.586-0.562s0.453-0.285,0.715-0.375s0.545-0.135,0.85-0.135
			c0.406,0,0.789,0,1.148,0s0.719,0.008,1.078,0.023V208.161z"/>
		<path fill="#757575" d="M82.828,216.61c-0.461,0.43-0.971,0.781-1.529,1.055s-1.193,0.41-1.904,0.41
			c-0.594,0-1.139-0.094-1.635-0.281s-0.924-0.443-1.283-0.768s-0.639-0.701-0.838-1.131s-0.299-0.887-0.299-1.371
			c0-0.516,0.076-0.973,0.229-1.371s0.355-0.744,0.609-1.037s0.551-0.539,0.891-0.738s0.695-0.359,1.066-0.48
			s0.75-0.207,1.137-0.258s0.756-0.076,1.107-0.076c0.562,0,1.035,0.018,1.418,0.053s0.73,0.084,1.043,0.146l0.012-0.996
			c0-0.43-0.062-0.803-0.188-1.119s-0.301-0.578-0.527-0.785s-0.498-0.361-0.814-0.463s-0.67-0.152-1.061-0.152
			c-0.367,0-0.719,0.025-1.055,0.076s-0.65,0.117-0.943,0.199s-0.562,0.176-0.809,0.281s-0.455,0.217-0.627,0.334l-0.715-1.512
			c0.289-0.188,0.605-0.361,0.949-0.521s0.705-0.297,1.084-0.41s0.766-0.203,1.16-0.27s0.783-0.1,1.166-0.1
			c0.703,0,1.336,0.084,1.898,0.252s1.039,0.428,1.43,0.779s0.691,0.799,0.902,1.342s0.316,1.193,0.316,1.951l-0.012,6.07h1.348
			v2.016h-3.527V216.61z M79.875,216.247c0.289,0,0.578-0.035,0.867-0.105s0.562-0.166,0.82-0.287s0.496-0.262,0.715-0.422
			s0.402-0.326,0.551-0.498l0.012-2.742h-2.531c-0.422,0-0.807,0.047-1.154,0.141s-0.648,0.23-0.902,0.41s-0.451,0.402-0.592,0.668
			s-0.211,0.57-0.211,0.914c0,0.32,0.059,0.6,0.176,0.838s0.283,0.438,0.498,0.598s0.471,0.281,0.768,0.363
			S79.516,216.247,79.875,216.247z"/>
		<path fill="#757575" d="M88.723,199.5h3.938v16.219h1.828v2.016h-5.766v-2.016h1.758v-14.203h-1.758V199.5z"/>
	</g>
</g>
</svg>
