<?xml version="1.0" encoding="utf-8"?>
<!-- Generator: Adobe Illustrator 15.0.0, SVG Export Plug-In  -->
<!DOCTYPE svg PUBLIC "-//W3C//DTD SVG 1.1//EN" "http://www.w3.org/Graphics/SVG/1.1/DTD/svg11.dtd" [
	<!ENTITY ns_flows "http://ns.adobe.com/Flows/1.0/">
]>
<svg version="1.1"
	 xmlns="http://www.w3.org/2000/svg" xmlns:xlink="http://www.w3.org/1999/xlink" xmlns:a="http://ns.adobe.com/AdobeSVGViewerExtensions/3.0/"
	 x="0px" y="0px" width="171px" height="230px" viewBox="-0.033 -0.755 171 230"
	 overflow="visible" enable-background="new -0.033 -0.755 171 230" xml:space="preserve">
<defs>
	
		<pattern  x="466.967" y="-178.755" width="28.8" height="28.8" patternUnits="userSpaceOnUse" id="_x31_0_dpi_40_x25_" viewBox="17.28 -31.68 28.8 28.8" overflow="visible">
		<g>
			<polygon fill="none" points="17.28,-2.88 17.28,-31.68 46.08,-31.68 46.08,-2.88 			"/>
			<path d="M46.08,0c1.59,0,2.88-1.29,2.88-2.88c0-1.591-1.29-2.88-2.88-2.88c-1.591,0-2.88,1.289-2.88,2.88
				C43.2-1.29,44.489,0,46.08,0z"/>
			<path d="M31.68,0c1.59,0,2.88-1.29,2.88-2.88c0-1.591-1.29-2.88-2.88-2.88c-1.591,0-2.88,1.289-2.88,2.88
				C28.8-1.29,30.089,0,31.68,0z"/>
			<path d="M17.28,0c1.59,0,2.88-1.29,2.88-2.88c0-1.591-1.29-2.88-2.88-2.88c-1.59,0-2.88,1.289-2.88,2.88
				C14.4-1.29,15.69,0,17.28,0z"/>
			<path d="M46.08-14.4c1.59,0,2.88-1.29,2.88-2.88c0-1.591-1.29-2.88-2.88-2.88c-1.591,0-2.88,1.289-2.88,2.88
				C43.2-15.69,44.489-14.4,46.08-14.4z"/>
			<path d="M31.68-14.4c1.59,0,2.88-1.29,2.88-2.88c0-1.591-1.29-2.88-2.88-2.88c-1.591,0-2.88,1.289-2.88,2.88
				C28.8-15.69,30.089-14.4,31.68-14.4z"/>
			<path d="M17.28-14.4c1.59,0,2.88-1.29,2.88-2.88c0-1.591-1.29-2.88-2.88-2.88c-1.59,0-2.88,1.289-2.88,2.88
				C14.4-15.69,15.69-14.4,17.28-14.4z"/>
			<path d="M46.08-28.8c1.59,0,2.88-1.29,2.88-2.88c0-1.591-1.29-2.88-2.88-2.88c-1.591,0-2.88,1.289-2.88,2.88
				C43.2-30.09,44.489-28.8,46.08-28.8z"/>
			<path d="M31.68-28.8c1.59,0,2.88-1.29,2.88-2.88c0-1.591-1.29-2.88-2.88-2.88c-1.591,0-2.88,1.289-2.88,2.88
				C28.8-30.09,30.089-28.8,31.68-28.8z"/>
			<path d="M17.28-28.8c1.59,0,2.88-1.29,2.88-2.88c0-1.591-1.29-2.88-2.88-2.88c-1.59,0-2.88,1.289-2.88,2.88
				C14.4-30.09,15.69-28.8,17.28-28.8z"/>
			<path d="M2.88-28.8c1.591,0,2.88-1.29,2.88-2.88c0-1.591-1.289-2.88-2.88-2.88C1.29-34.56,0-33.271,0-31.68
				C0-30.09,1.29-28.8,2.88-28.8z"/>
			<path d="M2.88-31.68"/>
			<path d="M24.479-7.2c1.591,0,2.881-1.29,2.881-2.88c0-1.591-1.29-2.88-2.881-2.88s-2.88,1.289-2.88,2.88
				C21.6-8.49,22.889-7.2,24.479-7.2z"/>
			<path d="M38.88-7.2c1.59,0,2.88-1.29,2.88-2.88c0-1.591-1.29-2.88-2.88-2.88c-1.591,0-2.88,1.289-2.88,2.88
				C36-8.49,37.289-7.2,38.88-7.2z"/>
			<path d="M24.479-21.6c1.591,0,2.881-1.29,2.881-2.88c0-1.591-1.29-2.88-2.881-2.88s-2.88,1.289-2.88,2.88
				C21.6-22.89,22.889-21.6,24.479-21.6z"/>
			<path d="M38.88-21.6c1.59,0,2.88-1.29,2.88-2.88c0-1.591-1.29-2.88-2.88-2.88c-1.591,0-2.88,1.289-2.88,2.88
				C36-22.89,37.289-21.6,38.88-21.6z"/>
			<path d="M10.08-21.6c1.591,0,2.88-1.29,2.88-2.88c0-1.591-1.289-2.88-2.88-2.88c-1.59,0-2.88,1.289-2.88,2.88
				C7.2-22.89,8.49-21.6,10.08-21.6z"/>
			<path d="M10.08-24.48"/>
		</g>
	</pattern>
	
		<pattern  x="466.967" y="-178.755" width="72" height="72" patternUnits="userSpaceOnUse" id="_x31_0_lpi_60_x25_" viewBox="20 -72 72 72" overflow="visible">
		<g>
			<polygon fill="none" points="20,0 20,-72 92,-72 92,0 			"/>
			<line fill="none" stroke="#000000" stroke-width="4.32" x1="19.75" y1="-3.6" x2="92.25" y2="-3.6"/>
			<line fill="none" stroke="#000000" stroke-width="4.32" x1="19.75" y1="-18" x2="92.25" y2="-18"/>
			<line fill="none" stroke="#000000" stroke-width="4.32" x1="19.75" y1="-32.4" x2="92.25" y2="-32.4"/>
			<line fill="none" stroke="#000000" stroke-width="4.32" x1="19.75" y1="-46.8" x2="92.25" y2="-46.8"/>
			<line fill="none" stroke="#000000" stroke-width="4.32" x1="19.75" y1="-61.2" x2="92.25" y2="-61.2"/>
			<line fill="none" stroke="#000000" stroke-width="4.32" x1="0" y1="-61.2" x2="14" y2="-61.2"/>
			<line fill="none" stroke="#000000" stroke-width="4.32" x1="19.75" y1="-10.8" x2="92.25" y2="-10.8"/>
			<line fill="none" stroke="#000000" stroke-width="4.32" x1="19.75" y1="-25.2" x2="92.25" y2="-25.2"/>
			<line fill="none" stroke="#000000" stroke-width="4.32" x1="19.75" y1="-39.6" x2="92.25" y2="-39.6"/>
			<line fill="none" stroke="#000000" stroke-width="4.32" x1="19.75" y1="-54" x2="92.25" y2="-54"/>
			<line fill="none" stroke="#000000" stroke-width="4.32" x1="19.75" y1="-68.4" x2="92.25" y2="-68.4"/>
			<line fill="none" stroke="#000000" stroke-width="4.32" x1="0" y1="-68.4" x2="14" y2="-68.4"/>
		</g>
	</pattern>
	
		<pattern  x="466.967" y="-178.755" width="48" height="48" patternUnits="userSpaceOnUse" id="_x36__dpi_80_x25_" viewBox="57.6 -60 48 48" overflow="visible">
		<g>
			<polygon fill="none" points="57.6,-12 57.6,-60 105.6,-60 105.6,-12 			"/>
			<path d="M57.6-2.4c5.301,0,9.6-4.298,9.6-9.6c0-5.301-4.299-9.6-9.6-9.6c-5.302,0-9.6,4.299-9.6,9.6
				C48-6.698,52.298-2.4,57.6-2.4z"/>
			<path d="M81.6-2.4c5.301,0,9.6-4.298,9.6-9.6c0-5.301-4.299-9.6-9.6-9.6c-5.302,0-9.6,4.299-9.6,9.6
				C72-6.698,76.298-2.4,81.6-2.4z"/>
			<path d="M105.6-2.4c5.301,0,9.6-4.298,9.6-9.6c0-5.301-4.299-9.6-9.6-9.6c-5.302,0-9.6,4.299-9.6,9.6
				C96-6.698,100.298-2.4,105.6-2.4z"/>
			<path d="M57.6-26.4c5.301,0,9.6-4.298,9.6-9.6c0-5.301-4.299-9.6-9.6-9.6c-5.302,0-9.6,4.299-9.6,9.6
				C48-30.698,52.298-26.4,57.6-26.4z"/>
			<path d="M81.6-26.4c5.301,0,9.6-4.298,9.6-9.6c0-5.301-4.299-9.6-9.6-9.6c-5.302,0-9.6,4.299-9.6,9.6
				C72-30.698,76.298-26.4,81.6-26.4z"/>
			<path d="M105.6-26.4c5.301,0,9.6-4.298,9.6-9.6c0-5.301-4.299-9.6-9.6-9.6c-5.302,0-9.6,4.299-9.6,9.6
				C96-30.698,100.298-26.4,105.6-26.4z"/>
			<path d="M57.6-50.4c5.301,0,9.6-4.298,9.6-9.6c0-5.301-4.299-9.6-9.6-9.6c-5.302,0-9.6,4.299-9.6,9.6
				C48-54.698,52.298-50.4,57.6-50.4z"/>
			<path d="M81.6-50.4c5.301,0,9.6-4.298,9.6-9.6c0-5.301-4.299-9.6-9.6-9.6c-5.302,0-9.6,4.299-9.6,9.6
				C72-54.698,76.298-50.4,81.6-50.4z"/>
			<path d="M105.6-50.4c5.301,0,9.6-4.298,9.6-9.6c0-5.301-4.299-9.6-9.6-9.6c-5.302,0-9.6,4.299-9.6,9.6
				C96-54.698,100.298-50.4,105.6-50.4z"/>
			<path d="M9.6-50.4c5.301,0,9.6-4.298,9.6-9.6c0-5.301-4.299-9.6-9.6-9.6C4.298-69.6,0-65.301,0-60C0-54.698,4.298-50.4,9.6-50.4z
				"/>
			<path d="M9.6-60"/>
			<path d="M117.6-33.6c-5.302,0-9.6,4.299-9.6,9.6c0,5.302,4.298,9.6,9.6,9.6V-33.6z"/>
			<path d="M93.6-14.4c5.301,0,9.6-4.298,9.6-9.6c0-5.301-4.299-9.6-9.6-9.6c-5.302,0-9.6,4.299-9.6,9.6
				C84-18.698,88.298-14.4,93.6-14.4z"/>
			<path d="M69.6-14.4c5.301,0,9.6-4.298,9.6-9.6c0-5.301-4.299-9.6-9.6-9.6c-5.302,0-9.6,4.299-9.6,9.6
				C60-18.698,64.298-14.4,69.6-14.4z"/>
			<path d="M45.6-14.4c5.301,0,9.6-4.298,9.6-9.6c0-5.301-4.299-9.6-9.6-9.6V-14.4z"/>
			<path d="M117.6-57.6c-5.302,0-9.6,4.299-9.6,9.6c0,5.302,4.298,9.6,9.6,9.6V-57.6z"/>
			<path d="M93.6-38.4c5.301,0,9.6-4.298,9.6-9.6c0-5.301-4.299-9.6-9.6-9.6c-5.302,0-9.6,4.299-9.6,9.6
				C84-42.698,88.298-38.4,93.6-38.4z"/>
			<path d="M69.6-38.4c5.301,0,9.6-4.298,9.6-9.6c0-5.301-4.299-9.6-9.6-9.6c-5.302,0-9.6,4.299-9.6,9.6
				C60-42.698,64.298-38.4,69.6-38.4z"/>
			<path d="M45.6-38.4c5.301,0,9.6-4.298,9.6-9.6c0-5.301-4.299-9.6-9.6-9.6V-38.4z"/>
			<path d="M84-72c0,5.302,4.298,9.6,9.6,9.6c5.301,0,9.6-4.298,9.6-9.6H84z"/>
			<path d="M60-72c0,5.302,4.298,9.6,9.6,9.6c5.301,0,9.6-4.298,9.6-9.6H60z"/>
			<path d="M103.2,0c0-5.301-4.299-9.6-9.6-9.6C88.298-9.6,84-5.301,84,0H103.2z"/>
			<path d="M79.2,0c0-5.301-4.299-9.6-9.6-9.6C64.298-9.6,60-5.301,60,0H79.2z"/>
			<path d="M21.6-38.4c5.301,0,9.6-4.298,9.6-9.6c0-5.301-4.299-9.6-9.6-9.6c-5.302,0-9.6,4.299-9.6,9.6
				C12-42.698,16.298-38.4,21.6-38.4z"/>
			<path d="M21.6-48"/>
		</g>
	</pattern>
</defs>
<path display="none" fill="#040000" stroke="#FFFFFF" stroke-width="3" stroke-miterlimit="10" d="M85.099,5
	C40.751,5,5,40.297,5,83.74c0,70.145,80.099,138.475,80.099,138.475s80.099-69.691,80.099-138.475
	C165.197,40.297,129.446,5,85.099,5z"/>
<circle display="none" fill="#FFFFFF" stroke="#000000" stroke-width="3" stroke-miterlimit="10" cx="86.329" cy="89.764" r="50"/>
<path display="none" fill="#FFFFFF" stroke="#000000" stroke-width="3" stroke-miterlimit="10" d="M94.375,92.009
	c-4.292,4.292-3.476,12.063,1.371,16.909c2.949,2.951,6.937,4.164,10.251,4.09c2.911-0.066,4.92,0.115,7.48,2.311l15.673,15.672
	c1.087,1.088,2.851,1.088,3.938,0.002l0.268-0.268c1.087-1.088,1.086-2.852,0-3.939l-15.672-15.672
	c-2.195-2.561-2.376-4.57-2.312-7.48c0.077-3.314-1.138-7.303-4.087-10.254C106.436,88.533,98.664,87.719,94.375,92.009z"/>
<circle display="none" fill="#FFFFFF" stroke="#000000" stroke-width="3" stroke-miterlimit="10" cx="86.329" cy="89.764" r="36.071"/>
<path display="none" fill="url(#_x36__dpi_80_x25_)" stroke="#000000" stroke-width="3" stroke-miterlimit="10" d="M113.567,61.112
	l-55.889,55.89c15.433,15.434,40.456,15.434,55.889,0C129,101.568,129,76.545,113.567,61.112z"/>
<path display="none" fill="#040000" stroke="#FFFFFF" stroke-width="3" stroke-miterlimit="10" d="M85.099,5
	C40.751,5,5,40.297,5,83.74c0,70.145,80.099,138.475,80.099,138.475s80.099-69.691,80.099-138.475
	C165.197,40.297,129.446,5,85.099,5z"/>
<rect x="48.872" y="45.774" transform="matrix(0.7071 -0.7071 0.7071 0.7071 -33.2231 84.5876)" display="none" fill="#FFFFFF" stroke="#000000" stroke-width="3" stroke-miterlimit="10" width="73.25" height="73.249"/>
<polygon display="none" fill="url(#_x31_0_lpi_60_x25_)" stroke="#000000" stroke-width="3" stroke-miterlimit="10" points="
	125.34,82.398 85.496,122.242 45.651,82.398 85.496,42.554 "/>
<circle display="none" fill="none" stroke="#FFFFFF" stroke-width="3" stroke-miterlimit="10" cx="51.651" cy="140.717" r="13.693"/>
<polygon display="none" fill="#FFFFFF" stroke="#000000" stroke-width="2" stroke-miterlimit="10" points="73.005,152.393 
	73.005,149.092 143.119,147.654 143.118,153.426 "/>
<polygon display="none" fill="#FFFFFF" stroke="#000000" stroke-width="2" stroke-miterlimit="10" points="73.005,145.455 
	73.005,142.154 143.118,140.717 143.118,146.488 "/>
<path display="none" fill="#040000" stroke="#FFFFFF" stroke-width="3" stroke-miterlimit="10" d="M85.099,5
	C40.751,5,5,40.297,5,83.74c0,70.145,80.099,138.475,80.099,138.475s80.099-69.691,80.099-138.475
	C165.197,40.297,129.446,5,85.099,5z"/>
<circle display="none" fill="#FFFFFF" stroke="#000000" stroke-width="3" stroke-miterlimit="10" cx="85.098" cy="83.463" r="50"/>
<polygon display="none" fill="url(#_x31_0_lpi_60_x25_)" stroke="#000000" stroke-width="3" stroke-miterlimit="10" points="
	124.943,84.938 85.099,124.782 45.254,84.938 85.099,45.094 "/>
<path display="none" fill-rule="evenodd" clip-rule="evenodd" d="M119.681,70.493c1.103-0.899,8.022-4.396,9.108-1.071
	c1.088,3.334-7.344,6.879-8.573,8.572c-0.782,2.238-0.784,4.861-1.607,6.964c-0.217,0.554-1.429,1.126-2.143,2.411
	c-0.356,0.643-0.158,1.581-0.536,2.143c-0.426,0.633-1.493,0.952-1.875,1.607c-1.198,2.06-1.25,4.683-4.554,4.821
	c-1.209,1.381-2.326,2.854-4.554,3.216c-1.337,1.61-3.315,4.003-6.429,2.945c-1.154,0.712-1.308,1.574-2.678,2.144
	c-0.937,0.389-2.173-0.039-3.214,0.269c-1.927,0.567-3.301,3.338-6.697,1.875c-1.562,1.407-4.708,2.584-6.965,1.07
	c-3.723,0.805-6.912-1.022-7.232-4.554c-0.344-3.789-0.978-9.204,2.947-10.447c0.314-3.258,3.076-5.494,6.696-4.553
	c1.357-1.447,3.439-2.864,6.162-2.144c2.894-1.302,5.917-2.476,9.375-3.215c3.229-1.413,4.821-4.465,8.572-5.357
	c1.03-2.63,4.099-3.223,7.233-3.75c1.584-3.053,1.066-11.455,4.553-10.982C119.544,62.766,120.933,67.064,119.681,70.493z"/>
<path display="none" fill-rule="evenodd" clip-rule="evenodd" fill="#FFFFFF" d="M117.538,77.727
	c-0.634-3.755-4.905-1.025-8.572-0.805c-0.868,0.74-0.788,2.428-1.875,2.947c-0.715,0-1.429,0-2.143,0
	c-1.245,0.54-1.428,2.144-2.41,2.946c-2.563-0.331-2.681,1.784-4.286,2.41c-2.823-0.589-3.395,1.07-4.822,1.876
	c-2.558-0.906-3.678,0.863-5.089,1.875c-1.018-0.144-1.485-0.837-2.679-0.804c-1.63,0.334-1.97,1.958-3.214,2.679
	c-2.916-1.487-5.67,0.146-5.358,3.482c-1.279,0.642-2.632,1.021-2.946,2.143c-0.362,1.297,0.791,2.284,0.804,3.75
	c0.019,2.193-0.949,4.327,1.607,4.822c0.943,0.183,1.586-0.681,2.678-0.535c0.965,0.127,1.825,1.155,2.679,1.071
	c1.495-0.147,1.887-1.743,3.214-2.411c2.503,1.878,4.871-0.004,6.161-1.607c3.053,1.387,4.519-0.679,5.894-2.41
	c1.411-0.072,1.817,0.86,3.482,0.535c1.753-1.104,1.791-3.924,5.089-3.482c1.103-1.487,1.754-3.426,4.554-3.215
	c1.644-3.446,3.698-6.481,5.894-9.375C115.036,80.446,117.999,80.46,117.538,77.727z"/>
<path display="none" fill-rule="evenodd" clip-rule="evenodd" d="M99.4,55.681c1.056-0.86,7.673-4.204,8.711-1.024
	c1.041,3.188-7.024,6.579-8.199,8.198c-0.748,2.142-0.749,4.65-1.537,6.661c-0.208,0.529-1.366,1.077-2.049,2.306
	c-0.341,0.615-0.151,1.513-0.513,2.05c-0.407,0.605-1.429,0.911-1.793,1.537c-1.146,1.97-1.195,4.479-4.356,4.611
	c-1.156,1.321-2.225,2.729-4.355,3.075c-1.279,1.541-3.17,3.83-6.149,2.818c-1.104,0.681-1.251,1.505-2.562,2.05
	c-0.896,0.372-2.078-0.038-3.075,0.256c-1.843,0.544-3.157,3.193-6.405,1.794c-1.495,1.347-4.503,2.472-6.662,1.024
	c-3.561,0.77-6.611-0.978-6.917-4.355c-0.329-3.625-0.936-8.804,2.818-9.992c0.301-3.116,2.942-5.255,6.405-4.355
	c1.298-1.384,3.289-2.739,5.893-2.05c2.769-1.245,5.66-2.367,8.967-3.074c3.089-1.353,4.611-4.271,8.199-5.124
	c0.985-2.517,3.92-3.083,6.918-3.587c1.516-2.921,1.02-10.957,4.355-10.505C99.27,48.289,100.598,52.4,99.4,55.681z"/>
<path display="none" fill-rule="evenodd" clip-rule="evenodd" fill="#FFFFFF" d="M97.351,62.599c-0.606-3.592-4.691-0.98-8.199-0.77
	c-0.83,0.708-0.753,2.321-1.794,2.818c-0.683,0-1.366,0-2.049,0c-1.191,0.518-1.366,2.051-2.306,2.818
	c-2.452-0.316-2.564,1.707-4.1,2.306c-2.699-0.563-3.247,1.023-4.612,1.794c-2.446-0.866-3.519,0.826-4.868,1.793
	c-0.974-0.137-1.421-0.8-2.562-0.769c-1.559,0.32-1.884,1.874-3.074,2.562c-2.79-1.423-5.423,0.139-5.125,3.331
	c-1.224,0.613-2.518,0.976-2.818,2.05c-0.347,1.24,0.756,2.184,0.769,3.586c0.019,2.098-0.907,4.139,1.537,4.612
	c0.902,0.175,1.517-0.65,2.562-0.513c0.923,0.122,1.746,1.105,2.562,1.025c1.429-0.142,1.805-1.667,3.075-2.307
	c2.394,1.797,4.658-0.003,5.893-1.537c2.92,1.326,4.321-0.648,5.636-2.306c1.35-0.068,1.738,0.824,3.331,0.513
	c1.677-1.057,1.713-3.754,4.868-3.331c1.055-1.423,1.678-3.276,4.356-3.074c1.572-3.297,3.537-6.199,5.637-8.968
	C94.958,65.199,97.792,65.213,97.351,62.599z"/>
<polygon display="none" fill="#FFFFFF" stroke="#000000" stroke-width="2" stroke-miterlimit="10" points="47.474,151.838 
	47.474,148.537 117.587,147.1 117.586,152.871 "/>
<polygon display="none" fill="#FFFFFF" stroke="#000000" stroke-width="2" stroke-miterlimit="10" points="47.474,144.9 
	47.474,141.6 117.586,140.16 117.586,145.934 "/>
<path display="none" fill="#040000" stroke="#FFFFFF" stroke-width="3" stroke-miterlimit="10" d="M85.099,5
	C40.751,5,5,40.297,5,83.74c0,70.145,80.099,138.475,80.099,138.475s80.099-69.691,80.099-138.475
	C165.197,40.297,129.446,5,85.099,5z"/>
<circle display="none" fill="#FFFFFF" stroke="#000000" stroke-width="3" stroke-miterlimit="10" cx="84.931" cy="88.139" r="55.223"/>
<circle display="none" fill="#FFFFFF" stroke="#000000" stroke-width="3" stroke-miterlimit="10" cx="84.931" cy="88.139" r="39.838"/>
<path display="none" fill="url(#_x31_0_dpi_40_x25_)" stroke="#000000" stroke-width="3" stroke-miterlimit="10" d="M84.583,73.188
	c-2.612,2.61-4.354,5.763-5.237,9.096c-3.335,0.885-6.485,2.626-9.098,5.238c-7.917,7.917-7.892,20.777,0.056,28.727
	c7.947,7.947,20.809,7.973,28.725,0.056c2.612-2.612,4.354-5.764,5.238-9.098c3.335-0.885,6.485-2.626,9.098-5.237
	c7.917-7.917,7.892-20.778-0.056-28.727S92.499,65.27,84.583,73.188z"/>
<rect x="59.935" y="52.289" transform="matrix(0.707 0.7072 -0.7072 0.707 66.2534 -24.4907)" display="none" stroke="#000000" stroke-width="3" stroke-miterlimit="10" width="5.499" height="30.852"/>
<rect x="73.891" y="49.3" transform="matrix(0.707 0.7072 -0.7072 0.707 68.2279 -35.2363)" display="none" stroke="#000000" stroke-width="3" stroke-miterlimit="10" width="5.499" height="30.851"/>
<rect x="64.696" y="67.376" transform="matrix(0.707 0.7072 -0.7072 0.707 78.3172 -23.4374)" display="none" stroke="#000000" stroke-width="3" stroke-miterlimit="10" width="5.499" height="30.851"/>
<path display="none" fill="#FFFFFF" stroke="#000000" stroke-width="3" stroke-miterlimit="10" d="M108.902,95.543l8.697,8.697
	c0.555,0.556,0.556,1.457,0.001,2.012l-0.27,0.27c-0.555,0.555-1.456,0.556-2.013-0.001l-8.736-8.736
	c-1.433-1.434-2.826-0.899-3.751,0.026c-0.925,0.925-1.46,2.318-0.027,3.752l8.737,8.736c0.556,0.557,0.556,1.458,0,2.014
	l-0.269,0.269c-0.555,0.555-1.456,0.554-2.011-0.002l-8.698-8.697c-2.566-2.565-6.136,1.18-3.628,3.687
	c3,3.002,8.305,8.305,8.305,8.305c4.593,4.63,6.892,4.725,10.149,4.343c2.624-0.308,4.539-0.901,7.413,1.974l16.426,16.426
	c1.139,1.139,2.985,1.14,4.126-0.001l0.28-0.28c1.139-1.139,1.139-2.988,0-4.127l-16.424-16.425
	c-2.875-2.874-2.284-4.788-1.976-7.412c0.383-3.258,0.289-5.557-4.341-10.15c0,0-5.304-5.304-8.305-8.306
	C110.08,89.407,106.335,92.978,108.902,95.543z"/>
<path display="none" fill="#040000" stroke="#FFFFFF" stroke-width="3" stroke-miterlimit="10" d="M85.099,5
	C40.751,5,5,40.297,5,83.74c0,70.145,80.099,138.475,80.099,138.475s80.099-69.691,80.099-138.475
	C165.197,40.297,129.446,5,85.099,5z"/>
<circle display="none" fill="#FFFFFF" stroke="#000000" stroke-width="3" stroke-miterlimit="10" cx="85.437" cy="89.575" r="49.269"/>
<path display="none" fill="none" stroke="#000000" stroke-width="3" stroke-miterlimit="10" d="M115.178,117.271l0.36,0.36
	c1.183-1.269,2.284-2.612,3.302-4.023l-3.486,3.486L115.178,117.271z"/>
<path display="none" fill="none" stroke="#000000" stroke-width="3" stroke-miterlimit="10" d="M99.904,101.997l5.091,5.091
	l0.177-0.177l21.234-21.233c-0.275-2.926-0.853-5.762-1.707-8.476L100.08,101.82L99.904,101.997z"/>
<path display="none" fill="none" stroke="#000000" stroke-width="3" stroke-miterlimit="10" d="M112.646,58.707l-27.84,27.839
	l-0.177,0.177l-0.177,0.177l-29.885,29.885c1.592,1.804,3.337,3.464,5.217,4.966l29.76-29.759l0.176-0.177l0.178-0.177
	l27.713-27.714C116.11,62.043,114.449,60.298,112.646,58.707z"/>
<path display="none" fill="none" stroke="#000000" stroke-width="3" stroke-miterlimit="10" d="M104.995,107.088l-5.091-5.091
	l-0.178,0.177l-26.662,26.662c2.714,0.855,5.551,1.432,8.475,1.707l23.279-23.278L104.995,107.088z"/>
<path display="none" fill="none" stroke="#000000" stroke-width="3" stroke-miterlimit="10" d="M89.898,91.638l-0.178,0.177
	l-0.176,0.177l-29.76,29.759c1.912,1.525,3.955,2.891,6.122,4.061l28.729-28.729l0.177-0.177l0.177-0.177l26.683-26.683
	c-1.17-2.167-2.534-4.212-4.061-6.122L89.898,91.638z"/>
<path display="none" fill="none" stroke="#000000" stroke-width="3" stroke-miterlimit="10" d="M94.989,96.729l-0.177,0.177
	l-0.177,0.177l-28.729,28.729c2.267,1.225,4.659,2.24,7.157,3.025l26.662-26.662l0.178-0.177l0.176-0.177l24.619-24.618
	c-0.786-2.497-1.803-4.891-3.027-7.156L94.989,96.729z"/>
<path display="none" fill="none" stroke="#000000" stroke-width="3" stroke-miterlimit="10" d="M105.172,106.911l-0.177,0.177
	l-0.177,0.177l-23.279,23.278c1.284,0.121,2.583,0.189,3.898,0.189c2.259,0,4.474-0.189,6.635-0.539l17.837-17.838l0.177-0.177
	l0.177-0.177l15.792-15.792c0.351-2.161,0.54-4.376,0.54-6.635c0-1.315-0.068-2.614-0.188-3.897L105.172,106.911z"/>
<path display="none" fill="none" stroke="#000000" stroke-width="3" stroke-miterlimit="10" d="M57.381,59.474
	c-3.903,3.64-7.094,8.027-9.351,12.938l10.968-10.967l0.176-0.177l0.178-0.177l8.922-8.922
	C64.251,54.017,60.578,56.491,57.381,59.474z"/>
<path display="none" fill="none" stroke="#000000" stroke-width="3" stroke-miterlimit="10" d="M110.263,112.002l-0.177,0.177
	l-0.177,0.177l-17.837,17.838c6.42-1.041,12.338-3.568,17.398-7.216l5.529-5.53l0.178-0.177l0.176-0.177l3.486-3.486
	c3.646-5.06,6.174-10.978,7.215-17.397L110.263,112.002z"/>
<path display="none" fill="none" stroke="#000000" stroke-width="3" stroke-miterlimit="10" d="M115.538,117.631l-0.36-0.36
	L115,117.447l-5.529,5.53C111.664,121.396,113.697,119.605,115.538,117.631z"/>
<path display="none" fill="none" stroke="#000000" stroke-width="3" stroke-miterlimit="10" d="M106.789,54.383L79.717,81.456
	l-0.178,0.177l-0.176,0.177l-29.119,29.118c1.267,2.082,2.721,4.038,4.324,5.856l29.885-29.885l0.177-0.177l0.177-0.177
	l27.84-27.839C110.827,57.103,108.873,55.649,106.789,54.383z"/>
<path display="none" fill="none" stroke="#000000" stroke-width="3" stroke-miterlimit="10" d="M68.273,52.169l-8.922,8.922
	l-0.178,0.177l-0.176,0.177L48.03,72.411c-1.956,4.254-3.204,8.897-3.603,13.785l19.661-19.661l0.177-0.177l0.177-0.177
	l17.615-17.615C77.171,48.964,72.527,50.213,68.273,52.169z"/>
<path display="none" fill="none" stroke="#000000" stroke-width="3" stroke-miterlimit="10" d="M87.253,48.463
	c-0.603-0.026-1.208-0.046-1.816-0.046c-1.139,0-2.264,0.059-3.379,0.149L64.442,66.182l-0.177,0.177l-0.177,0.177L44.428,86.196
	c-0.09,1.115-0.148,2.24-0.148,3.379c-0.001,0.608,0.02,1.214,0.045,1.816c0.068,1.567,0.222,3.112,0.461,4.63l10.43-10.43
	l9.899-9.899l4.065-4.065l0.178-0.177l0.176-0.177l22.351-22.351C90.365,48.685,88.82,48.531,87.253,48.463z"/>
<path display="none" fill="none" stroke="#000000" stroke-width="3" stroke-miterlimit="10" d="M99.938,51.053L74.625,76.364
	l-0.177,0.177l-0.177,0.177l-4.066,4.066l-9.898,9.899l-13.393,13.392c0.902,2.397,2.017,4.691,3.33,6.853L79.363,81.81l0.176-0.177
	l0.178-0.177l27.072-27.073C104.629,53.068,102.334,51.955,99.938,51.053z"/>
<path display="none" fill="none" stroke="#000000" stroke-width="3" stroke-miterlimit="10" d="M91.884,48.923L69.533,71.273
	l-0.176,0.177l-0.178,0.177l-4.065,4.065l-9.899,9.899l-10.43,10.43c0.438,2.788,1.16,5.481,2.129,8.054l13.393-13.392l9.898-9.899
	l4.066-4.066l0.177-0.177l0.177-0.177l25.312-25.312C97.364,50.083,94.672,49.362,91.884,48.923z"/>
<polygon display="none" fill="#FFFFFF" stroke="#000000" stroke-width="3" stroke-miterlimit="10" points="99.383,101.698 
	102.39,98.691 135.362,129.047 130.107,134.303 "/>
<polygon display="none" fill="#FFFFFF" stroke="#000000" stroke-width="3" stroke-miterlimit="10" points="108.051,93.031 
	111.057,90.024 144.029,120.381 138.774,125.635 "/>
<circle display="none" fill="#FFFFFF" stroke="#000000" stroke-width="3" stroke-miterlimit="10" cx="85.09" cy="89.688" r="24.697"/>
<path display="none" fill="#040000" stroke="#FFFFFF" stroke-width="3" stroke-miterlimit="10" d="M85.1,5
	C40.752,5,5,40.297,5,83.74c0,70.145,80.1,138.475,80.1,138.475s80.098-69.691,80.098-138.475C165.197,40.297,129.447,5,85.1,5z"/>
<circle display="none" fill="#FFFFFF" stroke="#000000" stroke-width="3" stroke-miterlimit="10" cx="85.101" cy="89.471" r="49.269"/>
<path display="none" fill="none" stroke="#000000" stroke-width="3" stroke-miterlimit="10" d="M114.842,117.166l0.359,0.361
	c1.184-1.27,2.285-2.613,3.303-4.024l-3.486,3.485L114.842,117.166z"/>
<path display="none" fill="none" stroke="#000000" stroke-width="3" stroke-miterlimit="10" d="M99.568,101.893l5.09,5.091
	l0.178-0.177l21.234-21.234c-0.275-2.925-0.854-5.761-1.707-8.475l-24.619,24.617L99.568,101.893z"/>
<path display="none" fill="none" stroke="#000000" stroke-width="3" stroke-miterlimit="10" d="M112.311,58.602l-27.84,27.84
	l-0.178,0.177l-0.176,0.177L54.232,116.68c1.592,1.803,3.336,3.465,5.217,4.965l29.76-29.758l0.176-0.178l0.178-0.176l27.713-27.715
	C115.773,61.938,114.113,60.193,112.311,58.602z"/>
<path display="none" fill="none" stroke="#000000" stroke-width="3" stroke-miterlimit="10" d="M104.658,106.983l-5.09-5.091
	l-0.178,0.176l-26.662,26.664c2.713,0.855,5.551,1.432,8.475,1.707l23.279-23.279L104.658,106.983z"/>
<path display="none" fill="none" stroke="#000000" stroke-width="3" stroke-miterlimit="10" d="M89.562,91.533l-0.178,0.176
	l-0.176,0.178l-29.76,29.758c1.912,1.525,3.955,2.891,6.121,4.062l28.729-28.729l0.178-0.177l0.176-0.177l26.684-26.683
	c-1.17-2.168-2.535-4.212-4.061-6.123L89.562,91.533z"/>
<path display="none" fill="none" stroke="#000000" stroke-width="3" stroke-miterlimit="10" d="M94.652,96.624l-0.176,0.177
	l-0.178,0.177L65.57,125.707c2.268,1.223,4.66,2.238,7.158,3.025l26.662-26.664l0.178-0.176l0.176-0.178l24.619-24.617
	c-0.787-2.497-1.803-4.891-3.027-7.156L94.652,96.624z"/>
<path display="none" fill="none" stroke="#000000" stroke-width="3" stroke-miterlimit="10" d="M104.836,106.807l-0.178,0.177
	l-0.176,0.177l-23.279,23.279c1.283,0.121,2.582,0.189,3.898,0.189c2.258,0,4.473-0.189,6.635-0.541l17.836-17.837l0.178-0.177
	l0.176-0.177l15.793-15.792c0.35-2.161,0.539-4.376,0.539-6.635c0-1.315-0.068-2.614-0.188-3.898L104.836,106.807z"/>
<path display="none" fill="none" stroke="#000000" stroke-width="3" stroke-miterlimit="10" d="M57.045,59.369
	c-3.904,3.64-7.094,8.027-9.352,12.938L58.662,61.34l0.176-0.178l0.178-0.176l8.922-8.922
	C63.914,53.912,60.242,56.387,57.045,59.369z"/>
<path display="none" fill="none" stroke="#000000" stroke-width="3" stroke-miterlimit="10" d="M109.926,111.897l-0.176,0.177
	l-0.178,0.177l-17.836,17.837c6.42-1.041,12.338-3.568,17.398-7.215l5.529-5.531l0.178-0.176l0.176-0.178l3.486-3.485
	c3.646-5.06,6.174-10.978,7.215-17.397L109.926,111.897z"/>
<path display="none" fill="none" stroke="#000000" stroke-width="3" stroke-miterlimit="10" d="M115.201,117.527l-0.359-0.361
	l-0.178,0.176l-5.529,5.531C111.328,121.291,113.361,119.5,115.201,117.527z"/>
<path display="none" fill="none" stroke="#000000" stroke-width="3" stroke-miterlimit="10" d="M106.453,54.277L79.381,81.352
	l-0.178,0.176l-0.176,0.178l-29.119,29.117c1.266,2.083,2.721,4.039,4.324,5.857l29.885-29.885l0.176-0.177l0.178-0.177l27.84-27.84
	C110.49,56.998,108.537,55.545,106.453,54.277z"/>
<path display="none" fill="none" stroke="#000000" stroke-width="3" stroke-miterlimit="10" d="M67.938,52.064l-8.922,8.922
	l-0.178,0.176l-0.176,0.178L47.693,72.307c-1.955,4.254-3.203,8.897-3.602,13.785l19.66-19.661l0.178-0.177l0.176-0.177
	l17.615-17.615C76.834,48.859,72.191,50.107,67.938,52.064z"/>
<path display="none" fill="none" stroke="#000000" stroke-width="3" stroke-miterlimit="10" d="M86.916,48.358
	c-0.602-0.026-1.207-0.046-1.816-0.046c-1.139,0-2.264,0.059-3.379,0.149L64.105,66.077l-0.176,0.177l-0.178,0.177l-19.66,19.661
	c-0.09,1.115-0.148,2.24-0.148,3.379c-0.002,0.608,0.02,1.213,0.045,1.816c0.068,1.566,0.221,3.112,0.461,4.63l10.43-10.43
	l9.898-9.899l4.066-4.066l0.178-0.176l0.176-0.178l22.35-22.35C90.029,48.58,88.484,48.427,86.916,48.358z"/>
<path display="none" fill="none" stroke="#000000" stroke-width="3" stroke-miterlimit="10" d="M99.602,50.947L74.289,76.26
	l-0.178,0.177l-0.176,0.177l-4.066,4.066l-9.898,9.898l-13.393,13.393c0.902,2.396,2.016,4.691,3.33,6.852l29.119-29.117
	l0.176-0.178l0.178-0.176l27.072-27.074C104.293,52.964,101.998,51.85,99.602,50.947z"/>
<path display="none" fill="none" stroke="#000000" stroke-width="3" stroke-miterlimit="10" d="M91.547,48.818l-22.35,22.35
	l-0.176,0.178l-0.178,0.176l-4.066,4.066l-9.898,9.899l-10.43,10.43c0.438,2.788,1.16,5.481,2.129,8.054l13.393-13.393l9.898-9.898
	l4.066-4.066l0.176-0.177l0.178-0.177l25.312-25.312C97.027,49.979,94.336,49.258,91.547,48.818z"/>
<path display="none" fill="#FFFFFF" stroke="#000000" stroke-width="3" stroke-miterlimit="10" d="M76.487,56.311
	c-1.926,1.926-3.21,4.249-3.861,6.707c-2.459,0.652-4.781,1.936-6.707,3.861c-5.837,5.837-5.818,15.318,0.041,21.178
	c5.859,5.86,15.342,5.879,21.178,0.042c1.926-1.926,3.21-4.249,3.861-6.708c2.459-0.65,4.781-1.936,6.707-3.86
	c5.837-5.837,5.818-15.319-0.041-21.179S82.323,50.475,76.487,56.311z"/>
<rect x="48.87" y="45.939" transform="matrix(0.7071 0.7071 -0.7071 0.7071 59.8536 -27.3421)" display="none" stroke="#000000" stroke-width="3" stroke-miterlimit="10" width="28.124" height="25.278"/>
<rect x="42.967" y="65.951" transform="matrix(0.7071 0.7071 -0.7071 0.7071 72.2774 -17.3073)" display="none" stroke="#000000" stroke-width="3" stroke-miterlimit="10" width="28.126" height="25.278"/>
<ellipse transform="matrix(-0.7071 -0.7071 0.7071 -0.7071 118.9966 195.6999)" display="none" fill="#FFFFFF" stroke="#000000" stroke-width="3" stroke-miterlimit="10" cx="100.031" cy="73.204" rx="9.149" ry="13.592"/>
<ellipse transform="matrix(-0.7071 -0.7071 0.7071 -0.7071 119.0014 195.7012)" display="none" stroke="#000000" stroke-width="3" stroke-miterlimit="10" cx="100.032" cy="73.205" rx="3.659" ry="5.437"/>
<polygon display="none" fill="#FFFFFF" stroke="#000000" stroke-width="3" stroke-miterlimit="10" points="99.047,101.594 
	102.053,98.587 135.025,128.943 129.771,134.197 "/>
<polygon display="none" fill="#FFFFFF" stroke="#000000" stroke-width="3" stroke-miterlimit="10" points="107.715,92.926 
	110.721,89.92 143.693,120.275 138.438,125.531 "/>
<g>
	<path fill="#C2335E" d="M83.476,224.117c-0.202-0.173-20.452-17.548-40.403-43.305C24.564,156.919,2.5,120.681,2.5,83.74
		C2.5,38.944,39.554,2.5,85.099,2.5s82.599,36.444,82.599,81.24c0,36.234-22.061,72.507-40.568,96.556
		c-19.946,25.919-40.188,43.629-40.39,43.805l-1.625,1.414L83.476,224.117z"/>
	<path fill="#FFFFFF" d="M85.099,5c44.348,0,80.099,35.297,80.099,78.74c0,68.783-80.099,138.475-80.099,138.475S5,153.885,5,83.74
		C5,40.297,40.751,5,85.099,5 M85.099,0C62.347,0,40.972,8.707,24.912,24.516C8.847,40.329,0,61.362,0,83.74
		c0,16.729,4.366,34.669,12.976,53.324c6.802,14.737,16.263,29.972,28.121,45.279c20.109,25.96,39.923,42.964,40.757,43.675
		l3.277,2.796l3.25-2.827c0.833-0.726,20.632-18.051,40.73-44.167c11.852-15.4,21.309-30.649,28.108-45.323
		c8.612-18.586,12.979-36.336,12.979-52.757c0-22.378-8.847-43.412-24.912-59.225C129.226,8.707,107.851,0,85.099,0L85.099,0z"/>
</g>
<circle fill="#94325A" cx="86.329" cy="89.764" r="50"/>
<text transform="matrix(1 0 0 1 19.0938 99.5083)"><tspan x="0" y="0" fill="#FFFFFF" font-family="'Arvo-Bold'" font-size="39.1124" letter-spacing="-1">G</tspan><tspan x="29.289" y="0" fill="#FFFFFF" font-family="'Arvo-Bold'" font-size="39.1124">o</tspan><tspan x="52.087" y="0" fill="#FFFFFF" font-family="'Arvo'" font-size="39.1124" letter-spacing="-1">Con</tspan></text>
<text transform="matrix(1 0 0 1 136.9893 80.21)" fill="#FFFFFF" font-family="'Arvo'" font-size="17.9265">‘19</text>
</svg>
